<?xml version="1.0" encoding="UTF-8"?>
<svg width="345px" height="131px" viewBox="0 0 345 131" version="1.1" xmlns="http://www.w3.org/2000/svg" xmlns:xlink="http://www.w3.org/1999/xlink">
    <!-- Generator: Sketch 53 (72520) - https://sketchapp.com -->
    <title>logo Tianguis</title>
    <desc>Created with Sketch.</desc>
    <defs>
        <path d="M0,65.4215198 C0,101.553116 29.2899238,130.84304 65.4215198,130.84304 L65.4215198,130.84304 C101.552722,130.84304 130.84304,101.553116 130.84304,65.4215198 L130.84304,65.4215198 C130.84304,29.2899238 101.552722,0 65.4215198,0 L65.4215198,0 C29.2899238,0 0,29.2899238 0,65.4215198 L0,65.4215198 Z" id="path-1"></path>
    </defs>
    <g id="Page-1" stroke="none" stroke-width="1" fill="none" fill-rule="evenodd">
        <g id="Tianguis01" transform="translate(-82.000000, -159.000000)">
            <g id="logo-Tianguis" transform="translate(82.000000, 159.000000)">
                <path d="M176.756953,33.5560217 L166.809138,33.5560217 L166.809138,59.6164957 L159.61682,59.6164957 L159.61682,33.5560217 L149.669005,33.5560217 L149.669005,26.9241448 L176.756953,26.9241448 L176.756953,33.5560217 Z M188.666309,31.8279975 L181.193772,31.8279975 L181.193772,25.5230441 L188.666309,25.5230441 L188.666309,31.8279975 Z M188.479496,59.6164957 L181.380585,59.6164957 L181.380585,34.5834956 L188.479496,34.5834956 L188.479496,59.6164957 Z M216.688324,59.6164957 L209.822931,59.6164957 L209.822931,56.9077009 C208.95113,57.8729085 207.908099,58.6435062 206.693806,59.2195172 C205.479512,59.7955281 204.000587,60.0835293 202.256987,60.0835293 C201.073829,60.0835293 199.960743,59.9200692 198.917696,59.593144 C197.87465,59.2662189 196.963943,58.7758385 196.18555,58.1219882 C195.407157,57.4681379 194.792235,56.666405 194.340767,55.7167653 C193.889299,54.7671256 193.663569,53.6696076 193.663569,52.4241785 L193.663569,52.3307718 C193.663569,50.9607998 193.912651,49.7776598 194.410822,48.7813166 C194.908994,47.7849733 195.601754,46.9598888 196.489122,46.3060386 C197.37649,45.6521883 198.435089,45.1618079 199.66495,44.8348828 C200.894811,44.5079576 202.256979,44.3444975 203.751494,44.3444975 C205.028059,44.3444975 206.141145,44.4379033 207.090784,44.6247177 C208.040424,44.811532 208.966698,45.0606141 209.869634,45.3719714 L209.869634,44.9516412 C209.869634,43.4571262 209.418173,42.3206892 208.515237,41.542296 C207.612301,40.7639028 206.273484,40.374712 204.498748,40.374712 C203.128776,40.374712 201.922284,40.4914693 200.879238,40.7249872 C199.836191,40.9585052 198.738673,41.2932092 197.586651,41.7291094 L195.811923,36.3115199 C197.181895,35.719941 198.614117,35.2373445 200.108632,34.8637157 C201.603147,34.490087 203.408992,34.3032754 205.526222,34.3032754 C209.418188,34.3032754 212.251496,35.2529009 214.026233,37.1521803 C215.800969,39.0514597 216.688324,41.6979569 216.688324,45.0917512 L216.688324,59.6164957 Z M209.963041,50.789561 L209.963041,49.5285703 C209.340326,49.2483487 208.647567,49.0226181 207.884741,48.8513716 C207.121916,48.6801251 206.304615,48.5945031 205.432815,48.5945031 C203.907164,48.5945031 202.708457,48.8902881 201.836656,49.4818669 C200.964856,50.0734458 200.528962,50.9296654 200.528962,52.0505516 L200.528962,52.1439584 C200.528962,53.1091659 200.887018,53.8564122 201.60314,54.3857196 C202.319261,54.9150269 203.253319,55.1796767 204.405341,55.1796767 C206.08667,55.1796767 207.43327,54.7749183 208.445182,53.9653893 C209.457093,53.1558604 209.963041,52.0972615 209.963041,50.789561 Z M245.737813,59.6164957 L238.638903,59.6164957 L238.638903,45.6521915 C238.638903,43.9708622 238.26528,42.7021003 237.518022,41.8458678 C236.770765,40.9896353 235.712166,40.5615255 234.342194,40.5615255 C232.972222,40.5615255 231.890271,40.9896353 231.09631,41.8458678 C230.302349,42.7021003 229.905375,43.9708622 229.905375,45.6521915 L229.905375,59.6164957 L222.806464,59.6164957 L222.806464,34.5834956 L229.905375,34.5834956 L229.905375,38.1329508 C230.310139,37.6036435 230.753817,37.0976955 231.236421,36.6150917 C231.719024,36.1324879 232.256108,35.7043781 232.847686,35.3307493 C233.439265,34.9571206 234.093106,34.6613356 234.809227,34.4433855 C235.525349,34.2254354 236.334866,34.116462 237.237802,34.116462 C239.94661,34.116462 242.040457,34.9415464 243.519404,36.59174 C244.998351,38.2419336 245.737813,40.5148076 245.737813,43.4104303 L245.737813,59.6164957 Z M277.075767,53.9653893 C277.075767,56.3317047 276.787766,58.3477128 276.211755,60.0134743 C275.635744,61.6792357 274.763956,63.0414034 273.596367,64.1000181 C272.428777,65.1586329 270.973203,65.9370144 269.229603,66.435186 C267.486002,66.9333577 265.446642,67.1824398 263.111463,67.1824398 C261.056505,67.1824398 259.094983,66.9567091 257.226839,66.5052411 C255.358696,66.053773 253.630689,65.4077164 252.042767,64.5670517 L254.471341,59.2428688 C255.779042,59.9589906 257.094507,60.5194253 258.417775,60.9241897 C259.741044,61.3289542 261.24332,61.5313334 262.924649,61.5313334 C265.353236,61.5313334 267.151297,60.9553311 268.318887,59.8033091 C269.486477,58.6512872 270.070263,56.9544155 270.070263,54.7126431 L270.070263,53.4983558 C269.011648,54.7749206 267.859644,55.7712489 266.614215,56.4873707 C265.368785,57.2034924 263.796455,57.5615479 261.897175,57.5615479 C260.433796,57.5615479 259.032709,57.304682 257.693873,56.7909425 C256.355037,56.277203 255.171897,55.5221729 254.144418,54.5258296 C253.116939,53.5294863 252.299638,52.3074274 251.692491,50.859616 C251.085345,49.4118047 250.781776,47.753852 250.781776,45.8857083 L250.781776,45.7923016 C250.781776,43.9241579 251.093129,42.2662053 251.715843,40.8183939 C252.338558,39.3705826 253.163642,38.1485236 254.191121,37.1521803 C255.2186,36.155837 256.40174,35.4008069 257.740576,34.8870674 C259.079413,34.3733279 260.464932,34.116462 261.897175,34.116462 C263.82759,34.116462 265.415489,34.4745175 266.660918,35.1906393 C267.906347,35.906761 269.011649,36.7941159 269.976856,37.8527307 L269.976856,34.5834956 L277.075767,34.5834956 L277.075767,53.9653893 Z M270.070263,45.8857083 L270.070263,45.7923016 C270.070263,44.951637 269.914587,44.1732554 269.603229,43.4571337 C269.291872,42.741012 268.863762,42.1260905 268.318887,41.612351 C267.774012,41.0986115 267.127955,40.7016369 266.380698,40.4214154 C265.63344,40.1411938 264.823923,40.0010852 263.952123,40.0010852 C263.080323,40.0010852 262.27859,40.1411938 261.5469,40.4214154 C260.815211,40.7016369 260.176938,41.0986115 259.632062,41.612351 C259.087187,42.1260905 258.659077,42.741012 258.34772,43.4571337 C258.036363,44.1732554 257.880686,44.951637 257.880686,45.7923016 L257.880686,45.8857083 C257.880686,47.6293091 258.456689,49.0303958 259.608711,50.0890106 C260.760733,51.1476253 262.208522,51.6769248 263.952123,51.6769248 C264.823923,51.6769248 265.63344,51.5368161 266.380698,51.2565945 C267.127955,50.976373 267.774012,50.5793984 268.318887,50.0656589 C268.863762,49.5519194 269.291872,48.936998 269.603229,48.2208763 C269.914587,47.5047545 270.070263,46.726373 270.070263,45.8857083 Z M306.171959,59.6164957 L299.073049,59.6164957 L299.073049,56.0670405 C298.668284,56.5963478 298.224607,57.1022958 297.742003,57.5848996 C297.259399,58.0675034 296.722316,58.4956132 296.130737,58.869242 C295.539158,59.2428707 294.885318,59.5386557 294.169196,59.7566058 C293.453074,59.9745559 292.643557,60.0835293 291.740621,60.0835293 C289.031813,60.0835293 286.937967,59.2584449 285.45902,57.6082513 C283.980073,55.9580577 283.24061,53.6851837 283.24061,50.789561 L283.24061,34.5834956 L290.339521,34.5834956 L290.339521,48.5477998 C290.339521,50.2291291 290.713144,51.497891 291.460401,52.3541235 C292.207659,53.210356 293.266258,53.6384658 294.63623,53.6384658 C296.006202,53.6384658 297.088152,53.210356 297.882113,52.3541235 C298.676074,51.497891 299.073049,50.2291291 299.073049,48.5477998 L299.073049,34.5834956 L306.171959,34.5834956 L306.171959,59.6164957 Z M320.136263,31.8279975 L312.663726,31.8279975 L312.663726,25.5230441 L320.136263,25.5230441 L320.136263,31.8279975 Z M319.94945,59.6164957 L312.850539,59.6164957 L312.850539,34.5834956 L319.94945,34.5834956 L319.94945,59.6164957 Z M344.98245,52.0038483 C344.98245,53.404956 344.741152,54.6114474 344.258548,55.6233586 C343.775944,56.6352697 343.098752,57.4681379 342.226952,58.1219882 C341.355151,58.7758385 340.335472,59.2662189 339.167882,59.593144 C338.000292,59.9200692 336.747098,60.0835293 335.408261,60.0835293 C333.633525,60.0835293 331.819896,59.7799605 329.96732,59.1728138 C328.114744,58.5656671 326.347818,57.6082578 324.666489,56.3005573 L327.702207,51.6302214 C329.072179,52.6265647 330.434347,53.373811 331.788751,53.8719826 C333.143155,54.3701543 334.411917,54.6192364 335.595075,54.6192364 C336.622554,54.6192364 337.377584,54.4479924 337.860188,54.1054994 C338.342792,53.7630064 338.58409,53.3115451 338.58409,52.751102 L338.58409,52.6576953 C338.58409,52.2840666 338.443981,51.9571463 338.16376,51.6769248 C337.883538,51.3967032 337.502131,51.155405 337.019527,50.9530227 C336.536924,50.7506405 335.984273,50.5560451 335.361558,50.3692307 C334.738844,50.1824164 334.085003,49.9800372 333.400017,49.7620871 C332.528217,49.5130013 331.648646,49.2094325 330.761277,48.8513716 C329.873909,48.4933107 329.072176,48.0262818 328.356054,47.4502708 C327.639933,46.8742599 327.056146,46.1659327 326.604678,45.325268 C326.15321,44.4846034 325.92748,43.4571398 325.92748,42.2428464 L325.92748,42.1494397 C325.92748,40.8728748 326.168778,39.7442216 326.651382,38.7634462 C327.133986,37.7826707 327.787826,36.9498025 328.612923,36.2648165 C329.43802,35.5798305 330.403213,35.0660987 331.508531,34.7236057 C332.613849,34.3811127 333.804773,34.2098687 335.081338,34.2098687 C336.66926,34.2098687 338.28051,34.4667346 339.915136,34.9804741 C341.549761,35.4942137 343.052038,36.2025408 344.42201,37.105477 L341.713215,42.0093296 C340.467786,41.2932078 339.253511,40.7249893 338.070353,40.304657 C336.887195,39.8843247 335.844164,39.6741617 334.941228,39.6741617 C334.069427,39.6741617 333.415587,39.8376218 332.979687,40.1645469 C332.543787,40.4914721 332.32584,40.9040143 332.32584,41.4021859 L332.32584,41.4955926 C332.32584,41.8380856 332.465948,42.1416544 332.74617,42.4063081 C333.026392,42.6709618 333.400015,42.9200439 333.867051,43.1535619 C334.334087,43.3870798 334.87117,43.6128105 335.478316,43.8307606 C336.085463,44.0487107 336.73152,44.2666575 337.416506,44.4846076 C338.288306,44.7648291 339.175661,45.0995332 340.078597,45.4887298 C340.981533,45.8779264 341.79105,46.3527391 342.507172,46.9131822 C343.223294,47.4736253 343.814864,48.1586011 344.2819,48.96813 C344.748935,49.7776589 344.98245,50.7584196 344.98245,51.9104416 L344.98245,52.0038483 Z" id="Tianguis" fill="#6C6C6C" fill-rule="nonzero"></path>
                <path d="M182.127839,89.4028761 C182.127839,91.70692 181.707513,93.855253 180.866848,95.8479395 C180.026184,97.8406261 178.83526,99.5686331 177.294042,101.032012 C175.752823,102.495392 173.915843,103.647396 171.783045,104.488061 C169.650248,105.328726 167.307319,105.749052 164.75419,105.749052 L152.004173,105.749052 L152.004173,73.0567006 L164.75419,73.0567006 C167.307319,73.0567006 169.650248,73.4692428 171.783045,74.2943396 C173.915843,75.1194364 175.752823,76.2636573 177.294042,77.7270365 C178.83526,79.1904157 180.026184,80.9106389 180.866848,82.8877576 C181.707513,84.8648763 182.127839,87.0054255 182.127839,89.3094694 L182.127839,89.4028761 Z M174.608598,89.4962828 L174.608598,89.4028761 C174.608598,87.9706326 174.3673,86.647384 173.884696,85.4330906 C173.402093,84.2187972 172.732684,83.175766 171.876452,82.3039656 C171.020219,81.4321652 169.984972,80.7549733 168.770679,80.2723695 C167.556385,79.7897657 166.217569,79.5484675 164.75419,79.5484675 L159.19649,79.5484675 L159.19649,99.2572847 L164.75419,99.2572847 C166.217569,99.2572847 167.556385,99.0237703 168.770679,98.5567343 C169.984972,98.0896984 171.020219,97.4202903 171.876452,96.5484899 C172.732684,95.6766895 173.402093,94.6492259 173.884696,93.4660683 C174.3673,92.2829106 174.608598,90.959662 174.608598,89.4962828 Z M195.391593,77.9605533 L187.919056,77.9605533 L187.919056,71.6555999 L195.391593,71.6555999 L195.391593,77.9605533 Z M195.204779,105.749052 L188.105869,105.749052 L188.105869,80.7160514 L195.204779,80.7160514 L195.204779,105.749052 Z M227.05647,100.097945 C227.05647,102.46426 226.768469,104.480269 226.192458,106.14603 C225.616447,107.811792 224.74466,109.173959 223.57707,110.232574 C222.40948,111.291189 220.953906,112.06957 219.210306,112.567742 C217.466705,113.065914 215.427345,113.314996 213.092166,113.314996 C211.037208,113.314996 209.075686,113.089265 207.207543,112.637797 C205.339399,112.186329 203.611392,111.540272 202.02347,110.699608 L204.452044,105.375425 C205.759745,106.091546 207.07521,106.651981 208.398478,107.056746 C209.721747,107.46151 211.224023,107.663889 212.905352,107.663889 C215.333939,107.663889 217.132,107.087887 218.29959,105.935865 C219.46718,104.783843 220.050966,103.086971 220.050966,100.845199 L220.050966,99.6309116 C218.992351,100.907476 217.840347,101.903805 216.594918,102.619927 C215.349489,103.336048 213.777158,103.694104 211.877878,103.694104 C210.414499,103.694104 209.013412,103.437238 207.674576,102.923498 C206.33574,102.409759 205.1526,101.654729 204.125121,100.658385 C203.097642,99.6620422 202.280341,98.4399832 201.673195,96.9921718 C201.066048,95.5443605 200.762479,93.8864078 200.762479,92.0182642 L200.762479,91.9248574 C200.762479,90.0567138 201.073832,88.3987611 201.696546,86.9509498 C202.319261,85.5031384 203.144345,84.2810794 204.171824,83.2847361 C205.199303,82.2883928 206.382443,81.5333628 207.72128,81.0196233 C209.060116,80.5058837 210.445635,80.2490178 211.877878,80.2490178 C213.808294,80.2490178 215.396192,80.6070733 216.641621,81.3231951 C217.88705,82.0393168 218.992352,82.9266718 219.957559,83.9852865 L219.957559,80.7160514 L227.05647,80.7160514 L227.05647,100.097945 Z M220.050966,92.0182642 L220.050966,91.9248574 C220.050966,91.0841928 219.89529,90.3058113 219.583933,89.5896895 C219.272575,88.8735678 218.844465,88.2586464 218.29959,87.7449069 C217.754715,87.2311674 217.108658,86.8341928 216.361401,86.5539712 C215.614143,86.2737497 214.804627,86.133641 213.932826,86.133641 C213.061026,86.133641 212.259293,86.2737497 211.527603,86.5539712 C210.795914,86.8341928 210.157641,87.2311674 209.612766,87.7449069 C209.06789,88.2586464 208.63978,88.8735678 208.328423,89.5896895 C208.017066,90.3058113 207.86139,91.0841928 207.86139,91.9248574 L207.86139,92.0182642 C207.86139,93.7618649 208.437392,95.1629517 209.589414,96.2215664 C210.741436,97.2801812 212.189225,97.8094806 213.932826,97.8094806 C214.804627,97.8094806 215.614143,97.6693719 216.361401,97.3891504 C217.108658,97.1089288 217.754715,96.7119542 218.29959,96.1982147 C218.844465,95.6844752 219.272575,95.0695538 219.583933,94.3534321 C219.89529,93.6373103 220.050966,92.8589288 220.050966,92.0182642 Z M241.020774,77.9605533 L233.548237,77.9605533 L233.548237,71.6555999 L241.020774,71.6555999 L241.020774,77.9605533 Z M240.833961,105.749052 L233.73505,105.749052 L233.73505,80.7160514 L240.833961,80.7160514 L240.833961,105.749052 Z M261.570252,104.721578 C260.822994,105.157478 259.99791,105.50775 259.094974,105.772403 C258.192038,106.037057 257.149006,106.169382 255.965849,106.169382 C254.876098,106.169382 253.887554,106.052625 253.000186,105.819107 C252.112817,105.585589 251.350003,105.173046 250.711721,104.581468 C250.073439,103.989889 249.575274,103.219291 249.217213,102.269651 C248.859153,101.320012 248.680125,100.11352 248.680125,98.6501411 L248.680125,86.787488 L245.69111,86.787488 L245.69111,80.7160514 L248.680125,80.7160514 L248.680125,74.3176913 L255.779035,74.3176913 L255.779035,80.7160514 L261.663659,80.7160514 L261.663659,86.787488 L255.779035,86.787488 L255.779035,97.4825571 C255.779035,99.1016149 256.541849,99.9111317 258.0675,99.9111317 C259.312929,99.9111317 260.480501,99.6153468 261.570252,99.0237679 L261.570252,104.721578 Z M288.424683,105.749052 L281.559289,105.749052 L281.559289,103.040257 C280.687489,104.005464 279.644458,104.776062 278.430164,105.352073 C277.215871,105.928084 275.736946,106.216085 273.993345,106.216085 C272.810187,106.216085 271.697102,106.052625 270.654055,105.7257 C269.611008,105.398775 268.700302,104.908394 267.921909,104.254544 C267.143515,103.600694 266.528594,102.798961 266.077126,101.849321 C265.625658,100.899681 265.399927,99.8021635 265.399927,98.5567343 L265.399927,98.4633276 C265.399927,97.0933556 265.649009,95.9102157 266.147181,94.9138724 C266.645353,93.9175291 267.338112,93.0924447 268.22548,92.4385944 C269.112849,91.7847441 270.171447,91.2943637 271.401309,90.9674386 C272.63117,90.6405135 273.993338,90.4770533 275.487853,90.4770533 C276.764417,90.4770533 277.877503,90.5704591 278.827143,90.7572735 C279.776782,90.9440878 280.703056,91.1931699 281.605993,91.5045272 L281.605993,91.084197 C281.605993,89.589682 281.154531,88.453245 280.251595,87.6748518 C279.348659,86.8964586 278.009843,86.5072679 276.235106,86.5072679 C274.865134,86.5072679 273.658643,86.6240251 272.615596,86.8575431 C271.572549,87.091061 270.475031,87.4257651 269.323009,87.8616653 L267.548282,82.4440757 C268.918254,81.8524969 270.350476,81.3699003 271.844991,80.9962716 C273.339506,80.6226428 275.145351,80.4358313 277.26258,80.4358313 C281.154546,80.4358313 283.987855,81.3854567 285.762591,83.2847361 C287.537328,85.1840155 288.424683,87.8305127 288.424683,91.2243071 L288.424683,105.749052 Z M281.699399,96.9221168 L281.699399,95.6611261 C281.076685,95.3809046 280.383925,95.1551739 279.6211,94.9839274 C278.858274,94.8126809 278.040974,94.7270589 277.169173,94.7270589 C275.643523,94.7270589 274.444815,95.0228439 273.573015,95.6144228 C272.701215,96.2060016 272.265321,97.0622213 272.265321,98.1831075 L272.265321,98.2765142 C272.265321,99.2417218 272.623376,99.988968 273.339498,100.518275 C274.05562,101.047583 274.989678,101.312232 276.1417,101.312232 C277.823029,101.312232 279.169629,100.907474 280.18154,100.097945 C281.193451,99.2884162 281.699399,98.2298174 281.699399,96.9221168 Z M301.968657,105.749052 L294.869746,105.749052 L294.869746,71.6555999 L301.968657,71.6555999 L301.968657,105.749052 Z" id="Digital" fill="#6C6C6C" fill-rule="nonzero"></path>
                <g id="Group-27">
                    <mask id="mask-2" fill="white">
                        <use xlink:href="#path-1"></use>
                    </mask>
                    <g id="Clip-2"></g>
                    <polygon id="Fill-1" fill="#EDEDED" mask="url(#mask-2)" points="-27.1932823 131.631251 146.213156 131.631251 146.213156 -3.94105541 -27.1932823 -3.94105541"></polygon>
                    <path d="M56.4448597,30.8657154 L68.0918607,30.8657154 C68.152553,31.9830046 68.2136393,33.0998997 68.2751198,34.2171889 L56.0286842,34.2171889 C56.1670153,33.0998997 56.3053463,31.9826105 56.4448597,30.8657154 L56.4448597,30.8657154 Z M89.3309965,86.7360874 C89.1047799,85.6349565 88.8781693,84.5342198 88.653135,83.4330889 L99.496949,83.4330889 C99.8264212,84.5338256 100.153923,85.6357447 100.484577,86.7360874 L89.3309965,86.7360874 Z M62.9909527,2.45149411 L66.3278443,2.45149411 C66.4066654,3.48720347 66.4862747,4.52291283 66.5599725,5.55862219 L62.8088759,5.55862219 C62.8668094,4.52291283 62.9267135,3.48680936 62.9909527,2.45149411 L62.9909527,2.45149411 Z M85.2224463,133.203101 L145.754299,133.203101 C142.102123,129.498903 139.919566,123.880929 137.53838,119.305363 C134.155378,112.806169 130.880755,106.249435 127.640026,99.6765428 L133.210707,99.6765428 C128.54371,91.2277083 123.877894,82.7788737 119.210896,74.329645 L111.971572,74.329645 C111.408001,73.0759953 110.843642,71.8235278 110.280465,70.5698781 L117.091791,70.5698781 C110.896846,59.2823013 104.701113,47.9955127 98.5018325,36.7106947 L98.5041971,36.7106947 C97.9599373,35.7203075 97.4148894,34.7307084 96.8706296,33.7403212 C96.5655919,33.1850265 96.2605543,32.6289436 95.9555166,32.0732548 L95.9539401,32.0732548 C91.8587895,24.6219013 87.7616683,17.1717302 83.6464182,9.73101755 L80.4699275,9.73101755 C83.0418603,15.6496946 85.4841323,21.6235464 87.8846292,27.6143447 L87.3076587,27.6143447 C84.5816307,20.3549206 81.7795403,13.0931319 78.526199,6.08278256 L81.0413806,6.08278256 C77.6765075,-0.293845091 76.4504451,-2.3644756 75.6850922,-2.3644756 L69.9350923,-2.3644756 C70.0265248,-2.3644756 70.1183514,-2.31954757 70.214119,-2.22614456 L58.6427863,-2.22614456 C58.3976526,-1.94632962 58.1816828,-1.55064766 57.9129028,-0.842045899 L56.9398562,-0.842045899 C57.1849899,-1.31536665 57.4415526,-1.77962298 57.719397,-2.22614456 L51.9378687,-2.22614456 C48.8224644,2.48538718 46.2398908,7.60205942 43.511104,12.5350785 L43.7924954,12.5350785 C40.4173755,18.6452908 37.0430439,24.7555031 33.667924,30.8657154 L38.753856,30.8657154 C36.9657992,35.165801 35.187595,39.4706158 33.4204257,43.7797658 L26.4806213,43.7797658 C21.3083802,53.2784975 16.1404742,62.779988 10.9721741,72.2814785 L21.8128352,72.2814785 C21.4431643,73.1910741 21.0730991,74.1010638 20.7038223,75.0110535 L9.56679377,75.0110535 C5.27183159,82.9337572 0.970957821,90.8529139 -3.33503932,98.769706 L-3.66254102,98.769706 C-9.03892881,108.560864 -14.401917,118.360298 -19.8508202,128.112046 L-5.3966054,128.112046 C-1.11149586,119.91268 2.61634845,111.414188 6.3323696,102.937766 L11.7383153,102.937766 C12.8205291,100.213709 13.8952549,97.4872866 14.9676161,94.7600762 L16.1928902,94.7600762 C14.6381439,98.8233044 13.0652687,102.879439 11.4746587,106.928873 L9.48009056,106.928873 C7.14856218,112.597293 4.81624558,118.263742 2.30382276,123.854524 L44.8687976,123.854524 C45.6838079,118.220391 46.4117208,112.574829 47.1392396,106.928873 L39.776954,106.928873 C40.5111726,102.873921 41.237115,98.8177869 41.9543871,94.7600762 L48.6624575,94.7600762 C50.5194829,79.6469169 52.323698,64.527452 54.161018,49.4123222 L59.474349,49.4123222 C59.0022105,57.4906975 58.5320426,65.569467 58.0622688,73.6478424 L54.0904732,73.6478424 C52.7922895,87.3638975 51.5031703,101.081923 50.086755,114.786155 L61.1425977,114.786155 C61.0708705,117.808945 61.0015079,120.831734 60.9222927,123.854524 L82.7758391,123.854524 C83.0501365,125.24611 83.3524155,126.619568 83.6901639,127.969774 L43.8819573,127.969774 C44.1058093,127.272207 44.3458196,126.494243 44.6063233,125.625634 L12.4985449,125.625634 C9.56364093,131.37051 8.30841478,133.20783 6.78519687,133.20783 L40.7610356,133.20783 C40.8883316,133.20783 41.0116867,133.189308 41.1318889,133.151473 L85.2054997,133.151473 C85.2114113,133.16842 85.2169288,133.186155 85.2224463,133.203101 L85.2224463,133.203101 Z" id="Fill-3" fill="#555555" mask="url(#mask-2)"></path>
                    <path d="M36.9920466,106.256844 L9.58949425,106.256844 C11.9155052,100.48911 14.1981644,94.7044285 16.4548128,88.9091065 L40.406577,88.9091065 C39.2841644,94.69497 38.1499287,100.478075 36.9920466,106.256844" id="Fill-4" fill="#899396" mask="url(#mask-2)"></path>
                    <path d="M57.5740509,-5.38044708 L52.1346062,-5.38044708 C49.064524,-0.722119583 46.5107201,4.3263724 43.8134618,9.1986992 L52.1960866,9.1986992 C53.675953,4.49583778 54.8200413,-1.16548832 57.5740509,-5.38044708" id="Fill-5" fill="#FFF0FA" mask="url(#mask-2)"></path>
                    <path d="M57.3539035,120.075564 L93.2380012,120.075564 C92.2152973,115.212696 91.2824495,110.332093 90.3523604,105.451095 L58.0889103,105.451095 C57.8528411,110.326575 57.6155896,115.201661 57.3539035,120.075564" id="Fill-6" fill="#6C8BBE" mask="url(#mask-2)"></path>
                    <path d="M132.194703,95.7126293 L100.400633,95.7126293 C98.0986625,87.2961114 95.8329497,78.8697408 93.5782719,70.4398233 L118.570081,70.4398233 C123.105841,78.8673762 127.641602,87.294535 132.194703,95.7126293" id="Fill-7" fill="#407EA1" mask="url(#mask-2)"></path>
                    <path d="M41.9937977,120.075564 L1.67561853,120.075564 C4.2341517,114.423302 6.63425444,108.704043 9.02253402,102.978477 L44.6453398,102.978477 C43.7932836,108.682367 42.9404392,114.385862 41.9937977,120.075564" id="Fill-8" fill="#90D277" mask="url(#mask-2)"></path>
                    <path d="M75.3565264,-5.51747757 L69.4008034,-5.51747757 C69.9525512,-5.51747757 70.5240042,-3.47561677 71.9873181,2.8233721 L80.5587195,2.8233721 C77.3633118,-3.47561677 76.1821775,-5.51747757 75.3565264,-5.51747757" id="Fill-9" fill="#769EC3" mask="url(#mask-2)"></path>
                    <path d="M90.9294492,110.881436 L47.2412736,110.881436 C48.9583914,97.1862688 50.5300843,83.4729724 52.1116298,69.7616465 L83.5553404,69.7616465 C85.9522903,83.4788839 88.3358406,97.1996683 90.9294492,110.881436" id="Fill-10" fill="#9FDA8F" mask="url(#mask-2)"></path>
                    <path d="M75.3977104,-2.26689507 L65.5706887,-2.26689507 C66.090514,10.2542321 66.4140746,22.7848177 66.7861102,35.3118565 L89.6430493,35.3118565 C85.2002975,22.7517129 81.1571688,9.77618205 75.3977104,-2.26689507" id="Fill-11" fill="#F5DDEA" mask="url(#mask-2)"></path>
                    <path d="M89.7796069,66.6046246 L57.5709374,66.6046246 C58.372154,56.6148374 59.1717941,46.6250501 59.9812869,36.6360511 L83.2607071,36.6360511 C85.4475988,46.6226855 87.6116323,56.6136551 89.7796069,66.6046246" id="Fill-12" fill="#8FD479" mask="url(#mask-2)"></path>
                    <path d="M53.4205331,30.6459227 L76.6889184,30.6459227 C77.5870849,35.6624922 78.4734283,40.680638 79.3542542,45.6999662 L50.9435798,45.6999662 C51.7617429,40.6810321 52.5858176,35.6624922 53.4205331,30.6459227" id="Fill-13" fill="#C7BAB7" mask="url(#mask-2)"></path>
                    <path d="M89.6089592,24.1108647 L70.4601591,24.1108647 C72.2423044,42.5691918 73.9330172,61.0361892 75.657623,79.5004279 L113.131148,79.5004279 C105.310518,61.0287012 97.5805319,42.5179581 89.6089592,24.1108647" id="Fill-14" fill="#7ACB61" mask="url(#mask-2)"></path>
                    <path d="M100.467893,61.027243 L117.711443,61.027243 C110.183998,48.5356738 102.655693,36.0433164 95.1282486,23.5517471 L86.3564061,23.5517471 C91.1469501,36.0161231 95.8102163,48.5206978 100.467893,61.027243" id="Fill-15" fill="#FECE7D" mask="url(#mask-2)"></path>
                    <path d="M83.6256149,5.62333432 L73.4910278,5.62333432 C76.0302976,14.3374019 78.287947,23.1082208 80.5530937,31.8750985 L98.1864692,31.8750985 C93.4396888,23.0841803 88.6985314,14.2857741 83.6256149,5.62333432" id="Fill-16" fill="#FF9B8F" mask="url(#mask-2)"></path>
                    <path d="M69.3017647,27.3287758 L53.9746061,27.3287758 C55.3866863,18.9757089 56.7798494,10.6147598 58.4354867,2.30543859 L67.3521246,2.30543859 C68.0800375,10.6399826 68.6861719,18.9851674 69.3017647,27.3287758" id="Fill-17" fill="#00BEEA" mask="url(#mask-2)"></path>
                    <path d="M60.6018061,24.1108647 L41.303246,24.1108647 C45.1020293,14.7492816 48.5709462,4.74294195 53.7152059,-4.01487138 L62.737464,-4.01487138 C61.7242187,5.32503584 61.2378924,14.7417936 60.6018061,24.1108647" id="Fill-18" fill="#4292BE" mask="url(#mask-2)"></path>
                    <path d="M-3.02661232,94.8054772 L8.04854159,94.8054772 C3.6180071,104.754277 -0.723065436,114.78781 -5.75934014,124.451672 L-19.3780512,124.451672 C-13.8802789,114.595881 -8.4593572,104.697132 -3.02661232,94.8054772" id="Fill-19" fill="#67506A" mask="url(#mask-2)"></path>
                    <path d="M11.2735861,98.9766902 L-4.98563215,98.9766902 C0.0687714169,89.6955047 5.11095771,80.4076195 10.1503853,71.1177636 L22.3810566,71.1177636 C18.7083871,80.4158957 15.0215297,89.7081161 11.2735861,98.9766902" id="Fill-20" fill="#D3C6C8" mask="url(#mask-2)"></path>
                    <path d="M27.0816716,68.4027312 L11.5547015,68.4027312 C16.6863498,58.9737561 21.817998,49.5439928 26.9539814,40.1173824 L37.2015137,40.1173824 C33.8114179,49.5400518 30.4477271,58.9717856 27.0816716,68.4027312" id="Fill-21" fill="#FF816C" mask="url(#mask-2)"></path>
                    <path d="M89.3403368,129.917798 L14.6447254,129.917798 C15.3214047,129.295111 15.8703937,128.043826 17.245822,124.303765 L88.0125953,124.303765 C88.70228,128.043826 88.9813067,129.295111 89.3403368,129.917798" id="Fill-22" fill="#FF4A67" mask="url(#mask-2)"></path>
                    <path d="M142.506081,130.014039 L80.5156438,130.014039 C76.9907638,114.903638 76.9789407,98.1549408 75.5790778,82.7915245 L118.685948,82.7915245 C123.773062,93.7141595 128.824707,104.662806 134.195971,115.449474 C136.609474,120.296184 138.803065,126.002044 142.506081,130.014039" id="Fill-23" fill="#FF6D95" mask="url(#mask-2)"></path>
                    <path d="M39.7838903,130.054829 L7.01440865,130.054829 C7.83730102,130.054829 8.77330168,128.06026 11.2195148,121.888173 L41.6850554,121.888173 C40.6158471,128.06026 40.1977011,130.054829 39.7838903,130.054829" id="Fill-24" fill="#FF88A5" mask="url(#mask-2)"></path>
                    <path d="M46.4144007,90.7978179 L12.3727464,90.7978179 C22.0535549,67.6393881 31.464007,44.3682442 41.3127045,21.2799651 L56.2792565,21.2799651 C52.879308,44.4368185 49.7213403,67.6279591 46.4144007,90.7978179" id="Fill-25" fill="#FFE17B" mask="url(#mask-2)"></path>
                    <path d="M53.5421541,1.154611 L48.5338609,1.154611 C43.7147383,9.87971357 38.8960099,18.6036338 34.0768873,27.3287364 L44.6889672,27.3287364 C47.499728,18.5642233 50.2647724,9.75990549 53.5421541,1.154611" id="Fill-26" fill="#008888" mask="url(#mask-2)"></path>
                </g>
            </g>
        </g>
    </g>
</svg>