<svg id="E_01" xmlns="http://www.w3.org/2000/svg" viewBox="0 0 76.64234 60.0737"><title>Perfil de negocio</title><g id="Capa_1"><g id="_899831528" data-name=" 899831528"><path d="M505.75654,346.40858a13.16231,13.16231,0,1,1-13.15995,13.1623A13.16179,13.16179,0,0,1,505.75654,346.40858Z" transform="translate(-442.27651 -341.60145)" fill="#f9f5ed" fill-rule="evenodd"/><path d="M460.41957,365.38786a18.14365,18.14365,0,1,1-18.14306,18.14306A18.14378,18.14378,0,0,1,460.41957,365.38786Z" transform="translate(-442.27651 -341.60145)" fill="#f9f5ed" fill-rule="evenodd"/><path d="M456.19237,382.41949h18.38991a1.74772,1.74772,0,0,1,.13819-.35552H459.1546a1.55935,1.55935,0,0,1-1.55671-1.55552v-25.5876a1.56012,1.56012,0,0,1,1.55671-1.55553h42.44088a1.56088,1.56088,0,0,1,1.55671,1.55553v25.5876a1.56011,1.56011,0,0,1-1.55671,1.55552H486.73356a1.74889,1.74889,0,0,1,.13819.35552h17.68478a1.55961,1.55961,0,0,1,1.55789,1.55552v4.08074a1.55986,1.55986,0,0,1-1.55789,1.55671H456.19237a1.55961,1.55961,0,0,1-1.55671-1.55671V383.975A1.55936,1.55936,0,0,1,456.19237,382.41949Z" transform="translate(-442.27651 -341.60145)" fill="#fff" fill-rule="evenodd"/><path d="M497.20057,353.36532h4.39491a1.56012,1.56012,0,0,1,1.55671,1.55553v25.5876a1.55935,1.55935,0,0,1-1.55671,1.55552H486.73356a1.68278,1.68278,0,0,1,.13819.35552h17.686a1.56012,1.56012,0,0,1,1.55671,1.55552v4.08074a1.56113,1.56113,0,0,1-1.55671,1.55671H456.19237a1.56138,1.56138,0,0,1-1.55789-1.55671v-1.6193a35.50279,35.50279,0,0,0,42.56609-33.07113Z" transform="translate(-442.27651 -341.60145)" fill="#f0e2c8" fill-rule="evenodd"/><path d="M485.86308,372.62807a1.02942,1.02942,0,0,1,0-1.99844H496.2793a1.0298,1.0298,0,0,1,0,1.99844Zm-.72757,9.45716h-8.817a.79642.79642,0,0,0-.79961.79844.79307.79307,0,0,0,.20315.53386l.03307.03071a.79971.79971,0,0,0,.56339.23622h8.817a.79842.79842,0,0,0,.56339-1.36418A.78544.78544,0,0,0,485.13551,382.08523Zm-8.817-1.99607h8.817a2.77773,2.77773,0,0,1,1.774.64134H500.49a1.33683,1.33683,0,0,0,1.32993-1.33111v-23.373a1.32685,1.32685,0,0,0-.34252-.89056l-.0496-.04606a1.3274,1.3274,0,0,0-.93781-.39213h-40.2322a1.33161,1.33161,0,0,0-.93781.39213,1.305,1.305,0,0,0-.39094.93662v23.373a1.3348,1.3348,0,0,0,1.32875,1.33111h14.2879A2.77521,2.77521,0,0,1,476.31851,380.08916Zm11.47568,3.66026a2.8089,2.8089,0,0,1-2.65868,1.93112h-8.817a2.78624,2.78624,0,0,1-1.97482-.82087l-.059-.06615a2.79985,2.79985,0,0,1-.62245-1.0441h-16.3643a1.33686,1.33686,0,0,0-1.32993,1.32993v1.8697a1.33276,1.33276,0,0,0,1.32993,1.32993H503.451a1.32223,1.32223,0,0,0,.89174-.34016l.04842-.05078a1.32885,1.32885,0,0,0,.38977-.939v-1.8697a1.32747,1.32747,0,0,0-.38977-.93662,1.305,1.305,0,0,0-.94016-.39331Zm16.2899-2.61144a4.00361,4.00361,0,0,1,2.18623,1.12324,3.95848,3.95848,0,0,1,1.174,2.81813v1.8697a3.98049,3.98049,0,0,1-1.17048,2.82168l-.098.09094a3.985,3.985,0,0,1-2.72482,1.0819H457.29789a4.00234,4.00234,0,0,1-3.99452-3.99452v-1.8697a3.99933,3.99933,0,0,1,3.36026-3.94137,3.98036,3.98036,0,0,1-.398-1.73859v-23.373a4.00848,4.00848,0,0,1,3.99216-3.99334H500.49a3.979,3.979,0,0,1,2.8205,1.17284l.08976.098a3.96718,3.96718,0,0,1,1.0819,2.72246v23.373A3.98036,3.98036,0,0,1,504.08409,381.138ZM463.24124,359.7953a.99863.99863,0,0,1,0-1.99726h2.35987a.997.997,0,0,1,.9874.85158l.685,2.84057,11.55245.0189.27166.02834a.99393.99393,0,0,1,.73347,1.19883l-1.74332,7.18116a.99977.99977,0,0,1-.98741.85158h-8.85007a1.00627,1.00627,0,0,1-.96851-.76418l-2.46262-10.20952ZM475.174,370.90365a2.43164,2.43164,0,1,1-1.7197.71221A2.4204,2.4204,0,0,1,475.174,370.90365Zm-5.53588,0a2.42963,2.42963,0,1,1-1.72087.71221A2.42877,2.42877,0,0,1,469.63814,370.90365Zm-1.88269-7.42565,1.278,5.29492h7.28627l1.28033-5.2772Zm18.10763,4.7835a1.02867,1.02867,0,0,1,0-1.99726H496.2793a1.029,1.029,0,0,1,0,1.99726Z" transform="translate(-442.27651 -341.60145)" fill="#bc955c"/><path d="M488.72609,397.73024v-1.18938h2.97168v1.18938Zm3.36853-1.585v-2.98h1.1882v2.98Zm1.585.39567h2.9705v1.18938h-2.9705Zm-.39685,1.585v2.98h-1.1882v-2.98Z" transform="translate(-442.27651 -341.60145)" fill="#f0e2c8" fill-rule="evenodd"/><path d="M481.90635,346.16645v-1.1882H484.878v1.1882Zm3.36735-1.58505v-2.97995h1.1882v2.97995Zm1.58623.39685h2.9705v1.1882h-2.9705Zm-.398,1.58387v2.98113h-1.1882v-2.98113Z" transform="translate(-442.27651 -341.60145)" fill="#f0e2c8" fill-rule="evenodd"/><path d="M445.51158,362.68311v-1.1882h2.97167v1.1882Zm3.36853-1.58387v-2.98112h1.1882v2.98112Zm1.58505.39567h2.9705v1.1882h-2.9705Zm-.39685,1.58506v2.97994h-1.1882V363.08Z" transform="translate(-442.27651 -341.60145)" fill="#f0e2c8" fill-rule="evenodd"/></g></g></svg>