<svg id="E_02" xmlns="http://www.w3.org/2000/svg" viewBox="0 0 64.6446 60.00047"><title>Cotizaciones</title><g id="Capa_1"><g id="_899833592" data-name=" 899833592"><path d="M471.9732,341.63806a10.32941,10.32941,0,1,1-10.32764,10.33A10.33043,10.33043,0,0,1,471.9732,341.63806Z" transform="translate(-448.27538 -341.63806)" fill="#f9f5ed" fill-rule="evenodd"/><path d="M502.59,360.78388a10.32941,10.32941,0,1,1-10.32882,10.33A10.33042,10.33042,0,0,1,502.59,360.78388Z" transform="translate(-448.27538 -341.63806)" fill="#f9f5ed" fill-rule="evenodd"/><path d="M464.3822,369.42607a16.10623,16.10623,0,1,1-16.10682,16.10564A16.10683,16.10683,0,0,1,464.3822,369.42607Z" transform="translate(-448.27538 -341.63806)" fill="#f9f5ed" fill-rule="evenodd"/><path d="M461.9621,388.56835l2.14372-7.78943c.248-.90592.02362-.95316-.39213-1.70553a19.35741,19.35741,0,0,1-1.8697-5.59375,18.8207,18.8207,0,0,1,26.0565-20.37417,17.37953,17.37953,0,0,1,3.21617,1.77049,21.5005,21.5005,0,0,1,4.88862,4.89925,19.17724,19.17724,0,0,1,1.74923,3.23506c6.56462,15.62257-9.1111,31.04434-24.46555,24.7502-2.23348-.91537-2.17088-1.45513-3.437-1.08426-2.27719.665-5.41894,1.71025-7.65833,2.11182C461.9184,388.768,461.99635,388.84118,461.9621,388.56835Z" transform="translate(-448.27538 -341.63806)" fill="#fff" fill-rule="evenodd"/><path d="M461.9621,388.56835l2.11183-7.67014c20.29386,11.16268,38.52786-10.13985,22.773-27.96046-.07323-.10512-.14646-.21024-.22323-.31536a17.66507,17.66507,0,0,1,4.493,2.25238,21.51091,21.51091,0,0,1,4.88862,4.90162,19.11932,19.11932,0,0,1,1.74923,3.23388c7.64533,32.02348-32.816,31.48489-35.56091,25.77776C461.9184,388.768,461.99635,388.84118,461.9621,388.56835Z" transform="translate(-448.27538 -341.63806)" fill="#f0e2c8" fill-rule="evenodd"/><path d="M496.73285,350.02159v-1.2h3v1.2Zm3.40042-1.60041v-3.00829h1.2v3.00829Zm1.6004.4004h3v1.2h-3Zm-.40039,1.59922v3.00947h-1.2V350.4208Z" transform="translate(-448.27538 -341.63806)" fill="#f0e2c8" fill-rule="evenodd"/><path d="M450.614,360.91852v-1.2h3.0012v1.2Zm3.40042-1.6004v-3.0083h1.2v3.0083Zm1.60041.40039h3v1.2h-3Zm-.4004,1.60041v3.00829h-1.2v-3.00829Z" transform="translate(-448.27538 -341.63806)" fill="#f0e2c8" fill-rule="evenodd"/><path d="M493.04778,394.55776v-1.2h3v1.2Zm3.40042-1.6004v-3.00711H497.647v3.00711Zm1.59922.40039h3v1.2h-3Zm-.40039,1.60041v3.00829H496.4482v-3.00829Z" transform="translate(-448.27538 -341.63806)" fill="#f0e2c8" fill-rule="evenodd"/><path d="M465.94127,388.09826c.86575-1.31457,3.01537-2.22049,2.49923-4.24727-.18307-.71694-.60119-.92363-1.00395-1.34411a17.92751,17.92751,0,0,1-2.615-20.63992,17.73212,17.73212,0,1,1,30.168,18.54581,18.21642,18.21642,0,0,1-11.00442,7.30754C480.67918,388.34512,469.96413,388.09826,465.94127,388.09826Zm13.78593-27.97935a2.19347,2.19347,0,1,0,1.43741,4.14452C483.8729,363.38,482.4473,359.15748,479.7272,360.11891Zm0,7.65242c-2.10946.75-1.51537,3.737-1.51537,6.23273,0,1.05591-.14645,2.73073.28938,3.59176a2.19689,2.19689,0,0,0,2.6634.9756c2.05514-.66969,1.47994-3.83271,1.47994-6.23155,0-1.1256.21614-2.65868-.30591-3.57759A2.19448,2.19448,0,0,0,479.7272,367.77133Zm-16.49659,16.597c-2.01615,2.18152-5.42839,4.51185-4.96185,6.48549.42048,1.78111,2.25357,1.65355,4.20122,1.65237h5.82052c7.48116,0,15.10287.82678,21.43835-2.04686a22.07691,22.07691,0,0,0,11.35521-12.10167c7.48-19.45173-14.07531-38.78653-33.24711-26.28092a22.27965,22.27965,0,0,0-9.23747,14.21468,23.04,23.04,0,0,0,.58465,10.48827,20.379,20.379,0,0,0,2.85356,5.96816C462.43927,383.33957,462.86447,383.85689,463.23061,384.36831Z" transform="translate(-448.27538 -341.63806)" fill="#bc955c" fill-rule="evenodd"/></g></g></svg>