<svg id="E_03" xmlns="http://www.w3.org/2000/svg" viewBox="0 0 72.186 59.87653"><title>Productos</title><g id="Capa_1"><g id="_899831480" data-name=" 899831480"><path d="M502.71931,360.60727a9.37449,9.37449,0,1,1-9.37448,9.37448A9.37421,9.37421,0,0,1,502.71931,360.60727Z" transform="translate(-444.50468 -341.70003)" fill="#f9f5ed" fill-rule="evenodd"/><path d="M478.9518,341.7a7.25675,7.25675,0,1,1-7.25675,7.25675A7.25661,7.25661,0,0,1,478.9518,341.7Z" transform="translate(-444.50468 -341.70003)" fill="#f9f5ed" fill-rule="evenodd"/><path d="M457.902,368.17465A13.39735,13.39735,0,1,1,444.50468,381.572,13.39645,13.39645,0,0,1,457.902,368.17465Z" transform="translate(-444.50468 -341.70003)" fill="#f9f5ed" fill-rule="evenodd"/><path d="M498.44959,372.631c.28111-.78308.13347-13.50011.13819-16.11509.00118-1.86261-.11811-3.27995-1.63466-3.78192-.874-.28937-13.4564-.12874-16.14579-.13229-2.61617-.00354-2.6138.08859-3.9709,1.45159-3.64491,3.65908-7.20006,7.18825-10.84969,10.84261-1.49057,1.49292-10.258,9.92488-10.65954,11.03276-.63071,1.73978.94962,2.8642,1.61695,3.53389l8.12486,8.14376c.90355.90237,7.47644,7.61935,8.22527,8.04455a2.67092,2.67092,0,0,0,3.56577-1.20709c.62363-2.61617-2.59254-13.43751,8.34692-18.7785a13.37941,13.37941,0,0,1,4.17287-1.2508C494.89681,373.69989,497.38777,375.59912,498.44959,372.631ZM489.368,356.20172a4.56537,4.56537,0,0,1,4.94178,2.02207,5.34008,5.34008,0,0,1,.74764,1.87206,5.48914,5.48914,0,0,1,.013,2.00316,4.63224,4.63224,0,0,1-3.79964,3.83625,4.7772,4.7772,0,0,1-5.13665-1.99962,5.22513,5.22513,0,0,1-.78426-3.939A4.79121,4.79121,0,0,1,489.368,356.20172Z" transform="translate(-444.50468 -341.70003)" fill="#fff" fill-rule="evenodd"/><path d="M490.77827,388.16969c-2.70947,0-7.24139-.8256-7.22486,2.40593.01654,3.2386,4.4776,2.41064,7.22486,2.41064,0,2.83349-.78544,7.23668,2.40829,7.22132,3.22089-.01653,2.41183-4.47641,2.41183-7.22132,2.67285,0,7.21777.81851,7.21423-2.40828-.00355-3.23389-4.49886-2.40829-7.21423-2.40829,0-2.74963.789-7.20006-2.41183-7.22368a2.4314,2.4314,0,0,0-2.40593,2.3953C490.70386,384.87439,490.77827,386.613,490.77827,388.16969Z" transform="translate(-444.50468 -341.70003)" fill="#fff" fill-rule="evenodd"/><path d="M498.44959,372.631c.28111-.78308.13347-13.50011.13819-16.11509.00118-1.86261-.11811-3.27995-1.63466-3.78192-.7689-.25512-10.58984-.16181-14.77688-.13819.00944.34488.01535.69095.01535,1.037a36.391,36.391,0,0,1-19.07377,32.01758l1.95119,1.95592c.90355.90237,7.47644,7.61935,8.22527,8.04455a2.67092,2.67092,0,0,0,3.56577-1.20709c.62363-2.61617-2.59254-13.43751,8.34692-18.7785a13.37941,13.37941,0,0,1,4.17287-1.2508C494.89681,373.69989,497.38777,375.59912,498.44959,372.631ZM489.368,356.20172a4.56537,4.56537,0,0,1,4.94178,2.02207,5.34008,5.34008,0,0,1,.74764,1.87206,5.48914,5.48914,0,0,1,.013,2.00316,4.63224,4.63224,0,0,1-3.79964,3.83625,4.7772,4.7772,0,0,1-5.13665-1.99962,5.22513,5.22513,0,0,1-.78426-3.939A4.79121,4.79121,0,0,1,489.368,356.20172Z" transform="translate(-444.50468 -341.70003)" fill="#f0e2c8" fill-rule="evenodd"/><path d="M496.72517,372.01563c.11929-.33426.07441-8.25361.04961-12.77018l-.01182-2.72955a6.599,6.599,0,0,0-.15472-1.82128.33818.33818,0,0,0-.228-.222c-.4252-.13937-8.2288-.08976-12.76663-.06023l-2.80632.01417c-1.7634-.00236-1.81537.04843-2.54057.77835-3.64728,3.67562-7.32762,7.32526-10.99261,10.9867l-1.39489,1.37364c-2.8453,2.78506-8.64692,8.46857-8.83354,8.9859-.137.37677.46064.93189.8504,1.29331,2.91853,3.14294,6.2469,6.23155,9.293,9.306,1.989,2.0138,6.6,6.68155,7.00635,6.91187l.098.03307a.90029.90029,0,0,0,.55039-.08268l.26575-.15118c.03426-.35788.01063-1.02875-.01771-1.83781-.17008-4.71264-.47481-13.22491,9.31306-18.00369a15.89435,15.89435,0,0,1,2.3138-.90473,15.24014,15.24014,0,0,1,2.43191-.51142,26.71442,26.71442,0,0,1,5.26658-.11339C495.759,372.56366,496.51375,372.60736,496.72517,372.01563Zm-5.94572,17.52769c-.37677,0-.92363-.0248-1.49056-.0496-.57875-.02481-1.18938-.052-1.728-.04961-1.37481.00709-2.64214.18189-2.63742,1.12678.00354.99332,1.36064,1.14686,2.8075,1.13977.46654-.00118,1.01458-.026,1.53663-.0496.574-.02481,1.12678-.04961,1.51182-.04961h1.37364v1.37481c0,.36851-.02363.93308-.04607,1.50592-.02126.5693-.04724,1.1634-.04488,1.68663.00709,1.39725.17835,2.66341,1.11969,2.65868.99214-.00354,1.1445-1.38308,1.13741-2.8453-.00118-.46654-.0248-1.00158-.04724-1.51418-.0248-.56694-.04843-1.10788-.04843-1.49175v-1.37481h1.37482c.36024,0,.90591.0248,1.46576.04843.55394.0248,1.13386.0496,1.65.0496,1.40789-.00118,2.72955-.1689,2.72955-1.1315-.00118-.97442-1.32993-1.13623-2.75081-1.13387-.49134,0-1.06064.026-1.60277.04961-.56693.0248-1.11261.0496-1.49174.0496h-1.37482v-1.37481c0-.36024.02245-.90355.04607-1.46694.02008-.49371.04252-1.00985.04488-1.45159.01063-1.49883-.13347-2.928-1.13387-2.93506a.96124.96124,0,0,0-.68622.27874,1.22335,1.22335,0,0,0-.34371.81261c-.052,1.011-.03425,2.1071-.01889,3.17246l.02126,2.96459Zm-3.22916-2.837c.64843-.00354,1.26379.02363,1.84608.04961l-.00236-.13347c-.01654-1.135-.03425-2.29608.01772-3.34608a3.99645,3.99645,0,0,1,1.14922-2.62562,3.65777,3.65777,0,0,1,2.63033-1.07363c3.38153.02481,3.88232,2.78506,3.86106,5.68351-.00237.53859-.02363,1.02521-.04252,1.49293.528-.02126,1.08189-.04725,1.68308-.04725,2.83467-.00354,5.4839.548,5.48863,3.87169.00354,3.29766-2.64451,3.867-5.46737,3.86932-.6.00118-1.16458-.02126-1.702-.04606.02126.49724.04252,1.01693.04488,1.58032.01536,2.87247-.50788,5.57839-3.8646,5.59493-3.274.01535-3.854-2.55-3.86814-5.387-.00354-.626.02126-1.21891.0437-1.78939-.50787.02245-1.04056.04607-1.62639.04961-2.86065.01417-5.54059-.515-5.55713-3.86814C482.16915,387.31457,484.74633,386.72047,487.55029,386.70629Zm1.81773-30.50457a4.56537,4.56537,0,0,1,4.94178,2.02207,5.34008,5.34008,0,0,1,.74764,1.87206,5.48914,5.48914,0,0,1,.013,2.00316,4.63224,4.63224,0,0,1-3.79964,3.83625,4.7772,4.7772,0,0,1-5.13665-1.99962,5.22513,5.22513,0,0,1-.78426-3.939A4.79121,4.79121,0,0,1,489.368,356.20172Zm2.63506,3.50318a1.93406,1.93406,0,0,0-2.10946-.80788,2.15359,2.15359,0,0,0-1.85907,1.64765,2.4819,2.4819,0,0,0,.00709.965,2.45021,2.45021,0,0,0,.36732.90237,2.14627,2.14627,0,0,0,2.32561.83859,1.99021,1.99021,0,0,0,1.64056-1.63939,2.71769,2.71769,0,0,0-.013-1.0004A2.59146,2.59146,0,0,0,492.00308,359.7049Zm8.42133-.47481c.026,4.76343.07323,13.11152-.24921,14.01625-1.13033,3.163-2.86538,3.06381-5.95871,2.89373a23.76244,23.76244,0,0,0-4.60752.085,11.8631,11.8631,0,0,0-3.6,1.07953c-7.65714,3.74531-7.40675,10.72568-7.26738,14.5891a12.05977,12.05977,0,0,1-.10394,2.96459,2.70136,2.70136,0,0,1-.29055.74882,4.49263,4.49263,0,0,1-1.97127,1.72206,4.56644,4.56644,0,0,1-2.9268.33071,3.972,3.972,0,0,1-1.05591-.42047c-.84922-.4819-5.713-5.40241-7.80243-7.52014-3.01892-3.052-6.08272-6.254-9.1855-9.1985-1.09135-1.00985-2.75908-2.55592-1.79529-5.21461.47244-1.30631,6.66974-7.3725,9.70756-10.34772l1.3878-1.36536c3.65672-3.65318,7.33116-7.29573,10.97135-10.96426,1.72324-1.73505,1.84489-1.85553,5.13075-1.852l2.791-.01418c4.76933-.03071,12.97215-.08386,13.92767.2315a3.76951,3.76951,0,0,1,2.5453,2.54057,9.33888,9.33888,0,0,1,.34134,2.98113Z" transform="translate(-444.50468 -341.70003)" fill="#bc955c"/><path d="M484.9235,390.61459c.04606.95316,1.38308,1.10316,2.8075,1.09607.46654-.00118,1.01458-.026,1.53663-.0496.574-.02481,1.12678-.04961,1.51182-.04961h.45709v-.91654h-1.37481c-.38386,0-.93662.0248-1.51064.0496-.522.02245-1.07009.04843-1.53663.04961A7.17229,7.17229,0,0,1,484.9235,390.61459Zm7.31463,7.30518c.15472.55394.43819.92008.9437.91772.99214-.00354,1.1445-1.38308,1.13741-2.8453-.00118-.46654-.0248-1.00158-.04724-1.51418-.0248-.56694-.04843-1.10788-.04843-1.49175v-1.37481h1.37482c.36024,0,.90591.0248,1.46576.04843.55394.0248,1.13386.0496,1.65.0496,1.40789-.00118,2.72955-.1689,2.72955-1.1315-.00118-.51024-.36614-.79725-.91772-.95552l.00118.039c0,.96261-1.32167,1.13033-2.72955,1.13151-.51615,0-1.09607-.026-1.65-.04961-.55985-.02362-1.10553-.04842-1.46576-.04842H493.307v1.37481c0,.38386.02362.92481.04843,1.49056.02244.51379.04606,1.04883.04724,1.51537.00709,1.46222-.14528,2.84176-1.13741,2.8453Zm1.98544-9.293v-.45827c0-.36024.02245-.90355.04607-1.46694.02008-.49371.04252-1.00985.04488-1.45159.01063-1.48229-.12992-2.89845-1.102-2.93388a7.57486,7.57486,0,0,1,.18544,2.01734c-.00237.44174-.02481.95788-.04489,1.45159-.02362.56339-.04606,1.1067-.04606,1.46694v1.37481Z" transform="translate(-444.50468 -341.70003)" fill="#f0e2c8" fill-rule="evenodd"/><path d="M498.765,347.35638V346.167h2.97168v1.18938Zm3.36853-1.58505v-2.97995h1.1882v2.97995Zm1.585.39567h2.9705v1.18938h-2.9705Zm-.39685,1.58505V350.732h-1.1882v-2.97994Z" transform="translate(-444.50468 -341.70003)" fill="#f0e2c8" fill-rule="evenodd"/><path d="M508.7666,388.41536v-1.1882h2.97168v1.1882Zm3.36735-1.58505v-2.97994h1.1882v2.97994Zm1.58623.39685h2.9705v1.1882h-2.9705Zm-.398,1.58387v2.98113H512.134V388.811Z" transform="translate(-444.50468 -341.70003)" fill="#f0e2c8" fill-rule="evenodd"/><path d="M455.76658,354.456v-1.1882h2.97168v1.1882Zm3.36853-1.58387V349.891h1.1882v2.98113Zm1.58505.39567h2.9705v1.1882h-2.9705Zm-.39685,1.58505v2.97995h-1.1882v-2.97995Z" transform="translate(-444.50468 -341.70003)" fill="#f0e2c8" fill-rule="evenodd"/></g></g></svg>