<svg id="E_04" xmlns="http://www.w3.org/2000/svg" viewBox="0 0 74.93918 60.00047"><title>Productos favoritos</title><g id="Capa_1"><path d="M474.47125,346.20305v-1.18938h2.97168v1.18938Zm3.36853-1.58505v-2.97994h1.1882V344.618Zm1.58506.39567h2.97049v1.18938h-2.97049Zm-.39686,1.58505v2.97995h-1.1882v-2.97995Z" transform="translate(-443.12809 -341.63806)" fill="#f0e2c8" fill-rule="evenodd"/><path d="M510.14319,369.91977v-1.18819h2.97168v1.18819Zm3.36735-1.58505v-2.97994h1.1882v2.97994Zm1.58623.39686h2.9705v1.18819h-2.9705Zm-.398,1.58387v2.98112h-1.1882v-2.98112Z" transform="translate(-443.12809 -341.63806)" fill="#f0e2c8" fill-rule="evenodd"/><path d="M449.03838,386.6325v-1.18819h2.97167v1.18819Zm3.36853-1.58387v-2.98112h1.1882v2.98112Zm1.58505.39568h2.97049v1.18819H453.992Zm-.39685,1.58505v2.97994h-1.1882v-2.97994Z" transform="translate(-443.12809 -341.63806)" fill="#f0e2c8" fill-rule="evenodd"/><path d="M489.0946,362.15042a19.74406,19.74406,0,1,1-19.74347,19.74465A19.74421,19.74421,0,0,1,489.0946,362.15042Z" transform="translate(-443.12809 -341.63806)" fill="#f9f5ed" fill-rule="evenodd"/><path d="M458.394,344.07705a15.26646,15.26646,0,1,1-15.26587,15.26705A15.26579,15.26579,0,0,1,458.394,344.07705Z" transform="translate(-443.12809 -341.63806)" fill="#f9f5ed" fill-rule="evenodd"/><path d="M504.5022,395.03848c.00945-.05906.01653-.1193.02362-.1819" transform="translate(-443.12809 -341.63806)" fill="none"/><path d="M504.5022,395.03848c.00945-.05906.01653-.1193.02362-.1819" transform="translate(-443.12809 -341.63806)" fill="none"/><path d="M504.5022,395.03848c.00945-.05906.01653-.1193.02362-.1819" transform="translate(-443.12809 -341.63806)" fill="none"/><path id="heart-solid.svg" d="M455.83449,377.86157l16.858,15.73831a3.79207,3.79207,0,0,0,5.16854,0l16.85919-15.73831a13.961,13.961,0,0,0,4.441-10.21662v-.541a13.33657,13.33657,0,0,0-22.76474-9.43235l-1.1197,1.11969-1.11851-1.11969a13.33658,13.33658,0,0,0-22.76475,9.43235v.541a13.95657,13.95657,0,0,0,4.441,10.21662Z" transform="translate(-443.12809 -341.63806)" fill="#fff" fill-rule="evenodd"/><path id="heart-regular.svg" d="M474.15826,357.674l1.03465,1.11969,1.1197-1.11851a13.57577,13.57577,0,0,1,11.70954-3.724,13.33269,13.33269,0,0,1,11.13906,13.15523v.54095a13.95648,13.95648,0,0,1-4.441,10.21543L477.861,393.60106a3.79207,3.79207,0,0,1-5.16854,0l-16.85919-15.73831a13.96884,13.96884,0,0,1-4.4398-10.21543v-.54095a13.33583,13.33583,0,0,1,22.76475-9.43236c-.085,0,0,.00118,0,0Zm1.03465,7.454-4.19767-4.36657a9.05632,9.05632,0,0,0-7.72565-2.39411,8.85963,8.85963,0,0,0-7.39848,8.73905v.54095a9.48314,9.48314,0,0,0,3.01774,6.94021l16.38792,15.3013,16.39265-15.3013a9.49322,9.49322,0,0,0,3.0142-6.94021v-.54095a8.86508,8.86508,0,0,0-7.39849-8.73905,9.05632,9.05632,0,0,0-7.72565,2.39411Z" transform="translate(-443.12809 -341.63806)" fill="#bc955c" fill-rule="evenodd"/><path id="heart-solid.svg_0" data-name="heart-solid.svg 0" d="M475.19291,365.128c-3.44766-3.58585-6.26225-7.702-11.92332-6.76068-5.22524.87166-8.04691,5.68233-7.291,10.70442A21.60672,21.60672,0,0,1,485.204,380.623l6.4654-6.03548c5.39532-5.02681,3.29648-14.93634-4.38429-16.22021C481.67249,357.43424,478.69491,361.626,475.19291,365.128Z" transform="translate(-443.12809 -341.63806)" fill="#f0e2c8" fill-rule="evenodd"/></g></svg>