<svg id="E_05" xmlns="http://www.w3.org/2000/svg" viewBox="0 0 62.31782 59.61307"><title>Oportunidades sugeridas</title><g id="Capa_1"><g id="_739602032" data-name=" 739602032"><path d="M494.09779,349.54324a17.65939,17.65939,0,1,1-17.66,17.66A17.65937,17.65937,0,0,1,494.09779,349.54324Z" transform="translate(-449.43877 -341.83176)" fill="#f9f5ed" fill-rule="evenodd"/><path d="M464.58653,345.67391A11.21171,11.21171,0,1,1,453.37542,356.885,11.2118,11.2118,0,0,1,464.58653,345.67391Z" transform="translate(-449.43877 -341.83176)" fill="#f9f5ed" fill-rule="evenodd"/><path d="M464.16369,379.02142a11.21171,11.21171,0,1,1-11.21111,11.21111A11.21181,11.21181,0,0,1,464.16369,379.02142Z" transform="translate(-449.43877 -341.83176)" fill="#f9f5ed" fill-rule="evenodd"/><path d="M477.8575,348.22748h-.01063c-.14409,0-.28583.00236-.42756.00472l-.1311.00236-.00237.00119-.13464.00354-.13347.00472H477.013l-.12756.00591-.13111.00472-.013.00118-.11929.00709-.25985.01536-.12874.00944-.11338.00945-.01418.00118-.12756.01063-.12756.01182-.1252.013-.11811.01181-.00826.00118-.124.01417-.04725.00473-.07677.00945-.124.01535-.05315.00709-.06969.00945-.12165.01653-.06024.00945-.06142.00945-.12047.01772-.12048.02008-.11929.02007-.11929.02126-.11811.02126c-.19607.03662-.39095.0756-.58229.11812l-.11457.026-.09567.02244-.01771.00473-.11457.02716c-.15118.0378-.3.07677-.44764.11693l-.111.03071h-.00118l-.10866.03189-.10984.03307-.00709.00118-.10276.03189-.10748.03307-.01417.00473-.09449.03071-.10748.03425-.02008.00709-.08622.02952-.10748.03662-.02481.00827-.08031.02834-.1063.0378-.03071.01181-.07441.02716-.10394.039-.0378.01417-.06614.026-.10394.04134-.04252.01653-.06141.02363-.10276.04252-.04724.02007-.05434.02245-.10157.0437-.05315.02244-.04843.02126-.10157.04488-.05788.026-.14291.065-.06378.02952-.03543.01654-.09922.04724a8.91244,8.91244,0,0,0-2.96813,1.81537h-.00118l-.04843.03662-.04724.03543-.04843.03661-.02126.01536-.02716.02126-.04843.03779-.04724.03544-.04843.03779-.00945.00827-.03779.02953-.04843.03661-.04724.0378-.04843.03779-.04724.0378-.04725.0378-.04842.039-.03662.02953-.01063.00827-.04606.039-.04843.039-.04724.0378-.02717.02244-.02008.01772-.04724.039-.04606.039-.04843.039-.01654.01417-.02952.026-.04725.04016-.04724.039-.04725.04016-.0059.0059-.04016.03425-.04724.04134-.04607.04016-.0437.0378-.00354.00236-.04607.04134-.04724.04134-.04606.04133-.03426.02953-.013.01063-.04606.04252-.04725.04134-.04606.04134-.02362.02126-.02244.02126-.04725.04134-.04606.04252-.04606.04252-.013.01181-.03425.03071-.04488.04252-.04724.04252-.04607.04252-.00354.00354-.04252.04016-.04607.04252-.04606.0437-.04016.03662-.0059.00708-.04607.0437-.04606.0437-.04606.04371-.03071.02834-.01536.01536-.04606.0437-.04606.04488-.04607.0437-.02007.02008-.026.0248-.04606.04489-.04607.04488-.04606.04488-.00945.00945-.03543.03543-.04606.04607-.04607.04488-.04606.04606c-.11457.11339-.22559.228-.33544.34371l-.02362.0248c-.10512.111-.20669.22087-.30591.33307l-.04015.04607c-.09567.10748-.189.21614-.27993.32362l-.04488.05433c-.08976.10984-.17953.21851-.26575.32953l-.00472.00591-.00119.00236c-.09094.11457-.17716.23032-.26338.34606l-.02835.04016c-.07914.10748-.15591.215-.23032.32363l-.05315.07677c-.072.10512-.14173.21024-.209.31654l-.052.08149c-.06378.1004-.12756.20079-.1878.30119l-.00945.01653-.00945.01418-.03543.06141-.15709.27048-.03071.05433-.02244.04016-.15827.29409-.0496.09567c-.05552.1063-.10749.21142-.15945.31772l-.0378.07914c-.052.10866-.10394.2185-.15236.32835l-.01063.02126-.02244.052-.13229.30827-.01535.03661-.01418.03189c-.0437.1063-.085.2126-.12638.32008l-.0307.07914-.12048.32835-.03307.09212-.10394.30945-.04015.12756-.0756.24331-.02244.07087-.00708.026-.08623.30591-.03189.11929-.08858.34253-.00827.03543-.08149.34843-.00827.03779-.01063.04961-.06732.32008-.00827.03662-.00355.01889-.06378.339-.01417.0815-.059.352-.00827.052-.05079.33425-.00591.04489-.0059.04724-.04725.36024-.00118.01063-.02716.23268-.01772.16417-.00709.06733-.02244.23031-.00118.0189-.01535.17244-.00473.04016-.01771.2315-.00473.052-.013.17953-.01417.22677v.00354l-.01418.23032-.00945.17008-.00236.05906-.00945.23031-.00945.22914-.00708.22795-.00236.06024-.00355.1689-.00472.228-.00118.00355-.00355.22323-.00236.176v.05079l-.00118.22559-.00118.12048v.10511l.00118.44883-.03307.00236c0,3.15.06378,4.917.0059,6.2221v.00236l-.00354.05433-.00472.05315-.00945.10748-.00473.05433-.00472.05315-.00591.05315-.0059.05315-.00473.05315-.00236.02362-.00354.02953-.00591.05315-.0059.052-.00591.052-.00709.05315-.0059.052-.00354.02716-.00355.02481-.00708.052-.00709.05078-.01417.10276-.00827.052-.00473.02953-.00354.02126-.00118.0059-.04016.24686-.0059.03189-.00355.01771-.00118.00945-.04724.24449-.00945.04252-.01063.04961-.0437.1937-.00827.03543-.00354.01181-.00119.00709-.05905.23032-.01063.039-.00236.00827-.06851.2315-.01181.04016-.00236.0059-.00473.01654-.085.25158-.00118.00236c-.03189.08858-.065.17716-.10039.26457l-.08977.22205-.08858.2185-.00709.01772-.08031.19843-.0874.2126-.01418.03543-.07086.176-.085.2067-.02126.05079-.0626.15354-.08268.202-.02717.06614-.05551.13229-.08031.19606-.03308.08032-.04724.11338-.07795.19134-.039.09213-.039.09567-.07677.18426-.0437.10511-.03189.07678-.07441.18071-.04724.11575-.026.06141-.07087.17363-.05315.12756-.01889.04488-.06969.1689-.05551.137-.013.02952-.06615.16418-.06023.14528-.00709.01653-.06378.15945-.0626.15355-.00236.00236-.06142.15354-.06142.15237-.00354.00944-.05669.13938-.05788.14645-.00945.02126-.04842.124-.05551.14173-.013.03189-.04252.10749-.05315.137-.01653.04134-.03543.09331-.05079.13229-.0189.052-.03071.07914-.06968.1878-.02481.06614-.04488.12283-.02362.06851-.02008.05315-.04134.11811-.026.07559-.01536.04252-.039.11457-.02716.08149-.01063.03071-.03662.111-.02834.0874-.00591.02126-.03307.1063-.02953.09213-.00236.01181-.03071.10276-.02834.09685v.00236l-.02717.098-.026.09685-.00119.00473-.02244.08976-.02244.09213-.00354.01181-.01772.07913-.0189.08859-.00472.01889-.013.06733-.01536.085-.01417.08268-.013.08149-.00945.07677-.00118.00237-.00827.07795-.00827.07559-.00472.07441-.00118.01417-.00355.065-.00236.085v.052l.00236.09449.00118.02008c.08032,1.48584,1.56143,1.66773,4.376,1.66537h1.09607l.14882-.00118h2.24648l6.28706.00118a8.1544,8.1544,0,0,0,16.30879,0l5.0457-.00118h4.28153l.15237.00118h.49134l.0815-.00118h.1311l.12874-.00118h.0189l.10748-.00118.06614-.00118.05788-.00119.1122-.00236h.01063l.12048-.00236.03543-.00118.0815-.00236.07913-.00237.0378-.00118.11338-.00472.00709-.00118.10512-.00473.04961-.00118.06023-.00354.08977-.00473.01771-.00118.10512-.00708.02362-.00237.08032-.0059.06142-.00473.04016-.00354.09685-.00945h.00236l.09685-.00945.03543-.00472.06024-.00591.06969-.00826.02362-.00355.09094-.013.01181-.00118.07678-.01181.04488-.00709.04134-.00709.07677-.013.00827-.00236.08268-.01654.02244-.00472.05787-.01181.052-.013.026-.00591.07677-.0189.00354-.00118.06969-.02008.03189-.00826.04015-.013.05788-.01889.013-.00355.06732-.0248.11812-.04725.01063-.00354.05905-.02716h.00236l.05906-.02953.00354-.00236.05079-.02717.00472-.00236.04961-.02835.00354-.00118.05315-.03425q.04962-.03189.09567-.06733l.00237-.00236.04134-.03189.0059-.0059.0437-.0378.03662-.03425.01063-.01181.03189-.03307.00826-.00945a1.20725,1.20725,0,0,0,.098-.12284l.01063-.01535.0248-.039.02835-.04961a1.366,1.366,0,0,0,.12992-.33661l.01417-.0626.01181-.0626v-.00354c.00709-.04252.013-.08741.01772-.13347l.00472-.06969c.00355-.04842.00473-.09685.00355-.14645v-.03662l-.00236-.08149-.00237-.065v-.00236l-.00118-.01181-.0059-.07441-.00237-.02716h0c-.14763-1.578-1.428-4.30161-3.30947-8.96582a10.70026,10.70026,0,0,1-.65434-3.14176v-.00236l-.00118-.03425-.00118-.02717-.00354-.0626-.00118-.0626-.00118-.03661-.00118-.02717-.00237-.065-.00118-.065-.00118-.039v-.02716l-.00236-.06733-.00118-.06732-.00118-.04252v-.026l-.00118-.06969v-.06968l-.00119-.04607v-.026l-.00118-.072v-.07323l-.00118-.04842v-.65788l.00118-.06024v-.19488l.00118-.06615v-.02244l.00119-.08858v-.091l.00118-.06968v-.11457l.00118-.09449.00118-.07559v-.02008l.00118-.09685.00118-.098v-.1004l.00118-.10157.00118-.10276.00118-.0874v-.01772l.00119-.10512v-.10748l.00118-.09331v-.01653l.00118-.10984.00118-.11221.00118-.09921v-.01418l.00118-.11575.00118-.11693v-.1063l.00118-.013v-.12047l.00118-.12284v-.11338l.00119-.01063v-.1252l.00118-.12756.00118-.12166v-.27283l.00118-.12874v-.14292l.00118-.13819v-.5752l-.03189-.00236C496.21906,357.33385,489.82807,348.22984,477.8575,348.22748Z" transform="translate(-449.43877 -341.83176)" fill="#fff" fill-rule="evenodd"/><path d="M499.14,387.64354c.00709-.04252.013-.08741.01772-.13347" transform="translate(-449.43877 -341.83176)" fill="none"/><path d="M480.32839,389.09276h1.59568c-.38268,4.63941-5.61264,5.26894-7.49652,2.178A4.00585,4.00585,0,0,0,480.32839,389.09276Z" transform="translate(-449.43877 -341.83176)" fill="#f0e2c8" fill-rule="evenodd"/><path d="M499.14,387.64354c.00709-.04252.013-.08741.01772-.13347" transform="translate(-449.43877 -341.83176)" fill="none"/><path d="M481.88155,352.9283q.23386.08149.46418.17008l.0685.026.00591.00236.07441.02953.07322.02952.01418.00591.06023.02362.07323.03071c.12166.05079.24449.10276.36615.15709h0l.07323.03189.07323.03307.01889.00827.05315.0248.07323.03307.039.01772.03425.01653.072.03426.05905.02716.01418.00709.07323.03425.072.03543.00591.00237.06614.03307.07323.03543.1441.07205.04488.02126.02835.01417.07323.03662.06378.03307.00826.00354.072.0378.07323.03661.01063.00591.06142.03189.07323.03779.03071.01654.04133.02126.07323.03779.05079.02717.02244.01181.072.039.07087.03779.00236.00118.07323.039.07205.039.01771.00945.0567.0307.072.039.0378.02008.03543.02008.07323.04016.05788.03071.01653.00945.07323.04015.07441.04134.00236.00118.07087.039.07441.04134.02362.013.04961.02717.07559.04134.04252.0248.03071.01653.07441.04134.065.03662.00945.00472.07559.04252.07559.04134.00945.00591.065.03543.00118.00118a14.98507,14.98507,0,0,1,3.78074,4.187,15.54382,15.54382,0,0,1,2.06695,8.602l-.026-.00827-.00236,1.78938a52.80287,52.80287,0,0,0-.00591,5.73548l-.00118,1.04647c0,1.67363,2.465,6.6284,3.06853,8.58077H460.51524c.35669-1.15276,1.36064-3.34963,2.12364-5.30083h25.0372c-.60355-1.95237-3.06853-6.90714-3.06853-8.58077l.00119-1.04647a52.50589,52.50589,0,0,1,.00708-5.73547l.00118-1.78821.026.00709a15.54374,15.54374,0,0,0-2.067-8.602C482.35636,353.60862,482.126,353.26492,481.88155,352.9283Z" transform="translate(-449.43877 -341.83176)" fill="#f0e2c8" fill-rule="evenodd"/><path d="M473.77085,389.09276h8.15322A4.07662,4.07662,0,1,1,473.77085,389.09276Zm4.08665-40.86528h-.01063c-.14409,0-.28583.00236-.42756.00472l-.1311.00236-.00237.00119-.13464.00354-.13347.00472H477.013l-.12756.00591-.13111.00472-.013.00118-.11929.00709-.25985.01536-.12874.00944-.11338.00945-.01418.00118-.12756.01063-.12756.01182-.1252.013-.11811.01181-.00826.00118-.124.01417-.04725.00473-.07677.00945-.124.01535-.05315.00709-.06969.00945-.12165.01653-.06024.00945-.06142.00945-.12047.01772-.12048.02008-.11929.02007-.11929.02126-.11811.02126c-.19607.03662-.39095.0756-.58229.11812l-.11457.026-.09567.02244-.01771.00473-.11457.02716c-.15118.0378-.3.07677-.44764.11693l-.111.03071h-.00118l-.10866.03189-.10984.03307-.00709.00118-.10276.03189-.10748.03307-.01417.00473-.09449.03071-.10748.03425-.02008.00709-.08622.02952-.10748.03662-.02481.00827-.08031.02834-.1063.0378-.03071.01181-.07441.02716-.10394.039-.0378.01417-.06614.026-.10394.04134-.04252.01653-.06141.02363-.10276.04252-.04724.02007-.05434.02245-.10157.0437-.05315.02244-.04843.02126-.10157.04488-.05788.026-.14291.065-.06378.02952-.03543.01654-.09922.04724a8.91244,8.91244,0,0,0-2.96813,1.81537h-.00118l-.04843.03662-.04724.03543-.04843.03661-.02126.01536-.02716.02126-.04843.03779-.04724.03544-.04843.03779-.00945.00827-.03779.02953-.04843.03661-.04724.0378-.04843.03779-.04724.0378-.04725.0378-.04842.039-.03662.02953-.01063.00827-.04606.039-.04843.039-.04724.0378-.02717.02244-.02008.01772-.04724.039-.04606.039-.04843.039-.01654.01417-.02952.026-.04725.04016-.04724.039-.04725.04016-.0059.0059-.04016.03425-.04724.04134-.04607.04016-.0437.0378-.00354.00236-.04607.04134-.04724.04134-.04606.04133-.03426.02953-.013.01063-.04606.04252-.04725.04134-.04606.04134-.02362.02126-.02244.02126-.04725.04134-.04606.04252-.04606.04252-.013.01181-.03425.03071-.04488.04252-.04724.04252-.04607.04252-.00354.00354-.04252.04016-.04607.04252-.04606.0437-.04016.03662-.0059.00708-.04607.0437-.04606.0437-.04606.04371-.03071.02834-.01536.01536-.04606.0437-.04606.04488-.04607.0437-.02007.02008-.026.0248-.04606.04489-.04607.04488-.04606.04488-.00945.00945-.03543.03543-.04606.04607-.04607.04488-.04606.04606c-.11457.11339-.22559.228-.33544.34371l-.02362.0248c-.10512.111-.20669.22087-.30591.33307l-.04015.04607c-.09567.10748-.189.21614-.27993.32362l-.04488.05433c-.08976.10984-.17953.21851-.26575.32953l-.00472.00591-.00119.00236c-.09094.11457-.17716.23032-.26338.34606l-.02835.04016c-.07914.10748-.15591.215-.23032.32363l-.05315.07677c-.072.10512-.14173.21024-.209.31654l-.052.08149c-.06378.1004-.12756.20079-.1878.30119l-.00945.01653-.00945.01418-.03543.06141-.15709.27048-.03071.05433-.02244.04016-.15827.29409-.0496.09567c-.05552.1063-.10749.21142-.15945.31772l-.0378.07914c-.052.10866-.10394.2185-.15236.32835l-.01063.02126-.02244.052-.13229.30827-.01535.03661-.01418.03189c-.0437.1063-.085.2126-.12638.32008l-.0307.07914-.12048.32835-.03307.09212-.10394.30945-.04015.12756-.0756.24331-.02244.07087-.00708.026-.08623.30591-.03189.11929-.08858.34253-.00827.03543-.08149.34843-.00827.03779-.01063.04961-.06732.32008-.00827.03662-.00355.01889-.06378.339-.01417.0815-.059.352-.00827.052-.05079.33425-.00591.04489-.0059.04724-.04725.36024-.00118.01063-.02716.23268-.01772.16417-.00709.06733-.02244.23031-.00118.0189-.01535.17244-.00473.04016-.01771.2315-.00473.052-.013.17953-.01417.22677v.00354l-.01418.23032-.00945.17008-.00236.05906-.00945.23031-.00945.22914-.00708.22795-.00236.06024-.00355.1689-.00472.228-.00118.00355-.00355.22323-.00236.176v.05079l-.00118.22559-.00118.12048v.10511l.00118.44883-.03307.00236c0,3.15.06378,4.917.0059,6.2221v.00236l-.00354.05433-.00472.05315-.00945.10748-.00473.05433-.00472.05315-.00591.05315-.0059.05315-.00473.05315-.00236.02362-.00354.02953-.00591.05315-.0059.052-.00591.052-.00709.05315-.0059.052-.00354.02716-.00355.02481-.00708.052-.00709.05078-.01417.10276-.00827.052-.00473.02953-.00354.02126-.00118.0059-.04016.24686-.0059.03189-.00355.01771-.00118.00945-.04724.24449-.00945.04252-.01063.04961-.0437.1937-.00827.03543-.00354.01181-.00119.00709-.05905.23032-.01063.039-.00236.00827-.06851.2315-.01181.04016-.00236.0059-.00473.01654-.085.25158-.00118.00236c-.03189.08858-.065.17716-.10039.26457l-.08977.22205-.08858.2185-.00709.01772-.08031.19843-.0874.2126-.01418.03543-.07086.176-.085.2067-.02126.05079-.0626.15354-.08268.202-.02717.06614-.05551.13229-.08031.19606-.03308.08032-.04724.11338-.07795.19134-.039.09213-.039.09567-.07677.18426-.0437.10511-.03189.07678-.07441.18071-.04724.11575-.026.06141-.07087.17363-.05315.12756-.01889.04488-.06969.1689-.05551.137-.013.02952-.06615.16418-.06023.14528-.00709.01653-.06378.15945-.0626.15355-.00236.00236-.06142.15354-.06142.15237-.00354.00944-.05669.13938-.05788.14645-.00945.02126-.04842.124-.05551.14173-.013.03189-.04252.10749-.05315.137-.01653.04134-.03543.09331-.05079.13229-.0189.052-.03071.07914-.06968.1878-.02481.06614-.04488.12283-.02362.06851-.02008.05315-.04134.11811-.026.07559-.01536.04252-.039.11457-.02716.08149-.01063.03071-.03662.111-.02834.0874-.00591.02126-.03307.1063-.02953.09213-.00236.01181-.03071.10276-.02834.09685v.00236l-.02717.098-.026.09685-.00119.00473-.02244.08976-.02244.09213-.00354.01181-.01772.07913-.0189.08859-.00472.01889-.013.06733-.01536.085-.01417.08268-.013.08149-.00945.07677-.00118.00237-.00827.07795-.00827.07559-.00472.07441-.00118.01417-.00355.065-.00236.085v.052l.00236.09449.00118.02008c.08032,1.48584,1.56143,1.66773,4.376,1.66537h1.09607l.14882-.00118h2.24648l6.28706.00118a8.1544,8.1544,0,0,0,16.30879,0l5.0457-.00118h4.28153l.15237.00118h.49134l.0815-.00118h.1311l.12874-.00118h.0189l.10748-.00118.06614-.00118.05788-.00119.1122-.00236h.01063l.12048-.00236.03543-.00118.0815-.00236.07913-.00237.0378-.00118.11338-.00472.00709-.00118.10512-.00473.04961-.00118.06023-.00354.08977-.00473.01771-.00118.10512-.00708.02362-.00237.08032-.0059.06142-.00473.04016-.00354.09685-.00945h.00236l.09685-.00945.03543-.00472.06024-.00591.06969-.00826.02362-.00355.09094-.013.01181-.00118.07678-.01181.04488-.00709.04134-.00709.07677-.013.00827-.00236.08268-.01654.02244-.00472.05787-.01181.052-.013.026-.00591.07677-.0189.00354-.00118.06969-.02008.03189-.00826.04015-.013.05788-.01889.013-.00355.06732-.0248.11812-.04725.01063-.00354.05905-.02716h.00236l.05906-.02953.00354-.00236.05079-.02717.00472-.00236.04961-.02835.00354-.00118.05315-.03425q.04962-.03189.09567-.06733l.00237-.00236.04134-.03189.0059-.0059.0437-.0378.03662-.03425.01063-.01181.03189-.03307.00826-.00945a1.20725,1.20725,0,0,0,.098-.12284l.01063-.01535.0248-.039.02835-.04961a1.366,1.366,0,0,0,.12992-.33661l.01417-.0626.01181-.0626v-.00354c.00709-.04252.013-.08741.01772-.13347l.00472-.06969c.00355-.04842.00473-.09685.00355-.14645v-.03662l-.00236-.08149-.00237-.065v-.00236l-.00118-.01181-.0059-.07441-.00237-.02716h0c-.14763-1.578-1.428-4.30161-3.30947-8.96582a10.70026,10.70026,0,0,1-.65434-3.14176v-.00236l-.00118-.03425-.00118-.02717-.00354-.0626-.00118-.0626-.00118-.03661-.00118-.02717-.00237-.065-.00118-.065-.00118-.039v-.02716l-.00236-.06733-.00118-.06732-.00118-.04252v-.026l-.00118-.06969v-.06968l-.00119-.04607v-.026l-.00118-.072v-.07323l-.00118-.04842v-.65788l.00118-.06024v-.19488l.00118-.06615v-.02244l.00119-.08858v-.091l.00118-.06968v-.11457l.00118-.09449.00118-.07559v-.02008l.00118-.09685.00118-.098v-.1004l.00118-.10157.00118-.10276.00118-.0874v-.01772l.00119-.10512v-.10748l.00118-.09331v-.01653l.00118-.10984.00118-.11221.00118-.09921v-.01418l.00118-.11575.00118-.11693v-.1063l.00118-.013v-.12047l.00118-.12284v-.11338l.00119-.01063v-.1252l.00118-.12756.00118-.12166v-.27283l.00118-.12874v-.14292l.00118-.13819v-.5752l-.03189-.00236C496.21906,357.33385,489.82807,348.22984,477.8575,348.22748Zm22.28285,39.41606c.00709-.04252.013-.08741.01772-.13347ZM463.7503,364.57879q.0443-.31359.09922-.62717l.00118-.00709.00708-.0437.052-.27048.00118-.00472.05552-.26575.01181-.052.00118-.00945.06968-.29764.00355-.01417.07677-.29882.00472-.013.085-.30355.00709-.02362.08977-.28937.00472-.01418.00827-.026.08976-.26693.00709-.02126.00709-.01772.10275-.28111.01063-.02834.10276-.25867.01535-.03779.00709-.01772q.12225-.29409.26221-.587l.00708-.01654.02717-.05433.1252-.25394.00472-.00826.15473-.29174.00945-.01653.15118-.26575.03661-.0626.16536-.27166.04724-.07441.04016-.0626.00591-.01063.04724-.07323.03425-.05315.013-.02008.04842-.07322.02717-.04252.02126-.03071.04842-.072.02126-.03071.02717-.04134.0496-.072.01418-.02126.03543-.05078.04961-.07087.00708-.01181.04252-.06024.05079-.07087.00118-.00118.05079-.06968.04488-.06142.00591-.00945.052-.06968.03779-.052.01418-.0189.052-.06969.03189-.04252.02126-.02716.05315-.06969.0248-.03189.02953-.03779.05315-.06851.01771-.02126.0378-.04724.05433-.06851.00945-.01181.04606-.05669.05551-.06732.00237-.00237.05433-.06614.0496-.05905.00591-.00709.10039-.11693.01418-.01772.176-.19842.02717-.03071.03071-.03426.08031-.08622.04016-.0437.06024-.065.01181-.01181.111-.11693.00237-.00236.11575-.11811.0059-.00591.0626-.0626.04843-.04842.11929-.11575.02362-.02363.065-.06141.03189-.02953.24567-.22559.05315-.04843.06733-.05905.00472-.00355.06378-.05551.06378-.05433.12756-.10866h.00118l.01536-.013.06968-.05787.04606-.03661.09567-.07678.03662-.02834.03543-.02835.072-.05669.02717-.02008.04606-.03544.07323-.05551.01653-.01181.05788-.0437h.00118a26.60631,26.60631,0,0,1,4.70673-2.23939l.29764-.07913.176-.0437.05788-.01418.01535-.00354.21615-.05079.02953-.0059.02716-.00709.17008-.03661.04606-.00945.01063-.00237.22442-.04606h.00354l.2185-.04134.01772-.00354.03662-.00591.16417-.02834.03307-.00591.18307-.02835.04607-.00708.00708-.00118.20788-.02953.0059-.00118h.00591l.00709-.00118.19724-.02481.02008-.00236.22087-.02362.01772-.00236.20078-.01772.00355-.00118c.11929-.00945.2374-.01772.35315-.0248l.04961-.00237.02362-.00118.026-.00118.04961-.00236.04961-.00236.0496-.00237.03544-.00118h.013l.04961-.00118.04842-.00118.04843-.00118.04842-.00118h.06615a14.86019,14.86019,0,0,1,3.41459.4878l.29882.07913.07559.02481c.22678.07441.45119.1559.67324.24094l.0685.026.00591.00236.07441.02953.07322.02952.01418.00591.06023.02362.07323.03071c.12166.05079.24449.10276.36615.15709h0l.07323.03189.07323.03307.01889.00827.05315.0248.07323.03307.039.01772.03425.01653.072.03426.05905.02716.01418.00709.07323.03425.072.03543.00591.00237.06614.03307.07323.03543.1441.07205.04488.02126.02835.01417.07323.03662.06378.03307.00826.00354.072.0378.07323.03661.01063.00591.06142.03189.07323.03779.03071.01654.04133.02126.07323.03779.05079.02717.02244.01181.072.039.07087.03779.00236.00118.07323.039.07205.039.01771.00945.0567.0307.072.039.0378.02008.03543.02008.07323.04016.05788.03071.01653.00945.07323.04015.07441.04134.00236.00118.07087.039.07441.04134.02362.013.04961.02717.07559.04134.04252.0248.03071.01653.07441.04134.065.03662.00945.00472.07559.04252.07559.04134.00945.00591.065.03543.00118.00118a14.98507,14.98507,0,0,1,3.78074,4.187,15.54382,15.54382,0,0,1,2.06695,8.602l-.026-.00827-.00236,1.78938a52.80287,52.80287,0,0,0-.00591,5.73548l-.00118,1.04647c0,1.67363,2.465,6.6284,3.06853,8.58077H460.51524c.60355-1.95237,3.06853-6.90714,3.06853-8.58077l-.00118-1.04647.00708-.0874.00709-.08858.00236-.0378.00354-.04961.00591-.08858.00591-.0874.00944-.17717.00473-.0874.00472-.08858.00237-.04843.00118-.04016.00354-.08858.00354-.08858.00355-.08859v-.00945l.00236-.07913.00236-.08858.00236-.08859.00118-.059.00119-.03071.00118-.08858.00118-.08859.00118-.08976.00118-.0189v-.15945l.00118-.08858v-.26812l-.00118-.08976v-.17953l-.00118-.08976-.00118-.08032v-.00945l-.00118-.08976-.00118-.08977-.00237-.08976v-.04016l-.00118-.04961-.00236-.08976-.00118-.08977-.00236-.09094h0l-.00237-.08977-.00236-.08976-.00236-.08976-.00118-.052-.00118-.039-.00236-.08976-.00237-.091-.00354-.08976v-.01063l-.00236-.08032-.00236-.08976-.00237-.091-.00236-.06142-.00118-.02835-.00236-.09094-.00355-.091-.00236-.08976-.00118-.02126-.00118-.06969-.00354-.09094-.00355-.091-.00236-.07086v-.0189l-.00354-.09095-.00236-.09094-.00355-.08977v-.03189l-.00236-.05905-.00236-.091-.00355-.09094-.00236-.0815v-.00945l-.00236-.09095-.00236-1.78938-.026.00827v-.05788l.00118-.07913v-.13819l.00119-.1063.00118-.03071.00236-.137.00236-.137v-.01771l.00354-.12048.00355-.137.00236-.06614.00236-.07087.00945-.2433.00118-.00827.00118-.02244.01418-.27284.00118-.02717.01535-.24685.00591-.07559.00472-.06142.02008-.25984.00118-.013.026-.27284.00354-.03543v-.00119l.026-.23622.01063-.08386.00591-.052.03543-.26811Z" transform="translate(-449.43877 -341.83176)" fill="#bc955c" fill-rule="evenodd"/><path d="M499.14,387.64354c.00709-.04252.013-.08741.01772-.13347" transform="translate(-449.43877 -341.83176)" fill="none"/><path d="M487.69262,359.11851a4.64165,4.64165,0,0,0,3.48073,4.09964,5.669,5.669,0,0,0,2.14372.1311,5.58435,5.58435,0,0,0,2.03033-.6626,4.65724,4.65724,0,0,0,2.28073-4.89335,4.60182,4.60182,0,0,0-3.45711-4.11972,5.76058,5.76058,0,0,0-4.2024.53741A4.62874,4.62874,0,0,0,487.69262,359.11851Z" transform="translate(-449.43877 -341.83176)" fill="#fff"/><path d="M487.69262,359.11851a4.64165,4.64165,0,0,0,3.48073,4.09964,5.669,5.669,0,0,0,2.14372.1311,5.58435,5.58435,0,0,0,2.03033-.6626,4.65724,4.65724,0,0,0,2.28073-4.89335,4.60182,4.60182,0,0,0-3.45711-4.11972,5.76058,5.76058,0,0,0-4.2024.53741A4.62874,4.62874,0,0,0,487.69262,359.11851Zm2.92915,6.22918a7.19752,7.19752,0,0,1-1.73151-13.0501,7.94886,7.94886,0,0,1,5.83352-.75355,7.203,7.203,0,0,1,1.7008,13.056,7.76951,7.76951,0,0,1-2.83113.93189A7.868,7.868,0,0,1,490.62177,365.34769Z" transform="translate(-449.43877 -341.83176)" fill="#bc955c"/><path d="M494.58677,353.80232a6.60186,6.60186,0,0,1,.60236,2.09057,5.83352,5.83352,0,0,1-5.30083,6.78431,4.82192,4.82192,0,0,0,1.28505.54095,5.669,5.669,0,0,0,2.14372.1311,5.58435,5.58435,0,0,0,2.03033-.6626,4.65724,4.65724,0,0,0,2.28073-4.89335A4.606,4.606,0,0,0,494.58677,353.80232Z" transform="translate(-449.43877 -341.83176)" fill="#f0e2c8" fill-rule="evenodd"/><path d="M487.47529,395.146v-1.18938H490.447V395.146Zm3.36853-1.58505V390.581h1.1882v2.97995Zm1.58506.39567h2.97049V395.146h-2.97049Zm-.39686,1.58505v2.97994h-1.1882v-2.97994Z" transform="translate(-449.43877 -341.83176)" fill="#f0e2c8" fill-rule="evenodd"/><path d="M484.44338,346.39675v-1.18819h2.97168v1.18819Zm3.36735-1.58505v-2.97994h1.1882v2.97994Zm1.58623.39686h2.9705v1.18819H489.397Zm-.398,1.58387v2.98112h-1.1882v-2.98112Z" transform="translate(-449.43877 -341.83176)" fill="#f0e2c8" fill-rule="evenodd"/><path d="M449.43877,374.16587v-1.1882h2.97168v1.1882Zm3.36853-1.58387v-2.98113h1.1882V372.582Zm1.58506.39567h2.97049v1.1882h-2.97049Zm-.39686,1.58505v2.97995h-1.1882v-2.97995Z" transform="translate(-449.43877 -341.83176)" fill="#f0e2c8" fill-rule="evenodd"/></g></g></svg>