<svg id="E_06" xmlns="http://www.w3.org/2000/svg" viewBox="0 0 55.25004 60.25796"><title>Oportunidades favoritas</title><g id="Capa_1"><g id="_912902072" data-name=" 912902072"><path d="M489.93791,360.42837A18.2842,18.2842,0,1,1,471.65312,378.712,18.28366,18.28366,0,0,1,489.93791,360.42837Z" transform="translate(-452.97266 -341.50932)" fill="#f9f5ed" fill-rule="evenodd"/><path d="M468.81609,341.50932a11.60856,11.60856,0,1,1-11.60915,11.60915A11.60876,11.60876,0,0,1,468.81609,341.50932Z" transform="translate(-452.97266 -341.50932)" fill="#f9f5ed" fill-rule="evenodd"/><path d="M470.12594,398.36568V397.168h2.99412v1.19765Zm3.39334-1.59568v-3.00239h1.19765V396.77Zm1.598.398h2.99294v1.19765h-2.99294Zm-.40039,1.59686v3.00239h-1.19765v-3.00239Z" transform="translate(-452.97266 -341.50932)" fill="#f0e2c8" fill-rule="evenodd"/><path d="M452.97266,371.59933v-1.2h3v1.2Zm3.40042-1.59923v-3.00947h1.2v3.00947Zm1.60041.39922h2.99884v1.2h-2.99884Zm-.4004,1.6004V375.008h-1.2v-3.00829Z" transform="translate(-452.97266 -341.50932)" fill="#f0e2c8" fill-rule="evenodd"/><path d="M497.138,353.56375v-1.2h3v1.2Zm3.40042-1.59923v-3.00947h1.2v3.00947Zm1.6004.39922h2.99885v1.2h-2.99885Zm-.40039,1.60041v3.00829h-1.2v-3.00829Z" transform="translate(-452.97266 -341.50932)" fill="#f0e2c8" fill-rule="evenodd"/><path d="M502.62305,386.766c.00709-.04488.013-.08976.01772-.13819" transform="translate(-452.97266 -341.50932)" fill="none"/><path d="M502.62305,386.766c.00709-.04488.013-.08976.01772-.13819" transform="translate(-452.97266 -341.50932)" fill="none"/><path d="M502.62305,386.766c.00709-.04488.013-.08976.01772-.13819" transform="translate(-452.97266 -341.50932)" fill="none"/><path d="M467.459,387.88449c-.21732-9.74181-.00826-20.26315-.00826-30.17031,0-2.13545-.27638-3.73232,1.36536-4.59689,1.26025-.6626,9.50086-.32362,11.58316-.32362,2.03624,0,10.49418-.37678,11.67529.36614,1.578.99686,1.27442,2.67049,1.27442,4.81421,0,9.82449.2067,20.2478-.00945,29.91165l-6.476-3.3579c-.82678-.45118-5.90084-3.2327-6.46423-3.2327C479.44137,381.29389,469.08775,387.33055,467.459,387.88449Z" transform="translate(-452.97266 -341.50932)" fill="#fff" fill-rule="evenodd"/><path d="M467.459,387.88567c-.21614-9.743-.00826-20.26433-.00826-30.17031,0-2.13663-.2752-3.7335,1.36536-4.59807,1.26025-.6626,9.50086-.32362,11.58316-.32362,2.03624,0,10.49418-.37678,11.67411.36732,1.57915.99568,1.2756,2.66813,1.2756,4.813,0,9.82449.20551,20.2478-.00827,29.91165l-6.47721-3.3579c-.82678-.45118-5.90084-3.23152-6.46423-3.2327C479.44137,381.29507,469.08775,387.33055,467.459,387.88567Zm12.94026-15.22807c2.22522-1.24725,5.45556-4.24019,6.23391-6.77131,1.1504-3.74649-2.56656-6.991-6.23391-4.31342-1.38544-.9071-2.87364-1.60277-4.77169-.34252a3.88518,3.88518,0,0,0-1.487,4.56027C474.913,368.421,478.26262,371.55444,480.39925,372.6576Zm-15.53634,17.29974c0,.94489.3815,1.74805,1.402,1.65828.51615-.04606,5.48154-2.82758,6.12761-3.18663.8504-.47245,7.77171-4.22484,8.00675-4.22484.3,0,10.4115,5.55477,12.104,6.46422.913.49016,3.43231,2.15435,3.43231-.711V355.77243a5.19407,5.19407,0,0,0-5.43666-5.56658H470.30075a5.1661,5.1661,0,0,0-5.43784,5.30792Z" transform="translate(-452.97266 -341.50932)" fill="#bc955c" fill-rule="evenodd"/><path d="M467.459,387.88449c-.0626-2.79687-.08858-5.65752-.09567-8.55006.23859.00826.476.01417.71576.01417a21.77261,21.77261,0,0,0,21.21867-26.601,7.94545,7.94545,0,0,1,2.77679.41221c1.578.99686,1.27442,2.67049,1.27442,4.81421,0,9.82449.2067,20.2478-.00945,29.91165l-6.476-3.3579c-.82678-.45118-5.90084-3.2327-6.46423-3.2327C479.44137,381.29389,469.08775,387.33055,467.459,387.88449Z" transform="translate(-452.97266 -341.50932)" fill="#f0e2c8" fill-rule="evenodd"/></g></g></svg>