<?xml version="1.0" encoding="UTF-8"?>
<!DOCTYPE svg PUBLIC "-//W3C//DTD SVG 1.1//EN" "http://www.w3.org/Graphics/SVG/1.1/DTD/svg11.dtd">
<!-- Creator: CorelDRAW Home & Student X8 -->
<svg xmlns="http://www.w3.org/2000/svg" xml:space="preserve" width="22px" height="22px" version="1.1" style="shape-rendering:geometricPrecision; text-rendering:geometricPrecision; image-rendering:optimizeQuality; fill-rule:evenodd; clip-rule:evenodd"
viewBox="0 0 2200000 2200000"
 xmlns:xlink="http://www.w3.org/1999/xlink">
 <defs>
  <style type="text/css">
   <![CDATA[
    .fil1 {fill:white}
    .fil0 {fill:white;fill-rule:nonzero}
   ]]>
  </style>
 </defs>
 <g id="Capa_x0020_1">
  <metadata id="CorelCorpID_0Corel-Layer"/>
  <g id="_1118745232">
   <path class="fil0" d="M517606 366724l230567 0 2945 0 731284 0c58464,0 111645,23906 150015,62363 38370,38370 62276,91551 62276,150015l0 230481 0 2945 0 250141 -173 0 0 4851c0,31960 -25985,57945 -57945,57945 -31874,0 -57858,-25985 -57858,-57945l0 -198520 -771213 0 0 758394 365858 0c31874,0 57858,25984 57858,57945 0,31874 -25984,57858 -57858,57858l-12039 0 0 173 -410205 0 -2945 0 -230567 0c-58464,0 -111645,-23905 -150015,-62276 -38371,-38370 -62276,-91551 -62276,-150015l0 -718551 0 -2945 0 -230481c0,-58464 23905,-111645 62276,-150015 38370,-38457 91551,-62363 150015,-62363zm174095 502276l-270583 0 0 662079c0,26417 11000,50756 28410,68165 17409,17410 41661,28323 68078,28323l116410 0 4417 -173 53268 0 0 -758394zm115803 -386386l0 270583 771213 0 0 -104543 173 -4504 0 -65048c0,-26504 -11000,-50756 -28410,-68165 -17409,-17409 -41661,-28323 -68078,-28323l-674898 0zm-115803 270583l0 -270583 -174095 0c-26417,0 -50669,10914 -68078,28323 -17410,17409 -28410,41661 -28410,68165l0 174095 270583 0z"/>
   <path class="fil1" d="M1586598 1561394c0,130614 -26157,271968 76481,271968 102464,0 76393,-141701 76393,-271968 29622,12992 60197,73882 123079,26417 90079,-67992 -32653,-158417 -90685,-216535 -120047,-120221 -124984,-100040 -307047,89385 -33780,35079 -50756,86355 -4591,124552 63055,52315 99000,-11867 126370,-23819z"/>
  </g>
 </g>
</svg>
