<svg id="Banner_principal" data-name="Banner principal" xmlns="http://www.w3.org/2000/svg" viewBox="0 0 960.00232 231.98805"><title>Escritorio</title><path d="M940.00236,778.87234H39.99766A30.08617,30.08617,0,0,1,9.99884,748.87352v-140.002a30.08617,30.08617,0,0,1,29.99882-29.99881h900.0047a30.08616,30.08616,0,0,1,29.9988,29.99881v140.002A30.08616,30.08616,0,0,1,940.00236,778.87234Z" transform="translate(-9.99884 -546.88429)" fill="#f0dfc0" fill-rule="evenodd"/><path d="M138.13423,601.84636v-3.57874h8.94921v3.57874Zm10.14213-4.77165v-8.97519h3.57874v8.97519Zm4.77519,1.19291h8.94567v3.57874h-8.94567Zm-1.19645,4.77283v8.974h-3.57874v-8.974Z" transform="translate(-9.99884 -546.88429)" fill="#e8d1a2" fill-rule="evenodd"/><path d="M921.99756,631.80384V628.2251h8.9492v3.57874Zm10.14208-4.77166V618.057h3.57872v8.97519Zm4.7752,1.19292h8.94568v3.57874h-8.94568Zm-1.19648,4.77283v8.974h-3.57872v-8.974Z" transform="translate(-9.99884 -546.88429)" fill="#e8d1a2" fill-rule="evenodd"/><path d="M171.99762,746.7877V743.209h8.9492v3.57876h-8.94921Zm10.14212-4.77166v-8.9752h3.57874v8.9752Zm4.7752,1.19292h8.94568v3.57876h-8.94568Zm-1.19646,4.77166v8.9752h-3.57874v-8.9752Z" transform="translate(-9.99884 -546.88429)" fill="#e8d1a2" fill-rule="evenodd"/><path d="M790.06732,759.4621v-3.57874h8.9492v3.57874Zm10.14216-4.77166v-8.9752h3.57872v8.9752Zm4.7752,1.19292h8.94568v3.57874h-8.94568ZM803.7882,760.655v8.97518h-3.57872V760.655h3.57872Z" transform="translate(-9.99884 -546.88429)" fill="#e8d1a2" fill-rule="evenodd"/><path d="M21.99762,636.7751v-3.57874h8.94921v3.57874Zm10.14212-4.77284v-8.974h3.57874v8.974Zm4.7752,1.1941h8.94567v3.57874H36.91494ZM35.71848,637.968v8.9752H32.13974V637.968Z" transform="translate(-9.99884 -546.88429)" fill="#e8d1a2" fill-rule="evenodd"/><path d="M813.05036,601.84636v-3.57874h8.9492v3.57874Zm10.14216-4.77283v-8.974h3.57872v8.974Zm4.7752,1.19409h8.94568v3.57874h-8.94568Zm-1.19648,4.77165v8.9752h-3.57872v-8.9752Z" transform="translate(-9.99884 -546.88429)" fill="#e8d1a2" fill-rule="evenodd"/><g id="_905411984" data-name=" 905411984"><path d="M144.95628,623.4877a41.54646,41.54646,0,1,1-41.54291,41.54645A41.5452,41.5452,0,0,1,144.95628,623.4877Z" transform="translate(-9.99884 -546.88429)" fill="#ebd6ae" fill-rule="evenodd"/><path d="M63.54053,665.24084A41.54646,41.54646,0,1,1,21.99762,706.7873,41.54521,41.54521,0,0,1,63.54053,665.24084Z" transform="translate(-9.99884 -546.88429)" fill="#ebd6ae" fill-rule="evenodd"/><path d="M95.56022,707.94242l-3.68386,13.6181,8.74606,3.03308c2.13071-3.228,2.3374-11.89016,4.51063-15.23622l13.98307,2.50158c.502-10.67244-2.29842-36.80433-3.25275-48.626-1.1504,1.0689-2.24764,2.93268-3.40512,4.18465-1.15276,1.25078-2.36339,2.289-3.6437,3.43582-3.0189-.51023-14.35512-7.95118-15.12284-7.7433-.20079,3.25984,3.07205,17.76378,3.82205,22.17519.95669,5.62914,3.77716,18.25158,3.70984,23.15079Zm47.32559,65.31968a122.86163,122.86163,0,0,1-67.71851-.54922l-.45354-28.8744L136.99683,723.057l5.889,50.20512Z" transform="translate(-9.99884 -546.88429)" fill="#fcefd6" fill-rule="evenodd"/><path d="M59.30037,653.69557a138.12108,138.12108,0,0,1,19.30985-10.28032l.3874-1.598.124,1.64882c.84449-1.089,1.16811-2.90669,2.66457-4.49055,1.27559-1.34882,2.34685-2.60905,3.67913-3.84094,1.41969-2.48977.21851-7.761.00827-10.72678-.45945-1.51653-1.97953-2.04567-3.2374-3.23976a34.59693,34.59693,0,0,1-3.29409-3.80433c-2.048-2.5878-2.57835-7.9252-2.60315-11.25473-8.90315.10867-10.86142-15.95432-3.23386-17.152.79724,1.17637.52913,1.24015,1.75512,1.83071l1.68543-2.99646,7.1126-16.6748c5.98582-.34843,26.811,7.474,30.34016,11.85708,2.30669.81378,8.87362,5.32441,10.663,7.03229,3.37086-.437,1.911-.71575,4.83071.64842-.19016-3.50905-1.70906-7.46457-2.25355-10.94528-.68267-4.36181-.22086-7.15984-2.13425-11.5559-5.88425-13.513-22.80709-20.64213-34.774-19.06535-8.39763,1.10551-11.76023,6.09685-13.9937,13.58385-3.91653,2.71063-4.85433,2.048-6.45944,7.21063C63.52636,590.32944,57.50982,619.192,58.052,640.50384,58.16652,645.04754,59.22006,649.61722,59.30037,653.69557Z" transform="translate(-9.99884 -546.88429)" fill="#59391e" fill-rule="evenodd"/><path d="M76.54565,587.79125l-1.68543,2.99646c.34842,3.724.36141,12.359,1.47874,15.32124.0248,3.32953.55511,8.66693,2.60315,11.25473A34.59693,34.59693,0,0,0,82.2362,621.168c1.25787,1.19409,2.778,1.72323,3.2374,3.23976,11.05866,7.41969,11.89843,11.30906,24.38032,2.485,1.539-.58228,7.95118-6.18307,9.16417-7.46574,4.39016-4.63819,2.5311-7.85552,4.48819-12.71812.11575-4.04409,1.911-13.57794,1.15512-16.70313-1.78937-1.70788-8.3563-6.21851-10.663-7.03229-4.448-1.872-9.11812-4.12086-13.97953-5.4189-3.44528-.92126-11.84055-3.35078-14.87953-3.45826C82.51612,577.57589,79.83266,585.16448,76.54565,587.79125Z" transform="translate(-9.99884 -546.88429)" fill="#f9b479" fill-rule="evenodd"/><path d="M123.50628,606.709c-1.95709,4.8626-.098,8.07993-4.48819,12.71812-1.213,1.28267-7.6252,6.88346-9.16417,7.46574l2.20039,7.98071c4.69134,1.40079,9.15354,6.83386,12.00473,10.3311,1.87677-.37086.20078-.4559,2.65866.42048a17.17067,17.17067,0,0,1,2.35039,1.08189c1.898.95078,3.1311,1.68779,4.77283,2.65984.137-16.85788.53977-33.35315-2.62559-50.04567C128.49526,602.91407,129.91848,605.77,123.50628,606.709Z" transform="translate(-9.99884 -546.88429)" fill="#59391e" fill-rule="evenodd"/><path d="M85.46533,635.13455c.90119,3.222,5.68229,11.96692,7.90512,14.29724,6.38268,1.62283,11.35276,3.46535,17.89961.3815.96968-5.4378,1.91929-9.49489.78425-14.93977l-2.20039-7.98071c-12.48189,8.824-13.32166,4.93465-24.38032-2.485C85.68384,627.37352,86.885,632.64478,85.46533,635.13455Z" transform="translate(-9.99884 -546.88429)" fill="#e67e52" fill-rule="evenodd"/><path d="M111.27006,649.81329c-.026,2.07637-.51851,2.64094-.69449,4.86732-.13228,1.67953-.398,3.11575-.65433,4.75039-.502,3.19252-.91535,6.52914-1.34409,9.75827,2.44724-2.27244,4.47519-5.74843,7.19763-7.689L126.03856,650.796c1.42914,1.46929,3.91063,7.58032,5.38347,7.67362-.92835-2.95393-5.12008-11.72244-7.363-13.265-2.85119-3.49724-7.31339-8.93031-12.00473-10.3311C113.18935,640.3184,112.23974,644.37549,111.27006,649.81329Z" transform="translate(-9.99884 -546.88429)" fill="#fcefd6" fill-rule="evenodd"/><path d="M91.87636,721.56052l3.68386-13.61811c-3.06733-1.75866-13.32638-2.62087-16.77874-1.02284-4.03583,1.86733-7.102,7.34763-7.03347,11.89961C85.59289,718.81918,80.95234,719.50422,91.87636,721.56052Z" transform="translate(-9.99884 -546.88429)" fill="#e67e52" fill-rule="evenodd"/><path d="M79.12163,643.466l.22323,16.95945,8.76969-6.27874,3.861,2.69528c4.28386.95787,10.37953,8.72126,14.41535,11.05511-3.58464-5.87952-10.08779-12.49488-13.02047-18.46535-2.22283-2.33032-7.00393-11.0752-7.90512-14.29724-1.33228,1.23189-2.40354,2.49212-3.67913,3.84094C80.28974,640.55935,79.96612,642.37707,79.12163,643.466Z" transform="translate(-9.99884 -546.88429)" fill="#fcefd6" fill-rule="evenodd"/><path d="M72.40352,778.84754l71.08111.0248-.7252-6.7937c-2.713,1.2366-3.56575,1.96772-6.96969,2.87008-6.68031,1.77284-19.63228,2.74606-26.302,2.70708-8.46851-.04844-26.80158-1.39488-34.32048-4.94292l-2.76378,6.13464Z" transform="translate(-9.99884 -546.88429)" fill="#10312b" fill-rule="evenodd"/><path d="M106.39092,667.89714c1.05709.71221.32481.35788,1.27441,1.08071.737.55985.32835.75118.91182.21142.42874-3.22913.84212-6.56575,1.34409-9.75827.2563-1.63464.52205-3.07086.65433-4.75039.176-2.22638.6685-2.79095.69449-4.86732-6.54685,3.08385-11.51693,1.24133-17.89961-.3815C96.30313,655.40226,102.80628,662.01762,106.39092,667.89714Z" transform="translate(-9.99884 -546.88429)" fill="#f9b479" fill-rule="evenodd"/><path d="M124.6614,590.00582c.7559,3.12519-1.03937,12.659-1.15512,16.70313,6.4122-.939,4.989-3.79488,7.709-7.38779-.12519-3.97912.90827-5.27479-1.72322-8.66692C126.57242,589.29007,128.03226,589.56881,124.6614,590.00582Z" transform="translate(-9.99884 -546.88429)" fill="#e67e52" fill-rule="evenodd"/><path d="M76.339,606.109c-1.11733-2.9622-1.13032-11.59723-1.47874-15.32124-1.226-.59056-.95788-.65434-1.75512-1.83071C65.47754,590.15463,67.43581,606.21762,76.339,606.109Z" transform="translate(-9.99884 -546.88429)" fill="#e67e52" fill-rule="evenodd"/><path d="M76.54565,587.79125c3.287-2.62677,5.97047-10.21536,8.5937-13.69488,3.039.10748,11.43425,2.537,14.87953,3.45826,4.86141,1.298,9.53149,3.54685,13.97953,5.4189-3.52914-4.38307-24.35434-12.20551-30.34016-11.85708Z" transform="translate(-9.99884 -546.88429)" fill="#e67e52" fill-rule="evenodd"/><path d="M93.69171,663.11014c.76772-.20788,12.10394,7.23307,15.12284,7.7433,1.28031-1.14685,2.49094-2.185,3.6437-3.43582,1.15748-1.252,2.25472-3.11575,3.40512-4.18465l-.08859-1.73268c-2.72244,1.94055-4.75039,5.41654-7.19763,7.689-.58347.53976-.17481.34843-.91182-.21142-.9496-.72283-.21732-.3685-1.27441-1.08071-4.03582-2.33385-10.13149-10.09724-14.41535-11.05511C92.37006,658.80266,92.70549,661.67746,93.69171,663.11014Z" transform="translate(-9.99884 -546.88429)" fill="#ebd6ae" fill-rule="evenodd"/><path d="M91.85392,614.77c1.17637,2.40945,4.73622,6.73937,7.85551,6.56811,2.68464-.14764,6.03071-4.2874,7.278-6.3815C104.30628,613.16132,95.024,613.86644,91.85392,614.77Z" transform="translate(-9.99884 -546.88429)" fill="#fefefe" fill-rule="evenodd"/><path d="M92.19526,599.17116c1.53661-3.83857-3.79961-5.70117-5.29489-2.75078C84.81218,600.53179,90.79211,602.67431,92.19526,599.17116Z" transform="translate(-9.99884 -546.88429)" fill="#1e1b1d" fill-rule="evenodd"/><path d="M108.40943,599.23258c1.089,3.32244,6.88937,2.02559,5.56653-2.14842C112.86809,593.581,107.07478,595.16841,108.40943,599.23258Z" transform="translate(-9.99884 -546.88429)" fill="#1e1b1d" fill-rule="evenodd"/><path d="M145.509,712.80148l-2.66575.12756-8.05748,2.041c.20787.26456,10.43858,3.61652,11.44488,3.87992Z" transform="translate(-9.99884 -546.88429)" fill="#e67e52" fill-rule="evenodd"/><path d="M79.55864,590.7003c1.64764.06615,4.55669-2.47086,6.81024-3.03779,3.67323-.92008,5.49921-.23386,8.92913-.06378C95.27793,582.24125,82.84211,584.42865,79.55864,590.7003Z" transform="translate(-9.99884 -546.88429)" fill="#1e1b1d" fill-rule="evenodd"/><path d="M105.00785,587.29991c3.176-.21614,5.14607-.97913,8.55827-.14882,2.34213.56929,4.62874,2.40118,6.53386,2.713-1.40906-4.03819-7.28031-5.43779-11.8122-5.13071C105.72124,584.90818,105.33148,584.87865,105.00785,587.29991Z" transform="translate(-9.99884 -546.88429)" fill="#1e1b1d" fill-rule="evenodd"/><path d="M100.1488,607.7873c.74291,2.51693-.12165.93307-.22087,2.63268,2.00788.09567,2.58544.02716,3.40985-1.77992-.874-1.676-2.2252-2.57835-3.3189-5.13307C99.43778,605.744,99.51691,605.646,100.1488,607.7873Z" transform="translate(-9.99884 -546.88429)" fill="#e67e52" fill-rule="evenodd"/><path d="M142.84329,712.929l1.62519-7.13267,1.04056,7.00511.72165,6.04844c-1.0063-.2634-11.237-3.61536-11.44488-3.87992ZM59.30037,653.69558a35.10133,35.10133,0,0,0-4.46456,2.25118c-2.14725,1.10906-2.38347,1.79646-3.06733,4.04409-4.08425,13.45394-.28346,50.33032,3.287,64.04883a48.30287,48.30287,0,0,0,3.76063,10.52244c1.728,3.0567,6.07914,3.28584,9.085,4.826L61.561,763.8015c5.015,4.69134,35.75079,8.93858,41.57008,5.29726l.04843-30.49488,16.76929-3.44174.25984,34.36182c4.6878,2.82284,24.21969-.25276,28.10079-4.1693.53622-3.39212-3.09921-18.3437-3.46772-23.26062,5.56418.3508,10.71969,1.65708,15.20906-2.74132,9.71456-9.51378,3.887-33.42638,1.05827-44.82756-3.57284-14.39528-8.30788-26.28071-16.1504-38.4567-1.37244-2.12952-8.459-6.274-11.11772-6.70157-1.64173-.972-2.8748-1.70906-4.77283-2.65984a17.17067,17.17067,0,0,0-2.35039-1.08189c-2.45788-.87638-.78189-.79134-2.65866-.42048,2.24291,1.54252,6.43464,10.311,7.363,13.265-1.47284-.0933-3.95433-6.20433-5.38347-7.67362l-10.26378,10.70433.08859,1.73268c.95433,11.82165,3.75472,37.95354,3.25275,48.626l-13.98307-2.50157c-2.17323,3.346-2.37992,12.00827-4.51063,15.23621l-8.74606-3.03308c-10.924-2.0563-6.28347-2.74134-20.12835-2.74134-.0685-4.552,2.99764-10.03228,7.03347-11.89961,3.45236-1.598,13.71141-.73582,16.77874,1.02284l5.66338.4937c.06732-4.89921-2.75315-17.52165-3.70984-23.15079-.75-4.41141-4.02284-18.91535-3.82205-22.17519-.98622-1.43268-1.32165-4.30748-1.71614-6.26811l-3.861-2.69528-8.76969,6.27874-.22323-16.95945-.124-1.64882-.3874,1.598A138.12108,138.12108,0,0,0,59.30037,653.6956Z" transform="translate(-9.99884 -546.88429)" fill="#10312b" fill-rule="evenodd"/><path d="M87.70116,603.05108a5.32441,5.32441,0,1,1-5.32441,5.32323A5.3237,5.3237,0,0,1,87.70116,603.05108Z" transform="translate(-9.99884 -546.88429)" fill="#e67e52" fill-rule="evenodd"/><path d="M113.26848,603.05108a5.32441,5.32441,0,1,1-5.32559,5.32323A5.324,5.324,0,0,1,113.26848,603.05108Z" transform="translate(-9.99884 -546.88429)" fill="#e67e52" fill-rule="evenodd"/></g><g id="_905406008" data-name=" 905406008"><path d="M843.54172,623.4877a41.54646,41.54646,0,1,1-41.54288,41.54645A41.54523,41.54523,0,0,1,843.54172,623.4877Z" transform="translate(-9.99884 -546.88429)" fill="#ebd6ae" fill-rule="evenodd"/><path d="M918.78852,683.68021a41.54647,41.54647,0,1,1-41.54288,41.54647A41.54524,41.54524,0,0,1,918.78852,683.68021Z" transform="translate(-9.99884 -546.88429)" fill="#ebd6ae" fill-rule="evenodd"/><path d="M892.69444,713.92944c2.36456-1.62284,7.285-2.3504,10.36184-2.28662l-2.29136,4.9559Zm-47.5228,5.34684c-6.51728-.7311-9.17008-2.05984-16.37008-1.55552-.13112-4.78464,2.55472-9.84922,6.76536-11.8063,3.84568-1.78819,12.08976-.84095,15.9508.53386-.64608,1.51771-2.48032,3.97086-3.46064,5.97284C846.9598,714.66408,846.13068,717.47156,845.17164,719.27628Zm55.26376-82.0689c-.50672,1.8685-1.63112,4.76929-3.1016,5.8252-.29288,1.85551-11.32208,22.05945-13.15272,25.38779-4.26024,7.74213-9.58936,17.2063-13.2484,25.08662l-.85392,1.88976-5.4744,10.25787c-1.265,2.33741-2.5524,4.089-3.41456.48544-.13816-.5752-.21144-1.17166-.326-1.7563-.25864-1.32166-.53624-2.6374-.8244-3.94606a64.12355,64.12355,0,0,1-1.50824-7.56733c-.54688-2.35039-1.87088-6.58464-1.6264-8.82638-1.35472-1.8437-1.68664-5.7933-2.1732-8.31378-.80432-4.15984,3.27992-19.49409,3.62128-26.6244-2.009.98858-3.86456,4.28858-7.33936,4.09606.48664-1.6937,6.03664-14.67166,5.309-15.05433-2.44136.66614-27.42992,13.46338-29.97048,14.85827-3.78424,2.07874-3.56336,2.237-5.53224,5.922-3.2232,6.0378-6.93664,18.54095-8.55472,24.94488-1.76928,6.99922-12.99448,51.89647-5.54288,56.811,4.08424,2.69292,13.93232,3.085,18.88936,3.64016l.567,34.54842,97.552-.12638-3.0248-35.7366c3.02832-1.25906,3.065-3.36378,4.2012-6.372l7.76928-22.82126c3.95432-13.14212,10.50712-39.22795,5.53344-52.74331-1.59216-4.32755-5.50512-6.07086-10.97832-9.42755-8.5252-5.22874-17.30784-10.10906-25.99728-15.10867l-.7984.67087Z" transform="translate(-9.99884 -546.88429)" fill="#10312b" fill-rule="evenodd"/><path d="M870.9326,693.507c3.659-7.88032,8.98816-17.34449,13.2484-25.08662,1.83072-3.32834,12.85984-23.53228,13.15272-25.38779L883.6518,655.75777c-3.0756-.83858-5.55944-3.90708-8.13544-1.96889a69.39054,69.39054,0,0,0-5.35512,5.48149c.117,4.53307-.12992,32.70827.77128,34.23662Z" transform="translate(-9.99884 -546.88429)" fill="#fcefd6" fill-rule="evenodd"/><path d="M845.17164,719.27628c.959-1.80472,1.78816-4.6122,2.88544-6.85512.98032-2.002,2.81456-4.45512,3.46064-5.97283-3.861-1.37481-12.10512-2.32205-15.9508-.53386-4.21064,1.95708-6.89648,7.02165-6.76536,11.80629C836.00156,717.21644,838.65436,718.54516,845.17164,719.27628Z" transform="translate(-9.99884 -546.88429)" fill="#e67e52" fill-rule="evenodd"/><path d="M856.90468,684.044c-.24448,2.24174,1.07952,6.476,1.6264,8.82638.45712-.7063,2.20512-19.18464,2.46968-21.74173.3756-3.63071.94488-7.41614,1.21768-11.01614.3024-3.99331-2.14488-6.41693-2.39528-9.74292C856.87036,653.19124,858.30308,678.168,856.90468,684.044Z" transform="translate(-9.99884 -546.88429)" fill="#f0dfc0" fill-rule="evenodd"/><path d="M892.69444,713.92944l8.07048,2.66928,2.29136-4.95592c-3.0768-.06378-7.99728.66378-10.36184,2.28662Z" transform="translate(-9.99884 -546.88429)" fill="#e67e52" fill-rule="evenodd"/><polygon points="864.966 104.042 866.507 103.694 866.843 102.442 864.096 97.386 861.418 97.445 864.966 104.042" fill="#f0dfc0" fill-rule="evenodd"/><path d="M893.47276,629.62707l3.89176-2.0315c-1.3264-1.0311-1.89216-.79134-3.76656-.93543Zm-31.81656,17.0622,1.27088-.235-.06376-1.924c2.15312.49725,7.21536.06142,8.55352-.20078l2.67752-.05906-.76064-1.23425c-1.0488,1.24961-3.18072.77835-5.0764.77244-1.8272-.0059-3.63776.04488-5.42248-.1122l-.0768-2.31733c.68384-3.40511,2.7496-6.85157,2.23584-10.34645a4.62,4.62,0,0,0-2.52992,1.539l-.0012-.04606-5.6988,5.38583-.44176.23622c.72752.38267-4.8224,13.36063-5.309,15.05433,3.4748.19252,5.33032-3.10748,7.33936-4.09606-.34136,7.13031-4.4256,22.46456-3.62128,26.6244.48664,2.52048.81848,6.47008,2.1732,8.31378,1.3984-5.876-.03424-30.85275,2.91848-33.67441-.68384-1.78582-1.39016-5.05039.3248-6.38622l1.50824,2.70591Zm14.95632,1.17047-1.6476,3.06614c-2.00784,2.25945-3.4512,4.69725-5.87008,7.07481l.29528,32.63976c-.00472,1.90984-.2232,3.57992.68856,4.7563l.85392-1.88976c-.9012-1.52835-.65432-29.70355-.77128-34.23662a69.39054,69.39054,0,0,1,5.35512-5.48149c2.576-1.93819,5.05984,1.13031,8.13544,1.96889l13.68192-12.72519c1.47048-1.05591,2.59488-3.9567,3.1016-5.8252l-17.32088,17.00787C880.07436,653.118,878.76924,649.69518,876.61252,647.85974Z" transform="translate(-9.99884 -546.88429)" fill="#ebd6ae" fill-rule="evenodd"/><path d="M866.096,625.0125c-.6236,6.10157-2.46968,11.27126-3.40392,16.722a11.51308,11.51308,0,0,0-.14176,1.93464c1.8768.19016,3.783.13347,5.70712.13937,1.89568.00591,4.0276.47717,5.0764-.77244,1.0512-3.04842,17.06224-9.98386,20.139-13.409l.1252-2.96693c-.01776-2.68465-.23264-4.41733-.06376-7.29331-.48544,1.10079-9.6236,6.79252-11.40352,7.14094-1.467.28465-7.937,1.49646-9.28584,1.18347-3.03192-.70394-4.12912-1.96536-6.7488-2.67874Z" transform="translate(-9.99884 -546.88429)" fill="#e67e52" fill-rule="evenodd"/><path d="M872.92988,643.40226l3.09688,5.54646c4.2272.80315,1.52128,3.25748,7.08776,5.26653l17.32088-17.00787-.08264.29173.88112-.9626c-1.19176-4.76338-2.57008-8.64448-4.6004-9.42637a5.25735,5.25735,0,0,1,.73112.48543l-3.89176,2.0315c-3.0768,3.42519-19.08776,10.36063-20.139,13.409a2.00172,2.00172,0,0,1-.40392.36614Zm3.75,9.82677,1.59216,4.17048,5.37992-1.64174C881.04052,655.04557,878.85668,652.72825,876.67988,653.229Z" transform="translate(-9.99884 -546.88429)" fill="#fcefd6" fill-rule="evenodd"/><path d="M858.39172,575.385l.6248.7311c-5.27832,2.9504-6.37088,1.20709-6.27288,9.35079.0496,4.04055.60352,9.73819,1.08192,13.826a7.31385,7.31385,0,0,1-.13232,4.94292l.87992.17126c.4476,4.50945.71576,8.84763,3.68384,12.24921,5.009,8.21693,15.61888,16.49764,25.59448,11.49685,10.45512-5.25118,16.62048-18.55748,16.12912-23.74134l.97208-.05551c-.73584-1.01693-.75472-.50906-1.01336-1.58386-.613-2.54173.21728-1.50354.44288-1.715.189-5.07046,1.34056-11.03621,1.26256-16.01574-.14408-9.22677-1.89448-6.28582-7.30392-9.89291l3.89176-2.83347-1.45512-2.159c-4.86264-.33307-14.27832,2.52756-19.08424,3.939-1.10312.3248-7.35824-1.13977-9.861-1.17874-2.30784-.03662-8.9268-.06733-9.44056,2.4685Zm35.1508,49.01928.04136.07559C893.52956,618.833,893.33468,618.66289,893.54252,624.40423Z" transform="translate(-9.99884 -546.88429)" fill="#f9b479" fill-rule="evenodd"/><path d="M850.4606,588.39834a47.14489,47.14489,0,0,0,3.17128,11.77558l.19368-.88111c-.47832-4.08778-1.03232-9.78542-1.08192-13.826-.098-8.1437.99448-6.40039,6.2728-9.35079l-.6248-.7311-2.641-1.79291a9.52035,9.52035,0,0,1,1.87088-3.74882c7.66184-.326,12.91536,1.72677,21.20432-.16536,3.14648-.71811,6.14648-1.6063,9.3768-2.13661,3.952-.65079,6.83032-1.14567,8.5748,2.615l1.45512,2.159-3.89176,2.83347c5.40944,3.60709,7.15984.66614,7.30392,9.89291.07792,4.97953-1.0736,10.94528-1.26256,16.01574.57168-.42283.215.24095.81968-.88346A11.90263,11.90263,0,0,0,901.757,598.57c1.0736-3.548,1.92992-9.49015,2.15432-10.0181.0472-8.41417.56808-13.32992-3.58112-19.252,1.2012-1.53307,2.45792-2.27835,3-4.35945,1.65352-6.33779-3.59176-10.22716-8.94328-13.63464-8.95984-5.70473-13.63232-5.20512-23.60672-2.341-15.098,4.33465-13.41024,3.3437-16.539,13.63583-2.61376,8.5996-4.90272,16.54015-3.78072,25.79764Z" transform="translate(-9.99884 -546.88429)" fill="#1e1b1d" fill-rule="evenodd"/><path d="M858.39172,575.385c.51376-2.53583,7.13272-2.50512,9.44056-2.4685,2.50272.039,8.75792,1.50354,9.861,1.17874,4.80592-1.41142,14.22168-4.27205,19.08424-3.939-1.74448-3.76063-4.62288-3.26575-8.5748-2.615-3.23032.53031-6.23032,1.4185-9.3768,2.13661-8.289,1.89213-13.54248-.16063-21.20432.16536a9.52142,9.52142,0,0,0-1.87088,3.74882Z" transform="translate(-9.99884 -546.88429)" fill="#e67e52" fill-rule="evenodd"/><path d="M885.87124,611.62588a78.84247,78.84247,0,0,0-17.55824.013c.89528,2.74133,6.08976,5.96574,9.26576,5.726,2.7992-.21142,7.4232-3.57756,8.29256-5.739Z" transform="translate(-9.99884 -546.88429)" fill="#fefefe" fill-rule="evenodd"/><path d="M853.69324,604.23573a7.31433,7.31433,0,0,0,.13232-4.94292l-.19368.88111a47.14489,47.14489,0,0,1-3.17128-11.77558C844.52556,592.53928,847.02,606.29911,853.69324,604.23573Z" transform="translate(-9.99884 -546.88429)" fill="#e67e52" fill-rule="evenodd"/><path d="M900.3822,601.05738c-.2256.21142-1.05592-.82677-.44288,1.715.25864,1.0748.2776.56693,1.01336,1.58386,7.3984,1.47283,8.12712-13.80944,2.95864-15.80432-.2244.528-1.08072,6.47008-2.15432,10.0181a11.90263,11.90263,0,0,1-.55512,1.60394C900.59716,601.29833,900.95388,600.63455,900.3822,601.05738Z" transform="translate(-9.99884 -546.88429)" fill="#e67e52" fill-rule="evenodd"/><path d="M857.4078,584.98022c1.43384,1.41142,5.693-.19842,7.86024-.29055,3.38032-.14527,5.9516.65788,8.78264.65433.01536-2.46732-.01416-3.13464-2.54176-3.57519a21.8425,21.8425,0,0,0-5.81576-.24449c-2.18264.2126-7.84728,1.16339-8.28544,3.4559Z" transform="translate(-9.99884 -546.88429)" fill="#1e1b1d" fill-rule="evenodd"/><path d="M880.29284,584.60227c2.14248.23622,5.8524-.75,8.76848-.561,2.1756.14055,6.21968,1.82126,7.8496.4252.183-3.98741-13.26848-3.79489-16.25432-2.6752Z" transform="translate(-9.99884 -546.88429)" fill="#1e1b1d" fill-rule="evenodd"/><path d="M863.92636,594.74794c.95432,3.05787,6.7748,2.07756,5.50512-1.99488C868.36612,589.33731,862.6886,590.78652,863.92636,594.74794Z" transform="translate(-9.99884 -546.88429)" fill="#1e1b1d" fill-rule="evenodd"/><path d="M884.99724,594.75385c1.20592,3.39684,6.66256,1.69606,5.44136-2.03268C889.3378,589.36093,883.64492,590.94479,884.99724,594.75385Z" transform="translate(-9.99884 -546.88429)" fill="#1e1b1d" fill-rule="evenodd"/><path d="M877.68852,595.205a11.33223,11.33223,0,0,0-.03544,5.89015c1.05712,3.96259-.00944,1.56141-.4748,4.30984,2.54408.098,3.61416-1.43622,3.92008-3.85748a21.45,21.45,0,0,1-2.074-3.0815C878.39244,597.20345,878.30388,596.131,877.68852,595.205Z" transform="translate(-9.99884 -546.88429)" fill="#e67e52" fill-rule="evenodd"/><path d="M863.82356,598.28888a6.11516,6.11516,0,1,1-6.11576,6.11574A6.11506,6.11506,0,0,1,863.82356,598.28888Z" transform="translate(-9.99884 -546.88429)" fill="#e67e52" fill-rule="evenodd"/><path d="M890.722,598.28888a6.11516,6.11516,0,1,1-6.11576,6.11574A6.11506,6.11506,0,0,1,890.722,598.28888Z" transform="translate(-9.99884 -546.88429)" fill="#e67e52" fill-rule="evenodd"/><path d="M853.51372,650.38258c2.90432.18779,6.17248-5.70473,9.25864-8.55709L865.3,629.63415l-7.88624,7.66418Q855.46312,643.841,853.51372,650.38258Z" transform="translate(-9.99884 -546.88429)" fill="#fcefd6" fill-rule="evenodd"/><path d="M859.82316,650.36958c.2504,3.326,2.6976,5.74961,2.39528,9.74292-.2728,3.6-.84216,7.38543-1.21768,11.01614-.26456,2.55709-2.01264,21.03543-2.46968,21.74173a64.156,64.156,0,0,0,1.50824,7.56733c.28816,1.30866.56576,2.6244.8244,3.94606.11456.58464.18776,1.1811.326,1.7563.86224,3.60354,2.1496,1.852,3.41456-.48544l5.4744-10.25787c-.91184-1.17638-.69328-2.84646-.68856-4.7563l-.29528-32.63976c2.41888-2.37756,3.86224-4.81536,5.87008-7.07481,2.9256-1.52952,1.8224-8.57362-2.035-7.52362-3.2232.10748-7.65592,1.26732-10.23776-1.66771-2.1,1.174-3.59056,6.75-2.86888,8.635Z" transform="translate(-9.99884 -546.88429)" fill="#bc955c" fill-rule="evenodd"/></g></svg>