<svg
  xmlns="http://www.w3.org/2000/svg"
  xml:space="preserve"
  width="160"
  height="130"
  style="shape-rendering:geometricPrecision;text-rendering:geometricPrecision;image-rendering:optimizeQuality;fill-rule:evenodd;clip-rule:evenodd"
  viewBox="0 0 16000000 12999985"
><defs><style>.fil3{fill:#f0e2c8}.fil1{fill:#fff}</style></defs><g
    id="Capa_x0020_1"
  ><path
      d="M3431474 8118701c1209809 0 2190483 980793 2190483 2190602s-980674 2190601-2190483 2190601c-1209810 0-2190602-980792-2190602-2190601s980792-2190602 2190602-2190602zM6289873 499963c1376936 0 2493084 1116265 2493084 2493201 0 1377054-1116148 2493202-2493084 2493202-1376935 0-2493201-1116148-2493201-2493202 0-1376936 1116266-2493201 2493201-2493201zm6035581 4684511c1759025 0 3184977 1425952 3184977 3184977 0 1759142-1425952 3185094-3184977 3185094-1759024 0-3184976-1425952-3184976-3185094 0-1759025 1425952-3184977 3184976-3184977z"
      style="fill:#f9f5ed"
    /><rect
      class="fil1"
      x="2614451"
      y="2973248"
      width="8347337"
      height="7637180"
      rx="1019640"
      ry="999949"
    /><path
      d="m4761165 6902632-27047-2007-26929-5315c-52678-14292-104765-24922-155434-31890-50670-6851-101458-10394-151418-10394l-75473 2716-81260 8504-87521 14646-59173 12402-6732 317364 502207-47009 91536-4842c24803 0 48543 4134 70748 12402 22087 8267 42756 20787 60827 37086 19134 16890 33780 37087 43465 59882 9331 22560 14173 47481 14173 73938 0 51732-14882 93780-44291 124961-28701 30473-70040 49134-123072 55867-193229 28937-439372 38504-637562 55275l-4252 165119c0 65079 1890 115395 5433 150592l6378 45118c2362 2008-236-5551 8622-4961 19134 1890 47363 2953 85276 2953 173269-2835 326222-6968 496656-18307 24095 0 47126 3543 68268 10512 21615 7441 41457 18307 59292 32480 21260 16654 37677 37441 48662 61536 10629 23622 16063 49961 16063 78780 0 48780-13583 88937-40631 119882-26456 30355-64724 50197-114095 59528-35669 6733-90118 11929-162638 15236-71457 3189-160040 4961-265395 4961-230907 0-384451-33543-459451-100512-43229-38386-75591-97796-96142-177166-19371-74528-29292-168190-29292-280395 0-91182 6732-228072 19843-410081l14764-235868c3189-65905 4842-121536 4842-166536l-2244-40157-13937-121182-2480-48071c0-62717 15945-111261 47126-145277 32480-35078 79016-52913 139016-52913 18898 0 37441 2834 55158 8031l33662 14292 98268-21851 111142-18661c36496-4961 71693-8859 105355-11221 34252-2362 67559-3661 99922-3661 86693 0 165119 4960 234922 15000 70867 9921 133701 25394 187442 45827 39213 14764 69331 36732 90000 65315 21024 29055 31772 64134 31772 104528 0 22796-4252 44882-12283 65552-8150 20551-20197 39921-35906 57165-17599 19725-37796 35079-60709 45237-22914 10275-48071 15590-75473 15590zm2083239 1004533c118 17480-1536 40984-4488 69567l-12756 96733c-8268 53858-29174 95433-61654 124253-32953 29173-76418 43937-130158 43937-30827 0-62599-8268-95316-24685-29764-14764-61181-37087-94134-66497-130749-117756-270238-259726-418112-425199-123781-138662-253466-293623-388585-464884l-3307 196418 6142 480711c118 106418-13583 187678-40630 243545-32363 66496-81969 99922-148820 99922-29764 0-57520-4961-82323-14528-25630-9921-48190-24921-67324-44528-17362-17835-30472-37677-39094-59173-8740-21851-13229-45473-13229-69922 11693-362600 25630-693547 12166-1059808l-17362-209765-3071-78780c0-26457 6023-52323 17480-76418 10630-22677 27284-44291 49252-64252 20906-19370 44174-34370 68859-44173 25157-10276 51969-15355 79843-15355 34961 0 70748 14055 106418 41930 30827 24212 62835 59882 95669 106654 151655 216260 302837 413387 453428 590908 125197 147520 249214 280868 371695 399451l-2245-467247c-1535-109961-3897-194528-7204-252757l-19961-169843-2598-52678c0-59055 16889-104764 50669-136772 32953-31417 80079-47244 140552-47244 76300 0 131575 52795 165473 158150 28701 89174 43111 220986 43111 394490l-8386 797839zm1430204-1004533-27048-2007-26929-5315c-52677-14292-104764-24922-155434-31890-50669-6851-101457-10394-151418-10394l-75473 2716-81260 8504-87520 14646-59174 12402-6732 317364 502207-47009 91536-4842c24803 0 48544 4134 70749 12402 22086 8267 42756 20787 60827 37086 19134 16890 33779 37087 43464 59882 9331 22560 14174 47481 14174 73938 0 51732-14882 93780-44410 124961-28583 30473-69922 49134-123071 55867-193230 28937-439255 38504-637445 55275l-4252 165119c0 65079 1890 115395 5434 150592l6378 45118c2362 2008-237-5551 8622-4961 19134 1890 47362 2953 85276 2953 173268-2835 326222-6968 496656-18307 24094 0 47126 3543 68268 10512 21614 7441 41339 18307 59291 32480 21260 16654 37678 37441 48662 61536 10630 23622 16063 49961 16063 78780 0 48780-13583 88937-40630 119882-26457 30355-64725 50197-114095 59528-35670 6733-90119 11929-162639 15236-71457 3189-160040 4961-265395 4961-230906 0-384450-33543-459451-100512-43228-38386-75591-97796-96142-177166-19370-74528-29291-168190-29291-280395 0-91182 6732-228072 19842-410081l14764-235868c3189-65905 4843-121536 4843-166536l-2245-40157-13937-121182-2480-48071c0-62717 15945-111261 47126-145277 32481-35078 79016-52913 138899-52913 19015 0 37559 2834 55275 8031l33662 14292 98268-21851 111142-18661c36497-4961 71694-8859 105355-11221 34252-2362 67560-3661 99922-3661 86693 0 165119 4960 234923 15000 70866 9921 133701 25394 187441 45827 39213 14764 69331 36732 90001 65315 21024 29055 31772 64134 31772 104528 0 22796-4252 44882-12284 65552-8150 20551-20197 39921-35906 57165-17598 19725-37795 35079-60709 45237-22913 10275-48071 15590-75472 15590zm1578551 1310086c-23859 0-47245-4961-69568-14410-21496-8976-42047-22677-60827-40158-99685-93425-204331-172678-313702-237402-90473-53505-184607-97206-282403-131221l8150 262914c118 25512-4488 48898-13347 70630-8858 21969-22441 41694-39685 59056-17717 17598-37677 31063-59764 39921-22087 8859-46181 13347-71457 13347-25748 0-49489-4488-71457-13347-22205-8858-42520-22441-59882-39803-17245-17480-30709-37323-39567-59055-8859-21851-13583-45237-13583-69686l4370-1269337c-118-26693 4016-52087 11811-76417 7913-23977 20079-47245 36260-69095 22087-29410 48544-50788 79370-64134 30709-13347 65079-18544 102403-15591 81378 6024 173032 8740 253229 19488 49370 5788 95434 14882 137717 26693 42756 11929 82205 27284 117757 45591 149292 75237 262088 160513 337915 255001 78425 97796 117874 205749 117874 323506 0 49252-8622 96378-25748 140788-16890 43819-42401 85040-76063 122717-32953 36851-74292 70985-122953 101693-25630 16064-53150 31300-82796 45591 59292 36142 113504 72756 162402 109843 69686 52560 128387 106300 175513 160513 15118 17244 26693 36024 34252 55748 7913 20197 12047 41339 12047 63189 0 24804-4960 48308-14409 70395-9331 21732-23622 41693-41929 59409-18190 17481-38741 31063-60946 39922-22441 9094-46299 13701-70984 13701zm-649728-1271109-70630-4843v444570c80197 0 149410-5079 207521-14764 56457-9449 102874-23622 138544-41930 15000-7441 29645-16535 43110-26456 13937-10394 27402-21969 40040-34725 12165-12402 21141-22559 26220-30591l3543-3661c0-28937-9448-57993-28346-86575-20788-31536-53268-63544-96851-95434-42166-30591-85630-54921-129449-72402-43465-17244-88229-28346-133702-33189zm1411542 1176147c-16771-11692-33307-24212-49370-37323-79843-65787-140079-141614-180119-226654-40276-85512-60354-180474-60354-284293 0-119292 18897-233859 56102-342876 37205-108543 93426-212363 168190-310867 23032-30473 46890-58819 71811-85276 8859-557129 21260-1141069-10748-1654497H2914621c-43229 695791-4489 1521976-4489 2231822 0 745162 119 1490323 0 2235366 0 776578-160040 661184 1588709 661184l5618295 118c567877 2126 497837-100630 497837-634019V8117756zm511184-1535794c21969-1772 44174-2481 66851-2481 121536 0 229135 14292 321497 42520 94371 28819 173505 72638 236695 131103 63898 58701 111851 132402 143622 220277 31182 86103 46890 186024 46890 298820 0 118820-17244 232797-51614 341104-34488 108308-86221 210946-154725 307561-80079 112914-172915 198190-278151 255237-99331 54095-209883 82678-331065 85867v863390c0 654216 112678 1340794-413860 1603118-304726 151654-1500126 86811-1931466 86811H4771677c-431695 0-1633709 63662-1940324-78071-571775-264214-432404-988351-432404-1584693V5118096c0-939335-183426-1901466 669924-2356665 112206-59764 282049-96024 355041-136891 56930-31771 303900-687286 964257-504096 289017 80079 402640 246142 525357 481892 1644693 1417 893154 51850 1369613-335671 273309-222285 660003-237049 943706-12048 505041 400396-272600 348900 1384731 348782 81732-158151 82795-178466 196536-293033 314293-316537 813548-251340 1067368-3898 73701 71811 149528 253702 193701 295395 88229 83150 545790 79489 886540 642051 254411 420120 170434 1297919 170434 1846898v1491150zm66851 360001c-22914 0-45118 1890-66851 5670v951500c57166-3307 109961-19252 157796-47716 55748-32835 106536-83150 152009-150592 42638-62480 75000-129567 96378-201142 21496-71339 32244-147285 32244-227836 0-66378-7322-122009-21496-166418-13228-41457-32716-73347-57874-95552-24803-21614-60591-38386-106890-49607-49843-12047-111733-18307-185316-18307zM3418363 3172220c20788 333427 22796 492995 193466 706421 100985 126261 354568 263860 614294 253112 596932-24804 733468-517444 728862-1017761l1042564 3543c-7559 299647 19134 546735 175867 735122 313230 376301 874493 377718 1190557-15000 169017-210119 171143-416223 163702-722957l1042564-472c-3071 320316-1654 532916 171379 734649 379136 441498 967682 301773 1183352 14174 167954-223820 160985-356105 181773-690831 643940 175277 504097 978430 508821 1492567H2909542c8386-529137-130513-1318589 508821-1492567zm3088598-235040c0-452247 511302-452247 511302 0 0 319017 61536 684688-255710 684688-317364 0-255592-365671-255592-684688zm2734029-310750c105828-44291 219450-6023 282167 59764 81851 85749 70394 176340 70040 304490-709 239529 52795 522404-150355 609924-277324 119528-363309-129331-363073-362718 236-265041-54449-521105 161221-611460zm-5150222 2953c261498-125906 354805 129922 354569 361537-236 237285 48425 535397-154017 612995-248387 94961-360120-91417-359293-365789 709-272481-60000-503270 158741-608743z"
      style="fill:#bc955c"
    /><path
      class="fil3"
      d="M2910132 9616701h6064637c546380 0 993312-446931 993312-993312V5175970h642404c32126 515200 4488 3767735 4488 4494471 0 533389 70040 636145-497837 634019l-5618295-118c-1748749 0-1588709 115394-1588709-661184v-26457zm7057949-4951914v-862918c123780-189450 119882-326458 138662-629649 643940 175277 504097 978430 508821 1492567h-647483z"
    /><path
      class="fil1"
      d="M9391227 6605111h382916v-624570h2148199v624570h403112v1764458h1202605v-316419h840476v570239h-30472v3003794h-2012609v56457H9391227z"
    /><path
      class="fil3"
      d="M13741839 8053150h626696v570239h-30472v3003794h-2012609v56457H9391227v-596341h2338004v-56339h99331V7102003h-403112v-624688H9774143v-496774h2148199v624570h403112v1764458h1202605v-316419h213780zm-1260715 2977810h1260715V8866461h-1260715v2164499z"
    /><path
      d="m11054582 10710289-458152 8268 4252 786382 40748 1417 365199 709 47362-2008 591-794768zM9279376 6288929l30709-4016c65906-10512 135828-8858 209056-7087l51615 945c2480-44410 590-87166-1181-127442-5433-122835-9922-227363 92244-315119l10866-6851c56575-25039 942170-18543 1556229-14055l515671 2717c254057-1181 287246 29409 288073 228780l-2008 231261 134764 473c259135-1417 313230-1654 312049 262915l-2480 320907c-4016 476813-10040 1194454 2834 1428314l858666-4843c1772-47008-945-95433-3543-141497l-3544-91181c-1535-150001 30237-261261 235631-263269 225592 0 451774 1890 677366 354 133347-945 229017-1653 256419 139489 12992 66496 8858 824295 4724 1631229-4488 842956-9331 1740362 3661 1944458l98269-3425c43582-2126 85748-4134 124725-2481 129213 5434 219568 46418 212363 218978l-591 15590-10157 11575c-88701 103229-151300 100158-266931 94607l-91299-2716H9012210l-86103 2598c-111851 5079-165946 7913-252639-94961l-9921-11693-709-15000c-7323-171733 81733-213190 209647-218741 39567-1654 82441 590 126851 2834 49606 2599 102165 5433 152717 2481l2362-37678-3779-17480-2245-27284V9785717l-1417-60472c12047-514137 1417-1037958 1417-1553276-2716-163583-4133-353151-4133-545435 0-199726 1535-411262 4252-606854l-119-566577c0-17008 2717-34134 7678-50079 3897-12638 9449-24567 16063-35670l8031-39331c36378-18071 60827-26338 99213-39094zm204805 5149867c-2126 18308 1889 48072 3070 67442l775870-1181c11693-103465 5552-268230-826-436184-9685-262442-19961-533270 39921-627641l6969-8267c62362-59528 125788-57756 215552-55158l57165 1063c54095 118 115395-1890 177993-3780 236931-7559 498901-15826 609925 83150l14764 13229 8031 1034769 753547-236-5787-4894631-2655250 1417v2986314c12993 74646 7796 164411 3308 242128l-3308 63661c0 453546 39331 1104809-944 1533905zm4510297-2397885 237 1394888c-119 103938-41575 173860-94017 205749-22795 13819-47716 21142-72638 21142-24803 0-49961-6968-72520-20787-51260-31654-91300-100631-91300-206104V9040911c0-106536 41221-178348 93426-211419 22914-14291 48307-21968 73229-22086 25157-119 50315 7086 73229 21614 50905 32480 90472 102992 90354 211891zm-991894 0 118 1394888c0 111969-10630 124844-62835 188741l-21851 26694-18425 1889c-86930 8977-143032-4134-179883-42874-35787-37559-47362-94134-47362-174450V9040911c0-107717 39567-178466 90118-211301 23032-15000 48190-22441 73465-22441 25040 0 50197 7559 72993 21969 51969 32717 92835 104410 93662 211773zm485435-120119c22441 236340 17599 786500 13937 1193864l-2126 321143c0 107127-40984 177757-93071 210120-23268 14291-48307 21496-73347 21496-24921 0-50197-7205-73111-21496-52323-32363-93189-103111-93189-210120V9040911c0-64371 13819-118347 36851-157088 18071-30118 41693-52205 70039-64252 29056-12402 61772-13937 95552-2953 35433 12047 72520 37796 107953 79371l9213 10630 1299 14173zm-1997608-575200-180828 4725 2244 175985 177993 1181 591-181891zm331891-118347 2481 107481c6378 190867 15118 456380-92599 511420l-9213 4724-539884 8032c-84922 118-135474-15473-167836-55394-30945-37914-38268-91182-38268-169371l7205-530672 15709-13228c108898-90591 251694-85513 440081-78898 51614 1771 107244 3897 170079 3897 76890 0 128268 11575 163702 46182 35433 34842 48543 86339 48543 165827zm-334135-940162-178111 3307-355 177521 181182 1653-2716-182481zm334135-106063 2481 211418c3897 198662 5669 298112-53386 357049-58702 58701-158151 56811-355750 52795l-213663-2480c-110906 0-130394-16181-195119-71103l-19842-16417-1654-18898c-8032-97914-19370-278387-12756-434884 4252-105591 17717-201733 45827-257718l10276-20196 21850-3898c177285-31063 258781-28465 391301-24567l167127 3543c79371-118 132402 18307 167245 58111 33662 38504 46063 93071 46063 167245zm-339805 2223436-171615 2008-2007 178229 183071 1535-9449-181772zm240592-311222c111615 55039 106772 155079 101339 267285l-2126 67795 591 132048c1417 158387 2244 241537-33426 293624-43819 64370-116929 64134-269410 63425l-200552 1535c-142560 2363-221222 3662-273309-31889-69449-47481-69331-132757-69095-321852l-472-126851c-1299-163230-2008-248624 35433-301892 45709-64252 121300-64016 278505-63425l132166-2599c103938-4606 233033-10157 300356 22796zm-1367841-745516-180946-2126 3543 181537 177167-4607 236-174804zm110433 511302-208347 2362c-201615 3898-302718 5670-362482-55158-59646-60590-57756-163465-53977-368623l2362-210356c237-187205 66733-218269 272836-218269l127206 2599c62008 1653 134410 3661 223584 3661 194646 0 226654 87639 226654 223702l-6023 182009c0 39213 1889 75945 3661 110197l3307 91300c-236 142205-33425 236576-228781 236576zm-111732-1570638-179056-1653-355 182481 180946-6732-1535-174096zm333545-107362 2598 215906c4134 197127 5906 295632-53268 354096-58701 57875-157678 55749-354687 51615l-222757-2835c-190631 0-222166-70040-222166-277560l2480-127324c1536-61535 3662-133111 3662-213898-119-199135 72638-231261 284647-231261l126614 2480c58938 1417 126497 3307 211064 3307 86339 0 140198 12047 176104 49488 35433 36969 45709 91182 45709 175986zm-336734 2224853-175986 4134v175631l178820-2008-2834-177757zm318663 425553c-89883 97206-153663 94135-267640 88702l-91299-2717-110316 472c-168544 1418-253584 2126-305670-48071-53505-51378-52914-135473-51615-303663l473-99095-3189-95079c-5788-118937-9686-191930 92362-280985l10630-9213 13701-1654c73465-8385 278033-21496 440317-14645 109489 4606 203859 20079 239647 54685 36142 35079 52559 127914 57520 236340 7677 163465-6142 373112-13465 448939l-1417 15118-10039 10866zm2763202 1333708-202560 2480 4370 337797 199844-3189-1654-337088zm737248-2541745-1692528 8031 3779 2874109 415750-1181c11339-90827 5788-186969 827-274608-9567-166182-17362-306615 86930-368860 43583-25866 213780-38976 375474-37677 154371 1417 307561 16890 345710 47599 75946 61181 69922 282284 64961 464529-1653 67205-3425 128859-1181 170907l402168-4016-1890-2878833zm-354-501026-499019 708 4607 167954 495593-4370-1181-164292zm-2478792-1973160-1787017 6969 473 122599 1790441-2126-3897-127442z"
      style="fill:#bc955c;fill-rule:nonzero"
    /><path
      class="fil3"
      d="M11728995 3756515v-149883h374765v149883h-374765zM489687 7176295v-149882h374766v149882H489687zm424727-199843v-375711h149883v375711H914414zm199843 49961h374648v149882h-374648v-149882zm-49960 199843v375711H914414v-375711h149883zm11089424-3669585v-375829h149883v375829h-149883zm199844 49961h374647v149883h-374647v-149883zm-49961 199843v375711h-149883v-375711h149883z"
    /></g></svg>
