<svg
  id="Docs_off"
  data-name="Docs off"
  xmlns="http://www.w3.org/2000/svg"
  viewBox="0 0 87.50136 90"
><defs><style
    >.cls-1{fill:#f9f5ed;}.cls-1,.cls-2,.cls-3{fill-rule:evenodd;}.cls-2,.cls-5{fill:#fff;}.cls-3{fill:#f0e2c8;}.cls-4{fill:#bc955c;}</style></defs><title
  >icono_docs_off</title><g id="Capa_1"><path
      class="cls-1"
      d="M328.21367,72.31139A9.47357,9.47357,0,1,1,318.7401,81.785,9.47347,9.47347,0,0,1,328.21367,72.31139ZM331.362,5.04332a16.84313,16.84313,0,1,1-16.84422,16.842A16.84234,16.84234,0,0,1,331.362,5.04332Zm59.361,66.85145A11.29727,11.29727,0,1,1,379.4257,83.192,11.29679,11.29679,0,0,1,390.723,71.89477Z"
      transform="translate(-314.51778 -5.04332)"
    /><path
      class="cls-1"
      d="M314.67142,48.00693v-.89262h2.23043v.89262Zm37.98249,44.50146v-.89261h2.23153v.89261Zm2.52835-1.19051v-2.237h.8926v2.237Zm1.19051.2979h2.23153v.89261h-2.23153Zm-.29791,1.19051v2.237h-.8926v-2.237Zm8.061-73.78676v-.89261h2.23153v.89261Zm2.52944-1.19051V15.592h.89261v2.237Zm1.18942.2979h2.23153v.89261h-2.23153Zm-.29681,1.18942v2.23813h-.89261V19.31634ZM317.19975,46.81641V44.57828h.89261v2.23813Zm1.19051.2979h2.23154v.89262h-2.23154Zm-.2979,1.19052V50.543h-.89261V48.30483Z"
      transform="translate(-314.51778 -5.04332)"
    /><path
      class="cls-2"
      d="M328.51818,19.71538h25.157c9.14049,0-1.41257,8.41056,10.71246,8.41056h20.91155a1.17616,1.17616,0,0,1,1.17292,1.17293V83.02164a1.17616,1.17616,0,0,1-1.17292,1.17294H328.4687a1.17617,1.17617,0,0,1-1.17292-1.17294V20.93887A1.22566,1.22566,0,0,1,328.51818,19.71538Z"
      transform="translate(-314.51778 -5.04332)"
    /><path
      class="cls-3"
      d="M369.419,33.94882H377.093a1.31456,1.31456,0,0,1,1.31144,1.31033v47.624a1.31551,1.31551,0,0,1-1.31144,1.31144H343.91794a1.3155,1.3155,0,0,1-1.31143-1.31144V76.46336h12.38995A14.4635,14.4635,0,0,0,369.419,62.04084Z"
      transform="translate(-314.51778 -5.04332)"
    /><path
      class="cls-3"
      d="M328.27853,76.46336H366.8016a14.46443,14.46443,0,0,0,14.42361-14.42252V29.1087h4.07393a.19389.19389,0,0,1,.133.05716.19073.19073,0,0,1,.05606.133V83.02164a.19147.19147,0,0,1-.18907.18909H328.4687a.19342.19342,0,0,1-.19017-.18909Z"
      transform="translate(-314.51778 -5.04332)"
    /><path
      class="cls-4"
      d="M328.51818,18.73153h25.157c5.23037,0,5.22267,2.292,5.21607,4.74557-.0055,1.76434-.011,3.665,5.49639,3.665h20.91155a2.16,2.16,0,0,1,2.15568,2.15678V83.02164a2.15808,2.15808,0,0,1-2.15568,2.15569H328.4687a2.15993,2.15993,0,0,1-2.15677-2.15569V20.93887a2.20425,2.20425,0,0,1,.64747-1.55548l.0077-.00769A2.19942,2.19942,0,0,1,328.51818,18.73153ZM343.91794,32.965H377.093a2.28367,2.28367,0,0,1,1.617.67275l.00439.0044a2.28361,2.28361,0,0,1,.67276,1.617v47.624a2.29835,2.29835,0,0,1-.02308.32759h5.935a.19147.19147,0,0,0,.18907-.18909V29.29887a.19073.19073,0,0,0-.05606-.133.19389.19389,0,0,0-.133-.05716H364.38759c-7.47289,0-7.463-2.91968-7.4553-5.6316.0044-1.43565.00769-2.77787-3.25716-2.77787h-25.157a.24038.24038,0,0,0-.1682.06706l-.00329.00329a.23917.23917,0,0,0-.06816.16929V83.02164a.19342.19342,0,0,0,.19017.18909h13.17814a2.29835,2.29835,0,0,1-.02308-.32759v-47.624a2.28365,2.28365,0,0,1,.67275-1.617l.0033-.0044A2.29013,2.29013,0,0,1,343.91794,32.965Zm33.17509,1.9666H343.91794a.3247.3247,0,0,0-.32758.32758v47.624a.32287.32287,0,0,0,.3188.32759h33.19266a.33261.33261,0,0,0,.22316-.09345.33652.33652,0,0,0,.09564-.23414v-47.624a.3247.3247,0,0,0-.32759-.32758Z"
      transform="translate(-314.51778 -5.04332)"
    /><path
      class="cls-2"
      d="M373.35989,41.71191h16.39022a3.46626,3.46626,0,0,1,3.27805,3.60673V80.58675a3.46516,3.46516,0,0,1-3.27805,3.60783H337.3014a3.46737,3.46737,0,0,1-3.27805-3.60783V52.71787a3.46414,3.46414,0,0,1,3.27805-3.60672h27.08948C371.5274,49.11115,364.15234,41.71191,373.35989,41.71191Z"
      transform="translate(-314.51778 -5.04332)"
    /><path
      class="cls-3"
      d="M335.0072,76.46336h37.04125a14.46515,14.46515,0,0,0,14.42361-14.42252V42.69466h3.27805a2.15207,2.15207,0,0,1,1.58846.73762,2.80029,2.80029,0,0,1,.70573,1.88636V80.58675a2.80359,2.80359,0,0,1-.70463,1.88746,2.15542,2.15542,0,0,1-1.58956.73652H337.3014a2.15388,2.15388,0,0,1-1.58846-.73762,2.79826,2.79826,0,0,1-.70574-1.88636Z"
      transform="translate(-314.51778 -5.04332)"
    /><path
      class="cls-5"
      d="M50.78844,58.66416h17.4429a3.72259,3.72259,0,0,1,3.72259,3.72259v8.08171a3.7226,3.7226,0,0,1-3.7226,3.7226H50.78843a3.72259,3.72259,0,0,1-3.72259-3.72259V62.38676A3.7226,3.7226,0,0,1,50.78844,58.66416Z"
    /><path
      class="cls-4"
      d="M332.17547,25.22715a.9833.9833,0,1,1,0-1.9666h16.81014a.9833.9833,0,0,1,0,1.9666Z"
      transform="translate(-314.51778 -5.04332)"
    /><path
      class="cls-4"
      d="M373.35989,40.72806h16.39022a4.10056,4.10056,0,0,1,3.0406,1.38289,4.77141,4.77141,0,0,1,1.2202,3.20769V80.58675a4.77214,4.77214,0,0,1-1.2202,3.20879,4.09771,4.09771,0,0,1-3.0406,1.38179H337.3014a4.10416,4.10416,0,0,1-3.0406-1.38289,4.77463,4.77463,0,0,1-1.2202-3.20769V52.71787a4.76724,4.76724,0,0,1,1.2202-3.20769,4.10055,4.10055,0,0,1,3.0406-1.38288h27.08948c2.45359,0,2.57122-1.19272,2.69654-2.46019C367.32376,43.27948,367.57659,40.72806,373.35989,40.72806ZM362.89477,62.7246h22.26586a2.28363,2.28363,0,0,1,1.61814.67275l.00329.0033a2.29014,2.29014,0,0,1,.67276,1.61813V77.9232a2.28821,2.28821,0,0,1-.67276,1.61814l-.00329.00329a2.28823,2.28823,0,0,1-1.61814.67276H362.89477a2.29017,2.29017,0,0,1-1.61814-.67276l-.00329-.00329a2.28817,2.28817,0,0,1-.67276-1.61814V65.01878a2.2901,2.2901,0,0,1,.67276-1.61813l.00329-.0033A2.28555,2.28555,0,0,1,362.89477,62.7246ZM373.63251,70.159a.98331.98331,0,0,1,0-1.96661h8.80081a.98331.98331,0,0,1,0,1.96661Zm-8.01044,0a.98331.98331,0,0,1,0-1.96661h4.43009a.98331.98331,0,0,1,0,1.96661Zm0,4.59058a.98331.98331,0,0,1,0-1.96661h16.81125a.98331.98331,0,0,1,0,1.96661ZM385.16063,64.6912H362.89477a.3302.3302,0,0,0-.23195.09344.33654.33654,0,0,0-.09564.23414V77.9232a.32289.32289,0,0,0,.32759.32759h22.26586a.32291.32291,0,0,0,.32758-.32759V65.01878a.32287.32287,0,0,0-.32758-.32758Zm4.58948-21.99654H373.35989c-4.008,0-4.16956,1.63463-4.32126,3.16483-.21546,2.18206-.41882,4.23441-4.64775,4.23441H337.3014a2.15308,2.15308,0,0,0-1.58846.73652,2.80315,2.80315,0,0,0-.70574,1.88745V80.58675a2.79826,2.79826,0,0,0,.70574,1.88636,2.15388,2.15388,0,0,0,1.58846.73762h52.44871a2.15542,2.15542,0,0,0,1.58956-.73652,2.80359,2.80359,0,0,0,.70463-1.88746V45.31864a2.80029,2.80029,0,0,0-.70573-1.88636A2.15207,2.15207,0,0,0,389.75011,42.69466Z"
      transform="translate(-314.51778 -5.04332)"
    /></g></svg>
