<svg id="PDF" xmlns="http://www.w3.org/2000/svg" viewBox="0 0 22 27.79423"><title>export_pdf</title><g id="Capa_1"><path d="M294.93591,374.91712l4.866-4.86271-1.35323-1.37385-2.53065,2.47965.013-7.9783h-1.97829l-.03581,8.01086-2.51872-2.48726-1.32827,1.35Zm5.89474-15.01465v-8.73575h5.50624v1.66142h-3.53663v2.02279h3.02768v1.66143h-3.02768v3.39011Zm-8.50787,0v-8.73575h2.46555a5.98464,5.98464,0,0,1,1.80792.25393,3.64021,3.64021,0,0,1,1.38035.78459,3.42908,3.42908,0,0,1,.88443,1.34672,5.51068,5.51068,0,0,1,.3082,1.94248,5.62527,5.62527,0,0,1-.3082,1.95552,3.47545,3.47545,0,0,1-2.217,2.18447,5.37592,5.37592,0,0,1-1.74932.268Zm1.96962-1.59414h.37438a3.31951,3.31951,0,0,0,1.019-.14758,1.89286,1.89286,0,0,0,.777-.47531,2.24614,2.24614,0,0,0,.50244-.86489,4.194,4.194,0,0,0,.18122-1.32611,4.07886,4.07886,0,0,0-.18122-1.30656,2.12634,2.12634,0,0,0-.50244-.84428,1.8299,1.8299,0,0,0-.777-.44818,3.58078,3.58078,0,0,0-1.019-.13456h-.37438Zm-9.95551,1.59414v-8.73575h3.00054a6.21828,6.21828,0,0,1,1.35322.14,3.06151,3.06151,0,0,1,1.0993.46988,2.31881,2.31881,0,0,1,.74335.87032,2.92654,2.92654,0,0,1,.27456,1.3337,2.98911,2.98911,0,0,1-.27456,1.32609,2.57043,2.57043,0,0,1-.74335.92459,3.17547,3.17547,0,0,1-1.08519.53608,4.8108,4.8108,0,0,1-1.31307.17363H286.3065v2.96147Zm1.96961-4.52848h.96473q1.60662,0,1.60716-1.39338a1.06326,1.06326,0,0,0-.42865-.96473,2.2451,2.2451,0,0,0-1.23277-.28215h-.91047Zm-1.198,17.62778c0,2.7401-.6381,5.758,1.962,5.89039,2.48508.127,5.33913.0011,7.86544.0011,10.69669,0,9.82637,1.1351,9.82637-5.89149H302.797v3.92838H287.07373v-3.92838Z" transform="translate(-284.33689 -351.16672)" fill="currentColor" fill-rule="evenodd"/></g></svg>