<svg id="XLS" xmlns="http://www.w3.org/2000/svg" viewBox="0 0 21 28.1031"><title>export_xls</title><g id="Capa_1"><path d="M295.364,375.07334l4.86384-4.86059-1.35264-1.37324-2.52954,2.47856.013-7.97479h-1.97742l-.0358,8.00734-2.51761-2.48616-1.32769,1.34938Zm-10.52712-15.1686,2.42433-4.48636-2.27682-4.24556h2.19654l.76256,1.6466c.0987.20609.19633.422.295.64974q.14643.34167.33517.75712h.05316q.14805-.4149.28745-.75712c.09437-.22779.18548-.44365.27551-.64974l.69638-1.6466h2.10217l-2.26379,4.33884,2.41132,4.39308h-2.19654l-.871-1.78109q-.15945-.34818-.31456-.68987-.153-.34169-.34169-.743h-.05315q-.14645.40188-.295.743c-.09763.22778-.19633.45775-.294.68987l-.81679,1.78109Zm17.70573.16054a4.89432,4.89432,0,0,1-1.70733-.31457,4.469,4.469,0,0,1-1.52077-.9437l1.12485-1.35371a4.27,4.27,0,0,0,1.03807.65733,2.735,2.735,0,0,0,1.11833.25383,1.51625,1.51625,0,0,0,.91767-.2278.73216.73216,0,0,0,.30155-.61611.66957.66957,0,0,0-.08787-.34819.8277.8277,0,0,0-.25381-.26142,2.38178,2.38178,0,0,0-.40243-.21369q-.23431-.10088-.51524-.22128l-1.13786-.48161a3.45611,3.45611,0,0,1-.64974-.34819,2.8858,2.8858,0,0,1-.563-.50222,2.28439,2.28439,0,0,1-.39484-.67035,2.37094,2.37094,0,0,1-.14751-.86344,2.31,2.31,0,0,1,.22779-1.01095,2.507,2.507,0,0,1,.64323-.83089,3.05486,3.05486,0,0,1,.98383-.55537,3.72908,3.72908,0,0,1,1.25284-.20067,4.0602,4.0602,0,0,1,1.50666.294,3.8271,3.8271,0,0,1,1.306.85692l-1.00444,1.24633a3.7972,3.7972,0,0,0-.858-.51632,2.42027,2.42027,0,0,0-.95021-.18006,1.40145,1.40145,0,0,0-.81028.20718.66653.66653,0,0,0-.30155.58249.57573.57573,0,0,0,.09979.34169.99921.99921,0,0,0,.282.25491,2.88,2.88,0,0,0,.422.21368q.24081.10088.52175.22128l1.12484.45558a3.06536,3.06536,0,0,1,1.26586.884,2.265,2.265,0,0,1,.46209,1.486,2.481,2.481,0,0,1-.86343,1.895,3.1785,3.1785,0,0,1-1.03807.589A4.10557,4.10557,0,0,1,302.54262,360.06528Zm-9.22764-.16054v-8.73192h1.96875v7.07123h3.45481v1.66069Zm-7.77412,13.25409c0,2.7389-.63781,5.75547,1.96116,5.88781,2.484.12692,5.33677.00108,7.862.00108,10.692,0,9.822,1.13461,9.822-5.88889h-1.96441v3.92665H287.50527v-3.92665Z" transform="translate(-284.83689 -351.01228)" fill="currentColor" fill-rule="evenodd"/></g></svg>