<svg id="Preguntas_1" data-name="Preguntas 1" xmlns="http://www.w3.org/2000/svg"
    viewBox="0 0 120.46801 120">
    <title>Publico_general</title>
    <g id="Capa_1">
        <g id="_864467568" data-name=" 864467568">
            <path
                class="gp-1"
                d="M613.24723,220.53685a18.42024,18.42024,0,1,1-18.42085,18.41963A18.41992,18.41992,0,0,1,613.24723,220.53685Zm-54.91031,9.54925v-1.73434h4.34013v1.73434Zm96.51507,3.82336V232.1739h4.3389v1.73556Zm-4.30967-89.56916v-1.73556h4.33891v1.73556Zm4.91662-2.31571v-4.34988h1.73678v4.34988Zm2.31449.58015h4.33891v1.73556h-4.33891Zm-.57771,2.31326v4.35232h-1.73678V144.918Zm2.57287,86.677v-4.3511h1.73678v4.3511Zm2.3145.57893h4.3389v1.73556h-4.3389Zm-.57772,2.31448v4.35109h-1.73678v-4.35109Zm-98.2494-6.71677v-4.34988h1.73434v4.34988Zm2.31449.58015h4.33891v1.73434h-4.33891Zm-.58015,2.312v4.35232H563.256V230.6638Zm28.042-93.28647a32.75082,32.75082,0,1,1-32.75142,32.7502A32.75037,32.75037,0,0,1,593.03232,137.37733Zm63.8063,30.64535A21.96632,21.96632,0,1,1,634.87351,189.989,21.96683,21.96683,0,0,1,656.83862,168.02268Z"
                transform="translate(-558.33692 -137.37733)" />
            <circle cx="55.40392" cy="54.77503" r="45.40434" fill="#fff" />
            <path
                class="gp-2"
                d="M613.74085,145.19955a46.95107,46.95107,0,1,1-33.20116,13.75165A46.81332,46.81332,0,0,1,613.74085,145.19955Zm31.0122,15.9406a43.85981,43.85981,0,1,0,12.84488,31.01221A43.72751,43.72751,0,0,0,644.75305,161.14015Z"
                transform="translate(-558.33692 -137.37733)" />
            <path
                class="gp-1"
                d="M632.2787,167.79842a38.57147,38.57147,0,0,1,21.43493,6.46205l.40586.74712a43.90307,43.90307,0,0,1-9.36644,48.157,44.18336,44.18336,0,0,1-3.52962,3.16886q.83184-.755,1.65146-1.5698l1.348-5.12747c2.31328-8.80456-7.44805-16.55244-16.55244-16.55244l-6.9398-6.111a17.18213,17.18213,0,0,0,8.13422-14.86441,17.45968,17.45968,0,0,0-5.83558-13.1971A38.87539,38.87539,0,0,1,632.2787,167.79842Zm-38.66988,36.14334a38.546,38.546,0,0,1,4.86664-16.35988,16.551,16.551,0,0,0,8.41577,9.98924l-8.03795,5.5126A16.3975,16.3975,0,0,0,593.60882,203.94176Z"
                transform="translate(-558.33692 -137.37733)" />
            <path
                class="gp-2"
                d="M646.5654,224.88794c-20.96812,20.64759-54.57393,14.50487-65.80389-1.52715-.36564-11.51881,6.16222-20.01868,18.1259-21.18507l5.35782-3.6771c-9.35668-6.43645-10.556-20.39652-2.95314-28.64165,8.87647-9.6297,23.55929-5.89653,28.10173,5.9989,2.95923,7.72715.74955,16.98267-5.90994,22.10039l4.79718,4.22068c16.34036.34248,18.22706,18.28557,18.26606,18.23681C646.54712,222.20781,646.23755,223.14629,646.5654,224.88794Zm-25.75067-25.24609a16.13426,16.13426,0,0,1-13.59442.49l-5.55527,3.8075,11.23,10.29393,12.55236-10.51208Zm-6.44864,17.7761V236.308a41.14583,41.14583,0,0,0,28.39912-11.68092c0-3.5211.27057-6.501-1.12739-9.86858a14.93076,14.93076,0,0,0-13.12641-9.18117Zm-3.0348,18.80844V217.38383L598.45474,205.5786a14.90685,14.90685,0,0,0-14.21846,14.84368l.53141,3.788A41.15412,41.15412,0,0,0,611.33129,236.22639Zm16.04665-51.09672c-6.18783.89825-13.79553-1.77822-19.1497-4.65213-2.55093-1.37115-6.74358,1.78431-8.74606,3.281.39,7.58822,6.0769,14.48537,14.01,14.48537C620.88907,198.24389,626.42849,192.18283,627.37794,185.12967Zm-26.85491-8.1062a15.24117,15.24117,0,0,0-.75077,2.63869c2.79712-1.86475,6.6802-3.7161,9.94779-1.96225,4.724,2.53264,12.3732,5.36147,17.77733,4.21214-.43755-7.52239-6.11469-14.3647-14.00516-14.3647C607.43359,167.54735,602.5767,171.64981,600.523,177.02347Z"
                transform="translate(-558.33692 -137.37733)" />
            <path
                class="gp-3"
                d="M640.80051,226.41753v-4.969a16.53463,16.53463,0,0,0-12.05143-15.85893l.03168.00121.234.01584.03534.00244.22913.0195.039.00365.22426.02317.04266.00487.21939.02681.04631.0061.2145.03047.25961.04021.05362.00854.20477.03779a14.76878,14.76878,0,0,1,3.21517.98356l.0134.0061.09507.04144.14016.06337.09751.04509.1365.0646.00732.00366.4546.22791.10482.05484.1231.067.41073.23158.039.02194.1097.06581.11091.06825.21816.1365.11456.07313.10239.067.11578.07678.0975.067.11823.08166.09384.06581.11823.08532.09018.067.206.15479.12188.09385.08167.0646.00365.00243.39489.32542.12553.106.0707.06216.12553.11213.067.06095.12554.11578.06337.05972.12676.12066.05972.0585.128.12553.05607.05608.128.1304.05241.05484.128.1353.04876.05363.17429.19256.128.145.04266.05.1292.14991.039.04753.128.156.03656.04509.12676.16089.03413.04387.12676.16576.03046.04144c.10482.13894.206.28032.3047.42292l.12431.1816.02316.03413.1231.18769.0195.03047.1231.19378.01706.028.12066.19866.01463.02559.12066.20477.01219.02193.11822.21085.00975.01951.11579.21573.00853.01584.11456.22181.0061.01341.11213.22792.00487.00975.10969.23278.00244.00732.10725.23889.00122.00365.10482.245c1.398,3.36754,1.12739,6.34748,1.12739,9.86858l-.03047.02925-.02926.02925-.03047.028-.02924.02924-.03048.02926-.03047.02925-.02925.028-.03046.02925-.03048.02925-.03047.028-.02925.02925-.03046.028-.03048.02925-.03047.028-.03047.02925-.02925.028-.15235.1426-.03047.028-.03047.028-.02924.02681-.00123.00244-.03046.028-.03048.028-.03047.028-.09262.0841-.03047.028-.03048.028-.03047.028-.03046.028-.03169.028-.028.0256-.00243.00244-.03048.028-.03047.02681-.03168.028-.03047.028-.06216.05484-.03047.028-.03169.028-.03046.02681-.03048.028-.03169.02682-.028.02559-.00244.00244-.03169.02682-.03046.028-.03169.02682-.03169.028-.03047.02682-.03169.02681-.03047.028-.03168.02681-.03169.02681-.03048.02682-.03169.02681-.028.0256-.00366.00244-.03169.02681-.03047.02681-.03168.02681Zm-17.71639-44.33484a17.23043,17.23043,0,0,0-8.78993-14.511l.34856.02559.30227.02926.04266.00487.312.03778.03048.00488.32054.04874.01828.00367.32908.05849.00609.00122.00853.00244c.21938.04387.43755.0902.652.14382l.01707.00366.30713.08165.028.00732.29372.08532.039.01218.27788.089.05.01706.26326.09264.06093.02193.24864.09507.223.09019.08289.03291.08043.03412.078.03535.2267.10116.02072.00975.27422.13041.0585.02925.22182.11213.04023.02072.18159.09751.01585.00852.26691.14991.00366.00244.2596.15357.04875.02925.184.11579.12432.07922.20232.13529.01829.01218.206.1426.18893.13651.0268.01828q.24681.181.48386.373l.04266.03412.08654.0707.17307.145.07678.06582.17673.156.067.06095.18281.16819.0573.05362.18647.18038.04753.04754.19135.19257.039.04022.04753.05.17673.1877.19866.21938.02072.02317.20111.23278.0134.01584.20354.24621.00609.0073.20354.25717.00122.00244.19744.26082.00853.011.184.25595.01463.02072.17307.24985.02072.03168.16088.24377.02681.04265.14992.23767.0329.05241.13772.23157.128.22182.03778.06459.04144.07435.117.21695.04631.08653.10726.20841.00365.00732.13773.2791.00608.01219.05242.10847.02925.06338q.13162.28154.25229.568l.07312.17429.05851.145.06459.16575.05972.15845.05729.156.01828.05118.07557.217.017.04753.061.18282.04388.13651.02193.07312.06825.22305.00732.02559.05972.20841.03169.11457.0585.22181.02681.10483.02316.09506.05241.22426.00244.00853.05484.24741.01706.08288.05241.26083.0134.07068.04754.27423.00976.05972.04509.28764.00731.04753.039.29982.00487.03657.03536.31323.00243.02437.02925.32664.00122.01219.02316.34-.03169.00732-.03291.00609-.03169.0061-.03169.00731-.03291.00609-.03169.0061-.0329.00609-.02926.0061h-.00243l-.03291.00608-.03291.0061-.03169.00609-.0329.00488-.03291.00609-.03291.0061-.03291.00487-.02681.00488-.00488.00122-.0329.00487-.03291.00488-.03291.00487-.13285.0195-.02437.00366-.00853.00122-.03291.00487-.03413.00488-.0329.00366-.067.00853-.0329.00487-.03413.00366-.02194.00244-.011.00122-.03412.00487-.03413.00365-.03291.00367-.03412.00365-.03413.00365-.0329.00245-.03413.00365-.0195.00244-.01463.00121-.03413.00367-.03412.00243-.03413.00365-.03412.00244-.03413.00245-.03412.00365-.03413.00243-.01585.00122-.01827.00122-.03414.00244-.03412.00244-.03413.00244-.03534.00243-.03413.00245-.03412.00121-.03535.00244-.01218.00122-.02194.00121-.03414.00122-.03534.00244-.03412.00123-.03535.00121-.03412.00244-.03535.00122-.03413.00121h-.011l-.02437.00122c0-2.08169-.00244-.20475-.00975,0l-.09385.00244-.28032.00122C624.39676,182.16922,623.76665,182.14362,623.08412,182.08269Zm4.28163,3.0482a16.35233,16.35233,0,0,1-.90191,3.4955,15.501,15.501,0,0,1-3.06161,4.97146,13.91473,13.91473,0,0,1-4.523,3.281,13.41646,13.41646,0,0,1-1.44549.55089c3.76729-2.30231,6.55711-8.17567,7.5358-12.12456h.03779l.039-.00122h.07556l.039-.00122h.03778l.03778-.00122.03778-.00121h.02682l.01219-.00123h.03778l.03779-.00122.03777-.00122.03779-.00122.03778-.00121.03778-.00122.039-.00244h.02438l.0134-.00121.03779-.00123.03778-.00122.03779-.00243.03777-.00122.03779-.00244.03778-.00243.03778-.00123.02194-.00122.01463-.00122.03778-.00243.03779-.00244.03777-.00243.03779-.00245.03778-.00243.03656-.00244.03779-.00243.02072-.00122.01706-.00123.03779-.00243.03656-.00366.03777-.00243.03779-.00367.03656-.00243.03779-.00365.05607-.00367.01827-.00243.03779-.00366.03656-.00365.03779-.00366.03656-.00365.03778-.00366.03657-.00366.07434-.00853.03657-.00366.03656-.00487.03779-.00366.03656-.00487.03656-.00366.03657-.00488.03656-.00487.01462-.00121.02316-.00245.03657-.00487.03656-.00488.03656-.00487.03657-.00487.03656-.0061.03656-.00487Zm-9.01055,15.51159a12.83677,12.83677,0,0,1-.29372,9.25917l7.38467-6.18049-4.63142-4.07931-.03778.01828-.03779.0195-.03656.01828-.03778.01829-.03779.01828-.0134.00609-.02438.01219-.03778.01828-.03778.01829-.03779.01827-.03778.01829-.02559.011-.01219.00608-.03779.01829-.03777.01707-.03779.01705-.03778.01829-.03779.01706h-.00122l-.03777.01707-.03779.01706-.03778.01706-.03779.01707-.039.01706-.01341.00488-.02438.011-.03778.01705-.039.01585-.03777.01706-.03778.01585-.02682.011-.01219.00487-.03778.01707-.039.01584-.03778.01585-.039.01584-.03778.01462-.00121.00122-.03779.01463-.039.01584-.03779.01585-.039.01462-.03779.01584-.01462.00488-.02438.00975-.039.01463-.039.01462-.03778.01585-.039.01462-.02681.00975-.01219.00487-.039.01342-.03778.01462-.039.01462-.039.01463-.039.01341-.00122.00122-.03777.0134-.039.0134-.039.01342-.039.01462-.039.01341-.01463.00488-.02437.00852-.039.01342-.039.0134-.039.01219-.039.0134-.028.00975-.011.00366-.039.01219-.039.01341-.04022.01218-.039.01341Zm-8.69853,35.178a63.01441,63.01441,0,0,0,.0329-18.0735c-.33759-2.44-8.03063-7.21648-12.567-9.882-2.50949-1.46986-6.28165.84463-10.2854,4.18778l.0061-.00854.11456-.16454.08654-.12066q.20292-.28153.42048-.55454l.00245-.00367.20231-.24862.01462-.01829.05241-.06216.13773-.16087.03535-.04145.10481-.11822.12676-.14015.01462-.01707.145-.15479.078-.08288.06825-.07069.14869-.15113.02682-.02559.12431-.1231.12432-.12066.02925-.02682.15479-.145.07069-.0646.08653-.078.15967-.14016.01462-.01219.14626-.12553.11943-.09994.04388-.03657.16454-.13285.06216-.04875.25107-.19379.02316-.01829.00122-.00121.16941-.12432.11213-.08165.05972-.04266.1755-.12188.05-.03535.12553-.08409.16576-.10969.01218-.00732.18039-.11456.10238-.0646.07922-.04754.18282-.10969.03778-.02194.14748-.08409.15722-.089.02925-.01585.1877-.10116.09262-.04874.0975-.05.19136-.09629.02437-.01218.16819-.08166.1487-.07069.04631-.02073.195-.08775.08044-.03534.117-.05.19988-.08288.00853-.00365.19135-.07557.13773-.05363.06337-.02437.20354-.07313.06581-.02437.139-.04753.19866-.06582.00731-.00244.2072-.06459.12554-.039.08287-.02437.20963-.05851.05119-.01462.04875-.01219.27423-.07069.02316-.00609.0256-.0061.21328-.05.11213-.02559.10239-.02194.21572-.04387.03534-.00732.1816-.03412.17429-.03048.04266-.00731.21938-.03413.09628-.01462.12311-.01707.22182-.028.01705-.00244.20476-.02194.16089-.01585.06215-.00609c.22426-.0195.4473-.03413.674-.04387l12.87655,11.80523v18.55979Q610.4885,235.89792,609.65667,235.82053Z"
                transform="translate(-558.33692 -137.37733)" fill-rule="evenodd" />
            <path
                class="gp-3"
                d="M588.3424,159.65688h13.47986v2.83735H589.76108v12.528h-2.83735V161.07555A1.41923,1.41923,0,0,1,588.3424,159.65688Zm1.41868,41.47677v11.59073h12.06118v2.83735H588.3424a1.42,1.42,0,0,1-1.41867-1.41868v-13.0094Zm35.9008-41.47677h13.47741a1.41924,1.41924,0,0,1,1.41868,1.41867v13.94666h-2.83736v-12.528H625.66188ZM640.558,201.13365v13.0094a1.42,1.42,0,0,1-1.41868,1.41868H625.66188v-2.83735h12.05873V201.13365Z"
                transform="translate(-558.33692 -137.37733)" />
        </g>
    </g>
</svg>