<svg
  xmlns="http://www.w3.org/2000/svg"
  xml:space="preserve"
  width="1500"
  height="145"
  style="shape-rendering:geometricPrecision;text-rendering:geometricPrecision;image-rendering:optimizeQuality;fill-rule:evenodd;clip-rule:evenodd"
  viewBox="0 0 176900000 14499934"
><path
    d="m168058850 9080914 781773-1001104c119291-152598 231142 0 231142 0l2550711 3365436 800788 995789 4134 4724c69212 83386 174212 135827 291023 134410 205512-2599 370040-171260 367442-376772-945-88701-33189-169843-85748-233032l-4134-4134-817914-1003820s-128504-154252 0-318189l788032-1005237 2324293 2965987-1214528 1591655-2049097 4606-1278072-1609726-2689845-3510593zm6036974-8782095 509646 672520 800907 995789 4133 4724c69213 83386 174331 135827 291024 134410 205512-2599 369922-171260 367442-376772-1063-88701-33189-169843-85748-233032l-4134-4134-817914-1003820s-68150-81850-55512-189685h1731970l47244 60236v3364019l-1875002 4252-1278072-1609726-1393584-1818781h1757600zm-22187264 8782095 781655-1001104c119291-152598 231260 0 231260 0l2550593 3365436 800906 995789 4134 4724c69094 83386 174094 135827 290905 134410 205512-2599 370040-171260 367442-376772-1063-88701-33071-169843-85748-233032l-4016-4134-817914-1003820s-128504-154252 0-318189l788032-1005237 2324175 2965987-1214410 1591655-2049097 4606-1278072-1609726-2689845-3510593zm-16150290 0 781655-1001104c119173-152598 231142 0 231142 0l2550592 3365436 801025 995789 4016 4724c69212 83386 174212 135827 291023 134410 205512-2599 370040-171260
    367442-376772-1063-88701-33189-169843-85748-233032l-4134-4134-817796-1003820s-128622-154252 0-318189l787914-1005237 2324293 2965987-1214528 1591655-2049097 4606-1278072-1609726-2689727-3510593zm37684050 0 781772-1001104c119292-152598 231142 0 231142 0l2429648 3205869v2253900l-752717-948072-2689845-3510593zm-53834458 0 781773-1001104c119173-152598 231142 0 231142 0l2550592 3365436 800907 995789 4134 4724c69212 83386 174094 135827 291023 134410 205512-2599 369922-171260 367324-376772-945-88701-33071-169843-85630-233032l-4134-4134-817914-1003820s-128504-154252 0-318189l788032-1005237 2324293 2965987-1214528 1591655-2049097 4606-1278072-1609726-2689845-3510593zm37684168 0 781654-1001104c119291-152598 231260 0 231260 0l2550593 3365436 800906 995789 4016 4724c69213 83386 174213 135827 291024 134410 205512-2599 370039-171260 367559-376772-1063-88701-33189-169843-85866-233032l-4134-4134-817796-1003820s-128504-154252 0-318189l787914-1005237 2324412 2965987-1214529 1591655-2049096 4606-1278190-1609726-2689727-3510593zm-53834458 0 781655-1001104c119291-152598 231260 0 231260 0l2550593 3365436 800906 995789 4016 4724c69212 83386 174330 135827 291023 134410 205512-2599 369922-171260 
    367442-376772-945-88701-33189-169843-85748-233032l-4016-4134-817914-1003820s-128504-154252 0-318189l787914-1005237 2324411 2965987-1214528 1591655-2049097 
    4606-1278190-1609726-2689727-3510593zm-16150408 0 781773-1001104c119291-152598 231142 0 231142 0l2550592 3365436 800907 995789 4134 4724c69094 83386 174330 135827 290905 134410 205512-2599 370040-171260 367560-376772-1063-88701-33189-169843-85748-233032l-4134-4134-817914-1003820s-128504-154252 0-318189l788032-1005237 2324293 2965987-1214528 1591655-2048979 4606-1278190-1609726-2689845-3510593zm-16150290 0 781655-1001104c119291-152598 231142 0 231142 0l2550710 3365436 800907 995789 4015 4724c69213 83386 174331 135827 291024 134410 205512-2599 370040-171260 367442-376772-1063-88701-33071-169843-85748-233032l-4134-4134-817914-1003820s-128386-154252 0-318189l788032-1005237 2324293 2965987-1214410 1591655-2049097 
    4606-1278190-1609726-2689727-3510593zm-16150408 0 781773-1001104c119173-152598 231142 0 231142 0l2550592 3365436 800907 995789 4133 4724c69213 83386 174213 135827 291024 134410 205394-2599 369922-171260 367324-376772-945-88701-33071-169843-85630-233032l-4134-4134-817914-1003820s-128504-154252 0-318189l788032-1005237 2324293 2965987-1214528 1591655-2049097 4606-1278072-1609726-2689845-3510593zm-16150290 0 781655-1001104c119173-152598 231260 0 231260 0l2550592 3365436 800907 995789 4015 4724c69331 83386 174331 135827 291142 134410 205394-2599 369922-171260 367442-376772-1063-88701-33189-169843-85748-233032l-4134-4134-817914-1003820s-128504-154252 0-318189l787914-1005237 2324411 2965987-1214528 1591655-2049097 4606-1278190-1609726-2689727-3510593zm-16150290 0 781655-1001104c119173-152598 231142 0 231142 0l2550592 3365436 801025 995789 4015 4724c69213 83386 174331 135827 291024 134410 205512-2599 369922-171260 367560-376772-1181-88701-33307-169843-85867-233032l-4133-4134-817796-1003820s-128623-154252 0-318189l787914-1005237 2324293 2965987-1214529 1591655-2049096 
    4606-1278072-1609726-2689727-3510593zm-16150408 0 781773-1001104c119173-152598 231142 0 231142 0l2550592 3365436 800907 995789 4015 4724c69213 83386 174331 135827 291024 134410 205512-2599 370040-171260 367560-376772-1063-88701-33189-169843-85748-233032l-4134-4134-817914-1003820s-128505-154252 0-318189l787914-1005237 2324411 2965987-1214528 1591655-2049097 4606-1278072-1609726-2689845-3510593zm139969613 0 781772-1001104c119292-152598 231142 0 231142 0l2550593 3365436 800906 995789 4134 4724c69213 83386 174213 135827 291024 134410 205512-2599 369922-171260 367441-376772-944-88701-33189-169843-85748-233032l-4134-4134-817914-1003820s-128504-154252 0-318189l788033-1005237 2324293 2965987-1214529 1591655-2049096 4606-1278072-1609726-2689845-3510593zm-16150408 0 781772-1001104c119174-152598 231260 0 231260 0l2550593 3365436 800788 995789 4134 4724c69213 83386 174213 135827 291024 134410 205512-2599 370040-171260 367441-376772-1063-88701-33189-169843-85748-233032l-4016-4134-818032-1003820s-128386-154252 0-318189l788032-1005237 2324294 2965987-1214411 1591655-2049096 
    4606-1278190-1609726-2689845-3510593zm-16150290 0 781772-1001104c119174-152598 231142 0 231142 0l2550593 3365436 800906 995789 4134 4724c69213 83386 174213 135827 290906 134410 205630-2599 370040-171260 367441-376772-945-88701-33071-169843-85630-233032l-4134-4134-817914-1003820s-128504-154252 0-318189l788032-1005237 2324294 2965987-1214529 1591655-2049096 4606-1278072-1609726-2689845-3510593zm-16150290 0 781654-1001104c119292-152598 231260 0 231260 0l2550593 3365436 800906 995789 4134 4724c69095 83386 174213 135827 290906 134410 205512-2599 370040-171260 367559-376772-1063-88701-33189-169843-85866-233032l-4016-4134-817914-1003820s-128504-154252 0-318189l788033-1005237 2324175 2965987-1214529 1591655-2048978 4606-1278072-1609726-2689845-3510593zm-16150408 0 781772-1001104c119292-152598 231142 0 231142 0l2550593 3365436 800906 995789 4134 4724c69213 83386 174331 135827 291024 134410 205512-2599 370040-171260 
    367441-376772-945-88701-33071-169843-85748-233032l-4134-4134-817914-1003820s-128386-154252 0-318189l788032-1005237 2324294 2965987-1214529 1591655-2048978 
    4606-1278190-1609726-2689845-3510593zm-16150290 0 781654-1001104c119292-152598 231260 0 231260 0l2550593 3365436 800906 995789 4134 4724c69213 83386 174213 135827 291024 134410 205394-2599 369922-171260 367323-376772-945-88701-33071-169843-85630-233032l-4134-4134-817914-1003820s-128504-154252 0-318189l788032-1005237 2324294 2965987-1214529 1591655-2049096 4606-1278072-1609726-2689845-3510593zm-16150290 0 781654-1001104c119174-152598 231142 0 231142 0l2550711 3365436 800788 995789 4134 4724c69213 83386 174213 135827 291024 134410 205512-2599 370040-171260 367441-376772-1063-88701-33189-169843-85748-233032l-4134-4134-817914-1003820s-128504-154252 0-318189l788032-1005237 2324294 2965987-1214411 1591655-2049214 4606-1278072-1609726-2689727-3510593zm-16150408 0 781772-1001104c119174-152598 231142 0 231142 0l2550593 3365436 800906 995789 4134 4724c69213 83386 174331 135827 290906 134410 205630-2599 370040-171260 367559-376772-1063-88701-33189-169843-85748-233032l-4134-4134-817914-1003820s-128504-154252 0-318189l788032-1005237 2324294 2965987-1214529 1591655-2049096 4606-1278072-1609726-2689845-3510593zm-16150408 0 781772-1001104c119174-152598 231142 0 231142 0l2550711 3365436 800788 995789 4134 4724c69213 83386 174331 135827 291024 134410 205512-2599 370040-171260 367441-376772-1063-88701-33071-169843-85748-233032l-4016-4134-818032-1003820s-128386-154252 0-318189l788032-1005237 2324294 2965987-1214411 1591655-2049214 4606-1278072-1609726-2689845-3510593zm-16150290 0 781772-1001104c119174-152598 231142 0 231142 0l2550593 3365436 800906 995789 4134 4724c69213 83386 174331 135827 291024 134410 205512-2599 369922-171260 367441-376772-1063-88701-33189-169843-85748-233032l-4134-4134-817914-1003820s-128504-154252 0-318189l788032-1005237 2324294 2965987-1214529 1591655-2049096 
    4606-1278072-1609726-2689845-3510593zm139969613 0 781772-1001104c119292-152598 231142 0 231142 0l2550593 3365436 800906 995789 4134 4724c69213 83386 174213 135827 291024 134410 205512-2599 369921-171260 367323-376772-945-88701-33071-169843-85630-233032l-4134-4134-817914-1003820s-128504-154252 0-318189l788032-1005237 2324294 2965987-1214411 1591655-2049214 4606-1278072-1609726-2689845-3510593zm-16150290 0 781654-1001104c119291-152598 231260 0 231260 0l2550593 3365436 800906 995789 4134 4724c69094 83386 174213 135827 290906 134410 205512-2599 370039-171260 367441-376772-1063-88701-33071-169843-85748-233032l-4016-4134-817914-1003820s-128504-154252 0-318189l788032-1005237 2324294 2965987-1214529 1591655-2049096 
    4606-1278072-1609726-2689845-3510593zm37684167 0 781654-1001104c119292-152598 231142 0 231142 0l2550593 3365436 801024 995789 4016 4724c69213 83386 174213 135827 291024 134410 205512-2599 370040-171260 367559-376772-1062-88701-33307-169843-85866-233032l-4134-4134-817796-1003820s-128622-154252 0-318189l787915-1005237 2324293 2965987-1214529 1591655-2049096 4606-1278072-1609726-2689727-3510593zm-53834457 0 781654-1001104c119291-152598 231142 0 231142 0l2550593 3365436 800906 995789 4134 4724c69213 83386 174331 135827 291024 134410 205512-2599 370039-171260 367441-376772-945-88701-33189-169843-85748-233032l-4134-4134-817914-1003820s-128504-154252 0-318189l788032-1005237 2324294 2965987-1214529 1591655-2048978 4606-1278190-1609726-2689727-3510593zm-16150408 0 781654-1001104c119291-152598 231260 0 231260 0l2550593 3365436 800906 995789 4134 4724c69213 83386 174213 135827 291024 134410 205394-2599 369921-171260 367441-376772-945-88701-33189-169843-85866-233032l-4016-4134-817914-1003820s-128504-154252 0-318189l788032-1005237 2324294 2965987-1214529 1591655-2049096 
    4606-1278190-1609726-2689727-3510593zm-16150408 0 781772-1001104c119291-152598 231260 0 231260 0l2550593 3365436 800906 995789 4016 4724c69212 83386 174331 135827 291024 134410 205512-2599 370039-171260 367559-376772-1063-88701-33307-169843-85866-233032l-4134-4134-817796-1003820s-128622-154252 0-318189l787914-1005237 2324293 2965987-1214410 1591655-2049096 4606-1278190-1609726-2689845-3510593zm-16150290 0 781772-1001104c119173-152598 231142 0 231142 0l2550593 3365436 800906 995789 4134 4724c69213 83386 174331 135827 291024 134410 205394-2599 369921-171260 367323-376772-945-88701-33071-169843-85630-233032l-4134-4134-817914-1003820s-128504-154252 0-318189l788032-1005237 2324294 2965987-1214529 1591655-2049096 4606-1278072-1609726-2689845-3510593zm-16150290 0 781654-1001104c119291-152598 231260 0 231260 0l2550593 3365436 800906 995789 4016 4724c69212 83386 174331 135827 291024 134410 205512-2599 370039-171260 367559-376772-1181-88701-33189-169843-85866-233032l-4134-4134-817796-1003820s-128504-154252 0-318189l787914-1005237 2324412 2965987-1214529 1591655-2049096 
    4606-1278191-1609726-2689726-3510593zm-16150408 0 781654-1001104c119291-152598 231260 0 231260 0l2550593 3365436 800906 995789 4134 4724c69212 83386 174213 135827 291024 134410 205394-2599 370039-171260 367441-376772-1063-88701-33189-169843-85748-233032l-4134-4134-817914-1003820s-128504-154252 0-318189l788032-1005237 2324293 2965987-1214528 1591655-2049096 4606-1278072-1609726-2689845-3510593zm-16150290 0 781654-1001104c119291-152598 231260 0 231260 0l2550593 3365436 800906 995789 4134 4724c69094 83386 174213 135827 290906 134410 205512-2599 370039-171260 367441-376772-1063-88701-33071-169843-85748-233032l-4134-4134-817796-1003820s-128504-154252 0-318189l788032-1005237 2324175 2965987-1214410 1591655-2049096 4606-1278191-1609726-2689726-3510593zM15118 12269538l137953 171497 4016 4724c69212 83386 174331 135827 291024 134410 205512-2599 370039-171260 367559-376772-1181-88701-33307-169843-85866-233032l-4134-4134-710552-872127v-586654l680670-868465 2324293 2965987-1214528 1591655-1790435 4016v-1931105zM152538089 298819l499724 659528 800907 995670 4133 4843c69213 83386 174331 135709 291024 134410 205512-2599 369922-171260 
    367442-376891-945-88700-33189-169724-85748-233031l-4134-4016-817914-1003820s-62717-75354-56693-176693h1743426l1425592 1819254-1214410 1591537-2049097 4724-1278190-1609726-1383544-1805789h1757482zm-16150409 0 499843 659528 800907 995670 4134 4843c69094 83386 174212 135709 290905 134410 205512-2599 370040-171260 367560-376891-1063-88700-33189-169724-85867-233031l-4133-4016-817796-1003820s-62717-75354-56693-176693h1743426l1425592 1819254-1214528 1591537-2049097 4724-1278072-1609726-1383662-1805789h1757481zm-16150289 0 499842 659528 800789 995670 4133 4843c69213 83386 174213 135709 291024 134410 205512-2599 370040-171260 367442-376891-945-88700-33189-169724-85749-233031l-4133-4016-817914-1003820s-62717-75354-56693-176693h1743426l1425592 1819254-1214410 1591537-2049215 4724-1278072-1609726-1383544-1805789h1757482zm37684167 0 499725 659528 800906 995670 4134 4843c69213 83386 174213 135709 291024 134410 205394-2599 369921-171260 367441-376891-945-88700-33189-169724-85748-233031l-4134-4016-817914-1003820s-62717-75354-56693-176693h1743309l1425710 1819254-1214529 1591537-2048978 4724-1278190-1609726-1383545-1805789h1757482zm-53834576 0 499843 659528 800907 995670 4133 4843c69213 83386 174213 135709 291024 134410 205394-2599 369922-171260 367324-376891-945-88700-33071-169724-85630-233031l-4134-4016-817914-1003820s-62717-75354-56693-176693h1743426l1425592 1819254-1214528 1591537-2049097 4724-1278072-1609726-1383544-1805789h1757363zm-16150290 0 499725 659528 801025 995670 4015 4843c69213 83386 174331 135709 291024 134410 205512-2599 370040-171260 367442-376891-1063-88700-33189-169724-85749-233031l-4133-4016-817796-1003820s-62835-75354-56811-176693h1743426l1425592 1819254-1214529 1591537-2048978 4724-1278190-1609726-1383544-1805789h1757481zm-16150290 0 499725 659528 800907 995670 4133 4843c69213 83386 174213 135709 291024 134410 205512-2599 369922-171260 367323-376891-944-88700-33070-169724-85630-233031l-4133-4016-817915-1003820s-62716-75354-56692-176693h1743426l1425592 1819254-1214529 1591537-2049096 4724-1278072-1609726-1383544-1805789h1757481zm-16150408 0 499843 659528 800907 995670 4015 4843c69213 83386 174331 135709 291024 134410 205512-2599 370040-171260 367560-376891-1063-88700-33308-169724-85867-233031l-4015-4016-817914-1003820s-62835-75354-56812-176693h1743427l1425710 1819254-1214529 1591537-2048978 4724-1278308-1609726-1383426-1805789h1757363zm-16150408 0 499843 659528 800907 995670 4133 4843c69213 83386 174331 135709 291024 134410 205394-2599 369922-171260 367442-376891-1063-88700-33189-169724-85749-233031l-4133-4016-817915-1003820s-62716-75354-56693-176693h1743427l1425592 1819254-1214529 1591537-2049096 4724-1278072-1609726-1383544-1805789h1757363zm-16150290 0 499843 659528 800907 995670 4133 4843c69095 83386 174213 135709 290906 134410 205512-2599 370040-171260 367441-376891-1063-88700-33070-169724-85748-233031l-4015-4016-817915-1003820s-62716-75354-56692-176693h1743426l1425592 1819254-1214529 1591537-2049096 4724-1278072-1609726-1383544-1805789h1757363zm-16150290 0 499725 659528 800906 995670 4134 4843c69213 83386 174331 135709 291024 134410 205512-2599 370040-171260 
    367441-376891-1063-88700-33189-169724-85748-233031l-4133-4016-817915-1003820s-62716-75354-56574-176693h1743308l1425592 1819254-1214529 1591537-2049096 4724-1278072-1609726L5427525 298819h1757481zm139969613 0 499843 659528 800788 995670 4134 4843c69213 83386 174331 135709 291024 134410 205512-2599 370040-171260 367441-376891-945-88700-33071-169724-85748-233031l-4016-4016-818032-1003820s-62716-75354-56575-176693h1743309l1425592 1819254-1214529 1591537-2049096 4724-1278072-1609726-1383545-1805789h1757482zm-16150408 0 499843 659528 800906 995670 4134 4843c69213 83386 174095 135709 291024 134410 205394-2599 369922-171260 367441-376891-945-88700-33189-169724-85748-233031l-4134-4016-817914-1003820s-62716-75354-56693-176693h1743427l1425592 1819254-1214529 1591537-2049096 4724-1278072-1609726-1383545-1805789h1757364zm37684168 0 499842 659528 800907 995670 4015 4843c69213 83386 174331 135709 291024 134410 205512-2599 370040-171260 367560-376891-1063-88700-33307-169724-85748-233031l-4134-4016-817914-1003820s-62835-75354-56811-176693h1743426l1425710 1819254-1214528 1591537-2048979 4724-1278308-1609726-1383426-1805789h1757364zm-53834458 0 499843 659528 800906 995670 4016 4843c69213 83386 174213 135709 291024 134410 205512-2599 370040-171260 367559-376891-1063-88700-33307-169724-85866-233031l-4134-4016-817796-1003820s-62834-75354-56811-176693h1743427l1425592 1819254-1214411 1591537-2049214 4724-1278072-1609726-1383427-1805789h1757364zm-16150290 0 499725 659528 800906 995670 4134 4843c69213 83386 174213 135709 291024 134410 205512-2599 369922-171260 367441-376891-1063-88700-33189-169724-85748-233031l-4134-4016-817914-1003820s-62716-75354-56693-176693h1743427l1425592 1819254-1214529 1591537-2049096 4724-1278072-1609726-1383545-1805789h1757482zm-16150408 0 499843 659528 800906 995670 4016 4843c69331 83386 174331 135709 291024 134410 205512-2599 370040-171260 367441-376891-945-88700-33071-169724-85748-233031l-4016-4016-817914-1003820s-62716-75354-56693-176693h1743427l1425592 1819254-1214529 1591537-2048978 4724-1278308-1609726-1383545-1805789h1757482zm-16150290 0 499843 659528 800788 995670 4134 4843c69213 83386 174331 135709 291024 134410 205512-2599 369922-171260 367441-376891-945-88700-33189-169724-85748-233031l-4134-4016-817914-1003820s-62716-75354-56693-176693h1743427l1425592 1819254-1214529 1591537-2048978 4724-1278190-1609726-1383545-1805789h1757482zm-16150408 0 499843 659528 800906 995670 4134 4843c69095 83386 174213 135709 290906 134410 205512-2599 370040-171260 367559-376891-1063-88700-33189-169724-85866-233031l-4016-4016-817914-1003820s-62716-75354-56693-176693h1743427l1425474 1819254-1214411 1591537-2048978 4724-1278190-1609726-1383663-1805789h1757482zm-16150290 0 499725 659528 800906 995670 4134 4843c69213 83386 174331 135709 291024 134410 205512-2599 370040-171260 367559-376891-1181-88700-33189-169724-85866-233031l-4134-4016-817914-1003820s-62716-75354-56575-176693h1743309l1425592 1819254-1214529 1591537-2049096 4724-1277954-1609726-1383663-1805789h1757482zm-16150290 0 499725 659528 800906 995670 4016 4843c69331 83386 174331 135709 291142 134410 205394-2599 369922-171260 367441-376891-1063-88700-33189-169724-85748-233031l-4134-4016-817914-1003820s-62716-75354-56693-176693h1743427l1425592 1819254-1214529 1591537-2049096 4724-1278072-1609726-1383545-1805789h1757482zm-16150408 0 499843 659528 800906 995670 4016 4843c69213 83386 174331 135709 291024 134410 205512-2599 370040-171260 367441-376891-945-88700-33071-169724-85748-233031l-4134-4016-817796-1003820s-62716-75354-56693-176693h1743309l1425592 1819254-1214411 1591537-2049096 4724-1278190-1609726L44055 298819h1757482zm139969613 0 499843 659528 800906 995670 4016 4843c69212 83386 174213 135709 291024 134410 205512-2599 370039-171260 367559-376891-1063-88700-33189-169724-85866-233031l-4134-4016-817796-1003820s-62835-75354-56693-176693h1743309l1425710 1819254-1214529 1591537-2049096 4724-1278191-1609726-1383426-1805789h1757364zm-16150290 0 499725 659528 801024 995670 4016 4843c69212 83386 174213 135709 291024 134410 205512-2599 369921-171260 367559-376891-1063-88700-33307-169724-85866-233031l-4134-4016-817914-1003820s-62717-75354-56693-176693h1743427l1425591 1819254-1214528 1591537-2049096 4724-1278072-1609726-1383545-1805789h1757482zm37684049 0 499843 659528 800906 995670 4134 4843c69095 83386 174331 135709 290906 134410 205630-2599 370040-171260 367559-376891-1063-88700-33189-169724-85866-233031l-4016-4016-817914-1003820s-62716-75354-56693-176693h1743427l1425474 1819254-1214411 1591537-2048978 4724-1278190-1609726-1383663-1805789h1757482zm-53834457 0 499843 659528 800906 995670 4016 4843c69330 83386 174331 135709 291024 134410 205512-2599 370039-171260 367441-376891-1063-88700-33071-169724-85748-233031l-4016-4016-817914-1003820s-62717-75354-56693-176693h1743427l1425592 1819254-1214529 1591537-2049096 4724-1278072-1609726-1383663-1805789h1757482zm-16150408 0 499843 659528 800906 995670 4134 4843c69212 83386 174331 135709 291024 134410 205512-2599 370039-171260 367323-376891-945-88700-33071-169724-85630-233031l-4134-4016-817914-1003820s-62717-75354-56693-176693h1743427l1425591 1819254-1214528 1591537-2048978 4724-1278191-1609726-1383544-1805789h1757364zm-16150290 0 499843 659528 800906 995670 4134 4843c69094 83386 174213 135709 290906 134410 205512-2599 370039-171260 367441-376891-945-88700-33071-169724-85748-233031l-4016-4016-817914-1003820s-62717-75354-56693-176693h1743309l1425709 1819254-1214528 1591537-2049096 4724-1278072-1609726-1383545-1805789h1757364zm-16150290 0 499725 659528 801024 995670 4134 4843c69094 83386 174094 135709 290906 134410 205512-2599 370039-171260 367441-376891-1063-88700-33071-169724-85748-233031l-4134-4016-817796-1003820s-62835-75354-56693-176693h1743309l1425591 1819254-1214528 1591537-2048978 4724-1278191-1609726-1383544-1805789h1757482zm-16150290 0 499725 659528 800906 995670 4134 4843c69212 83386 174212 135709 291024 134410 205512-2599 369921-171260 367441-376891-1063-88700-33189-169724-85748-233031l-4134-4016-817914-1003820s-62835-75354-56693-176693h1743427l1425591 1819254-1214528 1591537-2049097 4724-1278072-1609726-1383544-1805789h1757482zm-16150408 0 499843 659528 800906 995670 4016 4843c69330 83386 174331 135709 291024 134410 205512-2599 370039-171260 367441-376891-945-88700-33071-169724-85748-233031l-4016-4016-817914-1003820s-62717-75354-56693-176693h1743309l1425709 1819254-1214528 1591537-2049097 4724-1278190-1609726-1383544-1805789h1757482zm-16150408 0 499843 659528 800906 995670 4134 4843c69212 83386 174331 135709 291024 134410 205512-2599 369921-171260 367441-376891-1063-88700-33189-169724-85748-233031l-4134-4016-817914-1003820s-62717-75354-56693-176693h1743427l1425591 1819254-1214528 1591537-2049097 4724-1278072-1609726-1383544-1805789h1757364zM15118 1389804l570709 728269-570709 747993V1389804zm150676315 2447601 781773-1001103c119291-152599 231142 0 231142 0l2550592 3365436 800907 995788 4134 4725c69094 83504 174212 135826 290905 134527 205630-2598 370040-171378 367560-376890-1063-88701-33189-169843-85748-233032l-4134-4015-817914-1003820s-128504-154370 0-318071l788032-1005474 2324293 2966105-1214528 1591537-2049097 4725-1278072-1609726-2689845-3510712zm-16150290 0 781655-1001103c119291-152599 231260 0 231260 0l2550593 3365436 800906 995788 4134 4725c69094 83504 174094 135826 290905 134527 205512-2598 370040-171378 367560-376890-1063-88701-33189-169843-85866-233032l-4016-4015-817914-1003820s-128504-154370 0-318071l787914-1005474 2324293 2966105-1214410 1591537-2049215 4725-1277954-1609726-2689845-3510712zm37684050 0 781772-1001103c119291-152599 231142 0 231142 0l2550593 3365436 800906 995788 4134 4725c69213 83504 174331 135826 291024 134527h118v1619411l-691772 1654-1278072-1609726-2689845-3510712zm4659689 2544924-540473-663308s-128504-154370 0-318071l540473-689647v1671026zm-58494147-2544924 781773-1001103c119173-152599 231142 0 231142 0l2550592 3365436 800907 995788 4134 4725c69212 83504 174212 135826 291023 134527 205512-2598 370040-171378 367324-376890-945-88701-33071-169843-85630-233032l-4134-4015-817914-1003820s-128504-154370 0-318071l788032-1005474 2324293 2966105-1214528 1591537-2049097 4725-1278072-1609726-2689845-3510712zm37684168 0 781654-1001103c119291-152599 231260 0 231260 0l2550593 3365436 800906 995788 4016 4725c69331 83504 174213 135826 291142 134527 205394-2598 369921-171378 367441-376890-945-88701-33189-169843-85866-233032l-4016-4015-817914-1003820s-128504-154370 0-318071l787914-1005474 2324412 2966105-1214529 1591537-2049096 4725-1278190-1609726-2689727-3510712zm-53834458 0 781655-1001103c119173-152599 231260 0 231260 0l2550592 3365436 800907 995788 4015 4725c69213 83504 174213 135826 291024 134527 205512-2598 370040-171378 367442-376890-945-88701-33189-169843-85630-233032l-4134-4015-817914-1003820s-128504-154370 0-318071l787914-1005474 2324411 2966105-1214528 1591537-2049097 4725-1278190-1609726-2689727-3510712zm-16150290 0 781655-1001103c119173-152599 231142 0 231142 0l2550592 3365436 800907 995788 4133 4725c69213 83504 174331 135826 291024 134527 205512-2598 369922-171378 367442-376890-1063-88701-33189-169843-85748-233032l-4134-4015-817796-1003820s-128623-154370 0-318071l787914-1005474 2324293 2966105-1214529 1591537-2049096 4725-1278072-1609726-2689727-3510712zm-16150408 0 781773-1001103c119291-152599 231142 0 231142 0l2550592 3365436 800907 995788 4133 4725c69095 83504 174213 135826 290906 134527 205512-2598 370040-171378 367560-376890-1063-88701-33189-169843-85748-233032l-4134-4015-817914-1003820s-128504-154370 0-318071l787914-1005474 2324411 2966105-1214528 1591537-2048979 4725-1278190-1609726-2689845-3510712zm-16150408 0 781773-1001103c119291-152599 231142 0 231142 0l2550710 3365436 800789 995788 4133 4725c69213 83504 174331 135826 291024 134527 205512-2598 370040-171378 367442-376890-1063-88701-33189-169843-85749-233032l-4133-4015-817915-1003820s-128385-154370 0-318071l788033-1005474 2324293 2966105-1214410 1591537-2049097 4725-1278190-1609726-2689845-3510712zm-16150290 0 781654-1001103c119292-152599 231261 0 231261 0l2550592 3365436 800907 995788 4133 4725c69213 83504 174213 135826 291024 134527 205394-2598 369922-171378 367442-376890-1063-88701-33189-169843-85749-233032l-4133-4015-817914-1003820s-128505-154370 0-318071l788032-1005474 2324293 2966105-1214529 1591537-2049096 4725-1278072-1609726-2689845-3510712zm-16150290 0 781655-1001103c119173-152599 231141 0 231141 0l2550711 3365436 800907 995788 4015 4725c69213 83504 174331 135826 291024 134527 205512-2598 370040-171378 367442-376890-1063-88701-33071-169843-85749-233032l-4133-4015-817796-1003820s-128623-154370 0-318071l787914-1005474 2324293 2966105-1214410 1591537-2049215 4725-1278072-1609726-2689727-3510712zm-16150408 0 781773-1001103c119173-152599 231141 0 231141 0l2550593 3365436 800907 995788 4133 4725c69213 83504 174213 135826 291024 134527 205512-2598 369922-171378 367442-376890-1063-88701-33189-169843-85749-233032l-4133-4015-817915-1003820s-128504-154370 0-318071l788033-1005474 2324293 2966105-1214529 1591537-2049096 4725-1278072-1609726-2689845-3510712zm139969613 0 781772-1001103c119292-152599 231142 0 231142 0l2550593 3365436 800906 995788 4134 4725c69213 83504 174213 135826 291024 134527 205512-2598 370040-171378 367441-376890-945-88701-33071-169843-85748-233032l-4134-4015-817914-1003820s-128504-154370 0-318071l788032-1005474 2324294 2966105-1214529 1591537-2049096 4725-1278072-1609726-2689845-3510712zm-16150290 0 781654-1001103c119292-152599 231260 0 231260 0l2550593 3365436 800906 995788 4134 4725c69213 83504 174095 135826 290906 134527 205512-2598 370040-171378 367559-376890-944-88701-33189-169843-85748-233032l-4134-4015-817914-1003820s-128504-154370 0-318071l788032-1005474 2324294 2966105-1214529 1591537-2049096 4725-1278190-1609726-2689727-3510712zm37684167 0 781655-1001103c119291-152599 231260 0 231260 0l2550593 3365436 800788 995788 4134 4725c69212 83504 174330 135826 291023 134527 205512-2598 370040-171378 367442-376890-945-88701-33189-169843-85748-233032l-4016-4015-818032-1003820s-128386-154370 0-318071l788032-1005474 2324293 2966105-1214410 1591537-2049097 4725-1278190-1609726-2689727-3510712zm-53834575 0 781772-1001103c119174-152599 231142 0 231142 0l2550711 3365436 800906 995788 4016 4725c69213 83504 174213 135826 291024 134527 205512-2598 370040-171378 367441-376890-1063-88701-33189-169843-85748-233032l-4134-4015-817914-1003820s-128504-154370 0-318071l788032-1005474 2324294 2966105-1214411 1591537-2049214 4725-1278072-1609726-2689845-3510712zm-16150290 0 781772-1001103c119292-152599 231142 0 231142 0l2550593 3365436 800906 995788 4134 4725c69095 83504 174331 135826 290906 134527 205512-2598 370040-171378 367559-376890-1063-88701-33189-169843-85866-233032l-4016-4015-817914-1003820s-128504-154370 0-318071l788032-1005474 2324294 2966105-1214529 1591537-2048978 4725-1278190-1609726-2689845-3510712zm-16150408 0 781772-1001103c119292-152599 231142 0 231142 0l2550711 3365436 800788 995788 4134 4725c69213 83504 174331 135826 291024 134527 205512-2598 370040-171378 367441-376890-945-88701-33189-169843-85748-233032l-4134-4015-817914-1003820s-128504-154370 0-318071l788032-1005474 2324294 2966105-1214529 1591537-2048978 4725-1278190-1609726-2689845-3510712zm-16150290 0 781654-1001103c119292-152599 231260 0 231260 0l2550593 3365436 800906 995788 4134 4725c69213 83504 174331 135826 291024 134527 205394-2598 369922-171378 367441-376890-945-88701-33189-169843-85748-233032l-4134-4015-817914-1003820s-128504-154370 0-318071l788032-1005474 2324294 2966105-1214529 1591537-2048978 4725-1278190-1609726-2689845-3510712zm-16150290 0 781654-1001103c119292-152599 231142 0 231142 0l2550711 3365436 800906 995788 4016 4725c69213 83504 174331 135826 291024 134527 205512-2598 370040-171378 367441-376890-1063-88701-33071-169843-85748-233032l-4134-4015-817796-1003820s-128504-154370 0-318071l788032-1005474 2324176 2966105-1214411 1591537-2049214 4725-1277954-1609726-2689845-3510712zm-16150290 0 781654-1001103c119174-152599 231142 0 231142 0l2550593 3365436 800906 995788 4134 4725c69213 83504 174331 135826 291024 134527 205512-2598 369922-171378 367441-376890-1063-88701-33189-169843-85748-233032l-4134-4015-817914-1003820s-128504-154370 0-318071l788032-1005474 2324294 2966105-1214529 1591537-2049096 4725-1278072-1609726-2689727-3510712zm-16150408 0 781654-1001103c119174-152599 231260 0 231260 0l2550593 3365436 800906 995788 4016 4725c69331 83504 174331 135826 291024 134527 205512-2598 370040-171378 367441-376890-945-88701-33071-169843-85630-233032l-4134-4015-817914-1003820s-128504-154370 0-318071l787914-1005474 2324412 2966105-1214529 1591537-2049096 4725-1278190-1609726-2689727-3510712zM15118 3760279l721536-923977c119174-152599 231142 0 231142 0l2550711 3365436 800788 995788 4134 4725c69213 83504 174331 135826 291024 134527 205512-2598 369922-171378 367441-376890-1063-88701-33189-169843-85748-233032l-4134-4015-817914-1003820s-128504-154370 0-318071l788032-1005474 2324294 2966105-1214411 1591537-2049214 4725-1278072-1609726L15118 3916066v-155787zm139909377 77126 781772-1001103c119291-152599 231260 0 231260 0l2550593 3365436 800906 995788 4016 4725c69212 83504 174213 135826 291024 134527 205512-2598 369921-171378 367559-376890-1063-88701-33307-169843-85866-233032l-4134-4015-817914-1003820s-128504-154370 0-318071l788032-1005474 2324294 2966105-1214411 1591537-2049096 4725-1278190-1609726-2689845-3510712zm-16150290 0 781654-1001103c119409-152599 231260 0 231260 0l2550593 3365436 800906 995788 4134 4725c69213 83504 174213 135826 290906 134527 205512-2598 370039-171378 367559-376890-1181-88701-33189-169843-85866-233032l-4016-4015-817914-1003820s-128504-154370 0-318071l788032-1005474 2324294 2966105-1214529 1591537-2049096 4725-1278072-1609726-2689845-3510712zm37684167 0 781654-1001103c119292-152599 231260 0 231260 0l2550593 3365436 800906 995788 4134 4725c69095 83504 174213 135826 290906 134527 205512-2598 370040-171378 367559-376890-1063-88701-33189-169843-85866-233032l-4016-4015-817914-1003820s-128504-154370 0-318071l788033-1005474 2324175 2966105-1214529 1591537-2049096 4725-1277954-1609726-2689845-3510712zm-53834457 0 781654-1001103c119173-152599 231260 0 231260 0l2550593 3365436 800906 995788 4016 4725c69212 83504 174331 135826 291024 134527 205512-2598 370039-171378 367441-376890-1063-88701-33071-169843-85748-233032l-4134-4015-817796-1003820s-128504-154370 0-318071l787914-1005474 2324412 2966105-1214529 1591537-2049096 4725-1278072-1609726-2689845-3510712zm-16150408 0 781654-1001103c119291-152599 231260 0 231260 0l2550593 3365436 800906 995788 4134 4725c69212 83504 174331 135826 291024 134527 205394-2598 370039-171378 367323-376890-945-88701-33071-169843-85630-233032l-4134-4015-817914-1003820s-128504-154370 0-318071l788032-1005474 2324293 2966105-1214528 1591537-2049096 4725-1278072-1609726-2689845-3510712zm-16150290 0 781654-1001103c119291-152599 231260 0 231260 0l2550593 3365436 800906 995788 4134 4725c69094 83504 174213 135826 290906 134527 205512-2598 370039-171378 367559-376890-1063-88701-33189-169843-85866-233032l-4134-4015-817796-1003820s-128504-154370 0-318071l788032-1005474 2324175 2966105-1214410 1591537-2049096 4725-1278191-1609726-2689726-3510712zm-16150408 0 781772-1001103c119173-152599 231142 0 231142 0l2550593 3365436 800906 995788 4134 4725c69212 83504 174331 135826 291024 134527 205512-2598 370039-171378 367441-376890-1063-88701-33189-169843-85748-233032l-4134-4015-817914-1003820s-128504-154370 0-318071l788032-1005474 2324293 2966105-1214528 1591537-2048978 4725-1278191-1609726-2689844-3510712zm-16150290 0 781654-1001103c119291-152599 231260 0 231260 0l2550593 3365436 800906 995788 4016 4725c69330 83504 174331 135826 291142 134527 205394-2598 369921-171378 367323-376890-945-88701-33071-169843-85748-233032l-4016-4015-817914-1003820s-128504-154370 0-318071l787914-1005474 2324411 2966105-1214528 1591537-2049096 4725-1278072-1609726-2689845-3510712zm-16150408 0 781772-1001103c119173-152599 231260 0 231260 0l2550475 3365436 800906 995788 4134 4725c69212 83504 174331 135826 291024 134527 205512-2598 370039-171378 367441-376890-1063-88701-33189-169843-85748-233032l-4134-4015-817914-1003820s-128386-154370 0-318071l788032-1005474 2324293 2966105-1214528 1591537-2048978 4725-1278191-1609726-2689844-3510712zm-16150290 0 781654-1001103c119291-152599 231260 0 231260 0l2550593 3365436 800906 995788 4134 4725c69212 83504 174213 135826 290906 134527 205512-2598 370039-171378 367559-376890-1181-88701-33189-169843-85866-233032l-4016-4015-817914-1003820s-128504-154370 0-318071l788032-1005474 2324293 2966105-1214528 1591537-2049097 4725-1278072-1609726-2689844-3510712zM15118 5080044l1787836 2281537L588426 8953118l-573308 1299V5080044z"
    style="fill:#f9f5ed;fill-rule:nonzero"
  /></svg>
