<?xml version="1.0" encoding="UTF-8"?>
<!DOCTYPE svg PUBLIC "-//W3C//DTD SVG 1.1//EN" "http://www.w3.org/Graphics/SVG/1.1/DTD/svg11.dtd">
<!-- Creator: CorelDRAW Home & Student X8 -->
<svg xmlns="http://www.w3.org/2000/svg" xml:space="preserve" width="30px" height="25px" version="1.1" style="shape-rendering:geometricPrecision; text-rendering:geometricPrecision; image-rendering:optimizeQuality; fill-rule:evenodd; clip-rule:evenodd"
viewBox="0 0 3000000 2499921"
 xmlns:xlink="http://www.w3.org/1999/xlink">
 <defs>
  <style type="text/css">
   <![CDATA[
    .fil1 {fill:white}
    .fil0 {fill:#235B4E;fill-rule:nonzero}
   ]]>
  </style>
 </defs>
 <g id="Capa_x0020_1">
  <metadata id="CorelCorpID_0Corel-Layer"/>
  <g id="_671141456">
   <path class="fil0" d="M466181 250039l2067756 0c56575,0 107953,23032 145039,60237l4607 5078c34370,36615 55630,85985 55630,139843l0 1201417c0,31890 -7441,62244 -20552,89292 43347,6968 82559,27874 112441,57755 37205,36969 60355,88347 60355,144922l0 96023c0,56575 -23150,108071 -60237,145040l-5078 4724c-36733,34370 -86103,55512 -139961,55512l-2372244 0c-56575,0 -107953,-23032 -145157,-60236 -36969,-36969 -60119,-88465 -60119,-145040l0 -96023c0,-56575 23150,-107953 60119,-145040 29881,-29882 68976,-50669 112677,-57637 -13111,-27048 -20551,-57402 -20551,-89292l0 -1201417c0,-56339 23031,-107599 60354,-144803 36968,-37323 88346,-60355 144921,-60355zm153307 398859c-28346,0 -51260,-23032 -51260,-51378 0,-28229 22914,-51260 51260,-51260l121299 0c25748,0 47008,19134 50670,43819l35315 145984 593740 945 13937 1417c27401,6614 44291,34370 37677,61772l-89646 369094c-3661,24685 -25039,43701 -50787,43701l-454843 0c-23031,-236 -44055,-15945 -49724,-39331l-126614 -524763 -81024 0zm613229 571063c34488,0 65905,14055 88464,36496 22559,22559 36614,53976 36614,88464 0,34488 -14055,65906 -36614,88465 -22559,22441 -53976,36496 -88464,36496 -34489,0 -65788,-14055 -88347,-36496 -22559,-22559 -36614,-53977 -36614,-88465 0,-34488 14055,-65905 36614,-88464 22559,-22441 53858,-36496 88347,-36496zm-284528 0c34252,0 65433,14055 88110,36496 22914,22559 36851,53976 36851,88464 0,34488 -13937,65906 -36496,88465 -22560,22441 -53977,36496 -88465,36496 -34488,0 -65906,-14055 -88346,-36496 -22560,-22559 -36615,-53977 -36615,-88465 0,-34488 14055,-65905 36615,-88464 22440,-22441 53858,-36496 88346,-36496zm-96732 -381733l65669 272126 374409 0 65906 -271299 -505984 -827zm930590 470315c-22086,0 -40039,-23031 -40039,-51260 0,-28346 17953,-51377 40039,-51377l535512 0c22087,0 40158,23031 40158,51377 0,28229 -18071,51260 -40158,51260l-535512 0zm0 -224527c-22086,0 -40039,-22914 -40039,-51260 0,-28347 17953,-51378 40039,-51378l535512 0c22087,0 40158,23031 40158,51378 0,28346 -18071,51260 -40158,51260l-535512 0zm904134 796181l-2372244 0c-18780,0 -35906,7677 -48307,20197 -12402,12283 -20079,29409 -20079,48189l0 96023c0,18780 7677,35906 20079,48307 12401,12284 29527,20079 48307,20079l2372244 0c17717,0 33780,-6614 45827,-17480l2480 -2599c12284,-12401 20079,-29527 20079,-48307l0 -96023c0,-18780 -7795,-35906 -20079,-48189 -12165,-12520 -29409,-20197 -48307,-20197zm-152244 -1493268l-2067756 0c-18779,0 -35905,7795 -48189,20079 -12520,12165 -20197,29291 -20197,48189l0 1201417c0,18780 7677,35906 20197,48307 12284,12402 29410,20079 48189,20079l2067756 0c18780,0 35787,-7677 48307,-20079 12284,-12401 20079,-29527 20079,-48307l0 -1201417c0,-17717 -6732,-33780 -17599,-45709l-2480 -2480c-12520,-12284 -29527,-20079 -48307,-20079z"/>
   <path class="fil1" d="M1291535 1743307l453189 0c50906,0 92481,41575 92481,92362l0 118c0,50788 -41575,92363 -92481,92363l-453189 0c-50787,0 -92362,-41575 -92362,-92363l0 -118c0,-50787 41575,-92362 92362,-92362z"/>
   <path class="fil0" d="M1291535 1692047l453189 0c39331,0 75355,16063 101457,42166 26102,25866 42284,61889 42284,101456 0,39567 -16182,75591 -42166,101575 -25984,25984 -62008,42165 -101575,42165l-453189 0c-39566,0 -75472,-16181 -101456,-42165l-3071 -3425c-24213,-25748 -39095,-60354 -39095,-98032 0,-39448 16181,-75236 42166,-101338 26338,-26339 62126,-42402 101456,-42402zm453189 102520l-453189 0c-11220,0 -21614,4606 -28937,11929 -7441,7559 -12047,17835 -12047,29173 0,10630 3898,20315 10394,27520l1653 1535c7441,7323 17717,12048 28937,12048l453189 0c11221,0 21615,-4725 28937,-12048 7441,-7441 12166,-17834 12166,-28937 0,-11338 -4725,-21732 -12166,-29055 -7204,-7559 -17598,-12165 -28937,-12165z"/>
  </g>
 </g>
</svg>
