<?xml version="1.0" encoding="UTF-8"?>
<!DOCTYPE svg PUBLIC "-//W3C//DTD SVG 1.1//EN" "http://www.w3.org/Graphics/SVG/1.1/DTD/svg11.dtd">
<!-- Creator: CorelDRAW Home & Student X8 -->
<svg xmlns="http://www.w3.org/2000/svg" xml:space="preserve" width="280px" height="280px" version="1.1" style="shape-rendering:geometricPrecision; text-rendering:geometricPrecision; image-rendering:optimizeQuality; fill-rule:evenodd; clip-rule:evenodd"
viewBox="0 0 28000000 28000000"
 xmlns:xlink="http://www.w3.org/1999/xlink">
 <defs>
  <style type="text/css">
   <![CDATA[
    .fil3 {fill:none}
    .fil5 {fill:#E7F2E4}
    .fil6 {fill:#F0F0F0}
    .fil4 {fill:#F8F8F8}
    .fil1 {fill:#F9F9F9}
    .fil2 {fill:white}
    .fil8 {fill:#7ACB61;fill-rule:nonzero}
    .fil7 {fill:#BDC3DB;fill-rule:nonzero}
    .fil0 {fill:#D0D0D0;fill-rule:nonzero}
   ]]>
  </style>
   <clipPath id="id0">
    <path d="M8235259 6402301l7585297 0c770081,0 1399965,629884 1399965,1399965l0 12794091c0,770081 -629884,1399965 -1399965,1399965l-7585297 0c-770081,0 -1399964,-629884 -1399964,-1399965l0 -12794091c0,-770081 629883,-1399965 1399964,-1399965z"/>
   </clipPath>
   <clipPath id="id1">
    <path d="M8385968 9433491l7283997 0c440080,0 799963,359883 799963,799963l0 7931715c0,439962 -359883,799845 -799963,799845l-7283997 0c-440080,0 -799962,-359883 -799962,-799845l0 -7931715c0,-440080 359882,-799963 799962,-799963z"/>
   </clipPath>
   <clipPath id="id2">
    <path d="M13046966 18308083l118 1507445 2522015 -1507445 6055174 0c220040,0 399923,-179882 399923,-399922l0 -7353092c0,-220040 -179883,-399922 -399923,-399922l-9827389 0c-220040,0 -399923,179882 -399923,399922l0 7353092c0,220040 179883,399922 399923,399922l1250082 0z"/>
   </clipPath>
 </defs>
 <g id="Capa_x0020_1">
  <metadata id="CorelCorpID_0Corel-Layer"/>
  <path class="fil0" d="M14002717 1497642c-59292,0 -107245,43583 -116339,97914 -12402,74409 44645,138307 116339,138307l234567 2126c159568,0 154961,-236221 3071,-236221l-237638 -2126zm-1062051 281694c175985,-29292 110670,-257245 -20787,-235277l-237402 22678c-170316,28346 -111497,257599 25275,234803l232914 -22204zm-1388744 199488c142914,-23858 116930,-258898 -47480,-231496l-233269 49606c-137480,22914 -118110,258899 51733,230552l229016 -48662zm-1356382 357167c147993,-49370 72993,-273308 -74409,-224174l-225828 76181c-142323,47481 -74409,273662 78426,222757l221811 -74764zm-1307129 511300c147992,-74055 32008,-280040 -98504,-214725 -70985,31182 -147284,66969 -216379,102048 -141260,70630 -33189,280631 103937,212127 68977,-33780 140670,-68505 210946,-99450zm-1239334 657640c117874,-58937 38386,-282402 -122599,-201969l-203268 125906c-132875,106299 2598,273898 127559,198898 64961,-36142 133347,-83740 198308,-122835zm-1156185 794884c124961,-99921 -26693,-281103 -144803,-186614l-187560 148228c-119646,95788 25866,281812 149292,183072l183071 -144686zm-1058270 921263c112441,-112442 -57402,-276615 -165119,-168898 -57047,54921 -113859,111968 -169371,168425 -45000,45000 -44409,120709 237,165355 47480,47480 121535,46890 168662,-236 54212,-55276 109842,-111024 165591,-164646zm-946539 1034884c97442,-121772 -87283,-269055 -184016,-148110l-148819 186142c-95670,119528 89173,266576 184252,147756l148583 -185788zm-823230 1136106c83622,-139252 -123189,-253938 -199843,-126142l-126615 201851c-80433,160985 143032,240473 201969,122599l124489 -198308zm-688467 1223389c68504,-137126 -141496,-245315 -212126,-103937 -35433,70984 -69685,143859 -103229,215906 -65315,130512 140670,246615 214725,98504 32244,-70157 66142,-141614 100630,-210473zm-543545 1293193c50906,-152835 -175276,-220749 -222756,-78426l-77362 225474c-49134,147402 174803,222402 224173,74409l75945 -221457zm-390945 1347051c28346,-169843 -207639,-189331 -230552,-51732l-50906 232914c-27402,164409 207638,190394 231497,47480l49961 -228662zm-233859 1383547c22795,-136772 -206458,-195591 -234804,-25276l-24095 237285c-21968,131457 205985,196772 235276,20787l23623 -232796zm-74883 1401028c0,-153544 -236221,-156142 -236221,1653l2953 238347c0,148347 236221,157206 236221,-5905l-2953 -234095zm83268 1400791c-27756,-166654 -258071,-112323 -234567,28347l30000 236575c26811,160867 258190,113268 233859,-32835l-29292 -232087zm242245 1382130c-51024,-153189 -255355,-98386 -229843,54567l56811 231615c55630,166890 271536,69567 228662,-59055l-55630 -227127zm399214 1344571c-46418,-139253 -273780,-74528 -221812,81260l82914 223465c44882,134528 274135,75827 220394,-85276l-81496 -219449zm551222 1290121c-69213,-138307 -280985,-33897 -210946,106300l108190 212481c66496,132874 281457,34842 208819,-110315 -36496,-68741 -71339,-138780 -106063,-208466zm695671 1219020c-104764,-130985 -273898,2126 -197953,128740 41693,66614 87756,134056 132048,199253 110905,138661 278622,-28819 194882,-133465 -43229,-63426 -88347,-129568 -128977,-194528zm829609 1130790c-94489,-118110 -280867,26811 -181182,151418l153426 182363c91890,114921 280512,-27048 178347,-154725l-150591 -179056zm953152 1029688c-141496,-113268 -264922,89528 -162992,171024l173268 163701c137480,109961 265749,-89173 159921,-173858l-170197 -160867zm1063940 914885c-117874,-94253 -266694,89055 -144449,186850 61890,49607 128504,97087 192402,144568 112559,90000 270119,-86339 139370,-190867l-187323 -140551zm1160909 788033c-157796,-78898 -241182,142914 -120237,203387l205749 120354c152953,76418 242127,-142677 116457,-205512l-201969 -118229zm1243114 650081c-127324,-63662 -247088,140315 -95906,215906l218150 96024c155079,51732 227835,-149646 92126,-217560l-214370 -94370zm1310200 503387c-143859,-47953 -223111,174567 -71575,225119l227717 70276c138898,46299 223938,-174214 67560,-226300l-223702 -69095zm1358508 349017c-160867,-26811 -190985,207638 -44646,231969l234450 43701c155197,25866 191929,-207402 40157,-232678l-229961 -42992zm1390043 191221c-156378,0 -176221,209174 -17953,235512l237875 16654c172442,0 152481,-235749 13465,-235749l-233387 -16417zm1402563 32362c-144213,0 -157914,235985 9213,235985 79134,-2835 159213,-5079 238111,-10276 139016,0 158977,-235748 -13465,-235748l-233859 10039zm1397603 -126142c-157560,26221 -114095,258544 35669,233623 78543,-11575 157441,-23504 235631,-37205 151772,-25276 115039,-258544 -40158,-232678l-231142 36260zm1374098 -284765c-163701,54567 -70040,271891 61654,227954l229607 -63898c158504,-52795 70984,-272363 -65906,-226772l-225355 62716zm1331578 -440670c-130984,43701 -76535,274135 88111,219213l220749 -89882c135709,-67796 62953,-269292 -92127,-217560l-216733 88229zm1272406 -590907c-130394,65197 -35434,281693 112677,207638 69922,-37677 139961,-75354 208938,-114685 125669,-62835 36496,-281930 -116457,-205513l-205158 112560zm1196460 -732522c-135827,108662 28464,279095 135827,193229l194528 -137717c131693,-105355 -27756,-280158 -139371,-190867 -62834,46063 -127087,90827 -190984,135355zm1105515 -864333c-9449,7559 -17008,18543 -22796,27283 -66378,110552 68504,238111 179410,149410l177638 -158977c111143,-88937 -30236,-277914 -156496,-176929l-177756 159213zm1000042 -984216c-107717,134647 88937,266340 175748,157796l158268 -178111c104528,-130630 -88464,-267048 -178347,-154724l-155669 175039zm881931 -1091459c-88819,111024 86812,269174 192521,137008l137126 -194882c37441,-46772 20669,-123426 -22795,-158269 -58111,-46417 -128150,-30118 -172087,24804l-134765 191339zm751892 -1184413c-74764,149528 142442,242717 206930,113859l113859 -209174c72638,-145158 -142324,-243190 -208820,-110316l-111969 205631zm611341 -1262602c-55394,166182 175630,218741 218740,89292l89292 -221103c53740,-161103 -175512,-219804 -220394,-85276l-87638 217087zm462521 -1325083c-45119,135237 173858,224765 227244,64489l63189 -229843c43347,-130158 -173268,-225710 -228425,-60237l-62008 225591zm306851 -1368547c-25276,151418 207402,192875 233386,37087l36260 -235512c24331,-146103 -207048,-193702 -233859,-32835l-35787 231260zm148347 -1395240c0,168662 235985,153190 235985,10394l9567 -238347c0,-163111 -236222,-154253 -236222,-5906l-9330 233859zm-10276 -1403153c0,135354 235749,159921 235749,-16536 -4961,-77480 -8504,-161103 -17481,-237638 -29291,-175985 -257244,-110670 -235276,20787 7087,77481 11929,155670 17008,233387zm-168544 -1392996c24685,147874 258662,115748 232206,-42993l-44410 -234331c-23858,-142914 -258898,-116930 -231497,47480l43701 229844zm-327402 -1364532c51732,155079 272835,71693 226063,-68740l-71102 -227599c-49961,-150001 -273072,-72520 -224646,72756l69685 223583zm-481655 -1317405c76299,152599 279331,31181 216378,-94725l-96614 -217796c-74055,-148110 -280040,-32008 -214725,98505l94961 214016zm-630002 -1253508c61181,122481 282284,37205 204095,-119055l-120945 -205276c-58937,-117875 -282402,-38386 -201969,122599l118819 201732zm-769136 -1173546c103229,129095 280513,-27402 189213,-141497l-143622 -190158c-99922,-124961 -281103,26693 -186615,144804l141024 186851zm-897758 -1078350c77480,96851 267756,-7441 184134,-146811 -50197,-62835 -119646,-129331 -176457,-187914 -112441,-112441 -276615,57402 -168898,165119l161221 169606zm-1014334 -969687c127914,102283 267757,-88111 152599,-180237l-182835 -152953c-123780,-98977 -268702,87520 -149292,183071l179528 150119zm-1117680 -847916c106772,85394 263150,-91300 139961,-189804 -64843,-47953 -139843,-93662 -207993,-137953 -124961,-75000 -260434,92599 -127559,198898l195591 128859zm-1207208 -715160c142087,71103 244016,-142087 107717,-210236l-212718 -107363c-137126,-68504 -245315,141496 -103937,212127l208938 105472zm-1280909 -572009c157795,52559 220394,-175394 82677,-221339l-223820 -82323c-152835,-50906 -220748,175276 -78425,222756l219568 80906zm-1338666 -421182c126615,42165 226418,-172796 57402,-229135l-231615 -55984c-171496,-28583 -188740,207520 -53149,230079l227362 55040zm-1377287 -264450c142323,23740 194528,-206930 29764,-234331 -78780,-10040 -157796,-20670 -236694,-29056 -136772,-22795 -195591,206458 -25275,234804l232205 28583z"/>
  <path class="fil1" d="M19032101 4943400c2485282,0 4500012,2014730 4500012,4500012 0,2485283 -2014730,4500013 -4500012,4500013 -2485283,0 -4500013,-2014730 -4500013,-4500013 0,-2485282 2014730,-4500012 4500013,-4500012zm-1099964 12232357c1625910,0 2944024,1318114 2944024,2944024 0,1625910 -1318114,2944024 -2944024,2944024 -1625910,0 -2944024,-1318114 -2944024,-2944024 0,-1625910 1318114,-2944024 2944024,-2944024zm-10514675 -6794074c1625910,0 2944024,1318114 2944024,2944024 0,1625910 -1318114,2944024 -2944024,2944024 -1625910,0 -2944024,-1318114 -2944024,-2944024 0,-1625910 1318114,-2944024 2944024,-2944024z"/>
  <path class="fil2" d="M8235259 6402301l7585297 0c770081,0 1399965,629884 1399965,1399965l0 12794091c0,770081 -629884,1399965 -1399965,1399965l-7585297 0c-770081,0 -1399964,-629884 -1399964,-1399965l0 -12794091c0,-770081 629883,-1399965 1399964,-1399965z"/>
  <g style="clip-path:url(#id0)">
   <g id="_934272560">
   </g>
  </g>
  <path id="1" class="fil3" d="M8235259 6402301l7585297 0c770081,0 1399965,629884 1399965,1399965l0 12794091c0,770081 -629884,1399965 -1399965,1399965l-7585297 0c-770081,0 -1399964,-629884 -1399964,-1399965l0 -12794091c0,-770081 629883,-1399965 1399964,-1399965z"/>
  <path class="fil4" d="M17220521 19815528l0 780829c0,770081 -629884,1399965 -1399965,1399965l-1000042 0c770081,0 1399965,-629884 1399965,-1399965l0 -780829 1000042 0z"/>
  <path class="fil4" d="M14820514 6402301l1000042 0c770081,0 1399965,629884 1399965,1399965l0 799963 -1000042 0 0 -799963c0,-770081 -629884,-1399965 -1399965,-1399965z"/>
  <path class="fil4" d="M15220437 8611087l2000084 0 0 11204441 -10385226 0 0 -593387 6985177 0c770081,0 1399965,-629884 1399965,-1399965l0 -9211089z"/>
  <path class="fil5" d="M23532113 18129145l0 -224528 561380 0 0 224528 -561380 0zm636144 -299410l0 -562915 224646 0 0 562915 -224646 0zm299410 74882l561380 0 0 224528 -561380 0 0 -224528zm-74764 299292l0 562915 -224646 0 0 -562915 224646 0z"/>
  <path class="fil2" d="M8385968 9433491l7283997 0c440080,0 799963,359883 799963,799963l0 7931715c0,439962 -359883,799845 -799963,799845l-7283997 0c-440080,0 -799962,-359883 -799962,-799845l0 -7931715c0,-440080 359882,-799963 799962,-799963z"/>
  <g style="clip-path:url(#id1)">
   <g id="_934271480">
   </g>
  </g>
  <path id="1" class="fil3" d="M8385968 9433491l7283997 0c440080,0 799963,359883 799963,799963l0 7931715c0,439962 -359883,799845 -799963,799845l-7283997 0c-440080,0 -799962,-359883 -799962,-799845l0 -7931715c0,-440080 359882,-799963 799962,-799963z"/>
  <path class="fil6" d="M15568154 9433491l180473 0c396733,0 721301,257599 721301,572718l0 8386205c0,315001 -324568,572600 -721301,572600l-7441320 0c-396734,0 -721301,-257599 -721301,-572600l0 -143268 7260847 0c396851,0 721301,-257599 721301,-572600l0 -8243055z"/>
  <path class="fil7" d="M8385968 9315381l7283997 0c252285,0 481773,103346 648073,269528l2126 2126c165237,166181 267875,394962 267875,646419l0 7931715c0,252639 -103347,482246 -269529,648427l-6614 6142c-165827,162520 -392717,263387 -641931,263387l-7283997 0c-252284,0 -481773,-103347 -648072,-269529 -166654,-166181 -270001,-395788 -270001,-648427l0 -7931715c0,-252284 103347,-481773 269528,-648073l2126 -2126c166182,-165236 394962,-267874 646419,-267874zm733585 11396370l614529 0c106891,0 194174,87284 194174,194174l0 0c0,106890 -87283,194174 -194174,194174l-614529 0c-106890,0 -194174,-87284 -194174,-194174l0 0c0,-106890 87284,-194174 194174,-194174zm2601031 0l614529 0c106890,0 194174,87284 194174,194174l0 0c0,106890 -87284,194174 -194174,194174l-614529 0c-106890,0 -194174,-87284 -194174,-194174l0 0c0,-106890 87284,-194174 194174,-194174zm2601031 0l614529 0c106890,0 194174,87284 194174,194174l0 0c0,106890 -87284,194174 -194174,194174l-614529 0c-106890,0 -194174,-87284 -194174,-194174l0 0c0,-106890 87284,-194174 194174,-194174zm-6086356 -14427560l7585297 0c417639,0 797247,170788 1072208,445749 275080,275080 445867,654687 445867,1072326l0 805750 0 3071 0 3071 0 11198299 0 3071 0 3071 0 777758c0,417639 -170787,797246 -445867,1072326 -274961,274961 -654569,445749 -1072208,445749l-7585297 0c-417284,0 -796774,-170788 -1071853,-445749l-2480 -2480c-273781,-274844 -443742,-653506 -443742,-1069846l0 -777758 0 -3071 0 -3071 0 -11198299 0 -3071 0 -3071 0 -805750c0,-417285 170788,-796774 445750,-1071853l2480 -2481c274843,-273780 653506,-443741 1069845,-443741zm7585297 236221l-7585297 0c-352560,0 -673230,144213 -905553,376300 -232088,232324 -376301,552994 -376301,905554l0 690711 10149005 0 0 -690711c0,-352442 -144331,-672994 -376654,-905317 -232324,-232324 -552758,-376537 -905200,-376537zm-8867151 2208786l0 10968220 10149005 0 0 -10968220 -10149005 0zm0 11204441l0 662718c0,352560 144213,673230 376301,905554 232323,232087 552993,376300 905553,376300l7585297 0c352442,0 672876,-144213 905200,-376536 232323,-232324 376654,-552876 376654,-905318l0 -662718 -10149005 0zm6805413 -12653304c125079,0 226418,101339 226418,226418 0,125079 -101339,226418 -226418,226418 -125079,0 -226418,-101339 -226418,-226418 0,-125079 101339,-226418 226418,-226418zm-3494065 32245l2426346 0c106890,0 194173,87283 194173,194173l0 0c0,106890 -87283,194174 -194173,194174l-2426346 0c-106890,0 -194173,-87284 -194173,-194174l0 0c0,-106890 87283,-194173 194173,-194173zm4302532 2239022l0 696261c0,121654 -62717,232560 -163583,312639 -100867,79961 -240355,129804 -393781,129804l-3963908 0c-153426,0 -292915,-49843 -393781,-129804 -100867,-80079 -163583,-190985 -163583,-312639l0 -696261 -1102681 0c-186378,0 -355985,75709 -479410,197717l-2126 2126c-123780,124016 -200316,294568 -200316,482009l0 7931715c0,187324 76890,357993 200316,481419 123307,123662 293977,200315 481536,200315l7283997 0c184489,0 352678,-74173 475632,-193937l5905 -6378c123426,-123426 200316,-294095 200316,-481419l0 -7931715c0,-186379 -75709,-355985 -197717,-479411l-2126 -2126c-124017,-123780 -294568,-200315 -482010,-200315l-1102680 0zm-4865565 0l0 696261c0,75119 38740,143505 101103,192993 62480,49607 148583,80315 243190,80315l3963908 0c94607,0 180709,-30708 243190,-80315 62362,-49488 101103,-117874 101103,-192993l0 -696261 -4652494 0zm1807092 2480203c-76418,0 -138426,-49134 -138426,-109842 0,-60709 62008,-109843 138426,-109843l1616697 0c76536,0 138426,49134 138426,109843 0,60708 -61890,109842 -138426,109842l-1616697 0zm0 5726946c-76418,0 -138426,-49134 -138426,-109843 0,-60709 62008,-109961 138426,-109961l1616697 0c76536,0 138426,49252 138426,109961 0,60709 -61890,109843 -138426,109843l-1616697 0zm-3097450 0c-76417,0 -138425,-49134 -138425,-109843 0,-60709 62008,-109961 138425,-109961l511183 0c76299,0 138307,49252 138307,109961 0,60709 -62008,109843 -138307,109843l-511183 0zm1020594 0c-76536,0 -138544,-49134 -138544,-109843 0,-60709 62008,-109961 138544,-109961l1616815 0c76418,0 138426,49252 138426,109961 0,60709 -62008,109843 -138426,109843l-1616815 0zm2076856 -1431737c-76418,0 -138426,-49134 -138426,-109842 0,-60709 62008,-109961 138426,-109961l1616697 0c76536,0 138426,49252 138426,109961 0,60708 -61890,109842 -138426,109842l-1616697 0zm-3097450 0c-76417,0 -138425,-49134 -138425,-109842 0,-60709 62008,-109961 138425,-109961l511183 0c76299,0 138307,49252 138307,109961 0,60708 -62008,109842 -138307,109842l-511183 0zm1020594 0c-76536,0 -138544,-49134 -138544,-109842 0,-60709 62008,-109961 138544,-109961l1616815 0c76418,0 138426,49252 138426,109961 0,60708 -62008,109842 -138426,109842l-1616815 0zm2076856 -1431736c-76418,0 -138426,-49134 -138426,-109843 0,-60709 62008,-109961 138426,-109961l1616697 0c76536,0 138426,49252 138426,109961 0,60709 -61890,109843 -138426,109843l-1616697 0zm-3097450 0c-76417,0 -138425,-49134 -138425,-109843 0,-60709 62008,-109961 138425,-109961l511183 0c76299,0 138307,49252 138307,109961 0,60709 -62008,109843 -138307,109843l-511183 0zm1020594 0c-76536,0 -138544,-49134 -138544,-109843 0,-60709 62008,-109961 138544,-109961l1616815 0c76418,0 138426,49252 138426,109961 0,60709 -62008,109843 -138426,109843l-1616815 0zm2076856 -1431736c-76418,0 -138426,-49134 -138426,-109843 0,-60709 62008,-109843 138426,-109843l1616697 0c76536,0 138426,49134 138426,109843 0,60709 -61890,109843 -138426,109843l-1616697 0zm-3097450 0c-76417,0 -138425,-49134 -138425,-109843 0,-60709 62008,-109843 138425,-109843l511183 0c76299,0 138307,49134 138307,109843 0,60709 -62008,109843 -138307,109843l-511183 0zm1020594 0c-76536,0 -138544,-49134 -138544,-109843 0,-60709 62008,-109843 138544,-109843l1616815 0c76418,0 138426,49134 138426,109843 0,60709 -62008,109843 -138426,109843l-1616815 0zm-1020594 -1431737c-76417,0 -138425,-49134 -138425,-109842 0,-60709 62008,-109843 138425,-109843l511183 0c76299,0 138307,49134 138307,109843 0,60708 -62008,109842 -138307,109842l-511183 0zm1020594 0c-76536,0 -138544,-49134 -138544,-109842 0,-60709 62008,-109843 138544,-109843l1616815 0c76418,0 138426,49134 138426,109843 0,60708 -62008,109842 -138426,109842l-1616815 0z"/>
  <path class="fil0" d="M11404048 3996271c165355,0 315119,67087 423426,175394 108189,108190 175394,258072 175394,423427 0,164882 -67205,314646 -175394,422954l-2126 2126c-108189,107244 -257245,173740 -421300,173740 -165355,0 -315237,-67205 -423427,-175394 -108307,-108307 -175394,-258072 -175394,-423426 0,-164765 67087,-314529 175394,-422954l2599 -2599c108307,-107008 257127,-173268 420828,-173268zm6725097 16564771l0 -300001 750003 0 0 300001 -750003 0zm2079337 -11873537l0 -300001 750002 0 0 300001 -750002 0zm-16590873 111732l0 -300001 750002 0 0 300001 -750002 0zm14535159 -1378704l0 -224883 562442 0 0 224883 -562442 0zm5671079 6116355c165354,0 315119,67087 423426,175395 108189,108189 175394,258071 175394,423426 0,164882 -67205,314647 -175394,422954l-2126 2126c-108189,107244 -257245,173741 -421300,173741 -165355,0 -315238,-67205 -423427,-175395 -108307,-108307 -175394,-258071 -175394,-423426 0,-164764 67087,-314528 175394,-422954l2599 -2598c108307,-107009 257126,-173269 420828,-173269zm-18200957 3106190c165355,0 315119,67087 423426,175394 108189,108190 175394,258072 175394,423427 0,164882 -67205,314646 -175394,422954l-2126 2126c-108189,107244 -257245,173740 -421300,173740 -165355,0 -315237,-67204 -423427,-175394 -108307,-108307 -175394,-258071 -175394,-423426 0,-164764 67087,-314529 175394,-422954l2599 -2598c108307,-107009 257127,-173269 420828,-173269zm256418 342403c-65551,-65552 -156260,-106182 -256418,-106182 -99567,0 -189804,39804 -254765,104056l-1653 1653c-65670,65552 -106182,156497 -106182,256891 0,100158 40630,190867 106182,256418 65551,65551 156260,106181 256418,106181 99095,0 188859,-39685 254292,-103583l2126 -2126c65669,-66023 106181,-156732 106181,-256890 0,-100158 -40630,-190867 -106181,-256418zm18200957 -3106190c-65552,-65551 -156261,-106181 -256418,-106181 -99568,0 -189804,39803 -254765,104055l-1654 1654c-65669,65551 -106181,156496 -106181,256890 0,100158 40630,190867 106181,256418 65552,65551 156261,106181 256419,106181 99094,0 188858,-39685 254292,-103582l2126 -2126c65669,-66024 106181,-156733 106181,-256891 0,-100158 -40630,-190867 -106181,-256418zm-5289937 -6758759l0 -563978 224883 0 0 563978 -224883 0zm300001 75118l562443 0 0 224883 -562443 0 0 -224883zm-75118 299883l0 564096 -224883 0 0 -564096 224883 0zm-14547561 903664l0 -752128 300001 0 0 752128 -300001 0zm400041 100039l750002 0 0 300001 -750002 0 0 -300001zm-100040 399923l0 752128 -300001 0 0 -752128 300001 0zm16290873 -611695l0 -752128 300001 0 0 752128 -300001 0zm400040 100040l750002 0 0 300001 -750002 0 0 -300001zm-100039 399922l0 752128 -300001 0 0 -752128 300001 0zm-2379338 11373576l0 -752129 300001 0 0 752129 -300001 0zm400041 100039l750002 0 0 300001 -750002 0 0 -300001zm-100040 399923l0 752128 -300001 0 0 -752128 300001 0zm-7618722 -16322290c-65552,-65552 -156260,-106182 -256418,-106182 -99567,0 -189804,39803 -254765,104056l-1653 1653c-65670,65552 -106182,156497 -106182,256891 0,100157 40630,190866 106182,256418 65551,65551 156260,106181 256418,106181 99095,0 188859,-39685 254292,-103583l2126 -2126c65669,-66024 106181,-156733 106181,-256890 0,-100158 -40630,-190867 -106181,-256418z"/>
  <path class="fil2" d="M13046966 18308083l118 1507445 2522015 -1507445 6055174 0c220040,0 399923,-179882 399923,-399922l0 -7353092c0,-220040 -179883,-399922 -399923,-399922l-9827389 0c-220040,0 -399923,179882 -399923,399922l0 7353092c0,220040 179883,399922 399923,399922l1250082 0z"/>
  <g style="clip-path:url(#id2)">
   <g id="_934271336">
   </g>
  </g>
  <path id="1" class="fil3" d="M13046966 18308083l118 1507445 2522015 -1507445 6055174 0c220040,0 399923,-179882 399923,-399922l0 -7353092c0,-220040 -179883,-399922 -399923,-399922l-9827389 0c-220040,0 -399923,179882 -399923,399922l0 7353092c0,220040 179883,399922 399923,399922l1250082 0z"/>
  <path class="fil8" d="M13146533 18318240l118 1321658 2371306 -1417327c16063,-9567 33662,-14173 51142,-14055l6055174 -473c82560,0 157678,-33779 212009,-87874 54095,-54331 87874,-129449 87874,-212008l0 -7353092c0,-82559 -33779,-157678 -87874,-212008 -54331,-54095 -129449,-87875 -212009,-87875l-9827389 0c-82560,0 -157678,33780 -212009,87875 -54095,54330 -87874,129449 -87874,212008l0 7353092c0,82559 33779,157677 87874,212008 54331,54095 129449,87874 212009,87874l1250082 0c55157,0 100039,44882 100039,100040l-472 10157zm-199016 1497288l-118 -1407405 -1150515 0c-137245,0 -262206,-56339 -352797,-146694 -90827,-91063 -147165,-216024 -147165,-353268l0 -7353092c0,-137244 56338,-262205 146693,-352796 91063,-90827 216024,-147166 353269,-147166l9827389 0c137245,0 262206,56339 352797,146693 90827,91064 147165,216025 147165,353269l0 7353092c0,137244 -56338,262205 -146693,352796 -91063,90827 -216024,147166 -353269,147166l-6028363 0 -2497684 1492917c-15000,8859 -32481,14055 -51142,14055 -54921,0 -99567,-44645 -99567,-99567z"/>
  <path class="fil5" d="M20220647 10255186l0 5567024c0,770081 -629883,1399964 -1399964,1399964l-7323682 0 0 685987c0,82559 33779,157677 87874,212008 54331,54095 129449,87874 212009,87874l1250082 0c55157,0 100039,44882 100039,100040l-472 10157 118 1321658 2371306 -1417327c16063,-9567 33662,-14173 51142,-14055l6055174 -473c82560,0 157678,-33779 212009,-87874 54095,-54331 87874,-129449 87874,-212008l0 -7353092c0,-82559 -33779,-157678 -87874,-212008 -54331,-54095 -129449,-87875 -212009,-87875l-1403626 0z"/>
  <circle class="fil5" cx="16710519" cy="13725275" r="2944024"/>
  <path class="fil8" d="M16710519 10975188c759333,0 1446855,307915 1944573,805514 497600,497718 805514,1185240 805514,1944573 0,759333 -307914,1446854 -805514,1944572 -497718,497600 -1185240,805514 -1944573,805514 -759332,0 -1446854,-307914 -1944572,-805514 -497600,-497718 -805514,-1185357 -805514,-1944572 0,-759333 307914,-1446855 805514,-1944573 497718,-497599 1185240,-805514 1944572,-805514zm-400513 3030599c-44882,-26811 -562324,-552993 -645001,-635789 -199962,-199961 -172324,-168425 -461931,121654 -255237,255591 -257008,205749 -236,462875l845554 845790c41456,41811 171850,183072 209764,204922 70040,40630 98740,-3543 135473,-41929l735002 -737601c286654,-287126 564450,-565395 851223,-852404 419174,-419528 512009,-423544 364961,-567049 -418583,-409016 -374646,-457087 -553584,-279213l-1058861 1058625c-137245,135709 -279686,296340 -422364,420119zm2140400 -2020399c-445159,-445277 -1060396,-720593 -1739887,-720593 -679490,0 -1294728,275316 -1739886,720593 -445159,445159 -720593,1060397 -720593,1739887 0,679490 275434,1294728 720593,1739887 445158,445276 1060396,720592 1739886,720592 679491,0 1294728,-275316 1739887,-720592 445277,-445159 720593,-1060397 720593,-1739887 0,-679490 -275316,-1294728 -720593,-1739887z"/>
 </g>
</svg>
