<?xml version="1.0" encoding="UTF-8"?>
<!DOCTYPE svg PUBLIC "-//W3C//DTD SVG 1.1//EN" "http://www.w3.org/Graphics/SVG/1.1/DTD/svg11.dtd">
<!-- Creator: CorelDRAW Home & Student X8 -->
<svg xmlns="http://www.w3.org/2000/svg" xml:space="preserve" width="180px" height="180px" version="1.1" style="shape-rendering:geometricPrecision; text-rendering:geometricPrecision; image-rendering:optimizeQuality; fill-rule:evenodd; clip-rule:evenodd"
viewBox="0 0 18000000 18000000"
 xmlns:xlink="http://www.w3.org/1999/xlink">
 <defs>
  <style type="text/css">
   <![CDATA[
    .str0 {stroke:#7ACB61;stroke-width:199963;stroke-linecap:round;stroke-linejoin:round}
    .fil2 {fill:none}
    .fil6 {fill:#E7F2E4}
    .fil4 {fill:#F0F0F0}
    .fil3 {fill:#F8F8F8}
    .fil0 {fill:#F9F9F9}
    .fil1 {fill:white}
    .fil7 {fill:#7ACB61;fill-rule:nonzero}
    .fil5 {fill:#BDC3DB;fill-rule:nonzero}
    .fil8 {fill:#D0D0D0;fill-rule:nonzero}
   ]]>
  </style>
    <clipPath id="id0">
     <path d="M5529167 3834735l4260292 0c770089,0 1399979,629891 1399979,1399979l0 7801520c0,770089 -629890,1399979 -1399979,1399979l-4260292 0c-770089,0 -1399979,-629890 -1399979,-1399979l0 -7801520c0,-770088 629890,-1399979 1399979,-1399979z"/>
    </clipPath>
    <clipPath id="id1">
     <path d="M5439520 5895432l4439704 0c440085,0 799971,359886 799971,800089l0 4880025c0,439966 -359886,799853 -799971,799853l-4439704 0c-440084,0 -799971,-359887 -799971,-799853l0 -4880025c0,-440203 359887,-800089 799971,-800089z"/>
    </clipPath>
    <clipPath id="id2">
     <path d="M8352157 11928818l118 1024856 1714511 -1024856 4116550 0c149529,0 271893,-122246 271893,-271893l0 -4998964c0,-149647 -122364,-271893 -271893,-271893l-6680993 0c-149648,0 -271894,122246 -271894,271893l0 4998964c0,149647 122246,271893 271894,271893l849814 0z"/>
    </clipPath>
 </defs>
 <g id="Capa_x0020_1">
  <metadata id="CorelCorpID_0Corel-Layer"/>
  <g id="_828903312">
   <path class="fil0" d="M12421108 2842951c1689589,0 3059213,1369624 3059213,3059213 0,1689707 -1369624,3059332 -3059213,3059332 -1689589,0 -3059332,-1369625 -3059332,-3059332 0,-1689589 1369743,-3059213 3059332,-3059213zm-747884 8316014c1105408,0 2001522,896114 2001522,2001523 0,1105408 -896114,2001522 -2001522,2001522 -1105290,0 -2001404,-896114 -2001404,-2001522 0,-1105409 896114,-2001523 2001404,-2001523zm-7148243 -4618879c1105408,0 2001522,896114 2001522,2001522 0,1105290 -896114,2001404 -2001522,2001404 -1105409,0 -2001405,-896114 -2001405,-2001404 0,-1105408 895996,-2001522 2001405,-2001522z"/>
   <path class="fil1" d="M5529167 3834735l4260292 0c770089,0 1399979,629891 1399979,1399979l0 7801520c0,770089 -629890,1399979 -1399979,1399979l-4260292 0c-770089,0 -1399979,-629890 -1399979,-1399979l0 -7801520c0,-770088 629890,-1399979 1399979,-1399979z"/>
   <g style="clip-path:url(#id0)">
    <g>
    </g>
   </g>
   <path id="1" class="fil2" d="M5529167 3834735l4260292 0c770089,0 1399979,629891 1399979,1399979l0 7801520c0,770089 -629890,1399979 -1399979,1399979l-4260292 0c-770089,0 -1399979,-629890 -1399979,-1399979l0 -7801520c0,-770088 629890,-1399979 1399979,-1399979z"/>
   <path class="fil3" d="M11189438 12953674l0 530794c0,523590 -428155,951745 -951745,951745l-679851 0c523590,0 951745,-428155 951745,-951745l0 -530794 679851 0z"/>
   <path class="fil3" d="M9557842 3834735l679851 0c523590,0 951745,428156 951745,951745l0 543905 -679851 0 0 -543905c0,-523589 -428155,-951745 -951745,-951745z"/>
   <path class="fil3" d="M9829735 5336409l1359703 0 0 7617265 -7060250 0 0 -403470 4748803 0c523589,0 951744,-428155 951744,-951745l0 -6262050z"/>
   <path class="fil1" d="M5439520 5895432l4439704 0c440085,0 799971,359886 799971,800089l0 4880025c0,439966 -359886,799853 -799971,799853l-4439704 0c-440084,0 -799971,-359887 -799971,-799853l0 -4880025c0,-440203 359887,-800089 799971,-800089z"/>
   <g style="clip-path:url(#id1)">
    <g>
    </g>
   </g>
   <path id="1" class="fil2" d="M5439520 5895432l4439704 0c440085,0 799971,359886 799971,800089l0 4880025c0,439966 -359886,799853 -799971,799853l-4439704 0c-440084,0 -799971,-359887 -799971,-799853l0 -4880025c0,-440203 359887,-800089 799971,-800089z"/>
   <path class="fil4" d="M10066195 5895432l122600 0c269767,0 490400,175159 490400,389296l0 5701374c0,214137 -220633,389297 -490400,389297l-5058846 0c-269767,0 -490400,-175160 -490400,-389297l0 -97324 4936246 0c269767,0 490400,-175160 490400,-389296l0 -5604050z"/>
   <path class="fil5" d="M5183454 5815116l4951955 0c171498,0 327524,70276 440557,183309l1417 1418c112324,113032 182128,268468 182128,439493l0 5392276c0,171853 -70276,327878 -183191,440911l-4606 4134c-112679,110435 -266933,179058 -436305,179058l-4951955 0c-171498,0 -327524,-70277 -440675,-183192 -113269,-113033 -183546,-269058 -183546,-440911l0 -5392276c0,-171498 70277,-327524 183310,-440556l1417 -1536c112915,-112324 268468,-182128 439494,-182128zm498668 7747779l417761 0c72639,0 132049,59410 132049,132049l0 0c0,72638 -59410,132048 -132049,132048l-417761 0c-72639,0 -132049,-59410 -132049,-132048l0 0c0,-72639 59410,-132049 132049,-132049zm1768251 0l417880 0c72639,0 131931,59410 131931,132049l0 0c0,72638 -59292,132048 -131931,132048l-417880 0c-72638,0 -131931,-59410 -131931,-132048l0 0c0,-72639 59293,-132049 131931,-132049zm1768370 0l417761 0c72639,0 131931,59410 131931,132049l0 0c0,72638 -59292,132048 -131931,132048l-417761 0c-72757,0 -132049,-59410 -132049,-132048l0 0c0,-72639 59292,-132049 132049,-132049zm-4137810 -9808476l5156760 0c283941,0 542015,116104 728986,303075 186971,186971 303075,445045 303075,728986l0 547803 0 2126 0 2008 0 7613131 0 2126 0 2008 0 528786c0,283941 -116104,542015 -303075,728986 -186971,186971 -445045,303075 -728986,303075l-5156760 0c-283705,0 -541661,-116104 -728632,-303075l-1771 -1653c-186027,-186853 -301658,-444219 -301658,-727333l0 -528786 0 -2008 0 -2126 0 -7613131 0 -2008 0 -2126 0 -547803c0,-283704 116104,-541661 303075,-728750l1653 -1653c186853,-186144 444337,-301658 727333,-301658zm5156760 160632l-5156760 0c-239649,0 -457683,98033 -615599,255831 -157797,157915 -255830,375949 -255830,615598l0 469613 6899736 0 0 -469613c0,-239649 -98151,-457565 -256066,-615480 -158034,-157916 -375832,-255949 -615481,-255949zm-6028189 1501556l0 7456751 6899736 0 0 -7456751 -6899736 0zm0 7617383l0 450478c0,239649 98033,457683 255830,615599 157916,157797 375950,255830 615599,255830l5156760 0c239649,0 457447,-98033 615481,-255948 157915,-157916 256066,-375832 256066,-615481l0 -450478 -6899736 0zm4626557 -8602318c85040,0 153899,68860 153899,153900 0,85040 -68859,153900 -153899,153900 -85041,0 -153900,-68860 -153900,-153900 0,-85040 68859,-153900 153900,-153900zm-2375346 21851l1649549 0c72639,0 131931,59410 131931,132049l0 0c0,72639 -59292,132049 -131931,132049l-1649549 0c-72757,0 -132049,-59410 -132049,-132049l0 0c0,-72639 59292,-132049 132049,-132049zm2925038 1522225l0 473392c0,82678 -42638,158033 -111261,212483 -68505,54449 -163349,88229 -267642,88229l-2694838 0c-104293,0 -199137,-33780 -267759,-88229 -68505,-54450 -111144,-129805 -111144,-212483l0 -473392 -749655 0c-126734,0 -242011,51496 -325989,134411l-1417 1417c-84096,84332 -136183,200318 -136183,327760l0 5392276c0,127443 52324,243428 136183,327288 83859,84095 199845,136183 327406,136183l4951955 0c125316,0 239767,-50434 323272,-131813l4015 -4370c83978,-83860 136183,-199845 136183,-327288l0 -5392276c0,-126733 -51496,-242011 -134411,-325988l-1417 -1417c-84332,-84096 -200318,-136183 -327642,-136183l-749656 0zm-3307839 0l0 473392c0,51024 26339,97560 68741,131222 42521,33662 100986,54568 165357,54568l2694838 0c64253,0 122837,-20906 165239,-54568 42402,-33662 68741,-80198 68741,-131222l0 -473392 -3162916 0zm1228481 1686164c-51851,0 -94017,-33426 -94017,-74647 0,-41339 42166,-74647 94017,-74647l1099148 0c51970,0 94135,33308 94135,74647 0,41221 -42165,74647 -94135,74647l-1099148 0zm0 3893436c-51851,0 -94017,-33425 -94017,-74646 0,-41339 42166,-74765 94017,-74765l1099148 0c51970,0 94135,33426 94135,74765 0,41221 -42165,74646 -94135,74646l-1099148 0zm-2105697 0c-51969,0 -94135,-33425 -94135,-74646 0,-41339 42166,-74765 94135,-74765l347485 0c51851,0 94017,33426 94017,74765 0,41221 -42166,74646 -94017,74646l-347485 0zm693789 0c-51969,0 -94135,-33425 -94135,-74646 0,-41339 42166,-74765 94135,-74765l1099148 0c51969,0 94135,33426 94135,74765 0,41221 -42166,74646 -94135,74646l-1099148 0zm1411908 -973359c-51851,0 -94017,-33425 -94017,-74646 0,-41340 42166,-74765 94017,-74765l1099148 0c51970,0 94135,33425 94135,74765 0,41221 -42165,74646 -94135,74646l-1099148 0zm-2105697 0c-51969,0 -94135,-33425 -94135,-74646 0,-41340 42166,-74765 94135,-74765l347485 0c51851,0 94017,33425 94017,74765 0,41221 -42166,74646 -94017,74646l-347485 0zm693789 0c-51969,0 -94135,-33425 -94135,-74646 0,-41340 42166,-74765 94135,-74765l1099148 0c51969,0 94135,33425 94135,74765 0,41221 -42166,74646 -94135,74646l-1099148 0zm1411908 -973359c-51851,0 -94017,-33426 -94017,-74647 0,-41339 42166,-74764 94017,-74764l1099148 0c51970,0 94135,33425 94135,74764 0,41221 -42165,74647 -94135,74647l-1099148 0zm-2105697 0c-51969,0 -94135,-33426 -94135,-74647 0,-41339 42166,-74764 94135,-74764l347485 0c51851,0 94017,33425 94017,74764 0,41221 -42166,74647 -94017,74647l-347485 0zm693789 0c-51969,0 -94135,-33426 -94135,-74647 0,-41339 42166,-74764 94135,-74764l1099148 0c51969,0 94135,33425 94135,74764 0,41221 -42166,74647 -94135,74647l-1099148 0zm1411908 -973359c-51851,0 -94017,-33426 -94017,-74647 0,-41339 42166,-74646 94017,-74646l1099148 0c51970,0 94135,33307 94135,74646 0,41221 -42165,74647 -94135,74647l-1099148 0zm-2105697 0c-51969,0 -94135,-33426 -94135,-74647 0,-41339 42166,-74646 94135,-74646l347485 0c51851,0 94017,33307 94017,74646 0,41221 -42166,74647 -94017,74647l-347485 0zm693789 0c-51969,0 -94135,-33426 -94135,-74647 0,-41339 42166,-74646 94135,-74646l1099148 0c51969,0 94135,33307 94135,74646 0,41221 -42166,74647 -94135,74647l-1099148 0zm-693789 -973359c-51969,0 -94135,-33426 -94135,-74647 0,-41339 42166,-74647 94135,-74647l347485 0c51851,0 94017,33308 94017,74647 0,41221 -42166,74647 -94017,74647l-347485 0zm693789 0c-51969,0 -94135,-33426 -94135,-74647 0,-41339 42166,-74647 94135,-74647l1099148 0c51969,0 94135,33308 94135,74647 0,41221 -42166,74647 -94135,74647l-1099148 0z"/>
   <path class="fil1" d="M8352157 11928818l118 1024856 1714511 -1024856 4116550 0c149529,0 271893,-122246 271893,-271893l0 -4998964c0,-149647 -122364,-271893 -271893,-271893l-6680993 0c-149648,0 -271894,122246 -271894,271893l0 4998964c0,149647 122246,271893 271894,271893l849814 0z"/>
   <g style="clip-path:url(#id2)">
    <g>
     <path id="1" class="fil6" d="M8352157 11928818l118 1024856 1714511 -1024856 4116550 0c149529,0 271893,-122246 271893,-271893l0 -4998964c0,-149647 -122364,-271893 -271893,-271893l-954225 0 0 3852688c0,523590 -428274,951863 -951745,951863l-5046917 0 0 466306c0,149647 122246,271893 271894,271893l849814 0z"/>
     <ellipse class="fil6" cx="10842769" cy="8813214" rx="2001463" ry="2001482"/>
     <path class="fil7" d="M10842780 6943674c516149,0 983635,209176 1321907,547566 338390,338390 547685,805759 547685,1322025 0,516149 -209295,983635 -547685,1321907 -338272,338391 -805758,547685 -1321907,547685 -516148,0 -983635,-209294 -1322025,-547685 -338272,-338272 -547566,-805758 -547566,-1321907 0,-516266 209294,-983635 547566,-1322025 338390,-338390 805877,-547566 1322025,-547566zm-272366 2060224c-30473,-18190 -382209,-375950 -438431,-432171 -135946,-135947 -117167,-114569 -314059,82678 -173506,173742 -174687,139844 -118,314650l574850 575086c28111,28347 116813,124372 142561,139254 47599,27638 67087,-2362 92127,-28465l499731 -501503c194885,-195239 383627,-384336 578630,-579456 285004,-285240 348075,-287957 248153,-385517 -284650,-278035 -254649,-310752 -376423,-189806l-719773 719655c-93308,92246 -190160,201499 -287248,285595zm1455256 -1373522c-302721,-302721 -720955,-489928 -1182890,-489928 -461935,0 -880169,187207 -1182889,489928 -302603,302602 -489928,720836 -489928,1182889 0,461935 187325,880169 489928,1182772 302720,302720 720954,489927 1182889,489927 461935,0 880169,-187207 1182890,-489927 302602,-302603 489809,-720837 489809,-1182772 0,-462053 -187207,-880287 -489809,-1182889z"/>
    </g>
   </g>
   <path class="fil2 str0" d="M8352157 11928818l118 1024856 1714511 -1024856 4116550 0c149529,0 271893,-122246 271893,-271893l0 -4998964c0,-149647 -122364,-271893 -271893,-271893l-6680993 0c-149648,0 -271894,122246 -271894,271893l0 4998964c0,149647 122246,271893 271894,271893l849814 0z"/>
   <path class="fil8" d="M9001890 500322c-40276,0 -72875,29646 -79135,66496 -8386,50670 30355,94136 79135,94136l159451 1417c108544,0 105355,-160632 2126,-160632l-161577 -1417zm6478431 11306841l0 -152601 381738 0 0 152601 -381738 0zm432526 -203507l0 -382682 152718 0 0 382682 -152718 0zm203506 50906l381619 0 0 152601 -381619 0 0 -152601zm-50788 203389l0 382682 -152718 0 0 -382682 152718 0zm-8830391 -9658946c112442,0 214254,45591 287956,119175 73466,73584 119175,175514 119175,287957 0,112088 -45709,213900 -119175,287484l-1535 1417c-73466,72993 -174806,118112 -286421,118112 -112325,0 -214255,-45591 -287839,-119175 -73583,-73702 -119175,-175514 -119175,-287838 0,-112089 45592,-213901 119175,-287603l1772 -1771c73702,-72757 174805,-117758 286067,-117758zm4571989 11261487l0 -203979 509888 0 0 203979 -509888 0zm1413680 -8072232l0 -203861 509888 0 0 203861 -509888 0zm-11279203 76064l0 -203979 509888 0 0 203979 -509888 0zm9881586 -937335l0 -152955 382446 0 0 152955 -382446 0zm3855405 4158125c112442,0 214255,45591 287956,119293 73466,73584 119175,175396 119175,287838 0,112088 -45709,213901 -119175,287603l-1535 1417c-73465,72875 -174805,118112 -286421,118112 -112324,0 -214255,-45710 -287838,-119293 -73584,-73584 -119175,-175396 -119175,-287839 0,-111970 45591,-213782 119175,-287602l1771 -1653c73702,-72757 174806,-117876 286067,-117876zm-12373627 2111721c112324,0 214137,45591 287838,119293 73584,73583 119175,175396 119175,287838 0,112088 -45591,213900 -119175,287602l-1417 1417c-73584,72875 -174923,118112 -286421,118112 -112442,0 -214373,-45709 -287957,-119293 -73583,-73583 -119174,-175396 -119174,-287838 0,-111970 45591,-213782 119174,-287484l1772 -1772c73702,-72757 174806,-117875 286185,-117875zm174333 232798c-44646,-44528 -106301,-72166 -174333,-72166 -67678,0 -129096,27047 -173270,70749l-1063 1063c-44646,44646 -72166,106418 -72166,174687 0,68150 27520,129805 72166,174333 44528,44528 106183,72166 174333,72166 67324,0 128388,-26929 172798,-70394l1535 -1418c44646,-44882 72166,-106537 72166,-174687 0,-68032 -27638,-129805 -72166,-174333zm12373627 -2111721c-44528,-44528 -106183,-72166 -174333,-72166 -67678,0 -128978,27048 -173152,70749l-1063 1063c-44646,44646 -72284,106419 -72284,174687 0,68151 27638,129805 72284,174333 44528,44528 106183,72167 174215,72167 67442,0 128506,-26930 172916,-70395l1417 -1417c44646,-44883 72284,-106537 72284,-174688 0,-68150 -27638,-129805 -72284,-174333zm-3596268 -4594903l0 -383390 152837 0 0 383390 -152837 0zm203979 51025l382328 0 0 152955 -382328 0 0 -152955zm-51142 203861l0 383509 -152837 0 0 -383509 152837 0zm-9889972 614417l0 -511306 203979 0 0 511306 -203979 0zm272011 68033l509889 0 0 203979 -509889 0 0 -203979zm-68032 271893l0 511306 -203979 0 0 -511306 203979 0zm11075224 -415872l0 -511306 203861 0 0 511306 -203861 0zm271893 68033l509889 0 0 203861 -509889 0 0 -203861zm-68032 271893l0 511306 -203861 0 0 -511306 203861 0zm-1617541 7732188l0 -511306 203979 0 0 511306 -203979 0zm272011 68033l509889 0 0 203979 -509889 0 0 -203979zm-68032 271893l0 511306 -203979 0 0 -511306 203979 0zm-5179556 -11096602c-44528,-44647 -106183,-72167 -174333,-72167 -67678,0 -128978,27048 -173152,70749l-1181 1063c-44647,44528 -72167,106419 -72167,174688 0,68032 27639,129686 72167,174333 44646,44528 106300,72166 174333,72166 67442,0 128387,-27048 172915,-70395l1418 -1535c44646,-44883 72166,-106537 72166,-174569 0,-68151 -27520,-129805 -72166,-174333zm870365 -1740023c119648,-19843 75238,-174806 -14173,-159924l-161341 15473c-115749,19252 -75827,175042 17127,159569l158387 -15118zm-944067 135710c97088,-16299 79489,-176104 -32363,-157443l-158506 33780c-93544,15591 -80316,175987 35079,156734l155790 -33071zm-922217 242720c100631,-33544 49607,-185790 -50552,-152364l-153545 51851c-96734,32244 -50552,186026 53386,151419l150711 -50906zm-888555 347603c100513,-50316 21733,-190278 -66969,-145986 -48308,21260 -100159,45591 -147168,69449 -96024,47954 -22559,190751 70631,144215 46891,-23032 95671,-46536 143506,-67678zm-842609 447171c80198,-40040 26102,-192050 -83269,-137364l-138191 85631c-90355,72285 1654,186144 86694,135238 44174,-24567 90592,-56930 134766,-83505zm-786034 540362c85040,-67915 -18071,-191105 -98387,-126853l-127561 100750c-81261,65079 17599,191577 101576,124490l124372 -98387zm-719419 626346c76418,-76418 -38977,-188034 -112206,-114804 -38859,37323 -77482,76064 -115159,114450 -30591,30591 -30237,82088 118,112442 32244,32245 82678,31891 114686,-118 36851,-37677 74647,-75591 112561,-111970zm-643473 703592c66261,-82796 -59410,-182955 -125081,-100749l-101221 126498c-65080,81261 60591,181301 125316,100513l100986 -126262zm-559732 772333c56930,-94725 -83741,-172679 -135828,-85749l-86104 137246c-54686,109371 97324,163467 137364,83269l84568 -134766zm-467959 831743c46536,-93308 -96261,-166773 -144214,-70749 -24095,48308 -47363,97797 -70277,146813 -44292,88702 95671,167719 145986,66970 21969,-47717 45001,-96261 68505,-143034zm-369572 879106c34607,-103820 -119174,-150002 -151419,-53268l-52560 153309c-33425,100159 118821,151183 152365,50552l51614 -150593zm-265751 915839c19252,-115513 -141144,-128742 -156734,-35197l-34607 158388c-18662,111734 141143,129450 157325,32244l34016 -155435zm-158979 940524c15473,-92954 -140435,-132875 -159687,-17126l-16299 161341c-15000,89292 139962,133702 159923,14055l16063 -158270zm-50906 952572c0,-104411 -160632,-106183 -160632,1063l2008 162049c0,100868 160632,106891 160632,-4015l-2008 -159097zm56576 952335c-18898,-113387 -175396,-76418 -159451,19252l20433 160751c18189,109371 175514,77009 158979,-22323l-19961 -157680zm164648 939580c-34607,-104175 -173507,-66852 -156262,37087l38622 157443c37914,113505 184609,47362 155553,-40158l-37913 -154372zm271420 914067c-31535,-94608 -186144,-50670 -150828,55276l56457 151892c30473,91536 186381,51615 149766,-57993l-55395 -149175zm374769 877098c-47008,-94017 -190987,-23032 -143388,72284l73584 144451c45119,90355 191341,23740 141852,-75001 -24803,-46772 -48425,-94371 -72048,-141734zm472920 828790c-71222,-89056 -186144,1418 -134530,87521 28347,45237 59647,91064 89765,135474 75356,94253 189452,-19606 132522,-90710 -29410,-43229 -60119,-88111 -87757,-132285zm563984 768790c-64253,-80316 -190869,18189 -123191,102875l104411 124018c62363,78071 190632,-18426 121182,-105238l-102402 -121655zm648079 699930c-96261,-77009 -180121,60946 -110907,116340l117876 111262c93426,74764 180592,-60592 108662,-118230l-115631 -109372zm723198 621977c-80079,-64017 -181301,60591 -98151,127088 42048,33662 87403,66025 130868,98269 76419,61182 183546,-58701 94726,-129805l-127443 -95552zm789341 535755c-107363,-53623 -164057,97206 -81851,138309l139962 81851c103939,51970 164530,-96969 79135,-139726l-137246 -80434zm845090 441974c-86576,-43229 -167955,95435 -65197,146813l148230 65316c105474,35079 154963,-101812 62717,-147994l-145750 -64135zm890681 342288c-97796,-32599 -151655,118584 -48662,152955l154845 47835c94371,31418 152246,-118466 45945,-153899l-152128 -46891zm923634 237287c-109371,-18308 -129923,141143 -30354,157679l159333 29646c105473,17599 130513,-140907 27283,-158152l-156262 -29173zm945013 129923c-106419,0 -119884,142206 -12284,160159l161695 11339c117285,0 103702,-160278 9213,-160278l-158624 -11220zm953516 22087c-98151,0 -107363,160395 6260,160395 53741,-1889 108191,-3425 161813,-6968 94490,0 108073,-160278 -9094,-160278l-158979 6851zm950091 -85868c-107127,17835 -77599,175869 24213,158861 53387,-7796 107128,-15945 160278,-25276 103112,-17126 78190,-175751 -27402,-158152l-157089 24567zm934147 -193585c-111262,37087 -47599,184845 41929,154963l156144 -43347c107718,-35906 48190,-185199 -44882,-154254l-153191 42638zm905326 -299531c-89056,29646 -52087,186380 59883,149057l150002 -61182c92364,-46064 42875,-183073 -62599,-147876l-147286 60001zm864933 -401698c-88584,44291 -24095,191459 76655,141143 47481,-25630 95198,-51260 142088,-77954 85395,-42756 24804,-191695 -79253,-139726l-139490 76537zm813436 -498078c-92363,73938 19370,189806 92363,131340l132286 -93544c89528,-71694 -18898,-190514 -94844,-129805 -42639,31300 -86340,61772 -129805,92009zm751545 -587606c-6378,5197 -11575,12638 -15472,18544 -45119,75237 46536,161931 122009,101576l120710 -108073c75592,-60473 -20551,-188860 -106300,-120237l-120947 108190zm679970 -669103c-73230,91536 60355,181065 119411,107245l107600 -121064c71103,-88820 -60119,-181538 -121183,-105120l-105828 118939zm599535 -741979c-60355,75474 59056,182956 130868,93073l93190 -132404c25512,-31890 14056,-83977 -15472,-107600 -39450,-31654 -87167,-20551 -116931,16772l-91655 130159zm511188 -805286c-50906,101695 96852,165002 140671,77482l77363 -142207c49371,-98741 -96733,-165356 -141970,-75001l-76064 139726zm415517 -858318c-37559,112915 119411,148703 148821,60709l60591 -150356c36615,-109490 -119292,-149411 -149765,-57993l-59647 147640zm314532 -900839c-30709,91891 118112,152719 154490,43820l42875 -156262c29528,-88466 -117758,-153427 -155199,-40985l-42166 153427zm208585 -930484c-17244,102993 141026,131222 158625,25276l24685 -160160c16536,-99332 -140789,-131695 -158979,-22323l-24331 157207zm100868 -948438c0,114568 160396,104057 160396,6969l6496 -162050c0,-110789 -160632,-104765 -160632,-4016l-6260 159097zm-6969 -953989c0,92009 160278,108781 160278,-11220 -3425,-52678 -5788,-109490 -11929,-161577 -19961,-119648 -174924,-75238 -159924,14173 4725,52678 8032,105828 11575,158624zm-114686 -947020c16890,100513 175868,78662 157915,-29174l-30236 -159333c-16182,-97206 -175987,-79489 -157325,32245l29646 156262zm-222523 -927650c35197,105356 185436,48662 153664,-46772l-48308 -154727c-34016,-101930 -185672,-49252 -152719,49489l47363 152010zm-327406 -895642c51851,103702 189806,21142 147049,-64371l-65670 -148112c-50315,-100631 -190396,-21732 -145986,66969l64607 145514zm-428391 -852176c41693,83268 191931,25276 138781,-80907l-82206 -139608c-40040,-80198 -191931,-26103 -137364,83387l80789 137128zm-522881 -797845c70276,87757 190750,-18662 128624,-96262l-97561 -129214c-67914,-84922 -191105,18189 -126852,98387l95789 127089zm-610284 -733120c52678,65788 182011,-5079 125199,-99805 -34135,-42756 -81379,-87875 -120002,-127797 -76418,-76418 -188034,39095 -114804,112325l109607 115277zm-689536 -659182c86930,69450 182010,-60001 103702,-122600l-124372 -103939c-84095,-67323 -182601,59411 -101458,124372l122128 102167zm-759932 -576504c72639,57993 178940,-62127 95199,-129096 -44056,-32599 -95080,-63662 -141380,-93781 -85041,-50906 -177050,62954 -86812,135238l132993 87639zm-820640 -486148c96615,48308 165829,-96615 73229,-143033l-144687 -72993c-93190,-46536 -166774,96261 -70631,144214l142089 71812zm-870838 -388942c107245,35788 149883,-119175 56221,-150474l-152128 -55985c-103939,-34607 -150120,119174 -53387,151419l149294 55040zm-910052 -286303c85986,28583 153900,-117521 38977,-155789l-157443 -38032c-116576,-19489 -128269,141025 -36142,156380l154608 37441zm-936390 -179766c96734,16063 132285,-140671 20315,-159333 -53622,-6850 -107363,-14055 -160986,-19725 -92954,-15590 -132994,140317 -17126,159569l157797 19489z"/>
  </g>
 </g>
</svg>
