<svg id="Catalogo_dorado" data-name="Catalogo dorado" xmlns="http://www.w3.org/2000/svg" viewBox="0 0 48.70017 34.99912" fill="currentColor"><defs><style>.cls-19144{fill:currentColor;stroke-width:0.5;stroke:currentColor}</style></defs><title></title><g id="Capa_1"><path class="cls-19144" d="M73.22417,357.91884a.92619.92619,0,0,1,0-1.79768H82.594a.92619.92619,0,0,1,0,1.79768Zm16.39048,7.65369a3.60222,3.60222,0,0,1,1.96657,1.01105,3.56325,3.56325,0,0,1,1.05593,2.53587v1.68074a3.58253,3.58253,0,0,1-1.05238,2.53824l-.08859.0815a3.58376,3.58376,0,0,1-2.45083.97325H47.53114a3.59912,3.59912,0,0,1-3.59416-3.593v-1.68074a3.59964,3.59964,0,0,1,3.02368-3.54692,3.56386,3.56386,0,0,1-.35906-1.56263v-21.024a3.6073,3.6073,0,0,1,3.5918-3.59181H86.38191a3.57817,3.57817,0,0,1,2.53706,1.05475l.08149.08739a3.57428,3.57428,0,0,1,.97325,2.44967v21.024A3.58033,3.58033,0,0,1,89.61465,365.57253Zm-.5693,2.35044H47.53114a1.20177,1.20177,0,0,0-1.19648,1.19648v1.68074a1.19972,1.19972,0,0,0,1.19648,1.19648H89.04535a1.18771,1.18771,0,0,0,.802-.30591l.0437-.04606a1.19892,1.19892,0,0,0,.3508-.84451v-1.68074a1.1961,1.1961,0,0,0-.3508-.84332A1.17393,1.17393,0,0,0,89.04535,367.923Zm-2.66344-26.13241H50.1934a1.19643,1.19643,0,0,0-.84332.352,1.17291,1.17291,0,0,0-.352.84333v21.024a1.19972,1.19972,0,0,0,1.1953,1.19648H86.38191a1.19972,1.19972,0,0,0,1.19648-1.19648v-21.024a1.1924,1.1924,0,0,0-.30827-.80081l-.04371-.04252A1.20133,1.20133,0,0,0,86.38191,341.79056Zm-33.505,4.58514a.89825.89825,0,0,1,0-1.79649H54.9994a.89742.89742,0,0,1,.88821.76536l.61654,2.556,10.39155.01654.24331.0248a.89557.89557,0,0,1,.66025,1.07954L66.23073,355.481a.89835.89835,0,0,1-.88821.76537H57.38173a.90549.90549,0,0,1-.87049-.68741l-2.21461-9.18325ZM63.60981,356.368a2.18769,2.18769,0,1,1-1.54609.64017A2.17367,2.17367,0,0,1,63.60981,356.368Zm-4.97963,0a2.18369,2.18369,0,1,1-1.54727.64017A2.17987,2.17987,0,0,1,58.63018,356.368Zm-1.69255-6.67927,1.14923,4.7623h6.55289l1.15277-4.74694Zm16.28654,4.30167a.92544.92544,0,0,1,0-1.7965H82.594a.92544.92544,0,0,1,0,1.7965Z" transform="translate(-43.93698 -339.39406)"/><path class="cls-2" d="M64.63975,365.52765H72.571a1.61962,1.61962,0,0,1,1.61579,1.61578v.00118a1.61987,1.61987,0,0,1-1.61579,1.617H64.63975a1.62087,1.62087,0,0,1-1.617-1.617v-.00118A1.62062,1.62062,0,0,1,64.63975,365.52765Z" transform="translate(-43.93698 -339.39406)"/><path class="cls-1" d="M64.63975,364.62881H72.571a2.51521,2.51521,0,0,1,0,5.03041H64.63975a2.50476,2.50476,0,0,1-1.77641-.7382l-.05315-.05906a2.51564,2.51564,0,0,1,1.82956-4.23315ZM72.571,366.4253H64.63975a.72036.72036,0,0,0-.53624,1.19885l.02953.02717a.72229.72229,0,0,0,.50671.21259H72.571a.71741.71741,0,0,0,.50671-1.226A.70146.70146,0,0,0,72.571,366.4253Z" transform="translate(-43.93698 -339.39406)"/></g></svg>
