<svg id="Catalogo_PDF" data-name="Catalogo PDF" xmlns="http://www.w3.org/2000/svg" viewBox="0 0 30.19939 41.01977"><defs><style>.cls-1{fill:#bc955c;}</style></defs><title>icono_catalogo_PDF</title><g id="Capa_1"><path class="cls-1" d="M73.7484,373.38367v1.4079a2.96448,2.96448,0,0,1-.10512.77364,2.47122,2.47122,0,0,1-.85749,1.33113,2.41144,2.41144,0,0,1-1.50121.5067,2.6107,2.6107,0,0,1-.72994-.09449l-14.05185-3.77606a2.97645,2.97645,0,0,1-.43229-.15118,3.00446,3.00446,0,0,1-2.88313-2.9977V339.38379a3.01245,3.01245,0,0,1,3.00006-3.00006h20.7382a3.00431,3.00431,0,0,1,3.00006,3.00006v16.47434a1.00042,1.00042,0,0,1-2.00083,0V339.38379a.99794.99794,0,0,0-.28937-.70513,1.01729,1.01729,0,0,0-.70986-.2941H56.18743a.99759.99759,0,0,0-.70513.2941.98238.98238,0,0,0-.2941.70513v30.99982a.998.998,0,0,0,.28937.70513,1.01733,1.01733,0,0,0,.70986.2941H75.97837a1.00042,1.00042,0,0,1,0,2.00083h-2.23Zm-12.15614-8.33284a.75.75,0,1,1,0-1.5h9.99941a.75.75,0,0,1,0,1.5Zm0-3.28117a.75.75,0,1,1,0-1.5h9.99941a.75.75,0,0,1,0,1.5Zm-1.3394-18.16689a1.00042,1.00042,0,0,1,0-2.00083h1.91579a1.00309,1.00309,0,0,1,.98978.85277l.51733,2.14611,9.24467.01535.24922.02717a.99777.99777,0,0,1,.73466,1.20239l-1.41262,5.817a1.00074,1.00074,0,0,1-.98861.85041H64.3183a1.00715,1.00715,0,0,1-.96853-.76655l-1.96421-8.14386Zm9.68759,9.14073a1.65648,1.65648,0,0,1,1.17286.4878l.01181.01182a1.65532,1.65532,0,0,1-.00945,2.33744l-.01181.01181a1.65533,1.65533,0,0,1-2.33744-.00944l-.01182-.01182a1.65535,1.65535,0,0,1,.00945-2.33744l.01181-.01181A1.65985,1.65985,0,0,1,69.94045,352.7435Zm-4.49536,0a1.66117,1.66117,0,0,1,1.1764,2.83706l-.01181.01181a1.66119,1.66119,0,0,1-2.33981-2.3587l.01181-.01181A1.65493,1.65493,0,0,1,65.44509,352.7435Zm-1.28861-6.1513.9449,3.92015h5.6198l.94844-3.90716Zm-.50788,26.79147,7.42574,1.99492.21024.02835a.40232.40232,0,0,0,.26811-.07678.54167.54167,0,0,0,.16418-.27874.88381.88381,0,0,0,.03071-.25985v-1.4079Zm14.49832-6.6084c-.42167-.24922-2.26068-2.34571-2.58785-2.48509a.78554.78554,0,0,0-.77836,1.35357c.68859.66734,1.33231,1.32168,2.01264,2.002.34252.34253.6508.64371.99332.98742.42521.42521.70868.84214,1.141.82915.463-.013.71931-.4063,1.16931-.85513l3.00479-2.98943a.79333.79333,0,0,0-.11339-1.3016c-.62009-.34371-1.01577.24213-1.26853.49253-.34489.34134-.64962.64489-.99215.9886a9.25168,9.25168,0,0,1-1.01576.97561c-.01536-1.60043-.00118-5.20876-.00118-6.80919,0-.48426.078-.18071-.078-.5197a.79378.79378,0,0,0-1.4268.03308C78.07369,359.79009,78.14692,366.252,78.14692,366.77527Z" transform="translate(-53.18737 -336.38373)"/></g></svg>