<svg id="Preguntas_3" data-name="Preguntas 3" xmlns="http://www.w3.org/2000/svg"
    viewBox="0 0 150 120">
    <title>Instituciones_compradoras</title>
    <g id="Capa_1">
        <g id="_880191680" data-name=" 880191680">
            <path
                d="M572.94816,213.56509A21.90614,21.90614,0,1,1,551.0724,235.4712,21.89028,21.89028,0,0,1,572.94816,213.56509ZM655.80879,169.943v-1.49882h3.74248V169.943ZM543.57093,204.141v-1.49884h3.74248V204.141Zm4.2414-1.99845v-3.75712h1.49676v3.75712Zm1.99567.49961h3.74131V204.141H549.808Zm-.49891,1.99844v3.75713h-1.49676v-3.75713Zm110.7411-36.696v-3.7583H661.547v3.7583Zm1.99567.49962h3.74131V169.943h-3.74131Zm-.49891,1.99844v3.75712h-1.49676v-3.75712Zm-60.05426-33.06529a24.93216,24.93216,0,1,1-24.89758,24.93214A24.91414,24.91414,0,0,1,601.49269,137.37733Zm60.27246,46.84534a31.85054,31.85054,0,1,1-31.80578,31.84992A31.82773,31.82773,0,0,1,661.76515,184.22267Z"
                transform="translate(-543.57093 -137.37733)" fill="#f9f5ed" fill-rule="evenodd" />
            <path
                d="M577.659,157.03343h7.25968v-6.54337a2.00282,2.00282,0,0,1,1.99685-1.99963h30.11913a2.00282,2.00282,0,0,1,1.99686,1.99963v6.54337H626.29a2.00435,2.00435,0,0,1,1.99685,1.99963v87.23353H575.66332V159.03306A2.00411,2.00411,0,0,1,577.659,157.03343Zm50.79064,33.59324h33.2931v55.63992h-33.2931Zm17.66385-9.05442H660.7449a1.00116,1.00116,0,0,1,.99784.99923v7.52014H645.11683v-7.52014A.99939.99939,0,0,1,646.11349,181.57225Z"
                transform="translate(-543.57093 -137.37733)" fill="#fff" fill-rule="evenodd" />
            <path
                d="M578.22161,236.39366h8.84962a27.06568,27.06568,0,0,0,6.46117-.78072c.41517-.1004.82563-.21379,1.23255-.33308l.217-.06614.36093-.11339.23236-.07677.3963-.13229.06015-.02008q.89877-.31535,1.7645-.69094l.13917-.06024q.828-.36319,1.62769-.77835l.204-.10748.52132-.28347.06724-.03662a27.72182,27.72182,0,0,0,3.36976-2.23939l.10144-.07677a27.81924,27.81924,0,0,0,3.22823-2.974l.02-.02008c.43758-.47127.85866-.96143,1.262-1.46459a27.19538,27.19538,0,0,0,6.0236-17.07182V159.59645h10.515a.86045.86045,0,0,1,.85275.85276v83.25554h-47.507Zm52.78632,4.03232h14.11834a10.26728,10.26728,0,0,0,10.232-10.24617V193.1885h3.825v50.51625H631.00793Zm24.35031-52.89619v-3.39452h3.825v3.39452Z"
                transform="translate(-543.57093 -137.37733)" fill="#f0e2c8" fill-rule="evenodd" />
            <path
                d="M629.78481,189.12666H643.6189v-6.55518a2.49844,2.49844,0,0,1,2.49459-2.49924H660.7449a2.50859,2.50859,0,0,1,2.49578,2.49924V244.763h7.426a1.5,1.5,0,0,1,0,3h-7.426v.00354h-89.0753v-.00354H566.4752a1.5,1.5,0,0,1,0-3h7.69018v-85.73a3.50191,3.50191,0,0,1,3.49362-3.49964h5.76175v-5.04336a3.50187,3.50187,0,0,1,3.49478-3.49964h30.11913a3.50187,3.50187,0,0,1,3.49479,3.49964v5.04336H626.29a3.50189,3.50189,0,0,1,3.49479,3.49964ZM588.798,204.55555h7.58639a2.25675,2.25675,0,0,1,2.24573,2.24766v9.07214a2.25674,2.25674,0,0,1-2.24573,2.24883H588.798a2.24862,2.24862,0,0,1-2.24573-2.24883v-9.07214a2.24862,2.24862,0,0,1,2.24573-2.24766Zm7.33635,2.49924H589.048V215.625h7.0863Zm11.43267-2.49924h7.58757a2.24862,2.24862,0,0,1,2.24455,2.24766v9.07214a2.25065,2.25065,0,0,1-2.24455,2.24883H607.567a2.24862,2.24862,0,0,1-2.24455-2.24883v-9.07214a2.24862,2.24862,0,0,1,2.24455-2.24766Zm7.33634,2.49924h-7.08511V215.625h7.08511ZM607.567,185.7593h7.58757a2.25882,2.25882,0,0,1,2.24455,2.24884v9.07214a2.24862,2.24862,0,0,1-2.24455,2.24765H607.567a2.24862,2.24862,0,0,1-2.24455-2.24765v-9.07214a2.24864,2.24864,0,0,1,2.24455-2.24884Zm7.33634,2.49924h-7.08511v8.57016h7.08511ZM588.798,185.7593h7.58639a2.25676,2.25676,0,0,1,2.24573,2.24884v9.07214a2.24862,2.24862,0,0,1-2.24573,2.24765H588.798a2.24862,2.24862,0,0,1-2.24573-2.24765v-9.07214a2.24864,2.24864,0,0,1,2.24573-2.24884Zm7.33635,2.49924H589.048v8.57016h7.0863ZM588.798,166.96423h7.58639a2.25676,2.25676,0,0,1,2.24573,2.24884v9.071a2.24864,2.24864,0,0,1-2.24573,2.24885H588.798a2.24864,2.24864,0,0,1-2.24573-2.24885v-9.071a2.24864,2.24864,0,0,1,2.24573-2.24884Zm7.33635,2.49924H589.048v8.57016h7.0863Zm11.43267-2.49924h7.58757a2.244,2.244,0,0,1,1.5864.65907,2.27,2.27,0,0,1,.65815,1.58977v9.071a2.2524,2.2524,0,0,1-.65815,1.58506,2.22851,2.22851,0,0,1-1.5864.66379H607.567a2.24864,2.24864,0,0,1-2.24455-2.24885v-9.071a2.24864,2.24864,0,0,1,2.24455-2.24884Zm7.33634,2.49924h-7.08511v8.57016h7.08511Zm-19.37527,54.773h12.89287a3.19168,3.19168,0,0,1,3.17633,3.18074V244.763h15.19167v-85.73a.50378.50378,0,0,0-.49892-.49961H577.659a.5133.5133,0,0,0-.35385.14409.5266.5266,0,0,0-.1439.35552v85.73h15.19167V227.41719a3.18355,3.18355,0,0,1,3.17515-3.18074Zm12.89287,2.36223H595.52807a.82211.82211,0,0,0-.81619.81851V244.2327h14.52644V227.41719a.814.814,0,0,0-.81738-.81851Zm32.425,5.2028h8.50168a2.17513,2.17513,0,0,1,1.53922.639,2.2002,2.2002,0,0,1,.63809,1.54136V244.763h8.71988V192.12669H629.94757V244.763h8.72106V233.98182a2.18823,2.18823,0,0,1,2.17731-2.18034Zm-5.28051-31.7259a.999.999,0,1,1,1.998,0v23.87268a.999.999,0,1,1-1.998,0Zm8.53115,0a.999.999,0,1,1,1.998,0v23.87268a.999.999,0,1,1-1.998,0Zm8.53234,0a.999.999,0,1,1,1.998,0v23.87268a.999.999,0,1,1-1.998,0ZM649.166,234.16372h-8.1384v10.069h8.1384Zm-32.13132-84.17327H586.91553a.50379.50379,0,0,0-.49891.49961v5.04336h31.117v-5.04336a.50378.50378,0,0,0-.49892-.49961Zm43.21015,33.08182h-13.63v5.51934h13.63Z"
                transform="translate(-543.57093 -137.37733)" fill="#bc955c" />
        </g>
    </g>
</svg>