<?xml version="1.0" encoding="UTF-8"?>
<!DOCTYPE svg PUBLIC "-//W3C//DTD SVG 1.1//EN" "http://www.w3.org/Graphics/SVG/1.1/DTD/svg11.dtd">
<!-- Creator: CorelDRAW Home & Student X8 -->
<svg xmlns="http://www.w3.org/2000/svg" xml:space="preserve" width="90px" height="80px" version="1.1" style="shape-rendering:geometricPrecision; text-rendering:geometricPrecision; image-rendering:optimizeQuality; fill-rule:evenodd; clip-rule:evenodd"
viewBox="0 0 9000000 8000052"
 xmlns:xlink="http://www.w3.org/1999/xlink">
 <defs>
  <style type="text/css">
   <![CDATA[
    .fil0 {fill:white;fill-rule:nonzero}
   ]]>
  </style>
 </defs>
 <g id="Capa_x0020_1">
  <metadata id="CorelCorpID_0Corel-Layer"/>
  <g id="_830658280">
   <g>
    <path class="fil0" d="M6129019 3235242c21733,33072 51734,47954 94018,49017 57522,1418 94255,-55040 94255,-55040l953293 -1221410c78781,-82089 156382,-15709 156382,-15709 75356,78663 19134,150712 19134,150712l-213195 272724 0 1535c-18307,18898 -29646,44529 -29646,72876 0,25985 9567,49726 25276,68034l-118 472 214494 271897 675726 -859511 -270007 -344182 -49844 -64844c-43938,-62955 -141736,-77601 -141736,-77601l-404538 0c-107247,0 -165831,74175 -165831,74175l-1133061 1454094 175398 222761z"/>
    <path class="fil0" d="M6081065 2489829l-271070 -347607c-55159,-88822 25276,-152367 25276,-152367 101223,-59056 159926,32009 159926,32009l224179 287960 265519 -341938 -305914 -393671c-73112,-104649 -184493,-90003 -184493,-90003l-365679 0c-116932,0 -167130,72758 -167130,72758l-323276 410208 675726 863172 266936 -340521z"/>
    <path class="fil0" d="M7125778 2786175c0,0 -31182,-48308 -91302,-47363 -62482,945 -87876,42521 -87876,42521l-962978 1236883c-78073,85750 -162052,16772 -162052,16772 -75356,-78664 -13465,-151776 -13465,-151776l215911 -277448 118 -1417c18308,-18899 29529,-44529 29529,-72876 0,-25985 -9449,-49726 -25158,-68034l118 -472 -214494 -271897 -677971 869078 377963 478477 593992 1536 1194598 -1527796 -176933 -226188z"/>
    <path class="fil0" d="M7175621 3531471l273315 351741c62954,87286 -16536,151776 -16536,151776 -105003,70513 -169020,-34844 -169020,-34844l-228786 -290558 -265519 342056 382924 489934 589385 -1417 377963 -484501 -677144 -865062 -266582 340875z"/>
    <path class="fil0" d="M8114386 2743418c-151185,0 -274141,121421 -274141,270598 0,149177 122956,270480 274141,270480 151067,0 274023,-121303 274023,-270480 0,-149177 -122956,-270598 -274023,-270598zm0 415996l0 0c-79490,0 -144216,-65199 -144216,-145398 0,-80317 64726,-145516 144216,-145516 79490,0 144098,65199 144098,145516 0,80199 -64608,145398 -144098,145398z"/>
    <path class="fil0" d="M6626867 1484685c151185,0 274141,-121421 274141,-270598 0,-149177 -122956,-270480 -274141,-270480 -151185,0 -274141,121303 -274141,270480 0,149177 122956,270598 274141,270598zm0 -415996l0 0c79490,0 144098,65199 144098,145398 0,80317 -64608,145516 -144098,145516 -79490,0 -144217,-65199 -144217,-145516 0,-80199 64727,-145398 144217,-145398z"/>
    <path class="fil0" d="M5409591 3012953c0,-149177 -123074,-270598 -274141,-270598 -151185,0 -274141,121421 -274141,270598 0,149177 122956,270480 274141,270480 151067,0 274141,-121303 274141,-270480zm-418358 0l0 0c0,-80199 64726,-145516 144217,-145516 79490,0 144098,65317 144098,145516 0,80199 -64608,145516 -144098,145516 -79491,0 -144217,-65317 -144217,-145516z"/>
    <path class="fil0" d="M6627221 4541812c-151067,0 -274141,121303 -274141,270480 0,149177 123074,270597 274141,270597 151185,0 274141,-121420 274141,-270597 0,-149177 -122956,-270480 -274141,-270480zm0 415995l0 0c-79490,0 -144098,-65316 -144098,-145515 0,-80199 64608,-145516 144098,-145516 79490,0 144217,65317 144217,145516 0,80199 -64727,145515 -144217,145515z"/>
   </g>
   <g>
    <path class="fil0" d="M3689388 1289089l0 2023281c0,245204 -77128,471509 -229140,672774 -123901,163941 -297763,312528 -516627,441390 -335206,197485 -675845,288314 -752146,307094 -75947,-18662 -413751,-108546 -748721,-305205 -219809,-128979 -394262,-277566 -518753,-441744 -152839,-201619 -230321,-428515 -230321,-674309l0 -2023281 2995708 0zm76656 -76656l0 0 -3149020 0c0,0 0,1222237 0,2099937 0,1152550 1573742,1499922 1573742,1499922l1536 0c0,0 1573742,-347372 1573742,-1499922 0,-877700 0,-2099937 0,-2099937z"/>
    <g>
     <path class="fil0" d="M2572981 1884616l0 -192761 -198430 0 0 180005 -77483 0 0 -180005 -204218 0 0 180005 -77482 0 0 -180005 -201620 0 0 192880 98389 169138c3425,5905 5197,12638 5197,19370l827 883134 95317 0 -945 -317135c0,-74883 85160,-142917 178588,-142917 93427,0 178587,68034 178587,142799l945 317253 97798 0 -237 -334852c-236,-1535 -354,-3070 -354,-4606l0 -166067c0,-827 118,-1772 118,-2599l0 -120830c0,-118 -118,-354 -118,-590l0 -52797 -118 -200674c0,-6969 1772,-13820 5315,-19725l99924 -169021z"/>
     <path class="fil0" d="M1840678 2976929l-236 -292567 -35198 21142c-12992,7796 -29410,7323 -41812,-1181l-42521 -29174c118,1299 118,2480 118,3780l-1535 112798c-118,11811 -5669,22796 -14764,29882 4370,1418 8504,3662 12284,6615 51615,41340 55395,100514 44292,148705l79372 0z"/>
     <path class="fil0" d="M2191121 2573808c-59412,0 -101106,42402 -101106,65316l945 317253 202210 0 -944 -317135c0,-23032 -41694,-65434 -101105,-65434z"/>
     <path class="fil0" d="M1010696 2976929c-10985,-24332 -19253,-54096 -24804,-88940 -9803,-61064 -7795,-117286 -7677,-119649 590,-16535 11575,-30709 27284,-35552l84687 -26221 -95672 -67679c-10276,-7205 -16299,-19016 -16299,-31536l0 -107247c0,-14528 8031,-27757 20788,-34371l37323 -19489 0 -36497 -34016 -13819c-14528,-5906 -24095,-20079 -24213,-35788l-119 -128980c0,-21260 17127,-38623 38387,-38859l119531 -1063c-2126,-31655 -2717,-74884 4961,-110673 10394,-48426 37796,-100868 51025,-124373l-6378 -44647c-1536,-11221 1771,-22441 9094,-30827 7323,-8505 18072,-13465 29292,-13465l64372 0c7323,0 14528,2126 20788,6024l157445 99923 72404 0c10630,0 20669,4252 27993,11930 7323,7677 11220,17953 10748,28465l-5433 124137c-473,10512 -5197,20080 -12639,26930l48191 118c10394,0 20433,4252 27756,11812l21969 22795 16654 -12638 27993 -58938c6378,-13583 20080,-22087 34962,-22087l102877 0 -119 -21970 -98270 -169020c-3543,-5905 -5315,-12638 -5315,-19488l0 -242133c0,-21496 17363,-38741 38741,-38741l240361 0 77482 0 204218 0 77483 0 237171 0c21379,0 38741,17245 38741,38741l0 242133c0,6850 -1890,13701 -5433,19606l-99806 169021 0 21851 101932 0c14882,0 28584,8504 34962,22087l27993 58938 16653 12638 21970 -22795c7323,-7560 17362,-11812 27756,-11812l48190 -118c-7441,-6850 -12165,-16418 -12638,-26930l-5433 -124137c-472,-10512 3425,-20788 10748,-28465 7205,-7678 17363,-11930 27993,-11930l72404 0 157445 -99923c6260,-3898 13465,-6024 20788,-6024l64372 0c11220,0 21969,4960 29292,13465 7323,8386 10630,19606 9094,30827l-6378 44647c13229,23505 40631,75947 51025,124373 7678,35789 7087,79018 4961,110673l119531 1063c21260,236 38387,17599 38387,38859l-119 128980c-118,15709 -9685,29882 -24213,35788l-34016 13819 0 36497 37323 19489c12757,6614 20788,19843 20788,34371l0 107247c0,12520 -6024,24331 -16299,31536l-95672 67679 84687 26221c15709,4843 26694,19017 27284,35552 118,2363 2126,58585 -7677,119649 -5551,34844 -13819,64608 -24804,88940l140909 0c591,0 1181,236 1772,236l0 -1496732 -2645857 0 0 1496496 140319 0z"/>
     <path class="fil0" d="M2667235 2828224c3780,-2953 7914,-5197 12284,-6615 -9095,-7086 -14646,-18071 -14882,-29882l-1417 -112798c0,-1300 0,-2481 118,-3780l-42521 29174c-12520,8504 -28820,8977 -41812,1181l-33308 -19961 236 291386 77010 0c-11103,-48191 -7323,-107365 44292,-148705z"/>
     <path class="fil0" d="M3181619 3777264c-21379,0 -38741,-17244 -38741,-38741l0 -252998c0,-18899 -11339,-42167 -28938,-59411 -14764,-14528 -40277,-31891 -79490,-31064 -59411,945 -95082,46891 -100042,92364l0 251227c0,10276 -4016,20080 -11339,27285 -7205,7323 -17127,11338 -27402,11338l-230085 0c-21379,0 -38741,-17244 -38741,-38741l0 -252998c0,-18899 -11339,-42167 -28938,-59411 -14764,-14528 -40395,-31891 -79490,-31064 -25985,472 -49254,9921 -67325,26693l189336 965104c266345,-117995 581708,-310520 751909,-609583l-210714 0z"/>
     <path class="fil0" d="M2566130 4410943l-265991 -1356532 -215911 0 -265637 1357004c-354,1890 -945,3662 -1535,5433 184611,75829 334497,114334 376309,127445 42402,-13347 191343,-51616 374773,-126618 -827,-2244 -1535,-4488 -2008,-6732z"/>
     <path class="fil0" d="M1933633 3420444c-17835,-15945 -40631,-24804 -65671,-25276 -708,0 -1417,0 -2126,0 -37914,0 -62954,16772 -77482,31064 -17599,17244 -28938,40513 -28938,59411l0 253117c0,21378 -17362,38623 -38741,38623l-230085 118c-10276,0 -20197,-4134 -27402,-11339 -7323,-7323 -11339,-17127 -11339,-27402l0 -251228c-4961,-45473 -40631,-91419 -100042,-92364 -709,0 -1417,0 -2008,0 -37914,0 -62954,16772 -77482,31064 -17599,17244 -28938,40513 -28938,59411l0 253117c0,21378 -17363,38623 -38741,38623l-210006 118c169965,297882 484265,490288 750020,608402l188981 -965459z"/>
     <path class="fil0" d="M3514462 3054411l-1135423 0 55867 284417c24804,-13347 52915,-20788 82207,-21261 51025,-826 99334,18072 135122,53270 32599,32126 52088,74883 52088,114688l0 214257 152602 118 0 -214375c0,-1182 118,-2481 237,-3662 8504,-92128 84214,-162760 175988,-164296 51616,-826 99452,18072 135122,53270 32599,32126 52088,74883 52088,114688l0 214257 211541 118c52915,-116223 84333,-246975 84333,-394026l0 -251581c-591,0 -1181,118 -1772,118z"/>
     <path class="fil0" d="M1165897 3700018l0 -214375c0,-39686 19488,-82562 52088,-114688 35788,-35198 83860,-53860 135121,-53269 91774,1535 167485,72167 175989,164295 118,1181 236,2481 236,3662l0 214375 152603 0 0 -214375c0,-39686 19489,-82562 52088,-114688 35788,-35198 83860,-53860 135122,-53269 28583,472 56103,7677 80671,20433l55513 -283708 -1134951 0 0 251463c0,147051 31536,277921 84569,394144l210951 0z"/>
     <path class="fil0" d="M1256962 2897202l62836 0c4843,7796 7560,16772 8859,26103 118,5197 472,10394 945,15591 -118,13701 -2481,27048 -5197,38033l-220045 0c-31655,-21615 -47600,-107720 -48899,-178588l96262 -29646c16182,-5079 27284,-20080 27284,-37088l0 -37087c0,-12520 -6142,-24332 -16417,-31537l-106893 -75710 0 -63782 37324 -19370c12756,-6733 20788,-19961 20788,-34371l0 -86105c0,-15827 -9567,-30001 -24213,-35906l-34017 -13819 0 -64490 101459 -827 48309 79018 354 110199 -33190 104649c-3780,11693 -1653,24567 5670,34607 7323,9922 18898,15827 31300,15827l29292 0c18898,0 35079,-13701 38150,-32481 2835,-17126 12048,-66616 20670,-88939 6733,-17363 34253,-54451 51734,-75238 12284,-14647 12047,-35907 -473,-50317l-133232 -152838c-2598,-23033 -7323,-77601 945,-116224 8977,-42048 38151,-95436 48545,-112562 4724,-7677 6614,-16772 5315,-25631l-1890 -13937 8504 0 157564 99924c6141,3898 13346,6024 20669,6024l43230 0 -2599 57757 -50788 18426c-15355,5669 -25631,20315 -25513,36615l236 39804c237,21261 17481,38505 38623,38505l132642 354 34607 35907c13701,14174 35788,15945 51497,3898 0,0 60238,-47954 62955,-53506l21496 -45355 77247 0 0 91065 0 49962c0,0 -141264,48427 -153075,54214 -9213,4607 -14292,48308 -12638,58939 1535,10512 1063,14764 16299,25985 0,0 41104,32363 53742,36851l41103 -39214 54332 3662 0 130515 -51970 31182 -162524 -111145c-16890,-11575 -39804,-8031 -52442,8150l-25394 32481c-12284,15828 -10630,38505 4016,52206l92955 87050 -827 70868 -93309 41340c-13938,6260 -23033,20079 -23033,35434l0 15827c0,21378 17363,38741 38742,38741l112207 0c19371,24095 11693,58112 3544,79727l-258550 0c-8741,-9213 -13347,-25395 -15119,-43584 -118,-4961 -354,-9922 -945,-15001 -590,-24567 2599,-49962 5788,-64608l60238 -77010c4960,-6260 7795,-14055 8149,-21969l1772 -36969c709,-13229 -5551,-25867 -16300,-33426 -10866,-7678 -24803,-9331 -37087,-4252l-97089 39568c-12638,5197 -21615,16654 -23623,30237l-5669 38741 -56459 17008c-16299,4961 -27520,20079 -27520,37088l0 15709c0,21378 17363,38741 38741,38741z"/>
     <path class="fil0" d="M3127287 2897202l-62836 0c-4843,7796 -7560,16772 -8859,26103 -118,5197 -472,10394 -945,15591 118,13701 2599,27048 5197,38033l220045 0c31773,-21615 47600,-107720 49017,-178588l-96380 -29646c-16182,-5079 -27284,-20080 -27284,-37088l0 -37087c0,-12520 6142,-24332 16417,-31537l106893 -75710 0 -63782 -37206 -19370c-12874,-6733 -20906,-19961 -20906,-34371l0 -86105c0,-15827 9567,-30001 24213,-35906l34017 -13819 0 -64490 -101459 -827 -48191 79018 -472 110199 33190 104649c3779,11693 1653,24567 -5670,34607 -7323,9922 -18898,15827 -31182,15827l-29292 0c-19016,0 -35197,-13701 -38268,-32481 -2835,-17126 -12048,-66616 -20670,-88939 -6733,-17363 -34253,-54451 -51734,-75238 -12165,-14647 -12047,-35907 473,-50317l133231 -152838c2599,-23033 7323,-77601 -944,-116224 -8977,-42048 -38151,-95436 -48545,-112562 -4725,-7677 -6614,-16772 -5315,-25631l1890 -13937 -8504 0 -157564 99924c-6142,3898 -13346,6024 -20669,6024l-43230 0 2599 57757 50788 18426c15355,5669 25631,20315 25513,36615l-236 39804c-237,21261 -17363,38505 -38624,38505l-132641 354 -34607 35907c-13701,14174 -35788,15945 -51379,3898 0,0 -60356,-47954 -62955,-53506l-21496 -45355 -77365 0 0 91065 0 49962c0,0 141264,48427 153075,54214 9213,4607 14292,48308 12757,58939 -1654,10512 -1063,14764 -16418,25985 0,0 -41104,32363 -53624,36851l-41103 -39214 -54450 3662 0 130515 52088 31182 162405 -111145c16891,-11575 39805,-8031 52443,8150l25394 32481c12402,15828 10630,38505 -4016,52206l-92955 87050 945 70868 93191 41340c14056,6260 23033,20079 23033,35434l0 15827c0,21378 -17363,38741 -38742,38741l-112207 0c-19371,24095 -11694,58112 -3544,79727l258550 0c8741,-9213 13347,-25395 15119,-43584 118,-4961 354,-9922 945,-15001 590,-24567 -2481,-49962 -5788,-64608l-60238 -77010c-4960,-6260 -7795,-14055 -8149,-21969l-1772 -36969c-591,-13229 5551,-25867 16300,-33426 10866,-7678 24803,-9331 37087,-4252l97089 39568c12638,5197 21615,16654 23623,30237l5788 38741 56340 17008c16299,4961 27520,20079 27520,37088l0 15709c0,21378 -17363,38741 -38741,38741z"/>
    </g>
   </g>
   <g>
    <g>
     <g>
      <g>
       <path class="fil0" d="M622221 5885469l0 -1417c0,-144216 105830,-271897 263511,-271897 88703,0 143508,25631 196068,69923l-38387 45001c-40513,-35315 -85514,-60001 -159925,-60001 -116342,0 -199730,98270 -199730,215439l0 1535c0,125436 80317,218510 207998,218510 60119,0 115633,-23269 151657,-52561l0 -130633 -159925 0 0 -53387 217092 0 0 209533c-48899,43584 -122483,80317 -211068,80317 -165241,0 -267291,-120121 -267291,-270362z"/>
       <path class="fil0" d="M1294522 5885469l0 -1417c0,-144925 108901,-271897 268826,-271897 159926,0 267409,125437 267409,270362l0 1535c0,144925 -108901,271779 -268826,271779 -160044,0 -267409,-125318 -267409,-270362zm474580 0l0 0 0 -1417c0,-119413 -87050,-216974 -207171,-216974 -120240,0 -205754,96144 -205754,215439l0 1535c0,119413 87050,216974 207171,216974 120121,0 205754,-96026 205754,-215557z"/>
       <path class="fil0" d="M2042888 5621132l223825 0c60120,0 107483,17362 137484,46655 21733,22559 33780,50316 33780,84096l0 1536c0,68269 -42048,103585 -83388,121538 62364,18780 112680,54805 112680,126972l0 1536c0,90120 -75828,143389 -190753,143389l-233628 0 0 -525722zm334970 139019l0 0c0,-51852 -41222,-85632 -116342,-85632l-160044 0 0 180950 155556 0c71340,0 120830,-32245 120830,-93900l0 -1418zm-110318 147878l0 0 -166068 0 0 185556 176580 0c79608,0 129098,-35316 129098,-93900l0 -1535c0,-57049 -48072,-90121 -139610,-90121z"/>
       <polygon class="fil0" points="2679047,5621132 2738340,5621132 2738340,6146854 2679047,6146854 "/>
       <polygon class="fil0" points="2978228,5621132 3358316,5621132 3358316,5675228 3037639,5675228 3037639,5854760 3324418,5854760 3324418,5908856 3037639,5908856 3037639,6092758 3361978,6092758 3361978,6146854 2978228,6146854 "/>
       <path class="fil0" d="M3558519 5621132l226069 0c64608,0 116341,19607 149413,52678 25512,25513 40513,62246 40513,103586l0 1535c0,87050 -60002,138193 -142681,153193l161461 214730 -72758 0 -152484 -204218 -150241 0 0 204218 -59292 0 0 -525722zm220753 268117l0 0c78900,0 135240,-40513 135240,-108074l0 -1535c0,-64490 -49607,-103586 -134413,-103586l-162288 0 0 213195 161461 0z"/>
       <polygon class="fil0" points="4188063,5621132 4243694,5621132 4574884,6042442 4574884,5621132 4632641,5621132 4632641,6146854 4585278,6146854 4245938,5715859 4245938,6146854 4188063,6146854 "/>
       <path class="fil0" d="M4844655 5885469l0 -1417c0,-144925 108900,-271897 268826,-271897 160043,0 267408,125437 267408,270362l0 1535c0,144925 -108900,271779 -268826,271779 -160043,0 -267408,-125318 -267408,-270362zm474579 0l0 0 0 -1417c0,-119413 -87049,-216974 -207171,-216974 -120239,0 -205753,96144 -205753,215439l0 1535c0,119413 87049,216974 207171,216974 120121,0 205753,-96026 205753,-215557z"/>
       <path class="fil0" d="M5866335 5621132l182485 0c165241,0 279338,113507 279338,261385l0 1535c0,147878 -114097,262802 -279338,262802l-182485 0 0 -525722zm59293 54922l0 0 0 415996 123192 0c132878,0 217801,-90121 217801,-206581l0 -1417c0,-116460 -84923,-207998 -217801,-207998l-123192 0z"/>
       <polygon class="fil0" points="6516313,5621132 6896283,5621132 6896283,5675228 6575606,5675228 6575606,5854760 6862503,5854760 6862503,5908856 6575606,5908856 6575606,6092758 6900063,6092758 6900063,6146854 6516313,6146854 "/>
       <polygon class="fil0" points="7372044,5621132 7431337,5621132 7431337,6092050 7727211,6092050 7727211,6146854 7372044,6146854 "/>
       <path class="fil0" d="M8091236 5617470l55631 0 239534 529384 -63899 0 -61537 -138901 -286071 0 -62363 138901 -60829 0 239534 -529384zm146461 336387l0 0 -119413 -267290 -120121 267290 239534 0z"/>
       <path class="fil0" d="M610882 6786320l0 -1536c0,-149413 112680,-271778 274141,-271778 99097,0 158390,33071 207289,81143l-73584 84806c-40631,-36852 -81853,-59293 -134532,-59293 -88585,0 -152366,73585 -152366,163705l0 1417c0,90239 62364,165241 152366,165241 60120,0 96971,-23977 138193,-61537l73585 74293c-53978,57876 -114098,93900 -215439,93900 -154729,0 -269653,-119412 -269653,-270361z"/>
       <polygon class="fil0" points="1191173,6521982 1306806,6521982 1306806,7047705 1191173,7047705 "/>
       <path class="fil0" d="M1440274 6822344l0 -300362 115633 0 0 297410c0,85632 42757,129924 113389,129924 70513,0 113389,-42875 113389,-126145l0 -301189 115633 0 0 296583c0,159335 -89412,237408 -230558,237408 -141145,0 -227486,-78900 -227486,-233629z"/>
       <path class="fil0" d="M2029541 6521982l205045 0c165241,0 279338,113389 279338,261385l0 1417c0,147996 -114097,262921 -279338,262921l-205045 0 0 -525723zm205045 421310l0 0c94609,0 158508,-63781 158508,-156972l0 -1536c0,-93073 -63899,-158390 -158508,-158390l-89293 0 0 316898 89293 0z"/>
       <path class="fil0" d="M2769876 6518203l106656 0 225242 529502 -120830 0 -48072 -117877 -222289 0 -48072 117877 -117877 0 225242 -529502zm121657 309457l0 0 -69805 -170438 -69805 170438 139610 0z"/>
       <path class="fil0" d="M3185162 6521982l205045 0c165241,0 279338,113389 279338,261385l0 1417c0,147996 -114097,262921 -279338,262921l-205045 0 0 -525723zm205045 421310l0 0c94609,0 158508,-63781 158508,-156972l0 -1536c0,-93073 -63899,-158390 -158508,-158390l-89294 0 0 316898 89294 0z"/>
       <path class="fil0" d="M4004987 6521982l204927 0c165240,0 279338,113389 279338,261385l0 1417c0,147996 -114098,262921 -279338,262921l-204927 0 0 -525723zm204927 421310l0 0c94608,0 158508,-63781 158508,-156972l0 -1536c0,-93073 -63900,-158390 -158508,-158390l-89294 0 0 316898 89294 0z"/>
       <polygon class="fil0" points="4598625,6521982 4995131,6521982 4995131,6624859 4713549,6624859 4713549,6731515 4961351,6731515 4961351,6834392 4713549,6834392 4713549,6944828 4998911,6944828 4998911,7047705 4598625,7047705 "/>
       <polygon class="fil0" points="5334234,6521982 5458844,6521982 5597037,6744272 5735229,6521982 5859957,6521982 5859957,7047705 5745033,7047705 5745033,6704467 5597037,6929001 5594084,6929001 5447623,6706830 5447623,7047705 5334234,7047705 "/>
       <path class="fil0" d="M5997441 6521982l396506 0 0 102877 -281582 0 0 106656 247802 0 0 102877 -247802 0 0 110436 285362 0 0 102877 -400286 0 0 -525723zm220045 -174217l0 0 98388 42875 -96144 90003 -87049 0 84805 -132878z"/>
       <polygon class="fil0" points="6655096,6780296 6479343,6521982 6614583,6521982 6724901,6692538 6836046,6521982 6967506,6521982 6791753,6778879 6975065,7047705 6839825,7047705 6721948,6867464 6603244,7047705 6471902,7047705 "/>
       <polygon class="fil0" points="7063296,6521982 7179047,6521982 7179047,7047705 7063296,7047705 "/>
       <path class="fil0" d="M7290782 6786320l0 -1536c0,-149413 112680,-271778 274141,-271778 99097,0 158390,33071 207171,81143l-73585 84806c-40513,-36852 -81852,-59293 -134413,-59293 -88585,0 -152366,73585 -152366,163705l0 1417c0,90239 62246,165241 152366,165241 60120,0 96853,-23977 138193,-61537l73584 74293c-54096,57876 -114097,93900 -215556,93900 -154611,0 -269535,-119412 -269535,-270361z"/>
       <path class="fil0" d="M7830324 6786320l0 -1536c0,-149413 117877,-271778 280046,-271778 162170,0 278630,120948 278630,270361l0 1417c0,149532 -117877,271897 -280165,271897 -162170,0 -278511,-120948 -278511,-270361zm437728 0l0 0 0 -1536c0,-90002 -66026,-165122 -159217,-165122 -93073,0 -157681,73585 -157681,163705l0 1417c0,90239 66143,165241 159216,165241 93074,0 157682,-73585 157682,-163705z"/>
      </g>
     </g>
    </g>
   </g>
  </g>
 </g>
</svg>
