<svg
  xmlns="http://www.w3.org/2000/svg"
  xml:space="preserve"
  width="140"
  height="120"
  style="shape-rendering:geometricPrecision;text-rendering:geometricPrecision;image-rendering:optimizeQuality;fill-rule:evenodd;clip-rule:evenodd"
  viewBox="0 0 14000000 11999899"
><defs><style>.fil3{fill:none}.fil2{fill:#f0e2c8}</style></defs><g
    id="Capa_x0020_1"
  ><g id="_648939736"><path
        d="M4818243 1389937c1032059 0 1868643 836584 1868643 1868643 0 1031941-836584 1868525-1868643 1868525-1031941 0-1868525-836584-1868525-1868525 0-1032059 836584-1868643 1868525-1868643zm3778743 3723703c1625452 0 2943223 1317653 2943223 2943222 0 1625452-1317771 2943222-2943223 2943222-1625451 0-2943222-1317770-2943222-2943222 0-1625569 1317771-2943222 2943222-2943222z"
        style="fill:#f9f5ed"
      /><path
        d="M6863345 1982385h-1772c-23976 0-47599 354-71221 826l-21969 355h-354l-22441 708-22205 709h-827l-21260 945-21851 945-2244 118-19725 1181-43228 2598-21497 1654-19016 1417-2362 237-21260 1771-21142 2008-21024 2126-19724 2008-1182 118-20787 2362-7914 827-12756 1654-20551 2598-8977 1063-11456 1536-20434 2952-10039 1300-10158 1653-20197 3071-19961 3189-19961 3425-19724 3544-19725 3543c-32835 6024-65197 12638-97088 19843l-19134 4252-15945 3661-3071 827-18897 4606c-25276 6142-50080 12638-74765 19489l-18425 5079h-237l-18071 5315-18307 5433-1181 354-17008 5197-18071 5551-2363 709-15708 5079-17835 5787-3307 1063-14528 4961-17835 6142-4134 1417-13583 4724-17480 6378-5197 1772-12402 4607-17362 6496-6142 2362-11221 4370-17362 6732-6969 2835-10157 4134-17126 6850-7914 3308-9212 3897-16890 7205-8859 3780-8031 3543-16890 7441-9685 4370-23741 10748-10630 4961-6024 2835-16417 7913c-211184 87403-389060 190986-494770 302484h-118l-8031 6023-8032 6142-8031 6024-3426 2480-4606 3662-8032 6142-8031 6023-7914 6260-1653 1299-6260 4961-8032 6260-8031 6260-7914 6260-7913 6260-7914 6378-7913 6378-6260 4960-1654 1418-7913 6496-7795 6378-7914 6496-4606 3662-3307 2834-7914 6496-7795 6615-7914 6496-2716 2362-5079 4252-7795 6732-7914 6615-7795 6614-1063 945-6733 5787-7795 6733-7795 6732-7323 6378-473 354-7677 6969-7913 6732-7678 6851-5551 4960-2244 1890-7795 6969-7678 6850-7795 6969-3898 3543-3779 3544-7796 6968-7677 6969-7795 7086-2126 2008-5552 5079-7677 7087-7795 7086-7677 7205-591 473-7087 6732-7677 7205-7677 7205-6614 6141-1182 1064-7559 7322-7795 7205-7677 7323-4961 4725-2598 2598-7678 7441-7795 7323-7559 7441-3307 3189-4370 4134-7678 7559-7677 7441-7677 7441-1654 1654-5905 5905-7678 7559-7677 7560-7677 7559c-19016 19016-37560 38150-55749 57284l-4134 4252c-17362 18425-34252 36851-50788 55394l-6850 7796c-15827 17834-31418 35905-46536 53977l-7441 9094c-15118 18189-30000 36378-44410 54686l-827 1181-118 236c-15118 19252-29646 38386-43819 57875l-4843 6614c-13110 17835-25866 35788-38386 53977l-8859 12756c-11929 17481-23622 35079-34842 52678l-8741 13583c-10630 16771-21142 33543-31181 50315l-1654 2599-1535 2362-5906 10394-26102 45118-5197 8977-3662 6614-26457 49134-8386 15945c-9094 17599-17835 35198-26457 53033l-6378 13110c-8622 18189-17126 36378-25394 54686l-1653 3543-3662 8622-22205 51379-2598 6023-2244 5433c-7323 17717-14292 35434-21142 53269l-5079 13228-20079 54804-5433 15355-17362 51496-6851 21260-12520 40513-3543 11811-1299 4252-14410 51142-5433 19961-14528 57048-1535 5787-13583 58229-1417 6142-1772 8268-11221 53386-1299 6142-591 3189-10630 56457-2362 13583-9803 58584-1417 8740-8386 55630-1063 7441-945 8032-7914 60001-236 1771-4370 38741-3071 27402-1181 11102-3661 38623-355 3071-2598 28819-591 6614-3071 38505-708 8740-2126 29764-2481 37796v708l-2244 38268-1653 28465-355 9922-1653 38150-1536 38268-1181 38150-354 9803-709 28229-827 38032v590l-590 37205-355 29292-118 8504-236 37560-236 20079v17480l236 74883-5433 354c0 525124 10512 819576 1063 1037020v354l-709 9095-826 8976-1536 17953-827 8977-827 8858-826 8858-945 8977-945 8740-354 4016-591 4842-1063 8741-945 8858-945 8622-1181 8740-1063 8623-472 4606-591 4134-1181 8622-1181 8622-2480 17126-1300 8504-708 4961-591 3543-118 945-6850 41221-945 5315-591 2953-236 1535-7914 40867-1535 6969-1772 8267-7205 32245-1417 6024-590 1889-237 1300-9921 38268-1654 6496-354 1299-11457 38741-2008 6732-354 827-827 2716-14173 41930-118 591c-5315 14763-10867 29527-16772 43937l-14882 36969-14764 36496-1299 3071-13465 32953-14410 35552-2362 5787-11929 29292-14174 34489-3425 8386-10512 25630-13819 33662-4488 10984-9213 22205-13464 32599-5434 13346-7795 18898-13110 31890-6378 15355-6615 15945-12756 30827-7204 17481-5315 12874-12402 30000-8032 19370-4134 10158-12047 29055-8740 21024-3071 7678-11693 28110-9213 22796-2126 4960-11221 27402-9921 24213-1063 2717-10866 26457-10394 25630-236 472-10394 25630-10276 25276-590 1654-9331 23268-9803 24331-1300 3661-8267 20434-9213 23622-2126 5433-7087 17835-8858 22795-2717 7087-5905 15473-8504 22087-3308 8622-4960 13110-11575 31418-4134 10866-7441 20552-4134 11338-3189 8977-7087 19724-4252 12520-2480 7087-6496 19134-4607 13583-1771 5197-6024 18425-4724 14528-1063 3543-5552 17717-4842 15354-473 2008-5078 17008-4607 16182-118 590-4488 16300-4252 16063-354 827-3662 14882-3780 15472-472 2008-2953 12992-3307 14764-590 3189-2245 11221-2598 14173-2362 13819-2008 13583-1772 12874-118 355-1417 12992-1299 12520-945 12401-118 2363-591 10866-354 14173v8623l354 15708 236 3426c13229 247561 260318 277916 729457 277562h182483l24921-118h374296l1047885 118c85513 1811004 2632825 1810296 2718220 0l840954-236h458628l25512 118h229372l25512 118h81852l13701-118 16653-118h5079l21378-119 3189-118 17835-118 11221-236 9567-118 18780-354h1535l20079-591h6024l13701-472 13228-473 6142-118 18898-827 1299-118 17481-709 8149-354 10040-590 15000-827 2953-118 17598-1300 3780-236 13583-1063 10157-708 6733-591 16181-1535h354l16182-1654 5787-709 10040-1063 11693-1417 3779-591 15237-2008 1889-236 12874-2008 7560-1299 6850-1063 12756-2244 1417-354 13820-2717 3661-827 9685-2008 8740-2007 4252-1063 12756-3189 591-237 11693-3307 5315-1417 6732-2126 9449-3071 2244-709 11221-4016 19725-7913 1771-591 9804-4488 354-118 9921-4961 473-236 8622-4606 827-473 8149-4606 591-236 8858-5670c5552-3543 10867-7322 15945-11220l473-354 6850-5434 945-826 7323-6497 6024-5669 1890-1890 5315-5551 1417-1653c5787-6497 11339-13347 16299-20434l1654-2598 4134-6378 4842-8386c9449-16890 16536-35670 21615-56103l2362-10394 1890-10276v-708c1299-7205 2244-14528 2953-22205l826-11693c591-7914 827-16064 709-24449v-6142l-472-13465-473-10866v-355l-236-2008-945-12401-354-4488v-119c-24567-262916-237995-716819-551581-1494229-62245-154254-93781-330830-109017-523589v-472l-355-5669-118-4607-472-10275-354-10512-119-6142-236-4488-236-10749-354-10866-118-6614-119-4370-236-11221-236-11220-118-7087-118-4370-118-11575-118-11693-119-7559v-4370l-118-12048-118-12165-118-8150v-109608l118-10039v-18071l118-14528 118-10866v-3780l119-14764 118-15118v-11693l118-3543 118-15591 118-15591 118-12638v-3307l236-16181 118-16418 119-13464 118-3307 118-16772 236-17126v-17481l236-17717 118-17835 237-15472v-2717l118-18425 236-18662 118-16653v-2363l236-19252 118-19488 118-17717v-2126l119-20079 236-20433v-18898l118-1772 118-20906 118-21378 118-20079v-1417l118-21969 118-22087v-22559l119-22796 118-23031v-23504l118-23859v-48544l-5433-354c9449-1887541-1055800-3404684-3050822-3405038z"
        style="fill:#fff"
      /><path
        class="fil2"
        d="M2459673 6955236v-132167h330476v132167h-330476zm5830578-5447660v-132167h330476v132167h-330476zm374532-176222V999933h132166v331421h-132166zm176340 44055h330358v132167h-330358v-132167zm-44174 176223v331421h-132166v-331421h132166zM2834205 6778895v-331303h132167v331303h-132167zm176223 44174h330476v132167h-330476v-132167zm-44056 176104v331421h-132167v-331421h132167z"
      /><path
        class="fil3"
        d="M10577127 8551632c1299-7205 2126-14528 2953-22205"
      /><path
        class="fil2"
        d="M7275082 8793170h266105c-63898 773276-935443 878277-1249502 362957 336382 203270 828198 88111 983397-362957z"
      /><path
        class="fil3"
        d="M10577127 8551632c1299-7205 2126-14528 2953-22205"
      /><path
        class="fil2"
        d="M7533982 2765700c25985 9095 51851 18662 77482 28465l11338 4370 945 355 12402 4842 12283 4961 2363 945 9921 4016 12284 5078c20315 8386 40748 17127 61063 26103v118l12166 5315 12165 5552 3307 1299 8859 4134 12165 5551 6496 2953 5552 2716 12165 5670 9803 4606 2245 1063 12165 5787 12166 5788 944 472 11103 5433 12047 5906 24213 12047 7441 3662 4607 2362 12165 6024 10748 5433 1299 709 12166 6260 12047 6259 1890 945 10158 5315 12165 6142 5197 2717 6969 3661 12047 6378 8504 4488 3662 1890 12165 6496 11693 6260 354 237 12166 6496 12165 6496 2953 1653 9331 4961 12166 6614 6141 3426 6024 3307 12284 6614 9567 5197 2716 1535 12166 6733 12401 6732 473 354 11811 6496 12284 6733 3897 2244 8504 4606 12402 6851 7205 4016 5079 2952 12519 6851 10631 5905 1771 1063 12520 6851 12520 6968 1535 945 10985 6024 118 118c263979 194884 465596 435359 630125 697803 287602 458864 343468 945483 344531 1433638l-4370-1181-354 298232c-9095 322799-26575 643944-945 955759l-236 174332c0 279098 410792 1104816 511423 1430213H3972919c59410-192049 226774-558195 353980-883474h4173000c-100631-325397-511423-1151115-511423-1430213l118-174333c-25512-311814-8032-632960 1063-955759l354-298231 4370 1181c-1063-488155-56930-974775-344649-1433638-36615-58465-75001-115750-115750-171853z"
      /><path
        d="M6182077 8793170h1359110c-76064 921152-1298400 894104-1359110 0zm681268-6810785h-1772c-23976 0-47599 354-71221 826l-21969 355h-354l-22441 708-22205 709h-827l-21260 945-21851 945-2244 118-19725 1181-43228 2598-21497 1654-19016 1417-2362 237-21260 1771-21142 2008-21024 2126-19724 2008-1182 118-20787 2362-7914 827-12756 1654-20551 2598-8977 1063-11456 1536-20434 2952-10039 1300-10158 1653-20197 3071-19961 3189-19961 3425-19724 3544-19725 3543c-32835 6024-65197 12638-97088 19843l-19134 4252-15945 3661-3071 827-18897 4606c-25276 6142-50080 12638-74765 19489l-18425 5079h-237l-18071 5315-18307 5433-1181 354-17008 5197-18071 5551-2363 709-15708 5079-17835 5787-3307 1063-14528 4961-17835 6142-4134 1417-13583 4724-17480 6378-5197 1772-12402 4607-17362 6496-6142 2362-11221 4370-17362 6732-6969 2835-10157 4134-17126 6850-7914 3308-9212 3897-16890 7205-8859 3780-8031 3543-16890 7441-9685 4370-23741 10748-10630 4961-6024 2835-16417 7913c-211184 87403-389060 190986-494770 302484h-118l-8031 6023-8032 6142-8031 6024-3426 2480-4606 3662-8032 6142-8031 6023-7914 6260-1653 1299-6260 4961-8032 6260-8031 6260-7914 6260-7913 6260-7914 6378-7913 6378-6260 4960-1654 1418-7913 6496-7795 6378-7914 6496-4606 3662-3307 2834-7914 6496-7795 6615-7914 6496-2716 2362-5079 4252-7795 6732-7914 6615-7795 6614-1063 945-6733 5787-7795 6733-7795 6732-7323 6378-473 354-7677 6969-7913 6732-7678 6851-5551 4960-2244 1890-7795 6969-7678 6850-7795 6969-3898 3543-3779 3544-7796 6968-7677 6969-7795 7086-2126 2008-5552 5079-7677 7087-7795 7086-7677 7205-591 473-7087 6732-7677 7205-7677 7205-6614 6141-1182 1064-7559 7322-7795 7205-7677 7323-4961 4725-2598 2598-7678 7441-7795 7323-7559 7441-3307 3189-4370 4134-7678 7559-7677 7441-7677 7441-1654 1654-5905 5905-7678 7559-7677 7560-7677 7559c-19016 19016-37560 38150-55749 57284l-4134 4252c-17362 18425-34252 36851-50788 55394l-6850 7796c-15827 17834-31418 35905-46536 53977l-7441 9094c-15118 18189-30000 36378-44410 54686l-827 1181-118 236c-15118 19252-29646 38386-43819 57875l-4843 6614c-13110 17835-25866 35788-38386 53977l-8859 12756c-11929 17481-23622 35079-34842 52678l-8741 13583c-10630 16771-21142 33543-31181 50315l-1654 2599-1535 2362-5906 10394-26102 45118-5197 8977-3662 6614-26457 49134-8386 15945c-9094 17599-17835 35198-26457 53033l-6378 13110c-8622 18189-17126 36378-25394 54686l-1653 3543-3662 8622-22205 51379-2598 6023-2244 5433c-7323 17717-14292 35434-21142 53269l-5079 13228-20079 54804-5433 15355-17362 51496-6851 21260-12520 40513-3543 11811-1299 4252-14410 51142-5433 19961-14528 57048-1535 5787-13583 58229-1417 6142-1772 8268-11221 53386-1299 6142-591 3189-10630 56457-2362 13583-9803 58584-1417 8740-8386 55630-1063 7441-945 8032-7914 60001-236 1771-4370 38741-3071 27402-1181 11102-3661 38623-355 3071-2598 28819-591 6614-3071 38505-708 8740-2126 29764-2481 37796v708l-2244 38268-1653 28465-355 9922-1653 38150-1536 38268-1181 38150-354 9803-709 28229-827 38032v590l-590 37205-355 29292-118 8504-236 37560-236 20079v17480l236 74883-5433 354c0 525124 10512 819576 1063 1037020v354l-709 9095-826 8976-1536 17953-827 8977-827 8858-826 8858-945 8977-945 8740-354 4016-591 4842-1063 8741-945 8858-945 8622-1181 8740-1063 8623-472 4606-591 4134-1181 8622-1181 8622-2480 17126-1300 8504-708 4961-591 3543-118 945-6850 41221-945 5315-591 2953-236 1535-7914 40867-1535 6969-1772 8267-7205 32245-1417 6024-590 1889-237 1300-9921 38268-1654 6496-354 1299-11457 38741-2008 6732-354 827-827 2716-14173 41930-118 591c-5315 14763-10867 29527-16772 43937l-14882 36969-14764 36496-1299 3071-13465 32953-14410 35552-2362 5787-11929 29292-14174 34489-3425 8386-10512 25630-13819 33662-4488 10984-9213 22205-13464 32599-5434 13346-7795 18898-13110 31890-6378 15355-6615 15945-12756 30827-7204 17481-5315 12874-12402 30000-8032 19370-4134 10158-12047 29055-8740 21024-3071 7678-11693 28110-9213 22796-2126 4960-11221 27402-9921 24213-1063 2717-10866 26457-10394 25630-236 472-10394 25630-10276 25276-590 1654-9331 23268-9803 24331-1300 3661-8267 20434-9213 23622-2126 5433-7087 17835-8858 22795-2717 7087-5905 15473-8504 22087-3308 8622-4960 13110-11575 31418-4134 10866-7441 20552-4134 11338-3189 8977-7087 19724-4252 12520-2480 7087-6496 19134-4607 13583-1771 5197-6024 18425-4724 14528-1063 3543-5552 17717-4842 15354-473 2008-5078 17008-4607 16182-118 590-4488 16300-4252 16063-354 827-3662 14882-3780 15472-472 2008-2953 12992-3307 14764-590 3189-2245 11221-2598 14173-2362 13819-2008 13583-1772 12874-118 355-1417 12992-1299 12520-945 12401-118 2363-591 10866-354 14173v8623l354 15708 236 3426c13229 247561 260318 277916 729457 277562h182483l24921-118h374296l1047885 118c85513 1811004 2632825 1810296 2718220 0l840954-236h458628l25512 118h229372l25512 118h81852l13701-118 16653-118h5079l21378-119 3189-118 17835-118 11221-236 9567-118 18780-354h1535l20079-591h6024l13701-472 13228-473 6142-118 18898-827 1299-118 17481-709 8149-354 10040-590 15000-827 2953-118 17598-1300 3780-236 13583-1063 10157-708 6733-591 16181-1535h354l16182-1654 5787-709 10040-1063 11693-1417 3779-591 15237-2008 1889-236 12874-2008 7560-1299 6850-1063 12756-2244 1417-354 13820-2717 3661-827 9685-2008 8740-2007 4252-1063 12756-3189 591-237 11693-3307 5315-1417 6732-2126 9449-3071 2244-709 11221-4016 19725-7913 1771-591 9804-4488 354-118 9921-4961 473-236 8622-4606 827-473 8149-4606 591-236 8858-5670c5552-3543 10867-7322 15945-11220l473-354 6850-5434 945-826 7323-6497 6024-5669 1890-1890 5315-5551 1417-1653c5787-6497 11339-13347 16299-20434l1654-2598 4134-6378 4842-8386c9449-16890 16536-35670 21615-56103l2362-10394 1890-10276v-708c1299-7205 2244-14528 2953-22205l826-11693c591-7914 827-16064 709-24449v-6142l-472-13465-473-10866v-355l-236-2008-945-12401-354-4488v-119c-24567-262916-237995-716819-551581-1494229-62245-154254-93781-330830-109017-523589v-472l-355-5669-118-4607-472-10275-354-10512-119-6142-236-4488-236-10749-354-10866-118-6614-119-4370-236-11221-236-11220-118-7087-118-4370-118-11575-118-11693-119-7559v-4370l-118-12048-118-12165-118-8150v-109608l118-10039v-18071l118-14528 118-10866v-3780l119-14764 118-15118v-11693l118-3543 118-15591 118-15591 118-12638v-3307l236-16181 118-16418 119-13464 118-3307 118-16772 236-17126v-17481l236-17717 118-17835 237-15472v-2717l118-18425 236-18662 118-16653v-2363l236-19252 118-19488 118-17717v-2126l119-20079 236-20433v-18898l118-1772 118-20906 118-21378 118-20079v-1417l118-21969 118-22087v-22559l119-22796 118-23031v-23504l118-23859v-48544l-5433-354c9449-1887541-1055800-3404684-3050822-3405038zm3713782 6569247c1299-7205 2126-14528 2953-22205l-2953 22205zM4512098 4707573c4843-34961 10394-69804 16536-104647l236-1181 1299-7323 8504-45001 236-827 9213-44173 1890-8859 354-1417 11575-49607 591-2362 12874-49961 590-2126 14292-50552 1181-3898 14882-48189 827-2481 1299-4252 15118-44410 1181-3543 1182-2953 17126-46890 1771-4606 17127-43347 2480-6260 1299-2835c13465-32835 28111-65434 43583-97914l1181-2717 4489-9094 21024-42284 708-1300 25749-48662 1653-2716 25158-44410 6142-10394 27638-45355 7677-12283 6732-10630 1063-1654 7914-12165 5551-8859 2362-3307 7914-12165 4606-7087 3425-5079 8032-12165 3661-5197 4489-6733 8267-12047 2363-3543 5905-8386 8268-11930 1299-1889 7087-10040 8386-11929 118-118 8386-11693 7559-10276 1063-1417 8504-11812 6496-8622 2244-3071 8741-11693 5315-6968 3543-4607 8976-11574 3898-5197 4961-6378 8976-11457 2835-3544 6260-7913 9213-11457 1535-1890 7677-9330 9213-11339 354-355 9095-10984 8386-9921 945-1299 16772-19371 2362-2834 29173-33072 4607-5197 5197-5787 13228-14410 6733-7204 10157-10867 1890-2008 18425-19370 473-354 19370-19725 827-1063 10512-10512 8031-7913 19843-19371 4016-3897 10748-10276 5315-4961 40985-37559 8858-7914 11339-10039 709-591 10630-9212 10630-8977 21260-18071 236-118 2480-2008 11693-9685 7559-6024 16064-12992 6023-4725 6024-4724 11929-9331 4488-3425 7796-5906 12165-9330 2717-1890 9685-7205 118-118c267641-149057 514848-286303 784379-373115l49725-13228 29292-7323 9685-2244 2598-709 35906-8386 5079-1063 4488-1063 28347-6260 7559-1535 1890-354 37323-7678h709l36260-6850 3071-591 6024-1063 27284-4724 5551-827 30591-4961 7677-1063 1299-236 34607-4961h827l1181-236 1063-118 32835-4134 3425-354 36851-4016 2834-354 33544-2953 591-118c19842-1654 39449-2953 58819-4134l8268-472 3898-237 4488-118 8150-472 8267-355 8268-354 5906-118 2244-118 8150-236 8031-237 8268-118 8032-236h10984c172325 3071 359886 28229 569062 81379l49725 13228 12637 4134c37796 12402 75238 25867 112325 40158l11338 4370 945 355 12402 4842 12283 4961 2363 945 9921 4016 12284 5078c20315 8386 40748 17127 61063 26103v118l12166 5315 12165 5552 3307 1299 8859 4134 12165 5551 6496 2953 5552 2716 12165 5670 9803 4606 2245 1063 12165 5787 12166 5788 944 472 11103 5433 12047 5906 24213 12047 7441 3662 4607 2362 12165 6024 10748 5433 1299 709 12166 6260 12047 6259 1890 945 10158 5315 12165 6142 5197 2717 6969 3661 12047 6378 8504 4488 3662 1890 12165 6496 11693 6260 354 237 12166 6496 12165 6496 2953 1653 9331 4961 12166 6614 6141 3426 6024 3307 12284 6614 9567 5197 2716 1535 12166 6733 12401 6732 473 354 11811 6496 12284 6733 3897 2244 8504 4606 12402 6851 7205 4016 5079 2952 12519 6851 10631 5905 1771 1063 12520 6851 12520 6968 1535 945 10985 6024 118 118c263979 194884 465596 435359 630125 697803 287602 458864 343468 945483 344531 1433638l-4370-1181-354 298232c-9095 322799-26575 643944-945 955759l-236 174332c0 279098 410792 1104816 511423 1430213H3972919c100749-325397 511541-1151115 511541-1430213l-236-174332 1181-14646 1063-14646 590-6378 473-8268 945-14646 945-14645 1653-29410 827-14646 709-14764 354-8150 354-6614 591-14764 472-14646 591-14882v-1535l354-13229 473-14764 354-14882 236-9803 118-4961 236-14882 119-14764 354-14882v-14882l236-14882 118-14882v-44646l-118-15000v-4961l-118-9921-118-14882-118-15000-118-13347-118-1536-119-15000-236-15000-236-15000-118-6614-236-8268-355-15118-236-14882-354-15001v-118l-355-15000-354-14882-354-15118-236-8504-237-6496-472-15001-354-15118-473-15118v-1654l-472-13346-355-15000-472-15119-354-10157-119-4961-472-15000-591-15118-472-15001-118-3543-354-11575-473-15118-472-15118-355-11930-118-3189-590-15118-355-15118-590-15119-118-5197-237-9921-590-15118-354-15118-473-13701v-1418l-472-15118-355-298232-4370 1181v-9567l118-13228 237-22914 118-17835 118-5078 354-22914 354-22796 119-2952 590-19961 591-22796 354-11220 354-11693 1654-40631 118-1299 236-3661 2244-45710 355-4488 2598-41103 827-12520 827-10275 3425-43347 236-2126 4252-45473 709-5906v-118l4252-39449 1653-14055 1063-8623 5906-44764v-590z"
        style="fill:#bc955c"
      /><path
        class="fil3"
        d="M10577127 8551632c1299-7205 2126-14528 2953-22205"
      /><path
        d="M8502497 3797523c51615 386697 295633 608865 580282 683275 115395 30119 237877 37087 357170 21851 119529-15236 235750-52560 338389-110552 253113-142797 429218-419769 380201-815443-48425-389413-291617-612290-576148-686700-116103-30237-239294-37087-359649-21733-120356 15355-237287 53032-340989 111379-255121 143860-432170 422131-379256 817923z"
        style="fill:#fff;fill-rule:nonzero"
      /><path
        d="M8502497 3797523c51615 386697 295633 608865 580282 683275 115395 30119 237877 37087 357170 21851 119529-15236 235750-52560 338389-110552 253113-142797 429218-419769 380201-815443-48425-389413-291617-612290-576148-686700-116103-30237-239294-37087-359649-21733-120356 15355-237287 53032-340989 111379-255121 143860-432170 422131-379256 817923zm488273 1038201c-418705-109490-777292-431934-851938-990720-75946-567881 186498-971822 563392-1184423 145631-82206 308507-134883 474454-156025 165947-21260 336500-11575 497604 30473 420713 109961 779300 433941 849222 997097 70277 566109-191222 967688-565518 1178990-145041 81733-306854 134175-471974 155199-165120 21023-334728 11338-495242-30591z"
        style="fill:#bc955c;fill-rule:nonzero"
      /><path
        class="fil2"
        d="M9651605 2911450c49252 100985 84095 216853 100394 348429 83623 673472-378783 1068674-883474 1130682 66733 40512 139017 70513 214254 90237 115395 30119 237877 37087 357170 21851 119529-15236 235750-52560 338389-110552 253113-142797 429218-419769 380201-815443-44409-357523-252876-574494-506934-665204z"
      /></g></g></svg>
