<svg
  xmlns="http://www.w3.org/2000/svg"
  xml:space="preserve"
  width="140"
  height="120"
  style="shape-rendering:geometricPrecision;text-rendering:geometricPrecision;image-rendering:optimizeQuality;fill-rule:evenodd;clip-rule:evenodd"
  viewBox="0 0 14000000 11999899"
><defs><style
    >.fil3{fill:#bc955c}.fil2{fill:#f0e2c8}.fil1{fill:#fff}</style></defs><g
    id="Capa_x0020_1"
  ><g id="_923610872"><path
        d="M2976411 5845459c1188675 0 2152111 963555 2152111 2152229 0 1188557-963436 2152111-2152111 2152111-1188556 0-2152110-963554-2152110-2152111 0-1188674 963554-2152229 2152110-2152229zM6375190 999933c643826 0 1165879 521935 1165879 1165879 0 643826-522053 1165761-1165879 1165761s-1165879-521935-1165879-1165761c0-643944 522053-1165879 1165879-1165879zm5294587 3864019c831623 0 1505804 674299 1505804 1505923 0 831741-674181 1505922-1505804 1505922-831742 0-1505923-674181-1505923-1505922 0-831624 674181-1505923 1505923-1505923z"
        style="fill:#f9f5ed"
      /><path
        class="fil1"
        d="M10390629 3479921 6538774 2063173 2944403 3456535l3734806 1580569z"
      /><path
        class="fil2"
        d="M11158944 3632994v-143978h360004v143978h-360004zM1077886 4973914v-143978h360004v143978h-360004zm408076-192049v-360949h143978v360949h-143978zm192049 48071h360004v143978h-360004v-143978zm-48071 191932v361067h-143978v-361067h143978zm9936962-1580924v-360949h143978v360949h-143978zm192049 48072h360004v143978h-360004v-143978zm-48071 191931v361067h-143978v-361067h143978z"
      /><path
        class="fil1"
        transform="matrix(-.86643 -.3123 0 .7815 6663180 5253660)"
        d="M0 0h4255087v5879357H0z"
      /><path
        class="fil2"
        d="m9634360 4189417 697331-250751v4583910L6644957 9848378V8799784l1287534-350083c936152-254412 1701869-1285053 1701869-2290301V4189417z"
      /><path
        class="fil2"
        d="m6663146 5253721-874971-344296v1997149c0 1031350-746583 1605726-1659231 1276786l-1371157-494297v623038l3905359 1536277V5253721z"
      /><path
        class="fil3"
        d="M3439763 3532008c188034-133230 852766-357996 1120643-469021 243782-101221 332011-3071 578510 96025l2815898 1138714c-173506 118702-860797 352917-1106942 456855-278152 117285-326578 30355-591975-76182-446462-179175-2660227-1036901-2816134-1146391zm2028921-815560c1067846-575085 1410724-391658 2271994-46772 313940 125670 1960652 754969 2111480 862332-89765 63899-980444 429572-1107414 452604-156025 28228-908750-316303-1102335-393194-286421-113741-2054433-793119-2173725-874970zm1199541 7268586c-376658-699221-276500-519928-575322-631425-832332-310043-1753012-720126-2611210-1048712-478706-183428-533156-105120-531148-688827l1063-3690396 3418975 1364425 12520 4066345c92836-110434 313468 827253 622094 458627l-84804-4526980 3418385-1365488 2953 2818024c181655 80198 405949 230436 514730 324807l11929-2578258c0-547210 46182-966979-335909-1244895-162286-118112-1891793-778946-2223214-909814-825246-325752-1475804-733591-2454004-347248-746583 294807-1491749 593629-2241522 891506-1273715 505990-1190564 411855-1190564 1939628 0 1003831-50552 2142780 1772 3129721 27638 520399 382090 663905 740677 805402 379847 149884 752489 298823 1133281 449887 484021 192286 1863210 831506 2369318 783671z"
      /><path
        class="fil2"
        d="M6257787 2389869c526778-125907 876270 36851 1482891 279807 313940 125670 1960652 754969 2111480 862332-89765 63899-980444 429572-1107414 452604-72166 13110-271420-53387-484257-136301 308861-119883 730165-298940 790284-341815-150710-107245-1797422-736544-2111362-862214-263980-105828-479297-196302-681622-254413z"
      /><path
        class="fil1"
        d="M9982553 5414943c-1453599 203978-2653494 1432221-2461209 3116019 162758 1426197 1467182 2640857 3110705 2449043 1427142-166655 2652195-1469426 2454358-3106098-169608-1403874-1462930-2689164-3103854-2458964z"
      /><path
        class="fil2"
        d="M4429302 3114838c49725-19134 94135-36496 131104-51851 243782-101221 332011-3071 578510 96025l2815898 1138714c-173506 118702-860797 352917-1106942 456855-278152 117285-326578 30355-591975-76182l-99450-39567c295633-115395 855128-312051 1009145-417407L4429302 3114838z"
      /><path
        class="fil1"
        d="M10031924 5841089c-1230841 172679-2246600 1212652-2083842 2638140 137718 1207573 1242179 2235970 2633769 2073567 1208164-141143 2245419-1244069 2077937-2629872-143624-1188557-1238636-2276719-2627864-2081835z"
      /><path
        d="M10066058 6088061c-577447 81142-1101508 372523-1449583 813316-318547 403115-490281 935089-420477 1548561l826 5905c62600 537880 340162 1035602 757214 1381551 414926 345476 970404 538471 1590963 468549l16535-2244c536935-64844 1036665-343115 1383913-759340 345713-413744 539180-966270 467604-1582222l-5551-47835c-73111-519101-348547-1014697-757213-1362063-405005-344177-942767-541541-1543837-469021l-40394 4843zm-1840296 504808c428272-542250 1068909-900246 1772028-998869 7913 0 42756-4488 50079-6851 749772-90473 1419937 155435 1924628 584298 501265 426029 839183 1035130 928829 1674586 0 17599 5551 39213 7677 57520 88820 761702-151891 1445922-580872 1960180-427446 513195-1043870 855836-1708012 936034l-17598 1890c-764182 87048-1450883-152482-1966440-580046-514730-425910-857371-1041626-935207-1707185l-827-5905c-85985-754615 128624-1412851 525715-1915652z"
        style="fill:#bc955c;fill-rule:nonzero"
      /><path
        class="fil3"
        d="M10039837 7794300c-191813 116104-404768 407958-588195 573196-298941 268940-619968-107482-356815-389414 188033-201262 381500-379729 578156-576266 677488-676780 573195-701347 1260368 3543 195357 200317 393430 371933 581345 573077 265043 283704-72166 663551-355515 387642-165593-161104-407721-468194-589259-572132-3189 331893-945 664496-945 996271 0 284058 72757 718000-264452 720126-339216 2126-263743-437249-263743-720126 0-331775 2362-664259-945-995917z"
      /><path
        class="fil2"
        d="M11739699 6592751c77245 191814 129805 392603 154490 596228 167482 1385802-869774 2488728-2078055 2629753-376540 43938-731937 709-1052846-109607 29173 36733 59646 72875 91182 107718 22205 20079 44882 39685 67914 58819 426146 353390 995326 551345 1629939 478943l14410-1890c550400-66379 1061469-351028 1416748-776584 353863-424020 552054-989538 478825-1619545l-6024-49017c-61182-435713-261735-855246-562684-1187966-16771-15118-33780-30000-51024-44646-33425-28465-67678-55867-102875-82206z"
      /></g></g></svg>
