<?xml version="1.0" encoding="UTF-8"?>
<!DOCTYPE svg PUBLIC "-//W3C//DTD SVG 1.1//EN" "http://www.w3.org/Graphics/SVG/1.1/DTD/svg11.dtd">
<!-- Creator: CorelDRAW Home & Student X8 -->
<svg xmlns="http://www.w3.org/2000/svg" xml:space="preserve" width="30px" height="30px" version="1.1" style="shape-rendering:geometricPrecision; text-rendering:geometricPrecision; image-rendering:optimizeQuality; fill-rule:evenodd; clip-rule:evenodd"
viewBox="0 0 3000000 3000000"
 xmlns:xlink="http://www.w3.org/1999/xlink">
 <defs>
  <style type="text/css">
   <![CDATA[
    .fil1 {fill:white}
    .fil0 {fill:white;fill-rule:nonzero}
   ]]>
  </style>
 </defs>
 <g id="Capa_x0020_1">
  <metadata id="CorelCorpID_0Corel-Layer"/>
  <g id="_906877096">
   <path class="fil0" d="M705827 500079l314409 0 3898 0 997323 0c79724,0 152244,32480 204567,84921 52441,52323 84921,124843 84921,204567l0 314291 0 4016 0 341102 -236 0 0 6615c0,43582 -35433,79015 -78898,79015 -43583,0 -79016,-35433 -79016,-79015l0 -270709 -1051653 0 0 1034173 498897 0c43465,0 78898,35433 78898,79016 0,43464 -35433,78898 -78898,78898l-16417 0 0 236 -559488 0 -3898 0 -314409 0c-79725,0 -152244,-32599 -204567,-84922 -52441,-52322 -85040,-124842 -85040,-204566l0 -979843 0 -4016 0 -314291c0,-79724 32599,-152244 85040,-204567 52323,-52441 124842,-84921 204567,-84921zm237401 684803l-368976 0 0 902835c0,36023 14882,69212 38622,92952 23740,23740 56811,38622 92953,38622l158622 0 6142 -236 72637 0 0 -1034173zm157914 -526890l0 368977 1051653 0 0 -142560 236 -6141 0 -88701c0,-36142 -14881,-69213 -38622,-92953 -23740,-23740 -56929,-38622 -92952,-38622l-920315 0zm-157914 368977l0 -368977 -237401 0c-36142,0 -69213,14882 -92953,38622 -23740,23740 -38622,56811 -38622,92953l0 237402 368976 0z"/>
   <path class="fil1" d="M2163661 2138268c0,-178111 -35787,-370866 104174,-370866 139842,0 104173,193228 104173,370866 40512,-17717 82086,-100748 167953,-36024 122716,92717 -44528,216024 -123780,295276 -163701,163937 -170315,136417 -418701,-121890 -46063,-47835 -69212,-117756 -6260,-169843 85985,-71338 135119,16182 172441,32481z"/>
  </g>
 </g>
</svg>
