<svg
  xmlns="http://www.w3.org/2000/svg"
  id="Capa_1"
  data-name="Capa 1"
  viewBox="0 0 150.207 119.999"
><defs><style
    >.cls-2,.cls-6,.cls-8{fill-rule:evenodd}.cls-2{fill:#f0e2c8}.cls-6,.cls-8{fill:#fff}.cls-10,.cls-12,.cls-6,.cls-8,.cls-9{stroke:#bc955c}.cls-10,.cls-6,.cls-8,.cls-9{stroke-miterlimit:10}.cls-10,.cls-12,.cls-9{fill:none}.cls-5{fill:#bc955c}.cls-6{stroke-width:3.99923px}.cls-12{stroke-linecap:round;stroke-linejoin:round}.cls-8{stroke-width:2.99883px}.cls-9{stroke-width:2.36222px}.cls-10{stroke-width:2.49922px}.cls-12{stroke-width:1.99962px}</style></defs><g
    id="Capa_1-2"
    data-name="Capa_1"
  ><path
      d="M34.314 81.188a21.906 21.906 0 1 1-21.906 21.906 21.905 21.905 0 0 1 21.906-21.906ZM62.898 5a24.932 24.932 0 1 1-24.932 24.932A24.931 24.931 0 0 1 62.898 5Zm60.356 46.845a31.85 31.85 0 1 1-31.85 31.85 31.85 31.85 0 0 1 31.85-31.85Z"
      style="fill-rule:evenodd;fill:#f9f5ec"
      transform="translate(-4.896 -5)"
    /><path
      d="M112.393 32.566v-1.5h3.748v1.5ZM0 66.763v-1.499h3.748v1.5Zm4.247-1.998v-3.757h1.5v3.757Zm1.999.5h3.746v1.498H6.246Zm-.5 1.998v3.757H4.247v-3.757ZM116.64 30.567V26.81h1.5v3.758Zm1.999.5h3.746v1.499h-3.746Zm-.5 1.998v3.757h-1.499v-3.757Z"
      class="cls-2"
    /><path
      d="M37.69 28.352h60.856a12.033 12.033 0 0 1 12 11.999v60.754a6.016 6.016 0 0 1-6 5.999H31.69a6.016 6.016 0 0 1-6-6V40.352a12.033 12.033 0 0 1 12-11.999Z"
      style="stroke-width:3.49962px;stroke-miterlimit:10;stroke:#bc955c;fill:#fff;fill-rule:evenodd"
      transform="translate(-4.896 -5)"
    /><path
      d="M22.545 93.743h64.296a10.571 10.571 0 0 0 10.541-10.541v-38.59h6.517v51.492a4.252 4.252 0 0 1-4.249 4.249H26.793a4.252 4.252 0 0 1-4.248-4.249ZM97.382 43.19l.42-17.203a10.333 10.333 0 0 1 3.086 2.126 10.22 10.22 0 0 1 3.01 7.238v7.839Z"
      class="cls-2"
    /><path
      d="M20.102 43.72h86.239"
      style="fill:none;stroke-width:3.49962px;stroke-miterlimit:10;stroke:#bc955c"
    /><path
      d="M36.843 65.101a1.562 1.562 0 0 1-.383-.053 11.078 11.078 0 0 0-2.885-.397 10.85 10.85 0 0 0-1.475.107 17.08 17.08 0 0 0-1.678.325q0 1.224-.075 3.637.51-.037 3.582-.334c1.165-.116 1.902-.171 2.215-.171a1.347 1.347 0 0 1 .925.344 1.162 1.162 0 0 1 .384.911 1.15 1.15 0 0 1-1.162 1.238c-.49.034-1.22.094-2.191.179q-1.302.14-3.922.346a40.198 40.198 0 0 0-.056 1.872 5.071 5.071 0 0 0 .206 2.04 2.68 2.68 0 0 0 1.157.12q.567 0 1.712-.028a75.906 75.906 0 0 1 1.715-.029 3.813 3.813 0 0 0 .541-.056 4.2 4.2 0 0 1 .532-.054 1.392 1.392 0 0 1 .906.304 1.25 1.25 0 0 1-.64 2.181 25.703 25.703 0 0 1-3.804.175q-2.987 0-3.894-.806c-.666-.591-1-1.875-1-3.844q0-1.227.178-3.687.18-2.457.179-3.676a7.617 7.617 0 0 0-.085-.946 7.902 7.902 0 0 1-.084-.95q0-1.391 1.281-1.39a1.297 1.297 0 0 1 .74.227 19.443 19.443 0 0 1 2.016-.397 13.313 13.313 0 0 1 1.807-.13 10.62 10.62 0 0 1 3.684.524 1.164 1.164 0 0 1 .84 1.16 1.215 1.215 0 0 1-.331.84 1.185 1.185 0 0 1-.935.418Z"
      class="cls-5"
    /><path
      id="_1"
      d="M59.56 79.609a10.502 10.502 0 0 1-.153 1.443 1.234 1.234 0 0 1-1.338 1.182 2.312 2.312 0 0 1-1.447-.723 69.04 69.04 0 0 1-7.956-8.905q-.057 2.38-.056 2.922c0 .484.009 1.208.027 2.18s.029 1.697.029 2.178q0 2.705-1.312 2.704a1.423 1.423 0 0 1-1.07-.413 1.227 1.227 0 0 1-.356-.888c0-.243.019-.612.06-1.109q.055-.74.056-1.105c0-.36.013-.9.037-1.623.023-.718.035-1.26.035-1.618 0-.385-.01-.966-.025-1.741q-.028-1.162-.028-1.741c0-.365-.035-.912-.103-1.637a18.108 18.108 0 0 1-.106-1.64 1.291 1.291 0 0 1 .47-.979 1.542 1.542 0 0 1 1.077-.43q.678 0 1.5 1.17a60.344 60.344 0 0 0 8.203 9.673c.005-.194.009-.66.009-1.391q0-4.51-.087-6.084c-.013-.175-.051-.507-.116-.988a7.798 7.798 0 0 1-.088-1.006q0-1.261 1.328-1.263 1.486 0 1.485 4.603 0 .1-.02 1.445-.056 4.648-.055 5.784Z"
      class="cls-5"
      data-name="1"
      transform="translate(-4.896 -5)"
    /><path
      id="_2"
      d="M72.27 70.102a1.561 1.561 0 0 1-.385-.053 11.078 11.078 0 0 0-2.884-.397 10.85 10.85 0 0 0-1.475.106 17.08 17.08 0 0 0-1.679.325q0 1.224-.074 3.638.51-.038 3.581-.335c1.166-.115 1.903-.17 2.216-.17a1.347 1.347 0 0 1 .925.343 1.162 1.162 0 0 1 .384.912 1.15 1.15 0 0 1-1.163 1.238c-.49.034-1.219.093-2.19.178q-1.303.14-3.922.346a40.212 40.212 0 0 0-.057 1.872 5.071 5.071 0 0 0 .207 2.041 2.68 2.68 0 0 0 1.156.12q.567 0 1.713-.03a75.905 75.905 0 0 1 1.715-.027 3.813 3.813 0 0 0 .54-.057 4.2 4.2 0 0 1 .532-.053 1.392 1.392 0 0 1 .906.303 1.25 1.25 0 0 1-.64 2.182 25.703 25.703 0 0 1-3.803.175q-2.987 0-3.894-.807c-.666-.59-1-1.875-1-3.843q0-1.228.178-3.688.179-2.457.178-3.675a7.615 7.615 0 0 0-.085-.947 7.901 7.901 0 0 1-.084-.95q0-1.391 1.282-1.39a1.297 1.297 0 0 1 .74.228 19.444 19.444 0 0 1 2.015-.397 13.313 13.313 0 0 1 1.807-.131 10.62 10.62 0 0 1 3.684.524 1.164 1.164 0 0 1 .841 1.16 1.215 1.215 0 0 1-.332.84 1.185 1.185 0 0 1-.934.419Z"
      class="cls-5"
      data-name="2"
      transform="translate(-4.896 -5)"
    /><path
      id="_3"
      d="M85.92 81.97a1.3 1.3 0 0 1-.906-.383 15.413 15.413 0 0 0-6.1-3.61q.094 2.663.093 2.957a1.199 1.199 0 0 1-.362.88 1.306 1.306 0 0 1-1.806 0 1.199 1.199 0 0 1-.363-.88q0-.69.013-2.057c.01-.913.012-1.596.012-2.056l.013-7.388a1.775 1.775 0 0 1 .357-1.078 1.373 1.373 0 0 1 1.29-.559c1.484.109 2.244.17 2.278.175a6.44 6.44 0 0 1 2.178.612q3.91 1.97 3.91 4.881a3.09 3.09 0 0 1-.82 2.12 6.204 6.204 0 0 1-2.458 1.549 13.684 13.684 0 0 1 3.653 2.77 1.207 1.207 0 0 1 .319.812 1.183 1.183 0 0 1-.385.884 1.277 1.277 0 0 1-.916.372Zm-5.86-11.515c-.049-.006-.405-.027-1.07-.072v4.857c.152.006.287.01.402.01a7.547 7.547 0 0 0 3.322-.56 3.28 3.28 0 0 0 .856-.631c.26-.26.387-.46.387-.595a2.584 2.584 0 0 0-1.299-1.974 5.327 5.327 0 0 0-2.597-1.035Z"
      class="cls-5"
      data-name="3"
      transform="translate(-4.896 -5)"
    /><path
      id="_4"
      d="M96.593 82.42a7.053 7.053 0 0 1-4.612-1.555 5.332 5.332 0 0 1-2.032-4.316 9.175 9.175 0 0 1 1.95-5.68 6.654 6.654 0 0 1 5.51-2.886 6.846 6.846 0 0 1 4.785 1.466 5.705 5.705 0 0 1 1.593 4.406 9.514 9.514 0 0 1-1.794 5.644 6.334 6.334 0 0 1-5.4 2.922Zm.816-11.962a4.239 4.239 0 0 0-3.49 1.981 6.78 6.78 0 0 0-1.363 4.113 3.036 3.036 0 0 0 1.177 2.475 4.404 4.404 0 0 0 2.86.92 3.95 3.95 0 0 0 3.353-1.983 7.127 7.127 0 0 0 1.235-4.112 3.443 3.443 0 0 0-.86-2.678 4.49 4.49 0 0 0-2.912-.716Z"
      class="cls-5"
      data-name="4"
      transform="translate(-4.896 -5)"
    /><path
      d="M88.644 17.828c2.762 0 5 3.358 5 7.5 0 4.143-2.238 7.5-5 7.5-2.761 0-5-3.358-5-7.5 0-4.142 2.239-7.5 5-7.5ZM63.223 17.828c2.762 0 5 3.358 5 7.5 0 4.143-2.238 7.5-5 7.5-2.761 0-5-3.358-5-7.5 0-4.142 2.239-7.5 5-7.5ZM37.8 17.828c2.761 0 5 3.358 5 7.5 0 4.143-2.239 7.5-5 7.5-2.762 0-5-3.358-5-7.5 0-4.142 2.238-7.5 5-7.5Z"
      class="cls-6"
    /><path
      d="M143.716 111.27H82.629"
      style="stroke-width:2.99883px;stroke-linecap:round;stroke-linejoin:round;fill:none;stroke:#bc955c"
    /><path
      d="M90.016 59.028h26.853a2.004 2.004 0 0 1 2 2v50.244H88.016V61.028a2.004 2.004 0 0 1 2-2Z"
      class="cls-8"
    /><path
      d="M95.443 54.026h16a2.004 2.004 0 0 1 2 2v3.002h-20v-3.002a2.004 2.004 0 0 1 2-2Z"
      class="cls-8"
    /><path
      d="M89.516 105.492h5.189a15.907 15.907 0 0 0 3.788-.457c.243-.06.484-.125.722-.195l.128-.04.211-.065.136-.045.233-.078.035-.012q.527-.184 1.035-.404l.082-.035c.323-.142.642-.294.954-.456l.12-.063.305-.166.04-.022a16.187 16.187 0 0 0 1.975-1.31l.06-.046a16.32 16.32 0 0 0 1.892-1.74l.012-.012c.257-.277.503-.564.74-.858a15.909 15.909 0 0 0 3.531-9.995V60.528h6.166a.504.504 0 0 1 .5.5v48.744H89.515Z"
      class="cls-2"
    /><path
      d="M100.492 99.065h5.901a2.004 2.004 0 0 1 2 2v9.708h-9.9v-9.708a2.004 2.004 0 0 1 2-2Z"
      class="cls-9"
    /><rect
      width="5.617"
      height="6.481"
      x="95.132"
      y="65.574"
      class="cls-10"
      rx=".999"
    /><rect
      width="5.617"
      height="6.481"
      x="106.137"
      y="65.574"
      class="cls-10"
      rx=".999"
    /><rect
      width="5.617"
      height="6.481"
      x="95.132"
      y="76.578"
      class="cls-10"
      rx=".999"
    /><rect
      width="5.617"
      height="6.481"
      x="106.137"
      y="76.578"
      class="cls-10"
      rx=".999"
    /><rect
      width="5.617"
      height="6.481"
      x="95.132"
      y="87.583"
      class="cls-10"
      rx=".999"
    /><rect
      width="5.617"
      height="6.481"
      x="106.137"
      y="87.583"
      class="cls-10"
      rx=".999"
    /><path
      d="M118.965 78.696h19.519v32.576h-19.519z"
      style="stroke-width:2.99883px;stroke-miterlimit:10;stroke:#bc955c;fill:#fff"
    /><path
      d="M129.735 73.395h7.75a1.001 1.001 0 0 1 .999 1v3.988h-9.748v-3.989a1.001 1.001 0 0 1 1-.999Z"
      class="cls-8"
    /><path
      d="M120.465 107.853h8.277a6.016 6.016 0 0 0 5.999-5.999V80.196h2.243v29.576h-16.52Zm14.276-30.97v-1.988h2.243v1.988Z"
      class="cls-2"
    /><g id="_1001651824" data-name="1001651824"><path
        d="M128.724 84.228v13.978M123.722 84.228v13.978M133.726 84.228v13.978"
        class="cls-12"
      /></g><path
      d="M126.647 103.495h4.156a1.001 1.001 0 0 1 1 .999v6.279h-6.155v-6.28a1.001 1.001 0 0 1 .999-.998Z"
      class="cls-9"
    /></g></svg>
