<svg
  xmlns="http://www.w3.org/2000/svg"
  xml:space="preserve"
  width="130"
  height="130"
  style="shape-rendering:geometricPrecision;text-rendering:geometricPrecision;image-rendering:optimizeQuality;fill-rule:evenodd;clip-rule:evenodd"
  viewBox="0 0 13000000 13000000"
><defs><style
    >.fil3{fill:#f0e2c8}.fil2{fill:#fff}.fil1,.fil4,.fil5{fill:#bc955c;fill-rule:nonzero}.fil1{fill:#fff}</style></defs><g
    id="Capa_x0020_1"
  ><path
      d="M6454173 9078126c944888 0 1710837 765949 1710837 1710837s-765949 1710837-1710837 1710837c-945006 0-1710955-765949-1710955-1710837s765949-1710837 1710955-1710837zM3725928 500082c1680010 0 3041948 1361819 3041948 3041829S5405938 6583859 3725928 6583859 683981 5221921 683981 3541911 2045918 500082 3725928 500082zm6549725 821461c1126778 0 2040248 913471 2040248 2040249s-913470 2040249-2040248 2040249c-1126779 0-2040131-913471-2040131-2040249s913352-2040249 2040131-2040249z"
      style="fill:#f9f5ed;stroke:#f9f5ed;stroke-width:90000.5"
    /><path
      class="fil1"
      d="M6084722 6100431H4367507v845556L3038168 5732869l1329339-1213117v845556h1717215v735123zm0-367562"
    /><rect
      class="fil2"
      x="1959011"
      y="2202215"
      width="6760624"
      height="8734284"
      rx="1799888"
      ry="2325338"
    /><path
      class="fil1"
      d="M5166173 4445696c-53977 0-97678-43701-97678-97678 0-53976 43701-97795 97678-97795h1133865c53977 0 97678 43819 97678 97795 0 53977-43701 97678-97678 97678H5166173zm-992959 4865108c-53976 0-97796-43819-97796-97795 0-53977 43820-97796 97796-97796h2126824c53977 0 97678 43819 97678 97796 0 53976-43701 97795-97678 97795H4173214zm-58583 537878c-21614 0-39213-43819-39213-97796s17599-97796 39213-97796h850517c21496 0 39095 43819 39095 97796s-17599 97796-39095 97796h-850517zm1393473 0c-21614 0-39094-43819-39094-97796s17480-97796 39094-97796h850517c21614 0 39095 43819 39095 97796s-17481 97796-39095 97796h-850517zM4173214 7672842c-53976 0-97796-43819-97796-97796s43820-97796 97796-97796h2126824c53977 0 97678 43819 97678 97796s-43701 97796-97678 97796H4173214zm0 537759c-53976 0-97796-43701-97796-97678s43820-97796 97796-97796h2126824c53977 0 97678 43819 97678 97796s-43701 97678-97678 97678H4173214zm0-2102375c-53976 0-97796-43819-97796-97796s43820-97796 97796-97796h2126824c53977 0 97678 43819 97678 97796s-43701 97796-97678 97796H4173214zm0-1662530c-53976 0-97796-43701-97796-97678 0-53976 43820-97795 97796-97795h591500c53977 0 97796 43819 97796 97795 0 53977-43819 97678-97796 97678h-591500zm0 537877c-53976 0-97796-43819-97796-97795 0-53977 43820-97678 97796-97678h2126824c53977 0 97678 43701 97678 97678 0 53976-43701 97795-97678 97795H4173214zm0 1662412c-53976 0-97796-43701-97796-97678 0-53976 43820-97795 97796-97795h2126824c53977 0 97678 43819 97678 97795 0 53977-43701 97678-97678 97678H4173214z"
    /><path
      class="fil2"
      d="M3592817 2202179h3493013c0 666264-544964 1211228-1211227 1211228H4804045c-666264 0-1211228-544964-1211228-1211228z"
    /><rect
      class="fil2"
      x="2677342"
      y="8898242"
      width="971840"
      height="971836"
      rx="599989"
      ry="599987"
    /><rect
      class="fil2"
      x="2677342"
      y="7260264"
      width="971840"
      height="971836"
      rx="599989"
      ry="599987"
    /><rect
      class="fil2"
      x="2677342"
      y="5695629"
      width="971840"
      height="971836"
      rx="599989"
      ry="599987"
    /><rect
      class="fil2"
      x="2677342"
      y="4033203"
      width="971840"
      height="971836"
      rx="599989"
      ry="599987"
    /><path
      class="fil3"
      d="M7139571 3920575h1518907v6575945c0 104292-42638 198899-111261 267640-68622 68622-163465 111260-267521 111260H3278524V9808996h-454609c-23504 0-45001-9567-60355-24921l-236-236c-15355-15355-24803-128151-24803-151891h540003V8170916h-454609c-23504 0-45001-9449-60355-24804l-236-236c-15355-15354-24803-36851-24803-60355v-118h540003v-303899c0-409255 64725-804218 184253-1175086h-638862c-23504 0-45001-9685-60355-25040l-236-118c-15355-15354-24803-128268-24803-151890v-118h501381c80669 0 146693-65906 146693-146576v-525948h115985c23504 0 45001 9449 60355 24921l236 236c15355 15355 24803 36733 24803 60355v428861c591028-1378473 1963241-2350526 3551597-2350526zm-4401169 892092h501500c80669 0 146575-65906 146575-146576v-617484h116103c23504 0 45001 9567 60237 24922l354 236c15355 15354 24803 36732 24803 60355v678665c0 23622-9448 45000-24803 60237l-354 236c-15236 15472-36733 25039-60237 25039h-678665c-23622 0-45001-9567-60355-25039l-236-236c-15355-15237-24922-36615-24922-60237v-118zm4286247-2004815H4822234c-188151 0-342049 154016-342049 342049v202442h2263478c77244 0 147520-31654 198426-82559 51024-50906 82560-121182 82560-198427v-263505z"
    /><path
      class="fil4"
      d="M3592817 2141115h4686879c137835 0 263151 56339 353860 147167 90828 90709 147166 216025 147166 353860v7854378c0 137836-56338 263151-147166 353979-90709 90709-216025 147048-353860 147048H2398952c-137836 0-263152-56339-353861-147048-90827-90828-147166-216143-147166-353979V2642142c0-137835 56339-263151 147166-353860 90709-90828 216025-147167 353861-147167h1193865zm-768902 6696065h678665c56930 0 108780 23267 146458 60945l236 236c37677 37677 61063 89646 61063 146458v678665c0 56930-23386 108780-61063 146458l-236 236c-37678 37677-89528 60945-146458 60945h-678665c-56812 0-108780-23268-146458-60945l-236-236c-37677-37678-60945-89528-60945-146458v-678665c0-56812 23268-108781 60945-146458l236-236c37678-37678 89646-60945 146458-60945zm678665 122126h-678665c-23622 0-45001 9567-60355 24922l-236 236c-15355 15354-24922 36732-24922 60355v678665c0 23622 9567 45000 24922 60355l236 236c15354 15354 36733 24921 60355 24921h678665c23622 0 45001-9567 60355-24921l236-236c15355-15355 24922-36733 24922-60355v-678665c0-23623-9567-45001-24922-60355l-236-236c-15354-15355-36733-24922-60355-24922zm-678665-1760089h678665c56930 0 108780 23268 146458 60945l236 236c37677 37678 61063 89528 61063 146458v678665c0 56930-23386 108781-61063 146458l-236 236c-37678 37678-89528 60945-146458 60945h-678665c-56812 0-108780-23267-146458-60945l-236-236c-37677-37677-60945-89528-60945-146458v-678665c0-56930 23268-108780 60945-146458l236-236c37678-37677 89646-60945 146458-60945zm678665 122127h-678665c-23622 0-45001 9567-60355 24921l-236 236c-15355 15355-24922 36733-24922 60355v678665c0 23623 9567 45001 24922 60355l236 236c15354 15355 36733 24922 60355 24922h678665c23622 0 45001-9567 60355-24922l236-236c15355-15354 24922-36732 24922-60355v-678665c0-23622-9567-45000-24922-60355l-236-236c-15354-15354-36733-24921-60355-24921zm-678665-1686861h678665c56930 0 108780 23386 146458 61063l236 237c37677 37677 61063 89528 61063 146457v678666c0 56811-23386 108662-61063 146457l-236 236c-37678 37678-89528 60946-146458 60946h-678665c-56812 0-108780-23268-146458-60946l-236-236c-37677-37795-60945-89646-60945-146457v-678666c0-56929 23268-108780 60945-146457l236-237c37678-37677 89646-61063 146458-61063zm678665 122245h-678665c-23622 0-45001 9567-60355 24921l-236 236c-15355 15355-24922 36733-24922 60355v678666c0 23622 9567 45000 24922 60354l236 237c15354 15354 36733 24921 60355 24921h678665c23622 0 45001-9567 60355-24921l236-237c15355-15354 24922-36732 24922-60354v-678666c0-23622-9567-45000-24922-60355l-236-236c-15354-15354-36733-24921-60355-24921zm-678665-1784657h678665c56930 0 108780 23386 146458 61064l236 236c37677 37677 61063 89528 61063 146457v678666c0 56811-23386 108662-61063 146458l-236 236c-37678 37559-89528 60945-146458 60945h-678665c-56812 0-108780-23386-146458-60945l-236-236c-37677-37796-60945-89647-60945-146458v-678666c0-56929 23268-108780 60945-146457l236-236c37678-37678 89646-61064 146458-61064zm678665 122245h-678665c-23622 0-45001 9567-60355 24922l-236 236c-15355 15354-24922 36732-24922 60354v678666c0 23504 9567 45000 24922 60355l236 236c15354 15354 36733 24803 60355 24803h678665c23622 0 45001-9449 60355-24803l236-236c15355-15355 24922-36851 24922-60355v-678666c0-23622-9567-45000-24922-60354l-236-236c-15354-15355-36733-24922-60355-24922zm1590246 253702c-53977 0-97678-43819-97678-97795 0-53977 43701-97796 97678-97796h1133865c53977 0 97678 43819 97678 97796 0 53976-43701 97795-97678 97795H5092826zm-992959 4864991c-53976 0-97796-43820-97796-97796 0-53977 43820-97678 97796-97678h2126824c53977 0 97678 43701 97678 97678 0 53976-43701 97796-97678 97796H4099867zm-58583 537877c-21614 0-39213-43819-39213-97796s17599-97796 39213-97796h850517c21496 0 39095 43819 39095 97796s-17599 97796-39095 97796h-850517zm1393473 0c-21614 0-39094-43819-39094-97796s17480-97796 39094-97796h850517c21615 0 39095 43819 39095 97796s-17480 97796-39095 97796h-850517zM4099867 7575046c-53976 0-97796-43819-97796-97796s43820-97796 97796-97796h2126824c53977 0 97678 43819 97678 97796s-43701 97796-97678 97796H4099867zm0 537877c-53976 0-97796-43819-97796-97796 0-53976 43820-97796 97796-97796h2126824c53977 0 97678 43820 97678 97796 0 53977-43701 97796-97678 97796H4099867zm0-2102493c-53976 0-97796-43819-97796-97796 0-53976 43820-97796 97796-97796h2126824c53977 0 97678 43820 97678 97796 0 53977-43701 97796-97678 97796H4099867zm0-1662412c-53976 0-97796-43819-97796-97795 0-53977 43820-97796 97796-97796h591500c53977 0 97796 43819 97796 97796 0 53976-43819 97795-97796 97795h-591500zm0 537760c-53976 0-97796-43701-97796-97678s43820-97796 97796-97796h2126824c53977 0 97678 43819 97678 97796s-43701 97678-97678 97678H4099867zm0 1662411c-53976 0-97796-43701-97796-97677 0-53977 43820-97796 97796-97796h2126824c53977 0 97678 43819 97678 97796 0 53976-43701 97677-97678 97677H4099867zm3047027-4284829v807997c0 110906-45355 211773-118466 284766-72992 73110-173859 118465-284765 118465H3934984c-110788 0-211536-45355-284647-118465l-236-118c-72993-73111-118347-173860-118347-284648v-807997H2398952c-104174 0-198899 42638-267522 111261-68740 68622-111260 163347-111260 267521v7854378c0 104174 42520 198899 111260 267522 68623 68740 163348 111378 267522 111378h5880744c104174 0 198899-42638 267521-111378 68741-68623 111261-163348 111261-267522V2642142c0-104174-42520-198899-111261-267521-68622-68623-163347-111261-267521-111261H7146894zm-122245 0H3653999v807997c0 77363 31535 147639 82323 198545 51024 50906 121300 82441 198662 82441h2808679c77244 0 147520-31654 198426-82559 51024-50906 82560-121182 82560-198427v-807997z"
    /><path
      class="fil5"
      d="M3592935 2095406h4686761c73347 0 144095 14882 208466 41575 66969 27757 127441 68741 177757 118938 50433 50434 91063 110788 118819 177639 26811 64371 41693 135001 41693 208702v7854260c0 73702-15000 144332-41693 208702-27638 66615-68386 126970-118937 177403-98859 99095-235750 160749-386105 160749H2398952c-73465 0-144214-15000-208584-41693-66497-27638-126970-68623-177403-118938-50433-50197-91418-110670-119174-177521-26693-64606-41575-135355-41575-208702V2642260c0-73583 14882-144213 41575-208702 27638-66615 68622-126969 118938-177403 50669-50551 111024-91536 177639-119174 64488-26811 135000-41575 208584-41575h1193983zm3554077 91418H2398952c-61418 0-120237 12284-173624 34371-55630 23149-105945 57283-147993 99095-42047 42165-76181 92599-99213 148229-22205 53386-34488 112205-34488 173741v7854260c0 61536 12401 120473 34370 173623 23150 55513 57284 105946 99331 147993 41930 42048 92245 76064 147993 99214 53387 22204 112206 34606 173624 34606h5880744c125197 0 239293-51496 321616-133820 42047-41811 76182-92126 99213-147993 22205-53268 34607-112087 34607-173623V2642260c0-61536-12284-120355-34607-173741-23031-55512-57047-105828-99213-147993-42048-42048-92481-76182-147993-99331-53268-21969-112087-34371-173623-34371H7147012zM2823915 8791471h678665c34016 0 66733 6968 96615 19252 30709 12874 58937 31890 82087 55157 23504 23386 42520 51615 55394 82324 12402 30236 19252 62835 19252 96615v678665c0 34016-6968 66733-19252 96497-12283 29173-29882 55866-51378 78307l-3780 3898c-23740 23504-51850 42520-82441 55276-29764 12402-62599 19370-96497 19370h-678665c-33898 0-66851-6968-96379-19370-30827-12756-58819-31772-82087-54922l-3779-3661c-21733-22796-39568-49607-51733-78898-12402-29764-19370-62481-19370-96497v-678665c0-33780 6850-66379 19370-96379 12756-30945 31772-59174 55040-82441 23386-23386 51614-42402 82441-55276 29764-12284 62481-19252 96497-19252zm678665 91299h-678665c-21969 0-42756 4489-61536 12284-19488 8031-37559 20315-52559 35315-15237 15236-27638 33425-35670 52914-7795 18779-12283 39685-12283 61536v678665c0 21851 4488 42756 12283 61536 8032 19488 20433 37559 35433 52559l3307 3425c14528 13701 31300 24686 49607 32245 18662 7795 39685 12165 61418 12165h678665c21733 0 42756-4370 61418-12165 18307-7559 35197-18544 49252-31890l3780-3780c15000-15000 27283-33071 35315-52559 7795-18780 12283-39685 12283-61536v-678665c0-21851-4488-42757-12165-61536-8150-19489-20315-37560-35433-52678-15237-15236-33426-27520-52914-35551-18780-7795-39567-12284-61536-12284zm0 122245h-678665l-15000 2953c-15355 9449-11339 5905-21615 21142l-3071 15709v678665l2835 15000c2008 5197 4961 9449 8622 13110l12874 8859 15355 2834h678665l14882-2834c4961-1890 9567-5079 13229-8740l8504-12520 3189-15709v-678665l-2953-14882c-1890-5079-4961-9567-8504-13111l-12520-8622-15827-3189zm-678665-91300h678665c17717 0 35079 3662 50434 10040 16063 6614 30590 16535 42283 28110l3307 3425c10512 11575 19134 24804 24922 39213 6496 15355 10157 32481 10157 50316v678665c0 17717-3661 35079-10039 50433-6614 16064-16536 30591-28110 42166-11812 11811-26575 21732-42757 28465-15236 6496-32480 10157-50197 10157h-678665c-17835 0-34961-3661-50316-10039-15945-6851-30826-16772-42283-28347-11929-11811-21733-26338-28347-42402-6496-15354-10157-32716-10157-50433v-678665c0-17835 3661-34961 10039-50316 5906-14291 14410-27401 24449-38268l4016-4370c11575-11575 26102-21496 42165-27992 15355-6496 32717-10158 50434-10158zm0-1760207h678665c34016 0 66733 6968 96615 19370 30709 12756 58937 31772 82087 55040 23504 23386 42520 51614 55394 82441 12284 29764 19252 62481 19252 96497v678665c0 33662-6850 66379-19252 96379-12874 30945-31890 59174-55158 82323-23386 23504-51614 42520-82323 55394-29882 12284-62599 19252-96615 19252h-678665c-34016 0-66733-6968-96497-19252-30827-12874-59055-31890-82205-55157-23504-23386-42520-51615-55276-82324-12520-30236-19370-62953-19370-96615v-678665c0-34016 6968-66733 19370-96497 12756-30827 31772-59055 55040-82205 23386-23504 51614-42520 82441-55276 29764-12402 62481-19370 96497-19370zm678665 91300h-678665c-21969 0-42756 4488-61536 12283-19488 8032-37559 20433-52559 35433-15237 15237-27638 33308-35670 52796-7795 18780-12283 39567-12283 61536v678665c0 21851 4488 42875 12165 61536 8150 19489 20551 37678 35551 52678 15355 15236 33308 27520 52796 35551 18780 7795 39567 12284 61536 12284h678665c21969 0 42756-4489 61536-12284 19488-8031 37677-20315 52678-35433 15236-15118 27519-33307 35551-52796 7795-18661 12283-39685 12283-61536v-678665c0-21969-4488-42756-12283-61536-8032-19488-20197-37441-35315-52559-15237-15237-33426-27638-52914-35670-18780-7795-39567-12283-61536-12283zm0 122244h-678665l-14882 2835c-4961 1890-9567 4961-13229 8740l-8504 12520-3071 15709v678665l2835 14882c2126 5197 5079 9685 8622 13229l12520 8504 15709 3189h678665l15000-2953c5079-2008 9567-4961 13111-8504l8504-12638 3189-15709v-678665l-2953-15000c-1890-5079-4961-9449-8504-13111l-12992-8858-15355-2835zm-678665-91417h678665c17717 0 34961 3661 50316 10039 16063 6850 30826 16772 42401 28347 11693 11693 21733 26338 28229 42402 6496 15354 10157 32716 10157 50433v678665c0 17717-3661 34961-10039 50316-6614 15945-16417 30236-27992 42047-12048 12166-26575 21969-42638 28583-15355 6496-32717 10158-50434 10158h-678665c-17717 0-35079-3662-50434-10040-16063-6732-30708-16654-42165-28110-12048-12402-21851-26693-28347-42638-6496-15355-10157-32599-10157-50316v-678665c0-17717 3661-35079 10039-50433 6732-16064 16536-30591 28229-42166 11693-11811 26574-21733 42638-28465 15236-6496 32362-10157 50197-10157zm0-1686861h678665c33898 0 66615 7087 96497 19370 30591 12756 58701 31890 82087 55040 23622 23504 42638 51496 55512 82559 12284 29764 19252 62599 19252 96497v678548c0 34015-6968 66732-19252 96614-12874 30945-31890 59056-55158 82324-23740 23386-51850 42401-82441 55157-29764 12402-62599 19371-96497 19371h-678665c-33898 0-66851-7087-96379-19371-30827-12756-58819-31771-82087-55039-23740-23386-42756-51497-55512-82442-12402-29882-19370-62599-19370-96614v-678548c0-33898 6968-66733 19370-96497 12756-31063 31772-59055 55040-82323 23740-23386 51732-42520 82559-55276 29764-12283 62481-19370 96379-19370zm678665 91418h-678665c-21851 0-42638 4370-61418 12165-19843 8268-37914 20552-52796 35315-15118 15355-27519 33544-35551 53032-7795 18780-12283 39804-12283 61536v678548c0 21850 4488 42756 12283 61653 8032 19489 20433 37678 35433 52678 15000 15118 33071 27284 52914 35551 18662 7678 39685 12166 61418 12166h678665c21733 0 42756-4488 61418-12166 19961-8267 37914-20433 52914-35197 15118-15354 27401-33543 35433-53032 7795-18897 12283-39803 12283-61653v-678548c0-21732-4488-42756-12283-61536-8032-19488-20197-37559-35315-52677s-33071-27402-53032-35670c-18780-7795-39567-12165-61418-12165zm0 122245h-678665l-15000 2952c-4961 1772-9449 4843-12874 8268l-8741 12874-3071 15709v678548l2835 15000c2008 5197 4961 9567 8622 13110l12874 8858 15355 2953h678665l14882-2953c4961-1771 9567-4960 13229-8622l8504-12520 3189-15826v-678548l-2953-15000c-1890-5079-4961-9449-8504-12992-3898-4016-8386-7087-12874-8859l-15473-2952zm-678665-91418h678665c17717 0 35079 3661 50434 10039 15827 6733 30472 16536 42165 28347 11811 11811 21851 26339 28347 42402 6496 15354 10157 32716 10157 50433v678548c0 17716-3661 35197-10039 50433-6614 16181-16536 30591-28110 42284-11812 11811-26575 21732-42757 28346-15236 6496-32480 10158-50197 10158h-678665c-17835 0-34961-3662-50316-10040-15945-6732-30826-16653-42283-28228-11929-11929-21733-26339-28347-42520-6496-15236-10157-32717-10157-50433v-678548c0-17717 3661-35079 10039-50433 6732-16063 16536-30591 28229-42166 11811-12047 26693-21850 42519-28465 15237-6496 32599-10157 50316-10157zm0-1784539h678665c33898 0 66733 6851 96497 19371 30591 12638 58701 31653 82087 54921 23622 23386 42638 51497 55512 82560 12284 29764 19252 62599 19252 96496v678548c0 33898-6968 66733-19252 96615-12874 30945-31890 59055-55158 82205-23740 23504-51850 42638-82441 55394-29882 12283-62599 19252-96497 19252h-678665c-33898 0-66615-6969-96379-19252-30827-12756-58819-31890-82087-55158-23740-23386-42756-51496-55512-82441-12402-29882-19370-62717-19370-96615v-678548c0-33897 6968-66732 19370-96496 12756-31063 31772-59174 55040-82324 23740-23504 51732-42519 82559-55157 29528-12402 62481-19371 96379-19371zm678665 91300h-678665c-21733 0-42756 4488-61418 12284-19843 8149-37914 20433-52796 35197-15118 15354-27519 33425-35551 53032-7795 18779-12283 39685-12283 61535v678548c0 21850 4488 42756 12283 61536 8032 19606 20433 37677 35433 52795s33071 27402 52914 35552c18780 7795 39567 12283 61418 12283h678665c21851 0 42638-4488 61418-12283 19961-8150 37914-20434 52914-35315 15118-15355 27401-33426 35433-53032 7795-18780 12283-39686 12283-61536v-678548c0-21850-4488-42756-12283-61535-8032-19607-20197-37560-35315-52678s-33071-27402-53032-35551c-18662-7796-39685-12284-61418-12284zm0 122245h-678665l-14882 2835c-4961 1890-9567 4960-13229 8622l-8504 12520-3071 15826v678548l2835 15000c2008 5197 4961 9567 8622 13110 3780 4016 8268 6969 12756 8859l15473 2952h678665l15000-2952c4961-1890 9449-4843 12874-8386l8741-12756 3189-15827v-678548l-2953-15000c-1890-5078-4961-9567-8504-13110l-12992-8858-15355-2835zm-678665-91418h678665c17717 0 34961 3662 50316 10040 16063 6850 30826 16771 42401 28346 11693 11693 21733 26339 28229 42402 6496 15355 10157 32717 10157 50433v678548c0 17717-3661 35079-10039 50433-6614 16063-16536 30591-28110 42284-12048 11811-26693 21732-42638 28347-15237 6496-32599 10157-50316 10157h-678665c-17717 0-35079-3661-50434-10039-15708-6733-30590-16654-42165-28347-11929-11811-21733-26339-28347-42402-6496-15354-10157-32716-10157-50433v-678548c0-17716 3661-35078 10039-50433 6732-16063 16536-30591 28229-42284s26574-21614 42638-28346c15236-6496 32362-10158 50197-10158zm2269029 345002c-39567 0-75591-16063-101457-41929-25866-25985-42166-61890-42166-101457 0-39449 16182-75591 42048-101458 25984-25984 62008-42047 101575-42047h1133747c39567 0 75473 16181 101458 42165 25866 25867 41929 61891 41929 101340 0 39212-16299 75354-41929 101221-26221 25866-62245 42165-101458 42165H5092944zm-36850-106536c9212 9331 22441 15237 36850 15237h1133747c14410 0 27520-5788 36851-15001 9331-9567 15236-22677 15236-37086 0-14292-6023-27520-15236-36851-9331-9213-22441-15236-36851-15236H5092944c-14409 0-27638 5905-36968 15118-9331 9331-15237 22677-15237 36969 0 14409 6024 27519 15355 36850zm-956227 4971526c-39567 0-75473-16063-101457-41929-25866-25984-42047-61890-42047-101457s16181-75473 42047-101458c25984-25866 61890-41929 101457-41929h2126824c39449 0 75473 16063 101458 41929 25630 26221 41929 62009 41929 101458 0 39567-16063 75473-41929 101457-25985 25866-61891 41929-101458 41929H4099867zm-36850-106536c9331 9213 22441 15237 36850 15237h2126824c14410 0 27520-6024 36851-15237 9213-9330 15236-22441 15236-36850 0-14410-6023-27520-15118-36969-9449-9095-22677-15118-36969-15118H4099867c-14409 0-27519 6023-36850 15236-9331 9331-15237 22441-15237 36851 0 14409 5906 27520 15237 36850zm-21851 644532c-31417 0-55748-21969-69921-57402-8977-22914-14882-53623-14882-86103 0-32599 5905-63071 14882-85867 14173-35669 38504-57638 69921-57638h850635c31418 0 55867 22205 70040 57520 8858 23032 14764 53504 14764 85985 0 32480-5906 63071-14764 85867-14173 35433-38622 57638-70040 57638h-850635zm6614-143505c0 21142 3189 39685 8032 52087h821344c4842-12402 8031-30827 8031-52087s-3071-39567-7913-52087h-821462c-4843 12520-8032 30827-8032 52087zm1386977 143505c-31535 0-55866-22205-70039-57520-8977-22914-14764-53505-14764-85985 0-32481 5787-62953 14764-85749 14173-35551 38504-57756 70039-57756h850635c31300 0 55631 21969 69922 57402 8977 23032 14764 53504 14764 86103 0 32480-5787 63189-14764 85867-14291 35669-38622 57638-69922 57638h-850635zm14528-91418h821462c4724-12402 8031-30945 8031-52087 0-21260-3189-39567-8031-52087h-821344c-4961 12520-8031 30827-8031 52087s3189 39685 7913 52087zM4099867 7620755c-39567 0-75473-16181-101457-42048-25866-25984-42047-61890-42047-101457 0-39449 16181-75473 42047-101339 25984-25985 61890-42048 101457-42048h2126824c39567 0 75473 16063 101458 42048 25866 25866 41929 61890 41929 101339 0 39567-16063 75473-41929 101457-25985 25867-61891 42048-101458 42048H4099867zm-36850-106654c9331 9330 22441 15236 36850 15236h2126824c14410 0 27520-5906 36851-15236 9213-9331 15236-22441 15236-36851 0-14291-6023-27520-15236-36851-9331-9212-22441-15118-36851-15118H4099867c-14409 0-27519 5906-36850 15118-9331 9331-15237 22560-15237 36851 0 14410 5906 27520 15237 36851zm36850 644413c-39567 0-75473-16063-101457-41929-25866-25985-42047-61891-42047-101458s16181-75473 42047-101457c25984-25866 61890-41929 101457-41929h2126824c39567 0 75473 16063 101458 41929 25866 25984 41929 61890 41929 101457s-16063 75473-41929 101458c-25985 25866-61891 41929-101458 41929H4099867zm-36850-106536c9331 9213 22441 15236 36850 15236h2126824c14410 0 27520-6023 36851-15236 9213-9331 15236-22441 15236-36851 0-14409-6023-27520-15236-36850-9331-9331-22441-15237-36851-15237H4099867c-14409 0-27519 5906-36850 15237-9331 9330-15237 22441-15237 36850 0 14410 5906 27520 15237 36851zm36850-1995839c-39567 0-75473-16181-101457-42166-25866-25866-42047-61890-42047-101339 0-39567 16181-75591 42047-101457 25984-25984 61890-42048 101457-42048h2126824c39449 0 75473 16064 101458 42048 25630 26102 41929 62008 41929 101457s-16063 75473-41929 101339c-25985 25985-61891 42166-101458 42166H4099867zm-36850-106772c9331 9331 22441 15354 36850 15354h2126824c14410 0 27520-6023 36851-15354 9213-9213 15236-22441 15236-36733 0-14409-6023-27638-15118-36968-9449-9213-22677-15119-36969-15119H4099867c-14409 0-27519 5906-36850 15237-9331 9212-15237 22441-15237 36850 0 14292 5906 27520 15237 36733zm36850-1555758c-39449 0-75354-16299-101221-41929-26102-25985-42283-62008-42283-101457s16181-75473 42047-101340c25984-25984 61890-42165 101457-42165h591618c39567 0 75473 16181 101339 42165 25985 25867 42048 61891 42048 101340 0 39212-16300 75354-42048 101221-26102 25866-62126 42165-101339 42165h-591618zm-36968-106536c9449 9331 22559 15237 36968 15237h591618c14292 0 27520-5788 36851-15001 9330-9567 15236-22677 15236-37086 0-14292-6024-27520-15236-36851-9331-9213-22559-15236-36851-15236h-591618c-14409 0-27519 6023-36850 15236-9331 9331-15237 22559-15237 36851 0 14291 5906 27519 15119 36850zm36968 644414c-39449 0-75354-16300-101221-42048-26102-25866-42283-61890-42283-101339 0-39567 16181-75473 42047-101457 25984-25867 61890-42048 101457-42048h2126824c39567 0 75473 16181 101458 42048 25866 25984 41929 61890 41929 101457 0 39213-16299 75237-41929 101221-26221 25866-62245 42166-101458 42166H4099867zm-36968-106537c9449 9213 22559 15237 36968 15237h2126824c14410 0 27520-5906 36851-15000 9331-9567 15236-22796 15236-37087 0-14410-6023-27520-15236-36851-9331-9331-22441-15354-36851-15354H4099867c-14409 0-27519 6023-36850 15354s-15237 22441-15237 36851c0 14291 5906 27520 15119 36850zm36968 1768948c-39567 0-75473-16181-101457-42047-25866-25985-42047-61890-42047-101458 0-39449 16181-75472 42047-101339 25984-25984 61890-42047 101457-42047h2126824c39449 0 75473 16063 101458 42047 25630 26103 41929 61890 41929 101339 0 39568-16063 75473-41929 101458-25985 25866-61891 42047-101458 42047H4099867zm-36850-106654c9331 9331 22441 15354 36850 15354h2126824c14410 0 27520-6023 36851-15354 9213-9331 15236-22441 15236-36851 0-14291-6023-27519-15118-36968-9449-9095-22677-15119-36969-15119H4099867c-14409 0-27519 6024-36850 15237-9331 9331-15237 22559-15237 36850 0 14410 5906 27520 15237 36851zm3129586-4178175v762288c0 60473-12284 118465-34134 171261-22796 54804-56457 104646-97678 145867-41103 41221-90709 74646-145867 97442-52796 22086-110788 34370-171261 34370H3934866c-60354 0-118229-12284-171024-34252-54804-22678-104528-56221-145749-97560l-3425-3307c-79489-81378-128623-192285-128623-313821v-762288H2398952c-44883 0-87993 9095-126852 25276-40748 16772-77480 41693-108425 72520-30591 30709-55749 67796-72639 108308-16181 38976-25275 81969-25275 127087v7854260c0 45001 9094 88111 25275 126970 16890 40630 42048 77717 72639 108425 30945 30827 67677 55749 108189 72521 39095 16181 82205 25275 127088 25275h5880744c44882 0 87992-9094 126851-25275 40748-16772 77481-41694 108308-72521 30709-30708 55866-67795 72756-108425 16181-38859 25276-81969 25276-126970V2642260c0-45118-9095-88111-25276-127087-16890-40512-42047-77599-72756-108308-30827-30827-67560-55748-108072-72520-39095-16181-82205-25276-127087-25276H7192603zm-91300 762288v-853706h1178393c57166 0 111969 11575 161812 32481 52205 21614 99095 53268 137953 92244 38977 38977 70867 85867 92363 137836 20788 50079 32363 104882 32363 162048v7854260c0 57166-11575 111969-32363 162048-21496 51851-53386 98859-92363 137836-38858 38977-85748 70512-137953 92127-49843 21023-104646 32598-161812 32598H2398952c-57166 0-111970-11575-161931-32480-52087-21733-98977-53268-137835-92245-39095-38977-70867-85985-92363-137836-20787-50079-32480-104882-32480-162048V2642260c0-57166 11693-111969 32480-162048 21496-51969 53268-98859 92363-137836 38858-38976 85748-70630 137835-92126 49961-21024 104765-32599 161931-32599h1178511v853706c0 98150 40394 187678 105000 252285l3307 3307c32599 31890 70985 57402 113033 74883 41811 17362 87992 27047 136063 27047h2808797c48307 0 94489-9685 136300-27047 43583-17953 83032-44764 116221-77954 33071-32953 60000-72756 77953-116221 17363-41811 27166-88111 27166-136300zm-122245-762288H3699589v762288c0 31654 6378 62127 17835 89765 11929 28819 29528 54921 51142 76654 21851 21614 48071 39330 76654 51142 27402 11338 57993 17716 89646 17716h2808797c31772 0 62244-6378 89646-17835 28583-11811 54804-29527 76536-51260 21732-21850 39567-47835 51378-76417 11457-27638 17835-58111 17835-89765v-762288zm-3325178-91418h3416478v853706c0 43937-8859 85985-24922 124607-16771 40158-41102 76182-71102 106182-29882 29882-66024 54449-106064 70867-38504 16181-80670 25039-124607 25039H3934866c-43819 0-86103-8858-124725-24921-39803-16536-76063-40985-106063-70867-30001-30354-54450-66733-70867-106182-16181-38740-25040-80906-25040-124725v-853706h45709z"
    /><path
      class="fil3"
      d="M10967074 6637717v-161221h402995v161221h-402995zM6931223 1338197v-161103h402995v161103h-402995zm456735-214962V719178h161222v404057h-161222zm214962 53859h402995v161103h-402995v-161103zm-53740 214844v404175h-161222v-404175h161222zm3874629 5030817v-404175h161222v404175h-161222zm214962 53741h402995v161221h-402995v-161221zm-53740 214962v404176h-161222v-404176h161222z"
    /><ellipse
      class="fil2"
      cx="7880644"
      cy="8859322"
      rx="3089749"
      ry="3089736"
    /><path
      class="fil4"
      d="M7880599 5675586c879218 0 1675168 356340 2251313 932486 576145 576145 932486 1372094 932486 2251194 0 879218-356341 1675168-932486 2251313s-1372095 932486-2251313 932486c-879100 0-1675050-356341-2251195-932486s-932486-1372095-932486-2251313c0-879100 356341-1675049 932486-2251194 576145-576146 1372095-932486 2251195-932486zm2118320 1065478c-542129-542129-1291071-877446-2118320-877446s-1576191 335317-2118202 877446c-542129 542012-877446 1290953-877446 2118202s335317 1576309 877446 2118320c542011 542129 1290953 877446 2118202 877446s1576191-335317 2118320-877446c542129-542011 877446-1291071 877446-2118320s-335317-1576190-877446-2118202z"
    /><path
      class="fil3"
      d="M8957889 6971145c554767 0 1070794 166654 1500718 452601 55276 99095 105000 201497 148701 307088 143859 347365 223348 728627 223348 1128550 0 399806-79489 781068-223348 1128314-149292 360711-368624 685634-640633 957644-272128 272128-597051 491460-957644 640634-347364 143859-728627 223347-1128432 223347-246616 0-486263-30236-715162-87047-564806-497247-921265-1225638-921265-2037414 0-1498710 1214889-2713717 2713717-2713717z"
    /><path
      class="fil2"
      d="m7487408 9033126-670044 459451 982447 900714 1075755-900714-542720-477877z"
    /><path
      class="fil4"
      d="m7509022 9099504-584413 400750 877092 803982 970872-812840-464649-409254-798902 17362zm-729453 337797 686224-470672c297286-6024 594689-12874 891974-19370l620673 546617-1180401 988353-1088038-997329 69568-47599z"
    /><path
      class="fil5"
      d="m7522014 9140370-531617 364609 812367 744807 906619-759217-416695-367089-770674 16890zm-620555 326105 584413-400869c6378-4370 14055-6968 22323-7087l796777-17362c10630-827 21614 2599 30236 10158l468900 413742c14528 17363 12166 43347-5196 57875l-970872 812839c-15591 12874-38741 12638-53977-1299l-883352-811068c-12756-18661-7913-44291 10748-56929zm-145040-63072 686225-470672c6850-4724 14645-7086 22322-7204l891974-19253c10630-118 20434 3898 27875 10276l620791 546381c17008 15000 18779 41221 3661 58111-343585 327285-812249 680673-1184889 992722-16890 14056-41811 12520-56575-3543l-1085440-995085c-16653-15236-17834-41220-2598-57874l76654-53859zm722485-396026-703115 482247 1023313 938156 1116149-934730-572838-504452-863509 18779z"
    /><path
      class="fil2"
      d="M8875566 9492577c650200 0 1182172 531972 1182172 1182173v376892c-558547 554649-1327803 897407-2177139 897407-884533 0-1682254-371814-2245407-967565v-306734c0-650201 531853-1182173 1182172-1182173l982447 900714 1075755-900714z"
    /><path
      class="fil4"
      d="M8875566 9425372c343584 0 655988 140670 882288 366971 226419 226418 366971 538822 366971 882407v404530l-19961 19842c-290671 288664-637326 521224-1022250 679965-370868 152718-776816 237167-1202015 237167-443034 0-865045-91418-1247842-256419-397562-171261-753076-422129-1046463-732406l-18308-19488v-333191c0-343585 140553-655989 366971-882407 226419-226301 538704-366971 882407-366971h25512l958825 878864 1049652-878864h24213zm787445 461932c-196891-196773-466420-320907-763587-327285l-1101385 922210-1006069-922092c-296576 6614-565633 130748-762052 327167-202087 202088-327639 480830-327639 787446v280041c277088 287954 610869 521223 983510 681736 366262 157915 770319 245317 1194810 245317 408073 0 796776-80552 1151109-226655 359648-148230 684571-364018 958825-631421v-349018c0-306616-125552-585358-327522-787446z"
      style="stroke:#bc955c;stroke-width:90000.5;stroke-linecap:round;stroke-linejoin:round"
    /><ellipse
      class="fil2"
      cx="7845816"
      cy="7994589"
      rx="1114993"
      ry="1209035"
    /><path
      class="fil4"
      d="M7845874 6718387c327286 0 623508 143623 837643 375947 212836 230671 344530 549098 344530 900242s-131694 669571-344530 900360c-214135 232206-510357 375829-837643 375829-327403 0-623626-143623-837761-375829-212836-230789-344529-549216-344529-900360s131693-669571 344529-900242c214135-232324 510358-375947 837761-375947zm739021 466657c-189332-205277-450712-332365-739021-332365-288427 0-549806 127088-739138 332365-190749 206812-308742 492995-308742 809532s117993 602720 308742 809532c189332 205277 450711 332365 739138 332365 288309 0 549689-127088 739021-332365 190749-206812 308742-492995 308742-809532s-117993-602720-308742-809532z"
    /><path
      class="fil2"
      d="M7845874 6785592c615713 0 1114968 541185 1114968 1208984 0 46654-576382 190985-1437647-271891-315238-169372-792406 303308-792406 271891 0-667799 499255-1208984 1115085-1208984z"
    /><path
      class="fil4"
      d="M7845874 6718387c327286 0 623508 143623 837643 375947 212836 230671 344530 549098 344530 900242 0 12402-3189 24449-9449 35788-13937 25157-59292 52795-129213 68150-54922 12165-131576 21496-226065 21496-260080-236-669925-68623-1171897-338270-208820-112205-530318 130040-659177 227127-43701 33071-72166 54331-99922 54331-44764 0-68740-21850-68740-68622 0-351144 131693-669571 344529-900242 214135-232324 510358-375947 837761-375947zm739021 466657c-189332-205277-450712-332365-739021-332365-288427 0-549806 127088-739138 332365-163702 177520-273781 413506-301774 676893 171498-125670 495122-335198 749887-198308 478585 257246 864808 322325 1108471 322325 85513-236 151655-8032 197127-18071 17126-3780 27048-2244 32835-1063-6614-305435-123190-580988-308387-781776z"
    /><path
      class="fil3"
      d="M8122963 9048362c339214-207285 568349-601421 568349-1053786s-229135-846619-568468-1053786c35552 11103 70158 24331 103938 39449 121891 54804 232206 135473 324569 235631 93190 101103 168544 222285 219804 356932 49371 129567 76773 272246 76773 421774 0 149647-27402 292325-76773 421892-51260 134529-126614 255711-219804 356813-92363 100277-202678 180946-324687 235632-33662 15118-68268 28346-103701 39449z"
    /><path
      class="fil5"
      d="M7845874 6672678c166891 0 326341 36024 471854 101339 150591 67560 286537 166773 399451 289372 112087 121536 202678 267049 264332 428389 59410 155079 92127 325159 92127 502798 0 19843-5079 39567-15119 57638-11574 20906-34134 41339-65433 57874-24803 13111-56811 25040-93898 33072-31300 6732-68977 12756-111143 16771-38031 3544-79961 5906-124725 5906-149056-473-346419-22559-580161-89883-183308-52795-389766-133937-613350-254056-88583-47599-207285-17244-318309 36024-117993 56457-228781 139843-291852 187442-23504 17598-43111 32362-60237 42402-23031 13464-44409 21259-67205 21259-34961 0-63189-10039-83622-30590-20079-20079-30591-48071-30591-83859 0-177639 32717-347719 92126-502798 61654-161340 152245-306853 264333-428389 113032-122599 248859-221812 399569-289372 145395-65315 304844-101339 471853-101339zm434649 184490c-133702-60001-280632-93072-434649-93072-154134 0-301065 33071-434766 93072-138899 62244-264451 154134-369451 267993-104410 113269-188741 248742-246262 398979-55394 144804-86102 303900-86102 470436 0 10394 1417 16890 3779 19252 2480 2480 9095 3780 19134 3780 4843 0 12047-3189 20906-8268 14882-8977 31772-21733 51732-36733 65434-49370 180474-136063 307325-196773 133938-64252 280750-98858 400751-34252 218032 117048 418349 195828 595397 246852 169843 48898 648547 143859 842249 41103 15354-8150 24803-15473 28229-21142 2244-4252 3543-9095 3543-13819 0-166536-30709-325632-86103-470436-57402-150237-141851-285710-246261-398979-105001-113859-230553-205749-369451-267993zm270828 358702c-92363-100158-202678-180827-324569-235631-117284-52677-246025-81851-380908-81851-134882 0-263741 29174-380908 81851-122244 54804-232324 135473-324687 235631-79724 86458-146339 187561-195827 298821-34725 77953-61418 161458-78544 248860 76654-50906 168780-104764 266694-141851 145041-55158 302482-74056 443861 1771 207757 111615 397798 186616 565043 235277 211773 61536 388703 81497 521814 81497 37796 236 72520-1535 103111-4370 30827-2717 57638-6851 79725-11457-7323-128268-35197-250986-79725-363900-51024-129567-124607-246497-215080-344648zm-287364-318781c133702 60118 254057 148111 354569 257009 97914 106182 177521 232797 232797 373231 53150 134765 84095 282994 87402 438664l1299 57874c-139371 104647-428743 74292-823824-77598-173505-50434-369569-127796-582995-242364-113387-60945-245199-43701-368507 3071-128859 49016-249332 130631-332718 191694l-83268 61181 10984-102756c14173-134410 49252-262561 101575-379609 53623-120709 125670-230080 211773-323388 100513-108898 220750-196891 354451-257009 128977-57992 270474-90001 418349-90001 147757 0 289136 32009 418113 90001z"
    /><path
      class="fil3"
      d="M8528201 7933985c-21023-458625-277560-849926-641224-1034652 120001 5315 234450 33662 339805 80906 121891 54804 232206 135473 324569 235631 90473 98151 164056 215081 215080 344648 44528 112914 72402 235632 79725 363900-22087 4606-48898 8740-79725 11457-30591 2835-65315 4606-103111 4370-40984 0-86103-1772-135119-6260zm-1645285-244253c35551-4607 70748-5197 105000-473-43701 23977-84567 49489-122008 74292 4842-24921 10630-49489 17008-73819zM9800374 11140934v-368152c0-556893-390356-1027093-911108-1150519l24686-20788c134646 4843 263623 35079 381734 85513 126969 54449 241773 132875 338152 229371 99331 99213 179410 217679 233978 349018 52441 125906 81496 264569 81496 409373v331891c-48071 46300-97796 91182-148938 134293zM8184144 9265568c36614 99331 56811 206812 56811 318900 0 127559-25984 248977-72992 359411l541420-453310-340513-299883c-16890 8504-34016 16771-51261 24567-43346 19370-87874 36260-133465 50315zm-492641 2569504c13111-5670-132756 12874-128150-21260 53977-403940 74882-791344 3543-1306780-24213-175158-576499-518153-902249-709374-186143-109253-469373 72402-767722 325514 45473-75355 100040-144804 162049-206813 96260-96260 210946-174804 337797-229135 117520-50433 245907-80670 379963-85749l914769 838824v1394773z"
    /><path class="fil4" d="M7867016 10393291v1554695h-134292v-1554695z" /><path
      class="fil5"
      d="M7908119 10393291v1554695c0 22795-18426 41220-41103 41220h-134410c-22677 0-41103-18425-41103-41220v-1554695c0-22677 18426-41102 41103-41102h134410c22677 0 41103 18425 41103 41102zm-82324 1513592v-1472489h-51968v1472489h51968zM7845874 6672678c166891 0 326341 36024 471854 101339 150591 67560 286537 166773 399451 289372 112087 121536 202678 267049 264332 428389 59410 155079 92127 325159 92127 502798s-32717 347837-92127 502916c-61654 161340-152245 306735-264332 428271-112914 122717-248860 221694-399570 289490-145394 65197-304844 101221-471735 101221-167009 0-326458-36024-471735-101221-150828-67796-286655-166773-399687-289490-112088-121536-202679-266931-264333-428271-59409-155079-92126-325277-92126-502916s32717-347719 92126-502798c61654-161340 152245-306853 264333-428389 113032-122599 248859-221812 399569-289372 145395-65315 304844-101339 471853-101339zm434649 184490c-133702-60001-280632-93072-434649-93072-154134 0-301065 33071-434766 93072-138899 62244-264451 154134-369451 267993-104410 113269-188741 248742-246262 398979-55394 144804-86102 303900-86102 470436s30708 325632 86102 470436c57521 150237 141852 285828 246262 398979 104882 113859 230434 205631 369569 268112 133583 59882 280514 93071 434648 93071 154017 0 300947-33189 434530-93071 139135-62481 264687-154253 369570-268112 104410-113151 188859-248742 246261-398979 55394-144804 86103-303900 86103-470436s-30709-325632-86103-470436c-57402-150237-141851-285710-246261-398979-105001-113859-230553-205749-369451-267993zm270828 358702c-92363-100158-202678-180827-324569-235631-117284-52677-246025-81851-380908-81851-134882 0-263741 29174-380908 81851-122244 54804-232324 135473-324687 235631-93189 101103-168544 222167-219804 356814-49370 129567-76772 272245-76772 421892s27402 292325 76772 422010c51260 134529 126615 255593 219804 356695 92363 100277 202443 180946 324569 235632 117285 52677 246144 81851 381026 81851 134883 0 263624-29174 380790-81851 122009-54686 232324-135355 324687-235632 93190-101102 168544-222284 219804-356813 49371-129567 76773-272245 76773-421892 0-149528-27402-292207-76773-421774-51260-134647-126614-255829-219804-356932zm-287364-318781c133702 60118 254057 148111 354569 257009 100867 109607 182482 240711 237994 386223 53150 139844 82795 293506 82795 454255 0 160867-29645 314411-82795 454255-55512 145631-137127 276734-237994 386223-100512 109016-220867 197009-354569 257009-128977 57992-270356 90119-418113 90119-147875 0-289372-32127-418349-90119-133701-60000-253938-147993-354451-257009-100866-109371-182363-240474-237875-386105-53268-139844-82914-293506-82914-454373s29646-314529 82914-454373c55512-145513 137009-276616 237875-386105 100513-108898 220750-196891 354451-257009 128977-57992 270474-90001 418349-90001 147757 0 289136 32009 418113 90001z"
    /><path
      class="fil4"
      d="M8875566 9425372c343584 0 655988 140670 882288 366971 226419 226418 366971 538822 366971 882407v404530l-19961 19842c-290671 288664-637326 521224-1022250 679965-370868 152718-776816 237167-1202015 237167-443034 0-865045-91418-1247842-256419-397562-171261-753076-422129-1046463-732406l-18308-19488v-333191c0-343585 140553-655989 366971-882407 226419-226301 538704-366971 882407-366971h25512l958825 878864 1049652-878864h24213zm787445 461932c-196891-196773-466420-320907-763587-327285l-1101385 922210-1006069-922092c-296576 6614-565633 130748-762052 327167-202087 202088-327639 480830-327639 787446v280041c277088 287954 610869 521223 983510 681736 366262 157915 770319 245317 1194810 245317 408073 0 796776-80552 1151109-226655 359648-148230 684571-364018 958825-631421v-349018c0-306616-125552-585358-327522-787446z"
    /><path
      class="fil5"
      d="M7880599 5629877c437129 0 854415 87166 1234850 244726 395435 163701 751304 403821 1048707 701224 297403 297404 537523 653272 701225 1048707 157560 380436 244726 797722 244726 1234850 0 437011-87166 854297-244726 1234732-163702 395436-403822 751304-701225 1048826-297640 297639-653390 537522-1048471 701224-380671 157560-797957 244608-1235086 244608-437011 0-854297-87048-1234732-244608-395435-163702-751304-403703-1048825-701224-297522-297522-537523-653390-701225-1048590-157560-380671-244608-797957-244608-1234968 0-437128 87048-854414 244608-1234850 163702-395317 403585-751067 701225-1048707 584413-584413 1391937-945950 2283557-945950zm1200362 328939c-369452-153072-775045-237640-1200362-237640-866462 0-1651073 351380-2218951 919258-289371 289254-522640 635083-681618 1018825-152954 369333-237521 774926-237521 1200125 0 425200 84567 830557 237403 1200008 159214 383742 392365 729571 681736 1018943 289372 289372 635083 522523 1018944 681618 369333 152836 774807 237403 1200007 237403 425199 0 830792-84567 1200125-237285 383743-159095 729572-392364 1018825-681736 289490-289490 522878-635319 681619-1018825 153071-369333 237639-774808 237639-1200126 0-425317-84568-831028-237639-1200361-158741-383506-392129-729217-681619-1018589-289371-289490-635082-522877-1018588-681618zm885714 814493c-272128-272010-596933-491342-957526-640634-347364-143859-728626-223348-1128550-223348-399806 0-781068 79489-1128432 223230-360475 149410-685398 368624-957644 640752-533625 533625-863981 1271346-863981 2086075 0 399806 79488 780950 223347 1128196 149411 360829 368625 685752 640516 957762 272246 272128 597169 491460 957880 640752 347246 143741 728508 223229 1128314 223229 399805 0 781068-79488 1128432-223347 360593-149174 685516-368506 957644-640634 272009-272010 491341-596933 640633-957644 143859-347246 223348-728508 223348-1128314 0-399923-79489-781185-223348-1128550-149292-360593-368624-685398-640633-957525zm-923038-724847c372404 154135 707485 380199 987526 660240 280159 280041 506224 615240 660358 987644 148466 358467 230435 751304 230435 1163038 0 411617-81969 804454-230435 1162921-154134 372404-380199 707603-660358 987644-280041 280041-615240 506223-987644 660358-358466 148465-751303 230434-1162920 230434s-804572-81969-1162802-230316c-372286-154135-707367-380317-987526-660476-280395-280514-506578-615713-660595-987762-148465-358467-230434-751186-230434-1162803 0-839887 340514-1600403 890793-2150682 280277-280159 615358-506105 987643-660358 358349-148348 751304-230317 1162921-230317 411735 0 804572 81969 1163038 230435z"
    /></g></svg>
