<svg
  xmlns="http://www.w3.org/2000/svg"
  xml:space="preserve"
  width="140"
  height="120"
  style="shape-rendering:geometricPrecision;text-rendering:geometricPrecision;image-rendering:optimizeQuality;fill-rule:evenodd;clip-rule:evenodd"
  viewBox="0 0 14000000 11999899"
><defs><style>.fil3{fill:#bc955c}.fil2{fill:#f0e2c8}</style></defs><g
    id="Capa_x0020_1"
  ><g id="_923621168"><path
        d="M5139743 5571795c1498954 0 2714204 1215132 2714204 2714086 0 1498953-1215250 2714203-2714204 2714203S2425657 9784834 2425657 8285881c0-1498954 1215132-2714086 2714086-2714086zM8887541 999814c961310 0 1740610 779301 1740610 1740611s-779300 1740610-1740610 1740610c-961192 0-1740492-779300-1740492-1740610S7926349 999814 8887541 999814z"
        style="fill:#f9f5ed"
      /><path
        d="m4731786 8797658 361421-1312574c41693-152718 3898-160632-66143-287483-142442-258310-266459-644535-315121-942649-201499-1232376 323862-2347821 1135288-2991293 935680-741977 2136993-906625 3255391-441974 189923 79017 387406 189097 542014 298350 294334 208113 621503 531266 823828 825718 104647 152364 215081 355280 294807 545085 1106114 2632470-1535333 5231279-4122684 4170637-376422-154371-365910-245199-579220-182836-383744 112206-913120 288310-1290487 355988-46299-3425-33189 8976-39094-36969z"
        style="fill:#fff"
      /><path
        class="fil2"
        d="m4731786 8797658 355870-1292377 9567 3898c2587470 1060760 5228917-1538049 4122684-4170519-79725-189924-190042-392839-294807-545203-12047-17481-24567-35316-37441-53032 71930 24567 143624 51614 214963 81260 189923 79017 387406 189097 542014 298350 294334 208113 621503 531266 823828 825718 104647 152364 215081 355280 294807 545085 1106114 2632470-1535333 5231279-4122684 4170637-376422-154371-365910-245199-579220-182836-383744 112206-913120 288310-1290487 355988-46299-3425-33189 8976-39094-36969z"
      /><path
        class="fil3"
        d="m4731786 8797658 361421-1312574c41693-152718 3898-160632-66143-287483-142442-258310-266341-644535-315121-942649-201380-1232376 323862-2347940 1135288-2991411 935680-741859 2136993-906507 3255391-441856 189923 79017 387406 189097 542014 298350 294334 208113 621503 531266 823828 825718 104647 152364 214963 355280 294807 545085 1106114 2632470-1535333 5231279-4122684 4170637-376422-154371-365910-245199-579101-182836-383863 112206-913239 288310-1290606 355988-46299-3425-33307 8976-39094-36969zm2980309-1730098c-479533 209057-175160 854773 274255 679732 439138-171026 175395-875797-274255-679732zm-17481-3281021c-419060 63662-734536 355279-841072 733000-62954 222995-58347 469139 147757 539888 354217 121655 379375-323035 389414-368626 103230-465950 765127-464887 892569-43701 140199 463706-372760 758630-552171 1027216-100041 149883-183664 390004-167601 613707 15473 216263 244964 375123 444336 222523 166537-127443 80198-363548 218979-564928l386343-425202c617959-746819 38858-1879391-918554-1733877zM4109219 5841089c0 327878 70395 669339 157798 967806 153899 525125 296105 503156 207049 814616-83623 292562-158388 552762-240711 850521-83741 302484-218152 626346 6968 849104 220751 218389 574613 84214 872963-118 279216-78780 572369-152954 854419-237404 367091-109962 576030 368508 1986046 368508 1906675 0 3620592-1709665 3620592-3613033v-223585c0-1917777-1708838-3612915-3620592-3612915h-224058c-1907738 0-3620474 1709193-3620474 3612915v223585z"
      /><path
        class="fil3"
        d="M7694614 3786539c-419060 63780-734536 355279-841072 733000-62954 222995-58347 469139 147757 539888 354217 121655 379375-323035 389414-368626 103230-465950 765127-464887 892569-43820 140199 463825-372760 758749-552171 1027335-100041 149883-183664 390004-167601 613707 15473 216145 244846 375123 444336 222523 166537-127443 80198-363548 219097-564928l386225-425202c617959-746819 38977-1879391-918554-1733877zM7712095 7067560c-479415 209057-175160 854773 274255 679732 439138-171026 175513-875797-274255-679732z"
      /><path
        class="fil2"
        d="M3782995 2970860v-120474h301185v120474h-301185zm6643067 6224243v-120473h301185v120473h-301185zm341343-160631v-302012h120473v302012h-120473zm160631 40158h301185v120473h-301185v-120473zm-40158 160513v302130h-120473v-302130h120473zM4124338 2810228v-302011h120474v302011h-120474zm160631 40158h301185v120474h-301185v-120474zm-40157 160632v302011h-120474v-302011h120474z"
      /></g></g></svg>
