<svg
  xmlns="http://www.w3.org/2000/svg"
  xml:space="preserve"
  width="158"
  height="65"
  style="shape-rendering:geometricPrecision;text-rendering:geometricPrecision;image-rendering:optimizeQuality;fill-rule:evenodd;clip-rule:evenodd"
  viewBox="0 0 15800000 6499907"
><path
    d="m3075503 6500025-626345-698392 383154-426264s33780-50316 77363 0l972883 1124656h-807055zm-1991122 0 540360-629533 993198-1107531-383153-426146s-33662-50434-77127 0L1001703 5673009h-4252l-717645 827016h804575zm7249324 0-626345-698392 383036-426264s33898-50316 77363 0l972883 1124656h-806937zm-1991240 0 540360-629533 993198-1107531-383153-426146s-33662-50434-77127 0L6259787 5673009h-4252l-717645 827016h804575zm7249324 0-626345-698392 383154-426264s33779-50316 77363 0l972765 1124656h-806937zm-1991240 0 540359-629533 993317-1107531-383271-426146s-33662-50434-77127 0l-1155838 1336194h-4370l-717645 827016h804575zm3521019-2233959-1162925-1354974-993199-1107531 383154-426264s33779-50315 77363 0l1155720 1336195h4252l997451 1149578-356342 402996c-54332 61418-105474 0-105474 0zm0 1964902-1162925-1354856-993199-1107649 383154-426146s33779-50434 77363 0l1155720 1336194h4252l997451 1149460-356342 402997c-54332 61418-105474 0-105474 0zm-4143585-3003574 1162925-1354974 993317-1107530-383271-426146s-33662-50434-77127 0l-1155838 1336076h-4370l-997451 1149578 356342 402996c54449 61418 105473 0 105473 0zm0 2119864 1162925-1354856 993317-1107531-383271-426264s-33662-50315-77127 0l-1155838 1336195h-4370l-997451 1149460 356342 402996c54449 61536 105473 0 105473 0zM9863484 4266066 8700559 2911092l-993199-1107531 383036-426264s33898-50315 77363 0l1155838 1336195h4252l997451 1149578-356342 402996c-54450 61418-105474 0-105474 0zm0 1964902L8700559 4876112l-993199-1107649 383036-426146s33898-50434 77363 0l1155838 1336194h4252l997451 1149460-356342 402997c-54450 61418-105474 0-105474 0zM5719900 3227394l1162925-1354974 993198-1107530-383153-426146s-33662-50434-77127 0L6259787 1674820h-4252l-997451 1149578 356342 402996c54449 61418 105474 0 105474 0zm0 2119864 1162925-1354856 993198-1107531-383153-426264s-33662-50315-77127 0L6259787 3794802h-4252l-997451 1149460 356342 402996c54449 61536 105474 0 105474 0zM4605400 4266066 3442475 2911092l-993199-1107531 383036-426264s33898-50315 77363 0l1155838 1336195h4252l997451 1149578-356342 402996c-54332 61418-105474 0-105474 0zm0 1964902L3442475 4876112l-993199-1107649 383036-426146s33898-50434 77363 0l1155838 1336194h4252l997451 1149460-356342 402997c-54332 61418-105474 0-105474 0zM461816 3227394l1162925-1354974 993198-1107530-383153-426146s-33662-50434-77127 0L1001821 1674820h-4370L0 2824398l356342 402996c54449 61418 105474 0 105474 0zm0 2119864 1162925-1354856 993198-1107531-383153-426264s-33662-50315-77127 0L1001821 3794802h-4370L0 4944262l356342 402996c54449 61536 105474 0 105474 0z"
    style="fill:#691c20;fill-rule:nonzero"
  /></svg>
