<svg
  id="Registro_on"
  data-name="Registro on"
  xmlns="http://www.w3.org/2000/svg"
  viewBox="0 0 192.65578 140"
><defs><style
    >.cls-1{fill:#e9efed;}.cls-1,.cls-3,.cls-4{fill-rule:evenodd;}.cls-2,.cls-4{fill:#fff;}.cls-3{fill:#eef3f1;}.cls-5{fill:#235b4e;}</style></defs><title
  >icono_registro_MTV_on</title><g id="Capa_1"><path
      class="cls-1"
      d="M293.02843,164.34515a30.35857,30.35857,0,1,1-30.35773,30.35773A30.35758,30.35758,0,0,1,293.02843,164.34515Zm151.55565,28.78579v-1.6083h4.02158v1.6083ZM336.00962,262.807v-1.6083h4.02323v1.6083Zm4.55878-2.1455v-4.03316h1.61v4.03316Zm2.14551.5372h4.02157v1.6083h-4.02157Zm-.53556,2.14551v4.03315h-1.61v-4.03315Zm106.96451-72.35874v-4.03315h1.6083v4.03315Zm2.14386.5372H455.31v1.6083h-4.02323Zm-.53556,2.14551v4.03315h-1.6083v-4.03315ZM313.91819,133.556v-1.6083h4.02158v1.6083Zm4.55879-2.14551v-4.03315h1.60829v4.03315Zm2.1455.53721h4.02158v1.6083h-4.02158Zm-.53721,2.14385v4.03315H318.477v-4.03315Zm76.744-6.663a17.074,17.074,0,1,1-17.07644,17.07477A17.07358,17.07358,0,0,1,396.82923,127.42858ZM434.964,215.73479A20.36164,20.36164,0,1,1,414.6032,236.0956,20.36232,20.36232,0,0,1,434.964,215.73479Z"
      transform="translate(-262.6707 -127.37733)"
    /><rect
      class="cls-2"
      x="28.7117"
      y="17.12541"
      width="144.90626"
      height="103.26326"
      rx="5.59789"
    /><path
      class="cls-3"
      d="M290.97715,231.93682a28.19487,28.19487,0,0,0,3.88769.26943h27.91637a22.343,22.343,0,0,1,27.12461-35.381,23.78108,23.78108,0,0,1,1.22481,2.529,24.32274,24.32274,0,0,1-13.159,31.74125,23.971,23.971,0,0,1-3.367,1.11077H389.7084a28.31085,28.31085,0,0,0,28.22712-28.22711v-51.3632a27.93888,27.93888,0,0,0-.805-6.68279h13.66478a3.815,3.815,0,0,1,3.82653,3.82653v92.51293a3.81779,3.81779,0,0,1-3.82653,3.82653H294.802a3.815,3.815,0,0,1-3.82489-3.82653Z"
      transform="translate(-262.6707 -127.37733)"
    /><rect
      class="cls-2"
      x="107.30708"
      y="50.16686"
      width="53.43645"
      height="40.19865"
      rx="2.79856"
    /><path
      class="cls-3"
      d="M372.72619,211.49171h33.28672a9.03741,9.03741,0,0,0,9.01178-9.01178V180.29428h4.7274a.87056.87056,0,0,1,.64134.26943.9154.9154,0,0,1,.27108.64629v32.86855a.9258.9258,0,0,1-.91242.91573H373.64356a.91926.91926,0,0,1-.648-.27109.91.91,0,0,1-.26941-.64464Z"
      transform="translate(-262.6707 -127.37733)"
    /><path
      class="cls-4"
      d="M328.39456,191.57058c5.06954,0,9.18038,4.45631,9.18038,9.95395a10.10486,10.10486,0,0,1-4.78359,8.74071l4.08109,3.59347a9.7598,9.7598,0,0,1,9.73246,9.73246v3.10421a25.43537,25.43537,0,0,1-36.41242-.57853v-2.52568a9.7612,9.7612,0,0,1,9.73411-9.73246l4.72739-3.24139a10.02162,10.02162,0,0,1-5.4398-9.09279C319.21418,196.02689,323.325,191.57058,328.39456,191.57058Z"
      transform="translate(-262.6707 -127.37733)"
    /><path
      class="cls-3"
      d="M344.4875,227.42928v-3.02982a9.77327,9.77327,0,0,0-7.50265-9.47295l.2033-.1719a8.78138,8.78138,0,0,1,3.14388.7058,8.90978,8.90978,0,0,1,4.7092,4.76209,8.72021,8.72021,0,0,1,.67274,3.36867v2.73395C345.31728,226.7053,344.90734,227.07555,344.4875,227.42928Zm-10.47462-26.40393a9.99855,9.99855,0,0,0-5.27946-8.51755,7.65361,7.65361,0,0,1,1.94218.3405l.00662.00166.00826.00495.04958.01488h.00332l.08264.0281.01322.005.081.02645.0281.00992.01653.00661.043.01653.03472.01157.02313.00827.005.00331.03307.01157.02313.00826.01653.0066.01157.005.01653.005.00662.00331.02479.00992.02314.00992.005.00165.01652.00661.0215.00827.03636.01488.01322.00495.005.0033.01157.00332.01818.00826.04793.01983.01655.00827.04793.01983.06611.02975a8.24267,8.24267,0,0,1,2.67113,1.9389l.124.13884.02808.03141.0496.0562.038.04463.00827.00991.04958.0595.04794.05951.09918.12066.038.0496.12892.1719.05125.06778.01983.02808.13884.19837.01488.02313.14877.2281.02645.04133.18842.31736.01158.01984.05785.10579.01653.0281c.07438.13719.14711.276.21488.4182l.09753.20992.01652.03636.01653.038.043.09752.09586.238.11076.29588.00826.01818.13058.39835.02315.081.01321.03966.01488.05125.02314.08761.00166.005.02645.10248a9.73322,9.73322,0,0,1,.30578,1.91576h-.00165c.00992.19172.01653.38512.01653.58016a9.75783,9.75783,0,0,1-.63307,3.47282,9.13887,9.13887,0,0,1-1.81,2.93726,8.23653,8.23653,0,0,1-2.67278,1.94054,7.69769,7.69769,0,0,1-.85457.324,10.11046,10.11046,0,0,0,4.67945-8.6746c0-.15041-.005-.30248-.00991-.44959l-.21984.00165C334.78809,201.07824,334.41619,201.06171,334.01288,201.02535Zm1.8645-3.31247.13554.33885.07108.19505Zm-4.69763,14.27636a7.60089,7.60089,0,0,1-.13224,5.58527l4.45631-3.73232-2.80338-2.46949c-.13884.07108-.27933.13885-.42149.20165A9.44436,9.44436,0,0,1,331.17975,211.98924Zm-4.0563,21.15588c.00992-.00331.00992-.00661,0-.00827Zm0-.00827c-.08926-.01488-1.08927.09092-1.05456-.167a37.36145,37.36145,0,0,0,.02975-10.75892c-.2-1.44136-4.74723-4.26623-7.42828-5.84147-1.53392-.89754-3.8662.59671-6.32246,2.68106a9.00928,9.00928,0,0,1,1.33392-1.70251,8.904,8.904,0,0,1,2.78187-1.88765,8.79915,8.79915,0,0,1,3.129-.7058l7.53075,6.90759v11.47465Z"
      transform="translate(-262.6707 -127.37733)"
    /><path
      class="cls-5"
      d="M295.374,142.50661H432.29783a5.96623,5.96623,0,0,1,4.22159,1.75707l.03636.03637a5.96838,5.96838,0,0,1,1.729,4.19349v95.28158a5.96335,5.96335,0,0,1-1.75707,4.22159l-.03637.03636a5.96836,5.96836,0,0,1-4.19349,1.729H295.374a5.97015,5.97015,0,0,1-4.22325-1.75706l-.03636-.03636a5.971,5.971,0,0,1-1.72731-4.19349V148.49354a5.97457,5.97457,0,0,1,1.75542-4.22159l.038-.03636A5.95943,5.95943,0,0,1,295.374,142.50661Zm33.30656,39.54805a26.61569,26.61569,0,1,1-18.80209,7.78861A26.51538,26.51538,0,0,1,328.68051,182.05466Zm-.286,8.58532a9.45493,9.45493,0,0,1,3.88439.83473,10.10282,10.10282,0,0,1,3.28933,2.38353,10.96041,10.96041,0,0,1,2.17692,3.52735,11.55793,11.55793,0,0,1,.75869,4.14059v.02976a11.551,11.551,0,0,1-.75869,4.10918,10.97806,10.97806,0,0,1-2.17692,3.52737,10.37923,10.37923,0,0,1-1.29755,1.18846l2.8199,2.48269a10.5981,10.5981,0,0,1,3.87447.81491,10.80776,10.80776,0,0,1,5.82163,5.82162,10.62223,10.62223,0,0,1,.81655,4.091v.28266a24.30225,24.30225,0,1,0-38.39926-.71077,10.62786,10.62786,0,0,1,.80829-3.66289,10.82644,10.82644,0,0,1,5.82-5.82162,10.59925,10.59925,0,0,1,3.97364-.81656l3.15049-2.162a10.23678,10.23678,0,0,1-1.73557-1.50747,11.011,11.011,0,0,1-2.17857-3.52737,11.53837,11.53837,0,0,1-.757-4.09926v-.03968a11.593,11.593,0,0,1,.757-4.14059,10.99324,10.99324,0,0,1,2.17857-3.52735,10.10282,10.10282,0,0,1,3.28933-2.38353A9.45493,9.45493,0,0,1,328.39456,190.64Zm4.30588,20.73272c-.13884.06943-.27933.13885-.42314.20165a9.4552,9.4552,0,0,1-7.57208.086L321.439,213.9l6.60512,6.053,7.38034-6.182Zm-3.79182,10.45314v11.1077a24.19026,24.19026,0,0,0,16.69957-6.86958v-2.47279a8.68071,8.68071,0,0,0-.66282-3.329,8.83007,8.83007,0,0,0-4.65632-4.7059,8.63518,8.63518,0,0,0-3.06288-.69422l-1.88765,1.57854-1.119.94052Zm-1.78517,11.05977V221.806l-7.57208-6.94231a8.64472,8.64472,0,0,0-3.048.69587,8.81237,8.81237,0,0,0-4.6497,4.7026,8.64963,8.64963,0,0,0-.66282,3.329v1.90914l.31239.319a24.20214,24.20214,0,0,0,15.62021,7.06629Zm9.4366-30.047c-.12894.01818-.26613.03471-.40829.04793-.3124.0281-.65787.04793-1.02646.04793a17.58362,17.58362,0,0,1-4.777-.7405,25.7365,25.7365,0,0,1-5.0497-2.091,3.017,3.017,0,0,0-2.6199.29588,14.59827,14.59827,0,0,0-2.40337,1.54384l-.119.08926a9.72,9.72,0,0,0,.61985,2.967,9.10985,9.10985,0,0,0,1.81,2.93726,8.21273,8.21273,0,0,0,2.67114,1.94054,7.63062,7.63062,0,0,0,6.27287,0,8.23653,8.23653,0,0,0,2.67278-1.94054,9.13887,9.13887,0,0,0,1.81-2.93726A9.742,9.742,0,0,0,336.56005,202.83862Zm-15.79212-4.76706-.081.21985-.01323.03966-.01652.04793-.01653.05125-.01158.03636-.0314.09091-.05785.19009-.005.01983-.0248.08761-.0066.0248-.076.28926-.01157.04463-.08761.39671-.00165.00991v.0033a11.15155,11.15155,0,0,1,2.19509-1.16861,4.32663,4.32663,0,0,1,3.65463.01486,24.32032,24.32032,0,0,0,4.653,1.93725,15.601,15.601,0,0,0,4.296.67108c.31075.00166.59836-.01321.84794-.03636a5.48172,5.48172,0,0,0,.65622-.09586,9.87258,9.87258,0,0,0-.33554-2.03477l-.03472-.12728-.01321-.03966-.02315-.081-.13058-.39835-.00826-.01818-.11076-.29588c-.08429-.21654-.1785-.42977-.27933-.63969-.086-.17852-.17687-.35207-.27273-.52233l-.0182-.0314-.10082-.1719-.01487-.0248-.076-.12231-.05125-.08431-.10743-.162-.043-.06282-.25951-.362-.038-.04793-.07273-.09421-.08264-.10414-.06611-.07934-.14877-.17356-.06778-.076-.0347-.03968-.0281-.0314-.00828-.00826-.0066-.00662-.0529-.05785-.04131-.043-.05786-.05951-.043-.04463-.01652-.01486-.11076-.11075c-.10909-.10744-.22313-.20993-.33719-.31076l-.01818-.01653-.10248-.08761-.01488-.01156-.10248-.086-.05951-.04628-.19009-.14712-.02479-.01983-.32067-.2248-.06446-.043-.01653-.01158-.01158-.0066-.07108-.04463-.09421-.05951-.11239-.06943-.13389-.07768-.0314-.01653-.10249-.05785-.12066-.06446-.16695-.08266-.0876-.04463-.15869-.07273a7.63446,7.63446,0,0,0-6.27452,0,8.20784,8.20784,0,0,0-2.67114,1.9389l-.03967.043-.06116.06778-.04628.05455-.04463.04959-.04628.05455-.07273.08759-.0215.0248-.04463.05455-.01321.01653a9.15909,9.15909,0,0,0-.77688,1.1339l-.01322.02315-.15207.27273v.0033l-.05125.09588-.00661.01488-.11571.22975-.00165.005-.01653.03472-.01983.043-.01487.02975-.02645.05784-.03306.07605-.01157.02478-.0281.06446-.06612.157-.02149.05288-.03966.09919Zm49.20777,40.29186a1.49673,1.49673,0,0,1,0-2.99346h53.43763a1.49673,1.49673,0,1,1,0,2.99346Zm0-9.01508a1.49674,1.49674,0,0,1,0-2.99347h53.43763a1.49674,1.49674,0,1,1,0,2.99347Zm1.99674-53.30044h49.4458a3.49611,3.49611,0,0,1,3.49265,3.49265V215.748a3.50756,3.50756,0,0,1-3.49265,3.491h-49.4458a3.48773,3.48773,0,0,1-2.46782-1.02483l-.09918-.10909a3.48429,3.48429,0,0,1-.92564-2.35707V179.54055a3.499,3.499,0,0,1,3.49264-3.49265Zm49.4458,2.99346h-49.4458a.50236.50236,0,0,0-.49753.49919V215.748a.49816.49816,0,0,0,.10744.31075l.03968.038a.49509.49509,0,0,0,.35041.14711h49.4458a.499.499,0,0,0,.35207-.14711.47709.47709,0,0,0,.14711-.34876V179.54055a.50232.50232,0,0,0-.49918-.49919ZM293.37886,165.15177H434.29292V148.49354a1.98933,1.98933,0,0,0-1.99509-1.9951H295.374a1.98933,1.98933,0,0,0-1.99509,1.9951Zm140.91406,2.99346H293.37886v75.62989a1.98932,1.98932,0,0,0,1.99509,1.99509H432.29783a1.98933,1.98933,0,0,0,1.99509-1.99509ZM331.49216,151.96469a3.61083,3.61083,0,1,1-3.61,3.61A3.6104,3.6104,0,0,1,331.49216,151.96469Zm-11.592,0a3.61083,3.61083,0,1,1-3.61,3.61A3.61075,3.61075,0,0,1,319.90014,151.96469Zm-11.59036,0a3.61083,3.61083,0,1,1-3.61,3.61A3.60935,3.60935,0,0,1,308.30978,151.96469Zm43.7531,5.10756a1.49756,1.49756,0,0,1,0-2.99511h29.10317a1.49756,1.49756,0,0,1,0,2.99511Z"
      transform="translate(-262.6707 -127.37733)"
    /></g></svg>
