<svg
  id="Registro_off"
  data-name="Registro off"
  xmlns="http://www.w3.org/2000/svg"
  viewBox="0 0 124.75 90.417"
><g id="Capa_1"><g id="_792750280" data-name="792750280"><path
        class="cls-1"
        d="M504.42 5.033a10.976 10.976 0 1 1-10.978 10.977 10.976 10.976 0 0 1 10.977-10.977zM437.69 28.765a19.516 19.516 0 1 1-19.515 19.516 19.516 19.516 0 0 1 19.515-19.516zM528.935 61.801a13.09 13.09 0 1 1-13.09 13.09 13.09 13.09 0 0 1 13.09-13.09z"
        transform="translate(-417.725 -4.583)"
      /><rect
        class="cls-2"
        x="18.908"
        y="11.426"
        width="93.154"
        height="66.384"
        rx="3.599"
      /><path
        class="cls-3"
        d="M436.372 72.217a18.124 18.124 0 0 0 2.499.173h60.97a18.2 18.2 0 0 0 18.147-18.146v-33.02a17.96 17.96 0 0 0-.518-4.295h8.785a2.453 2.453 0 0 1 2.46 2.46V78.86a2.454 2.454 0 0 1-2.46 2.46H438.83a2.452 2.452 0 0 1-2.458-2.46z"
        transform="translate(-417.725 -4.583)"
      /><path
        class="cls-4"
        d="M439.198 14.726h88.023a3.835 3.835 0 0 1 2.713 1.13l.024.023a3.837 3.837 0 0 1 1.111 2.696v61.252a3.834 3.834 0 0 1-1.13 2.714l-.023.023a3.837 3.837 0 0 1-2.695 1.112h-88.023a3.838 3.838 0 0 1-2.715-1.13l-.023-.023a3.839 3.839 0 0 1-1.11-2.696V18.575a3.84 3.84 0 0 1 1.128-2.714l.024-.024a3.831 3.831 0 0 1 2.696-1.111zm88.023 2.566h-88.023a1.279 1.279 0 0 0-1.282 1.283v61.252a1.279 1.279 0 0 0 1.282 1.283h88.023a1.279 1.279 0 0 0 1.282-1.283V18.575a1.279 1.279 0 0 0-1.282-1.283z"
        transform="translate(-417.725 -4.583)"
      /><path
        class="cls-4"
        d="M436.632 31.208a.962.962 0 1 1 0-1.924h78.145a.962.962 0 0 1 0 1.924zM475.641 24.09a.963.963 0 0 1 0-1.926h18.71a.963.963 0 1 1 0 1.926z"
        transform="translate(-417.725 -4.583)"
      /><circle class="cls-4" cx="29.789" cy="18.544" r="2.321" /><circle
        class="cls-4"
        cx="37.241"
        cy="18.544"
        r="2.321"
      /><circle class="cls-4" cx="44.692" cy="18.544" r="2.321" /><path
        class="cls-4"
        d="M487.156 70.553a.962.962 0 0 1 0-1.925h34.353a.962.962 0 1 1 0 1.925zM487.156 76.348a.962.962 0 0 1 0-1.924h34.353a.962.962 0 1 1 0 1.924z"
        transform="translate(-417.725 -4.583)"
      /><rect
        class="cls-2"
        x="69.433"
        y="32.667"
        width="34.352"
        height="25.842"
        rx="1.799"
      /><path
        class="cls-4"
        d="M488.44 36.288h31.787a2.248 2.248 0 0 1 2.245 2.246V61.81a2.255 2.255 0 0 1-2.245 2.244H488.44a2.242 2.242 0 0 1-1.586-.659l-.064-.07a2.24 2.24 0 0 1-.595-1.515V38.533a2.25 2.25 0 0 1 2.245-2.245zm31.787 1.925H488.44a.323.323 0 0 0-.32.32V61.81a.32.32 0 0 0 .07.2l.025.024a.318.318 0 0 0 .225.095h31.787a.32.32 0 0 0 .226-.095.307.307 0 0 0 .094-.224V38.533a.323.323 0 0 0-.32-.32z"
        transform="translate(-417.725 -4.583)"
      /><path
        class="cls-3"
        d="M488.925 59.074h21.398a5.81 5.81 0 0 0 5.793-5.794V39.018h3.04a.56.56 0 0 1 .412.173.588.588 0 0 1 .174.416v21.13a.595.595 0 0 1-.587.588h-29.64a.59.59 0 0 1-.417-.174.585.585 0 0 1-.174-.415zM535.119 47.27v-1.034h2.585v1.034zM465.32 92.062v-1.034h2.586v1.034zm2.93-1.38V88.09h1.036v2.593zm1.38.346h2.585v1.034h-2.585zm-.344 1.38V95h-1.035v-2.593zM538.05 45.89v-2.593h1.033v2.593zm1.378.345h2.586v1.034h-2.586zm-.345 1.38v2.592h-1.033v-2.592zM451.12 8.972V7.938h2.586v1.034zm2.931-1.38V5h1.034v2.593zm1.38.346h2.585v1.034h-2.586zm-.346 1.378v2.593h-1.034V9.316z"
        transform="translate(-417.725 -4.583)"
      /><circle class="cls-2" cx="42.885" cy="52.66" r="16.354" /><path
        class="cls-3"
        d="M466.311 47.25a14.294 14.294 0 0 1 7.943 2.395 15.289 15.289 0 0 1 .788 1.626 15.629 15.629 0 0 1-18.218 21.125 14.363 14.363 0 0 1 9.487-25.146z"
        transform="translate(-417.725 -4.583)"
      /><path
        d="M460.426 46.267a6.166 6.166 0 0 1 5.901 6.4 6.496 6.496 0 0 1-3.075 5.618l2.624 2.31a6.274 6.274 0 0 1 6.256 6.257v1.995a16.351 16.351 0 0 1-23.408-.372v-1.623a6.275 6.275 0 0 1 6.258-6.257l3.039-2.084a6.442 6.442 0 0 1-3.497-5.845 6.166 6.166 0 0 1 5.902-6.399z"
        transform="translate(-417.725 -4.583)"
        style="fill:#fff;fill-rule:evenodd"
      /><path
        class="cls-3"
        d="M470.771 69.32V67.37a6.283 6.283 0 0 0-4.823-6.09l.13-.11a5.645 5.645 0 0 1 2.022.454 5.728 5.728 0 0 1 3.027 3.061 5.606 5.606 0 0 1 .433 2.166v1.757c-.255.245-.519.483-.789.71zm-6.734-16.975a6.428 6.428 0 0 0-3.394-5.475 4.92 4.92 0 0 1 1.249.218l.004.002.006.003.031.01h.003l.053.017.008.004.052.017.018.006.011.004.028.01.022.008.015.006.003.002.021.007.015.005.01.005.008.003.01.003.005.002.016.007.015.006.003.001.01.004.014.006.024.01.008.002.004.002.007.003.012.005.03.013.011.005.031.013.042.019a5.3 5.3 0 0 1 1.718 1.246l.08.09.017.02.032.036.025.028.005.007.032.038.03.038.064.078.025.032.083.11.033.044.012.018.09.127.01.015.095.147.017.027.121.204.007.012.038.068.01.018c.048.089.095.178.138.27l.063.134.01.024.011.024.028.063.062.153.07.19.006.012.084.256.015.052.009.025.01.033.014.057.001.003.017.066a6.256 6.256 0 0 1 .197 1.231h-.001c.006.123.01.248.01.373a6.273 6.273 0 0 1-.407 2.233 5.875 5.875 0 0 1-1.163 1.888 5.295 5.295 0 0 1-1.719 1.247 4.948 4.948 0 0 1-.549.209 6.5 6.5 0 0 0 3.008-5.577c0-.097-.003-.194-.006-.289l-.141.001c-.217 0-.456-.01-.716-.034zm1.199-2.13.087.219.046.125zm-3.02 9.178a4.886 4.886 0 0 1-.085 3.59l2.865-2.398-1.802-1.588c-.09.046-.18.09-.271.13a6.072 6.072 0 0 1-.707.266zm-2.608 13.6c.007-.002.007-.004 0-.005zm0-.005c-.057-.01-.7.059-.677-.107a24.018 24.018 0 0 0 .019-6.917c-.129-.926-3.052-2.742-4.776-3.755-.986-.577-2.485.384-4.064 1.724a5.792 5.792 0 0 1 .857-1.095 5.724 5.724 0 0 1 1.789-1.213 5.657 5.657 0 0 1 2.011-.454l4.841 4.44v7.377z"
        transform="translate(-417.725 -4.583)"
      /><path
        class="cls-4"
        d="M460.61 40.15a17.11 17.11 0 1 1-12.088 5.007 17.046 17.046 0 0 1 12.087-5.007zm-.184 5.519a6.078 6.078 0 0 1 2.497.536 6.495 6.495 0 0 1 2.114 1.533 7.046 7.046 0 0 1 1.4 2.267 7.43 7.43 0 0 1 .487 2.662v.02a7.426 7.426 0 0 1-.487 2.64 7.057 7.057 0 0 1-1.4 2.268 6.673 6.673 0 0 1-.834.764l1.813 1.596a6.813 6.813 0 0 1 2.49.524 6.948 6.948 0 0 1 3.743 3.743 6.829 6.829 0 0 1 .525 2.63v.181a15.623 15.623 0 1 0-24.685-.456 6.832 6.832 0 0 1 .52-2.355 6.96 6.96 0 0 1 3.74-3.743 6.814 6.814 0 0 1 2.555-.525l2.026-1.39a6.58 6.58 0 0 1-1.116-.969 7.079 7.079 0 0 1-1.4-2.267 7.418 7.418 0 0 1-.487-2.635v-.026a7.453 7.453 0 0 1 .486-2.662 7.067 7.067 0 0 1 1.401-2.267 6.495 6.495 0 0 1 2.115-1.533 6.078 6.078 0 0 1 2.497-.536zm2.768 13.328c-.09.045-.18.09-.272.13a6.078 6.078 0 0 1-4.868.055l-2.1 1.44 4.246 3.89 4.745-3.973zm-2.438 6.72v7.14a15.551 15.551 0 0 0 10.736-4.416v-1.59a5.58 5.58 0 0 0-.427-2.14 5.676 5.676 0 0 0-2.993-3.025 5.551 5.551 0 0 0-1.969-.446l-1.213 1.015-.72.605zm-1.148 7.11v-7.123l-4.867-4.463a5.557 5.557 0 0 0-1.96.448 5.665 5.665 0 0 0-2.989 3.023 5.56 5.56 0 0 0-.426 2.14v1.227l.2.205a15.559 15.559 0 0 0 10.042 4.543zm6.067-19.316a7.362 7.362 0 0 1-.922.062 11.304 11.304 0 0 1-3.071-.477 16.545 16.545 0 0 1-3.247-1.344 1.94 1.94 0 0 0-1.684.19 9.385 9.385 0 0 0-1.545.993l-.076.057a6.248 6.248 0 0 0 .398 1.908 5.856 5.856 0 0 0 1.164 1.888 5.28 5.28 0 0 0 1.717 1.247 4.905 4.905 0 0 0 4.032 0 5.295 5.295 0 0 0 1.719-1.247 5.875 5.875 0 0 0 1.163-1.888 6.263 6.263 0 0 0 .352-1.39zm-10.152-3.065-.052.142-.009.025-.01.03-.011.034-.007.023-.02.059-.038.122-.003.013-.016.056-.004.016-.05.186-.007.029-.056.255v.008a7.17 7.17 0 0 1 1.41-.751 2.781 2.781 0 0 1 2.35.01 15.635 15.635 0 0 0 2.99 1.245 10.03 10.03 0 0 0 2.763.431c.2.001.384-.008.545-.023a3.524 3.524 0 0 0 .421-.062 6.347 6.347 0 0 0-.215-1.308l-.023-.082-.008-.025-.015-.052-.084-.256-.005-.012-.071-.19a5.868 5.868 0 0 0-.355-.747l-.012-.02-.065-.11-.01-.017-.048-.079-.033-.054-.07-.104-.027-.04-.167-.233-.024-.03-.047-.061-.053-.067-.043-.051-.095-.112-.044-.049-.022-.025-.018-.02-.005-.006-.005-.004-.034-.037-.026-.028-.037-.038-.028-.029-.01-.01-.072-.07a5.48 5.48 0 0 0-.217-.2l-.011-.01-.066-.057-.01-.008-.066-.055-.038-.03-.122-.094-.016-.013-.206-.145-.042-.027-.01-.008-.008-.004-.045-.029-.06-.038-.073-.044-.086-.05-.02-.011-.066-.037-.078-.042-.107-.053-.057-.028-.102-.047a4.908 4.908 0 0 0-4.033 0 5.276 5.276 0 0 0-1.717 1.246l-.026.028-.04.043-.029.036-.029.031-.03.035-.046.057-.014.016-.029.035-.008.01a5.89 5.89 0 0 0-.5.73l-.008.014-.098.176v.002l-.033.061-.004.01-.074.148-.001.003-.011.022-.013.028-.01.019-.016.037-.022.049-.007.016-.018.041-.043.101-.013.034-.026.064z"
        transform="translate(-417.725 -4.583)"
      /></g></g></svg>
