<svg
  id="Registro_off"
  data-name="Registro off"
  xmlns="http://www.w3.org/2000/svg"
  viewBox="0 0 124.75014 90.41705"
><defs><style
    >.cls-1{fill:#f9f5ed;stroke:#f9f5ed;stroke-miterlimit:10;stroke-width:0.9px;}.cls-1,.cls-3,.cls-5{fill-rule:evenodd;}.cls-2,.cls-5{fill:#fff;}.cls-3{fill:#f0e2c8;}.cls-4{fill:#bc955c;}</style></defs><title
  >icono_registro_MTV_off</title><g id="Capa_1"><g
      id="_792750280"
      data-name=" 792750280"
    ><path
        class="cls-1"
        d="M504.41935,5.03295a10.97611,10.97611,0,1,1-10.97771,10.97664A10.97587,10.97587,0,0,1,504.41935,5.03295Z"
        transform="translate(-417.72458 -4.58295)"
      /><path
        class="cls-1"
        d="M437.69027,28.765a19.51622,19.51622,0,1,1-19.51569,19.51568A19.51558,19.51558,0,0,1,437.69027,28.765Z"
        transform="translate(-417.72458 -4.58295)"
      /><path
        class="cls-1"
        d="M528.93457,61.80122a13.08963,13.08963,0,1,1-13.0891,13.0891A13.09006,13.09006,0,0,1,528.93457,61.80122Z"
        transform="translate(-417.72458 -4.58295)"
      /><rect
        class="cls-2"
        x="18.90752"
        y="11.42624"
        width="93.15403"
        height="66.38352"
        rx="3.59864"
      /><path
        class="cls-3"
        d="M436.37159,72.21681a18.12449,18.12449,0,0,0,2.49923.17321h60.97086a18.19983,18.19983,0,0,0,18.146-18.146V21.22482a17.96055,17.96055,0,0,0-.51749-4.29608h8.7845a2.45251,2.45251,0,0,1,2.45992,2.45991v59.4726a2.45431,2.45431,0,0,1-2.45992,2.45992H438.83044a2.45249,2.45249,0,0,1-2.45885-2.45992Z"
        transform="translate(-417.72458 -4.58295)"
      /><path
        class="cls-4"
        d="M439.1981,14.726h88.0225a3.83546,3.83546,0,0,1,2.71388,1.12954l.02337.02338a3.8368,3.8368,0,0,1,1.11148,2.69582V79.82715a3.83359,3.83359,0,0,1-1.12954,2.71388l-.02338.02338a3.83682,3.83682,0,0,1-2.69581,1.11147H439.1981a3.83794,3.83794,0,0,1-2.71494-1.12954l-.02338-.02337a3.83852,3.83852,0,0,1-1.11041-2.69582V18.57471a3.84079,3.84079,0,0,1,1.12848-2.71388l.02443-.02338A3.83111,3.83111,0,0,1,439.1981,14.726Zm88.0225,2.56617H439.1981a1.27887,1.27887,0,0,0-1.28256,1.28257V79.82715a1.27885,1.27885,0,0,0,1.28256,1.28256h88.0225a1.27887,1.27887,0,0,0,1.28255-1.28256V18.57471a1.27885,1.27885,0,0,0-1.28255-1.28257Z"
        transform="translate(-417.72458 -4.58295)"
      /><path
        class="cls-4"
        d="M436.63192,31.20794a.96219.96219,0,1,1,0-1.92437H514.7765a.96219.96219,0,0,1,0,1.92437Z"
        transform="translate(-417.72458 -4.58295)"
      /><path
        class="cls-4"
        d="M475.641,24.08959a.96272.96272,0,0,1,0-1.92543h18.70918a.96272.96272,0,1,1,0,1.92543Z"
        transform="translate(-417.72458 -4.58295)"
      /><circle class="cls-4" cx="29.78946" cy="18.54435" r="2.32105" /><circle
        class="cls-4"
        cx="37.24088"
        cy="18.54435"
        r="2.32105"
      /><circle class="cls-4" cx="44.6923" cy="18.54435" r="2.32105" /><path
        class="cls-4"
        d="M487.15637,70.55279a.96219.96219,0,0,1,0-1.92437h34.35276a.96219.96219,0,1,1,0,1.92437Z"
        transform="translate(-417.72458 -4.58295)"
      /><path
        class="cls-4"
        d="M487.15637,76.3482a.96219.96219,0,0,1,0-1.92437h34.35276a.96219.96219,0,1,1,0,1.92437Z"
        transform="translate(-417.72458 -4.58295)"
      /><rect
        class="cls-2"
        x="69.43312"
        y="32.66718"
        width="34.352"
        height="25.84199"
        rx="1.79907"
      /><path
        class="cls-4"
        d="M488.44,36.28822h31.78658a2.24751,2.24751,0,0,1,2.24528,2.24528V61.80973a2.25486,2.25486,0,0,1-2.24528,2.24421H488.44a2.24215,2.24215,0,0,1-1.58646-.65882l-.06376-.07013a2.23991,2.23991,0,0,1-.595-1.51526V38.5335A2.24933,2.24933,0,0,1,488.44,36.28822Zm31.78658,1.92437H488.44a.32294.32294,0,0,0-.31984.32091V61.80973a.32028.32028,0,0,0,.06907.19977l.0255.02443a.31827.31827,0,0,0,.22527.09458h31.78658a.32073.32073,0,0,0,.22633-.09458.30666.30666,0,0,0,.09458-.2242V38.5335a.32294.32294,0,0,0-.32091-.32091Z"
        transform="translate(-417.72458 -4.58295)"
      /><path
        class="cls-3"
        d="M488.92454,59.07353h21.39861a5.80977,5.80977,0,0,0,5.79329-5.79329V39.018h3.039a.55967.55967,0,0,1,.41229.1732.58847.58847,0,0,1,.17426.41548V60.7365a.59514.59514,0,0,1-.58655.58868h-29.6412a.59094.59094,0,0,1-.41654-.17427.585.585,0,0,1-.1732-.41441Z"
        transform="translate(-417.72458 -4.58295)"
      /><path
        class="cls-3"
        d="M535.1189,47.27018V46.23627h2.5853v1.03391ZM465.321,92.06191V91.028h2.58636v1.0339Zm2.93065-1.37925V88.08992h1.035v2.59274Zm1.37925.34535h2.5853v1.0339h-2.5853Zm-.34429,1.37925V95h-1.035V92.40726Zm68.76291-46.51633V43.29819h1.0339v2.59274Zm1.37819.34534h2.58636v1.03391h-2.58636Zm-.34429,1.37926v2.59274h-1.0339V47.61553ZM451.1194,8.972V7.93809h2.5853V8.972Zm2.93065-1.37925V5h1.0339V7.59274Zm1.37925.34535h2.5853V8.972h-2.5853ZM455.084,9.31628V11.909h-1.0339V9.31628Z"
        transform="translate(-417.72458 -4.58295)"
      /><circle class="cls-2" cx="42.88525" cy="52.66031" r="16.35385" /><path
        class="cls-3"
        d="M466.31137,47.25a14.29384,14.29384,0,0,1,7.94293,2.3951,15.28866,15.28866,0,0,1,.78738,1.62578,15.62876,15.62876,0,0,1-18.2172,21.12553A14.36251,14.36251,0,0,1,466.31137,47.25Z"
        transform="translate(-417.72458 -4.58295)"
      /><path
        class="cls-5"
        d="M460.42563,46.26709a6.16562,6.16562,0,0,1,5.90168,6.399,6.496,6.496,0,0,1-3.07516,5.619l2.62355,2.3101a6.27414,6.27414,0,0,1,6.25658,6.25658v1.99556a16.35129,16.35129,0,0,1-23.408-.37192V66.85176a6.27505,6.27505,0,0,1,6.25764-6.25658l3.039-2.08376a6.44245,6.44245,0,0,1-3.497-5.84536A6.16561,6.16561,0,0,1,460.42563,46.26709Z"
        transform="translate(-417.72458 -4.58295)"
      /><path
        class="cls-3"
        d="M470.77109,69.31911V67.37137a6.28283,6.28283,0,0,0-4.82313-6.08976l.1307-.1105a5.645,5.645,0,0,1,2.02106.45373,5.72777,5.72777,0,0,1,3.02735,3.06134,5.6059,5.6059,0,0,1,.43248,2.16558v1.75753C471.30453,68.8537,471.041,69.09171,470.77109,69.31911Zm-6.73368-16.97395a6.42761,6.42761,0,0,0-3.39394-5.47557,4.92,4.92,0,0,1,1.24855.21889l.00426.00107.0053.00318.03188.00956h.00213l.05313.01807.0085.00318.05206.017.01807.00638.01062.00424.02763.01063.02232.00744.01487.00532.00319.00212.02126.00744.01487.00531.01062.00424.00744.0032.01063.00318.00425.00212.01594.00638.01488.00638.00318.00106.01063.00425.01382.00532.02337.00956.0085.00319.00319.00212.00744.00213.01168.00531.03082.01275.01063.00531.03082.01275.0425.01913a5.29906,5.29906,0,0,1,1.71715,1.24643l.07971.08926.01805.02019.03189.03613.02443.02869.00532.00637.03187.03825.03082.03826.06376.07757.02444.03188.08288.11051.03294.04357.01275.01805.08926.12752.00956.01487.09564.14664.017.02657.12113.204.00744.01275.03719.068.01063.01806c.04782.0882.09457.17745.13813.26884l.0627.135.01063.02338.01062.02444.02763.06269.06163.153.0712.19021.0053.01169.084.25608.01488.05207.0085.0255.00956.03294.01488.05632.00106.00319.017.06588a6.25644,6.25644,0,0,1,.19658,1.23156h-.00106c.00638.12325.01063.24757.01063.373a6.27293,6.27293,0,0,1-.407,2.23253,5.87483,5.87483,0,0,1-1.16355,1.88823,5.29492,5.29492,0,0,1-1.71822,1.24749,4.94842,4.94842,0,0,1-.54936.20827,6.49957,6.49957,0,0,0,3.00822-5.57652c0-.09669-.00319-.19445-.00637-.289l-.14133.00107C464.53576,52.37916,464.29669,52.36853,464.03741,52.34516Zm1.19861-2.12945.08713.21784.0457.12538Zm-3.0199,9.17766a4.88637,4.88637,0,0,1-.085,3.59053l2.86476-2.39935L463.1937,58.997c-.08925.04569-.17957.08925-.271.12963A6.07236,6.07236,0,0,1,462.21612,59.39337Zm-2.60763,13.60021c.00638-.00213.00638-.00425,0-.00532Zm0-.00532c-.05738-.00956-.70024.05845-.67793-.10732a24.01814,24.01814,0,0,0,.01913-6.91645c-.12858-.92659-3.05179-2.74257-4.77533-3.75523-.98609-.577-2.48541.3836-4.06443,1.72354a5.7918,5.7918,0,0,1,.85751-1.09447,5.724,5.724,0,0,1,1.78835-1.21349,5.65659,5.65659,0,0,1,2.01151-.45373l4.84119,4.44059v7.37656Z"
        transform="translate(-417.72458 -4.58295)"
      /><path
        class="cls-4"
        d="M460.60946,40.14971a17.11007,17.11007,0,1,1-12.08706,5.007A17.04561,17.04561,0,0,1,460.60946,40.14971Zm-.18383,5.51914a6.078,6.078,0,0,1,2.49711.53661,6.49456,6.49456,0,0,1,2.11457,1.53227,7.04588,7.04588,0,0,1,1.39945,2.26758,7.43019,7.43019,0,0,1,.48773,2.66181v.01913a7.42563,7.42563,0,0,1-.48773,2.64162,7.05735,7.05735,0,0,1-1.39945,2.26759,6.67253,6.67253,0,0,1-.83414.764l1.8128,1.596a6.81306,6.81306,0,0,1,2.49073.52386,6.948,6.948,0,0,1,3.74248,3.74247,6.82886,6.82886,0,0,1,.52492,2.62994v.1817a15.62287,15.62287,0,1,0-24.68524-.45692,6.83235,6.83235,0,0,1,.51961-2.35472,6.96,6.96,0,0,1,3.74141-3.74247,6.814,6.814,0,0,1,2.55449-.52493l2.02531-1.38987a6.58071,6.58071,0,0,1-1.11572-.96909,7.07851,7.07851,0,0,1-1.40051-2.26759,7.4178,7.4178,0,0,1-.48667-2.63524v-.02551a7.45273,7.45273,0,0,1,.48667-2.66181,7.067,7.067,0,0,1,1.40051-2.26758,6.49456,6.49456,0,0,1,2.11457-1.53227A6.078,6.078,0,0,1,460.42563,45.66885ZM463.1937,58.997c-.08925.04463-.17957.08925-.272.12963a6.07845,6.07845,0,0,1-4.86777.05526l-2.09969,1.43982,4.24615,3.89123,4.7445-3.97411Zm-2.4376,6.71987v7.14067a15.551,15.551,0,0,0,10.73544-4.41616V66.85176a5.58048,5.58048,0,0,0-.4261-2.14008,5.67638,5.67638,0,0,0-2.99335-3.02522,5.55145,5.55145,0,0,0-1.969-.44629L464.88961,62.255l-.71938.60463Zm-1.14761,7.10985v-7.1226l-4.86776-4.46291a5.55712,5.55712,0,0,0-1.95943.44735,5.665,5.665,0,0,0-2.98909,3.02309,5.56037,5.56037,0,0,0-.4261,2.14008v1.2273l.20082.20508a15.55855,15.55855,0,0,0,10.04156,4.54261Zm6.06639-19.31592c-.08289.01169-.17108.02231-.26247.03081-.20083.01807-.42292.03082-.65987.03082a11.30421,11.30421,0,0,1-3.07092-.476,16.54508,16.54508,0,0,1-3.24623-1.3442,1.93954,1.93954,0,0,0-1.68422.19021,9.38454,9.38454,0,0,0-1.545.99247l-.07649.05738a6.24826,6.24826,0,0,0,.39847,1.90737,5.85625,5.85625,0,0,0,1.16355,1.88823,5.27939,5.27939,0,0,0,1.71715,1.24749,4.90536,4.90536,0,0,0,4.03256,0,5.29492,5.29492,0,0,0,1.71822-1.24749,5.87483,5.87483,0,0,0,1.16355-1.88823A6.26292,6.26292,0,0,0,465.67488,53.51083ZM455.5228,50.44629l-.05206.14133-.00851.0255-.01062.03081-.01063.03295-.00744.02337-.02018.05844-.0372.12221-.00318.01274L455.357,50.95l-.00425.016-.04888.18595-.00744.02869-.05632.255-.00106.00637v.00212a7.16944,7.16944,0,0,1,1.41113-.75125,2.78146,2.78146,0,0,1,2.34941.00955,15.6346,15.6346,0,0,0,2.99121,1.24538,10.02926,10.02926,0,0,0,2.7617.43141c.19977.00107.38466-.0085.54511-.02338a3.52448,3.52448,0,0,0,.42185-.06162,6.3469,6.3469,0,0,0-.2157-1.30807l-.02232-.08182-.0085-.0255-.01488-.05207-.084-.25608-.0053-.01169-.0712-.19021c-.05419-.1392-.11476-.27627-.17958-.41122-.05525-.11477-.1137-.22633-.17532-.33579l-.0117-.02019-.06481-.1105-.00957-.01594-.04887-.07864-.03295-.05419-.06907-.10413-.02763-.04038-.16682-.23271-.02445-.03082-.04675-.06056-.05313-.06695-.0425-.051-.09563-.11157-.04357-.04888-.02231-.02551-.01807-.02019-.00532-.00531-.00424-.00425-.034-.03719-.02656-.02763-.03719-.03826-.02763-.02869-.01062-.00955-.0712-.0712c-.07013-.06907-.14345-.13495-.21677-.19977l-.01169-.01063-.06588-.05632-.00956-.00743-.06588-.05525-.03826-.02976-.1222-.09457L463.402,47.861l-.20615-.14451-.04144-.02763-.01063-.00744-.00744-.00425-.04569-.02869-.06057-.03825-.07225-.04463-.08607-.04994-.02019-.01063-.06588-.03719-.07757-.04144-.10732-.05313-.05632-.02869-.102-.04676a4.90785,4.90785,0,0,0-4.03363,0,5.27638,5.27638,0,0,0-1.71715,1.24643l-.02551.02762-.03932.04357-.02975.03507-.02869.03188-.02975.03507-.04676.05631-.01381.01594-.02869.03507-.0085.01062a5.88939,5.88939,0,0,0-.49942.72894l-.0085.01488-.09776.17533v.00212l-.033.06164-.00424.00956-.07439.1477-.00106.00319-.01062.02232-.01275.02762-.00957.01913-.017.03719-.02125.04888-.00744.01594-.01806.04143-.04251.101-.01381.034-.0255.06376Z"
        transform="translate(-417.72458 -4.58295)"
      /></g></g></svg>
