<svg
  xmlns="http://www.w3.org/2000/svg"
  id="Capa_1"
  data-name="Capa 1"
  viewBox="0 0 111.523 108.385"
><defs><style
    >.cls-2{fill-rule:evenodd;fill:#f0e2c8}.cls-3{fill:#bc955c}</style></defs><g
    id="Capa_1-2"
    data-name="Capa_1"
  ><g id="_1491648208" data-name="1491648208"><path
        d="M60.663 95.478a29.53 29.53 0 1 1-30.764-47.98v39.429c0 .11.004.218.011.326a3.743 3.743 0 0 0 2.2.712h.354v-20.27a27.523 27.523 0 0 0 2.509 11.503v11.27a3.75 3.75 0 0 0 1.083 2.637l.017.018a3.752 3.752 0 0 0 2.661 1.107h13.278a27.562 27.562 0 0 0 8.24 1.254h.001ZM101.45 80.57a19.31 19.31 0 1 1-19.31 19.31 19.31 19.31 0 0 1 19.31-19.31ZM32.464 46.816l.25-.054a27.768 27.768 0 0 0-.25 3.526Zm50.022-26.892a4.767 4.767 0 0 1 1.47 1.566 6.37 6.37 0 0 0-.931-.069h-.354a6.267 6.267 0 0 0-.185-1.497ZM32.5 91.13a4.702 4.702 0 0 1-1.014-.69 6.063 6.063 0 0 0 .625.033h.354a6.055 6.055 0 0 0 .035.657Zm51.099-80.323a15.997 15.997 0 0 1 3.262 31.658l-.073-.243V27.69a3.75 3.75 0 0 0-1.047-2.6l-.06-.056a3.753 3.753 0 0 0-2.655-1.106H68.489l-.594-.179a15.788 15.788 0 0 1 .638-2.329h11.629a3.751 3.751 0 0 0-.783-2.289H69.56a15.986 15.986 0 0 1 14.037-8.324Z"
        style="fill-rule:evenodd;fill:#f9f5ec"
        transform="translate(-9.239 -10.808)"
      /><path
        d="M25.364 8.324H70.14a3.751 3.751 0 0 1 .783 2.29H29.334l-.078.004h-.001l-.078.003h-.003l-.076.004h-.003l-.075.006h-.004l-.075.006h-.004l-.074.008h-.005l-.073.009h-.006l-.072.01h-.006l-.072.009h-.006l-.07.013h-.007l-.07.011h-.008l-.07.012-.006.003-.069.013h-.008l-.067.015-.01.001-.067.014-.008.001-.067.016-.01.002-.065.015-.01.004-.063.015-.012.004-.064.016-.01.003-.063.018-.012.003-.063.018-.012.003-.06.02-.012.004-.061.018-.013.006-.06.018-.012.005-.06.02-.013.005-.06.021-.012.005-.058.022-.013.005-.058.023-.014.005-.056.022-.015.007-.056.022-.015.006-.054.024-.016.007-.054.023-.015.009-.052.023-.017.009-.052.023-.018.01-.05.023-.018.01-.05.025-.017.009-.049.025-.019.01-.048.025-.02.01-.046.027-.02.01-.045.027-.02.011-.046.027-.02.012-.044.026-.02.013-.044.026-.022.013-.043.027-.02.015-.043.026-.02.015-.042.026-.021.017-.042.027-.022.015-.038.027-.024.017-.061.043-.037.028-.023.018-.037.026-.024.02-.035.027-.025.018-.093.075-.025.021-.032.026-.026.023-.032.026-.026.023-.03.026-.025.024-.114.101-.027.026-.027.026-.027.026-.027.026-.026.026-.029.028-.022.022-.03.032-.022.022-.03.032-.022.023-.03.032-.02.022-.03.033-.022.021-.029.036-.02.021-.03.034-.019.023-.03.035-.018.021-.03.037-.017.021-.03.038-.019.02-.03.038-.016.021-.03.04-.015.02-.03.04-.016.02-.028.04-.015.02-.03.041-.014.02-.03.042-.013.02-.028.042-.014.02-.028.043-.013.02-.029.044-.013.018-.028.045-.012.02-.027.044-.01.02-.03.045-.01.019-.027.046-.012.019-.026.047-.01.018-.026.048-.01.018-.027.05-.01.017-.024.05-.01.016-.026.052-.007.017-.026.052-.008.016-.025.051-.007.017-.023.053-.007.015-.025.054-.006.016-.024.055-.006.014-.023.056-.006.014-.023.057-.006.014-.022.057-.005.014-.021.058-.006.013-.021.059-.005.013-.02.059-.004.013-.02.06-.004.012-.02.061-.004.012-.018.061-.004.012-.018.063-.002.012-.018.062-.004.01-.016.065-.004.01-.015.065-.004.01-.015.066-.002.008-.015.066-.002.01-.013.067-.002.008-.014.069-.002.008-.011.067-.003.009-.012.07v.005l-.013.072v.006l-.01.071-.001.006-.011.072v.006l-.008.072-.001.005-.008.074v.004l-.008.075v.003l-.006.076v.003l-.006.077v.002l-.004.076v.003l-.004.077v.002l-.003.078v.082l-.002.079v60.274h-.354a3.743 3.743 0 0 1-2.2-.712 4.954 4.954 0 0 1-.011-.326V13.03a4.719 4.719 0 0 1 4.704-4.706Zm52.184 14.528H52.042a17.16 17.16 0 0 0-17.11 17.11v43.46h-5.436a3.752 3.752 0 0 1-2.661-1.107l-.018-.018a3.75 3.75 0 0 1-1.083-2.637V16.786l.002-.047v-.001l.003-.047.002-.047v-.002l.004-.045v-.002l.003-.045v-.004l.005-.044V16.5l.006-.044v-.002l.005-.044v-.003l.005-.043.002-.006.006-.041v-.005l.007-.041v-.005l.008-.04.001-.006.007-.041v-.006l.008-.04.003-.005.008-.04.001-.007.009-.037.002-.008.008-.038.003-.007.008-.037.002-.008.01-.037.002-.01.01-.035.003-.008.01-.035.003-.01.01-.035.003-.008.012-.036.002-.01.01-.034.005-.009.011-.033.004-.01.011-.033.005-.01.012-.032.004-.012.011-.03.005-.012.012-.031.006-.012.012-.03.006-.012.011-.03.006-.013.013-.028.006-.013.013-.029.006-.013.013-.028.007-.013.013-.027.007-.014.013-.026.007-.016.013-.026.01-.014.013-.025.008-.015.013-.024.008-.016.013-.024.01-.015.013-.024.01-.016.013-.022.011-.016.013-.023.01-.016.014-.021.01-.017.013-.021.013-.018.012-.02.013-.018.013-.019.012-.018.013-.018.013-.02.013-.018.014-.018.013-.017.014-.02.012-.016.015-.02.012-.015.044-.056.012-.014.017-.021.012-.014.018-.02.01-.015.018-.02.01-.013.05-.054.011-.012.02-.021.01-.012.022-.021.03-.033.01-.01.023-.022.017-.018.014-.014.018-.018.014-.014.02-.016.013-.015.018-.015.017-.015.016-.016.017-.014.016-.015.017-.014.017-.014.017-.016.018-.014.016-.014.018-.014.018-.015.016-.014.02-.014.017-.014.018-.013.016-.013.02-.015.017-.012.019-.014.016-.012.02-.016.017-.01.02-.016.018-.01.02-.014.016-.011.021-.014.016-.01.022-.015.016-.01.022-.015.017-.01.022-.013.015-.01.024-.014.015-.008.024-.014.015-.009.024-.014.015-.007.026-.015.013-.007.026-.015.015-.007.026-.014.054-.027.028-.013.013-.006.029-.014.011-.005.03-.014.012-.005.03-.014.011-.005.03-.013.011-.004.031-.013.012-.005.03-.012.012-.005.032-.011.01-.005.033-.012.01-.004.034-.011.009-.004.033-.01.01-.005.035-.01.01-.004.034-.011.008-.002.036-.012.009-.003.035-.009.01-.004.035-.009.008-.002.037-.01.008-.002.037-.008.008-.003.037-.01h.008l.038-.01.007-.001.039-.007.006-.003.04-.008.006-.001.04-.007h.006l.04-.007.005-.001.041-.007.006-.002.041-.005.005-.002.043-.004.003-.002.044-.004h.003l.043-.005.005-.001.042-.004h.004l.045-.003h.002l.046-.004h.001l.046-.003h.001l.048-.002.048-.002.048-.001h44.34a3.753 3.753 0 0 1 2.654 1.107l.06.055a3.75 3.75 0 0 1 1.047 2.6Zm-4.3-13.736a4.767 4.767 0 0 1 1.469 1.566 6.37 6.37 0 0 0-.93-.069h-.355a6.267 6.267 0 0 0-.184-1.497ZM23.26 80.324a4.702 4.702 0 0 1-1.015-.69 6.063 6.063 0 0 0 .625.032h.354a6.055 6.055 0 0 0 .036.658Z"
        class="cls-2"
      /><path
        d="M45.017 64.02h3.127q.307 1.186.728 2.33h-3.855a1.953 1.953 0 0 0-1.36.554l-.01.013a1.95 1.95 0 0 0-.572 1.375v5.342a1.959 1.959 0 0 0 .554 1.36l.012.01a1.955 1.955 0 0 0 1.376.57h9.87a24.417 24.417 0 0 0 2.805 2.33H45.017a4.263 4.263 0 0 1-3.014-1.252l-.028-.029a4.26 4.26 0 0 1-1.23-2.99v-5.341A4.26 4.26 0 0 1 42 65.278l.028-.028a4.258 4.258 0 0 1 2.99-1.23Zm11.512-42.263a1.165 1.165 0 1 1 0-2.329h15.649a1.165 1.165 0 0 1 0 2.33ZM22.871 4.35h44.29a6.256 6.256 0 0 1 4.425 1.84l.027.028a6.257 6.257 0 0 1 1.819 4.396h.354a6.257 6.257 0 0 1 4.43 1.84l.063.07a6.255 6.255 0 0 1 1.778 4.36V34.76a24.563 24.563 0 0 0-2.509-.732V16.883a3.744 3.744 0 0 0-1.046-2.599l-.06-.056a3.753 3.753 0 0 0-2.656-1.107H36.621v70.3H61.87a22.107 22.107 0 0 0 5.172 2.51H29.496a6.25 6.25 0 0 1-4.425-1.842l-.028-.027a6.253 6.253 0 0 1-1.818-4.396h-.354a6.25 6.25 0 0 1-4.424-1.842l-.029-.027a6.255 6.255 0 0 1-1.817-4.402V10.62a6.254 6.254 0 0 1 1.84-4.424l.028-.028a6.255 6.255 0 0 1 4.402-1.818Zm10.826 8.772h-4.25l-.048.001-.047.002h-.001l-.048.003-.047.002h-.001l-.046.004h-.003l-.044.003h-.004l-.042.004-.005.001-.043.005h-.003l-.044.004-.004.002-.042.004-.005.002-.041.005-.006.002-.041.007h-.005l-.04.008-.006.001-.04.006-.006.001-.04.009-.006.002-.04.007-.006.001-.038.01h-.008l-.037.01-.008.003-.037.008-.008.002-.037.01-.008.002-.035.01-.01.003-.035.01-.009.002-.036.012-.009.002-.034.01-.01.004-.033.01-.011.004-.033.012-.01.004-.033.012-.01.003-.032.012-.01.005-.033.011-.012.005-.03.012-.012.005-.03.013-.013.004-.03.013-.01.005-.03.014-.012.005-.03.014-.012.005-.028.014-.013.006-.028.013-.055.027-.026.014-.014.007-.026.015-.013.007-.026.015-.015.007-.025.014-.014.009-.024.014-.015.008-.024.014-.015.01-.023.014-.016.01-.022.015-.016.01-.022.013-.016.01-.022.015-.015.01-.02.015-.018.01-.02.016-.017.01-.02.016-.016.012-.02.014-.017.012-.019.015-.017.013-.017.013-.018.014-.019.014-.016.014-.018.015-.018.014-.016.014-.018.014-.017.016-.017.014-.017.014-.016.015-.017.014-.016.016-.017.015-.018.015-.014.015-.018.016-.015.014-.018.018-.014.014-.018.018-.022.022-.01.01-.03.033-.023.021-.009.01-.02.023-.01.012-.05.054-.01.013-.019.02-.01.015-.018.02-.012.014-.018.021-.011.014-.044.056-.012.016-.015.018-.012.018-.014.019-.013.017-.014.02-.013.017-.013.018-.013.019-.012.019-.013.018-.013.018-.012.02-.013.018-.013.02-.01.018-.014.021-.01.017-.013.022-.01.017-.014.02-.01.019-.012.022-.01.015-.014.024-.008.016-.013.024-.01.015-.011.025-.01.014-.013.026-.007.016-.013.026-.007.014-.013.027-.007.013-.013.028-.006.013-.013.029-.006.013-.013.028-.006.013-.012.03-.006.012-.011.03-.006.012-.012.03-.005.013-.012.03-.003.012-.012.032-.005.01-.012.032-.003.011-.01.033-.005.01-.011.034-.002.01-.012.035-.003.008-.01.035-.004.01-.01.035-.003.009-.01.035-.002.01-.009.036-.002.008-.009.037-.002.007-.008.038-.003.008-.008.038-.001.006-.008.04-.003.006-.007.039-.001.006-.007.041-.001.006-.007.04-.002.005-.007.041v.005l-.006.041v.006l-.005.043-.002.003-.004.044v.002l-.006.044v.004l-.005.043v.004l-.004.045v.002l-.003.045v.002l-.002.045v.002l-.003.047-.001.048v.001l-.001.047V79.66a3.752 3.752 0 0 0 1.083 2.637l.018.018a3.75 3.75 0 0 0 2.66 1.107h4.202Zm8.482 47.478a1.165 1.165 0 1 1 0-2.329h5.195c.01.783.06 1.561.144 2.33Zm0-7.77a1.165 1.165 0 1 1 0-2.328h6.337q-.36 1.137-.61 2.329Zm14.35-18.645a1.165 1.165 0 1 1 0-2.33h15.649a1.166 1.166 0 0 1 1.165 1.164 1.15 1.15 0 0 1-.067.39 24.356 24.356 0 0 0-7.643.776Zm0-6.214a1.165 1.165 0 1 1 0-2.33h15.649a1.165 1.165 0 1 1 0 2.33Zm-8.807 3.468q1.397-.147 1.396-1.063v-.042a.904.904 0 0 0-.29-.688 2.854 2.854 0 0 0-1.106-.5Zm-1.937-8.523a1.926 1.926 0 0 0-1.094.343.891.891 0 0 0-.324.698V24a.88.88 0 0 0 .282.677 2.884 2.884 0 0 0 1.135.489Zm-.146 11.523a12.943 12.943 0 0 1-2.99-.688 10.645 10.645 0 0 1-2.637-1.376l1.876-2.77a11.178 11.178 0 0 0 1.948 1.125 8.214 8.214 0 0 0 1.927.583v-2.5a15.682 15.682 0 0 1-2.197-.667 5.708 5.708 0 0 1-1.585-.907 3.487 3.487 0 0 1-.958-1.24 4.043 4.043 0 0 1-.322-1.686v-.043a4.202 4.202 0 0 1 .333-1.689 3.855 3.855 0 0 1 .969-1.343 4.932 4.932 0 0 1 1.563-.927 7.34 7.34 0 0 1 2.115-.437v-1.188h2.166v1.25a9.416 9.416 0 0 1 4.397 1.626l-1.71 2.792a7.41 7.41 0 0 0-1.363-.771 8.247 8.247 0 0 0-1.428-.478v2.416a13.876 13.876 0 0 1 2.178.677 5.828 5.828 0 0 1 1.552.918 3.371 3.371 0 0 1 .938 1.26 4.244 4.244 0 0 1 .311 1.688v.04a4.04 4.04 0 0 1-.353 1.72 3.958 3.958 0 0 1-1 1.324 4.942 4.942 0 0 1-1.552.895 8.015 8.015 0 0 1-2.012.437v2.042H45.64Zm21.522-27.58h-44.29a3.753 3.753 0 0 0-2.639 1.083l-.017.017a3.754 3.754 0 0 0-1.106 2.661v62.776a3.748 3.748 0 0 0 1.083 2.638l.018.019a3.756 3.756 0 0 0 2.661 1.105h.354V16.883l.002-.08v-.08l.003-.079v-.002l.004-.077v-.002l.004-.077v-.002l.005-.077.001-.003.006-.076v-.003l.007-.075v-.004l.009-.074v-.005l.009-.072v-.006l.01-.072.002-.006.01-.07v-.007l.012-.07.001-.008.012-.07.001-.008.013-.067.002-.008.014-.069.002-.008.013-.067.002-.01.015-.066.002-.008.015-.066.004-.01.015-.065.004-.01.016-.064.004-.01.018-.063.002-.012.018-.063.004-.012.018-.061.005-.012.019-.061.003-.012.022-.06.003-.013.02-.06.005-.012.021-.06.005-.012.022-.058.005-.014.022-.057.005-.014.024-.057.006-.014.023-.056.006-.014.024-.055.006-.016.025-.054.007-.015.023-.053.007-.017.025-.05.008-.017.026-.052.008-.017.026-.052.009-.016.025-.05.01-.018.025-.05.01-.017.027-.048.01-.018.026-.047.012-.02.027-.045.011-.02.028-.044.011-.02.027-.045.012-.019.028-.045.012-.019.03-.043.013-.02.028-.043.014-.02.029-.043.014-.02.028-.041.014-.02.03-.041.015-.02.029-.04.016-.02.03-.041.015-.02.03-.039.016-.021.03-.038.017-.02.031-.038.018-.021.03-.037.018-.021.03-.036.019-.022.029-.034.02-.022.03-.035.02-.021.03-.033.02-.023.031-.032.021-.023.031-.03.021-.025.031-.03.023-.023.028-.027.026-.026.027-.026.027-.026.027-.026.028-.026.113-.101.025-.024.03-.026.027-.024.031-.026.026-.022.032-.026.025-.021.093-.074.025-.02.036-.027.023-.019.037-.026.024-.019.037-.027.06-.044.024-.017.038-.026.022-.016.042-.027.021-.015.04-.027.023-.016.042-.026.02-.014.043-.026.022-.014.043-.026.02-.013.046-.026.019-.012.046-.027.02-.012.046-.026.019-.01.047-.026.019-.011.048-.025.02-.01.048-.025.017-.01.05-.025.018-.009.05-.025.018-.008.052-.024.017-.008.052-.024.015-.008.054-.023.016-.006.054-.025.016-.006.055-.023.015-.007.056-.02.014-.007.058-.022.013-.005.058-.022.013-.005.059-.021.014-.005.059-.02.013-.005.06-.019.012-.006.06-.019.012-.003.062-.019.011-.004.063-.017.012-.004.062-.018.011-.002.064-.016.01-.004.065-.015.01-.004.066-.015.01-.003.066-.014.008-.002.067-.014.01-.001.067-.015h.008l.069-.014.007-.002.07-.012h.006l.071-.012h.006l.071-.012h.006l.072-.01h.006l.072-.009h.006l.073-.009h.005l.074-.008h.004l.075-.006h.004l.075-.006h.003l.076-.005h.003l.078-.002h.001l.078-.004H70.923A3.756 3.756 0 0 0 69.84 7.98l-.019-.017a3.747 3.747 0 0 0-2.66-1.105Z"
        class="cls-3"
      /><path
        d="M63.342 45.04a14.616 14.616 0 0 1 3.672-1.791 14.602 14.602 0 1 0 5.237 28.479 14.601 14.601 0 0 1-8.91-26.688Zm27.57 50.303 2.49 3.591c.67.964 1.674 1.523 2.65.865l8.716-5.877a1.58 1.58 0 0 1-.028.38v.004a1.598 1.598 0 0 1-.677 1.021l-9.254 6.241a1.6 1.6 0 0 1-1.201.244h-.004a1.598 1.598 0 0 1-1.022-.677l-3.139-4.803Zm-4.403-21.365a19.373 19.373 0 0 1-5.41 3.58l-1.341-1.988 5.38-3.627Zm9.923 16.352-7.589-11.254a.826.826 0 0 0-.231-.23l-7.569 5.104a.32.32 0 0 0-.136.203l-.001.002a.325.325 0 0 0 .05.24l7.59 11.254ZM77.338 73.928q.53-.31 1.046-.658a18.696 18.696 0 0 0-7.686-33.992 17.87 17.87 0 0 1 6.64 34.65ZM51.926 99.928v-1.492h3.73v1.492ZM90.051 34.37V32.88h3.73v1.491Zm4.228-1.989v-3.739h1.491v3.74Zm1.989.498h3.728v1.491h-3.728Zm-.498 1.989v3.74H94.28v-3.74Zm-39.617 63.07v-3.74h1.492v3.74Zm1.99.497h3.728v1.492h-3.729Zm-.498 1.989v3.74h-1.492v-3.74Z"
        class="cls-2"
      /><path
        d="M59.702 40.023a20.644 20.644 0 0 1 28.747 28.512q-.548.826-1.18 1.604l3.381 5.014.7-.473a2.248 2.248 0 0 1 1.67-.34c0-.008.008 0 .012.003a2.227 2.227 0 0 1 1.433.944l7.11 10.547.002-.002 4.76 7.06a3.508 3.508 0 0 1 .527 1.265 3.565 3.565 0 0 1 .006 1.365c.007.001.002.007-.002.013a3.552 3.552 0 0 1-.519 1.276 3.503 3.503 0 0 1-.967.975l-9.254 6.241a3.508 3.508 0 0 1-1.265.528 3.57 3.57 0 0 1-1.366.006c-.002.007-.006.002-.012-.002a3.552 3.552 0 0 1-1.276-.519 3.487 3.487 0 0 1-.975-.967l-3.208-4.755-8.665-12.85a2.237 2.237 0 0 1-.339-1.668c-.008-.001-.001-.007.002-.013a2.247 2.247 0 0 1 .329-.81 2.22 2.22 0 0 1 .616-.622l.7-.471-3.383-5.014q-.957.293-1.929.49a20.637 20.637 0 0 1-15.655-37.337Zm25.623 32.198a20.813 20.813 0 0 1-5.378 3.626l3.018 4.478 5.378-3.628Zm3.45 22.243 10.5-7.08L92.46 77.28l-10.5 7.08Zm12.052-4.778-10.5 7.08 3.209 4.757a.743.743 0 0 0 .204.204.77.77 0 0 0 .262.11c.001-.006.007 0 .013.003a.753.753 0 0 0 .295-.001.734.734 0 0 0 .269-.115l9.254-6.24a.738.738 0 0 0 .202-.204v-.003a.773.773 0 0 0 .112-.26c-.007 0-.001-.007.002-.012a.759.759 0 0 0-.001-.297.729.729 0 0 0-.115-.267ZM74.65 39.6a17.807 17.807 0 1 0 6.46 2.642 17.9 17.9 0 0 0-6.46-2.642Z"
        class="cls-3"
      /></g></g></svg>
