<svg
  id="Buscador_off"
  data-name="Buscador off"
  xmlns="http://www.w3.org/2000/svg"
  viewBox="0 0 92.60601 90"
><title>icono_buscador_oportunidades_off</title><path
    class="cls-1"
    d="M354.66718,75.3515a24.52058,24.52058,0,1,1-25.546-39.84166V68.25077c0,.09121.00393.18143.00981.2707a3.10781,3.10781,0,0,0,1.82619.5914h.29425V52.28094a22.85493,22.85493,0,0,0,2.08315,9.55168v9.35846a3.11368,3.11368,0,0,0,.89937,2.19l.01471.01472a3.11592,3.11592,0,0,0,2.20963.919H347.484a22.88716,22.88716,0,0,0,6.84183,1.04157h.001ZM388.536,62.97326A16.035,16.035,0,1,1,372.5014,79.00875v-.00092a16.03513,16.03513,0,0,1,16.03454-16.03458ZM373.71166,5.04333a13.28394,13.28394,0,0,1,2.7089,26.28845l-.0608-.202V19.06239a3.1135,3.1135,0,0,0-.869-2.15866l-.05008-.04609a3.116,3.116,0,0,0-2.20476-.919H361.16571l-.49332-.1481a13.11065,13.11065,0,0,1,.52961-1.93407h9.65662a3.11473,3.11473,0,0,0-.65026-1.90073h-8.15212A13.27429,13.27429,0,0,1,373.71166,5.04333Z"
    transform="translate(-311.96545 -5.04332)"
  /><path
    class="cls-2"
    d="M333.02756,11.95576h37.1808a3.11476,3.11476,0,0,1,.65026,1.90074H336.39156l-.0667.001h-.001l-.06477.00294h-.001l-.06477.002h-.002l-.06375.00392h-.002l-.06277.00491h-.00283l-.06277.00491h-.00294l-.06179.00686h-.00393l-.06079.00687-.00491.001-.05979.00686h-.0049l-.05978.00785-.00491.001-.05884.00981h-.00491l-.05885.00981h-.00588l-.05787.0098-.00588.002-.05688.0108-.00687.001-.0559.01176-.00785.001-.0559.01178-.00687.001-.05492.01275-.00785.002-.05492.01276-.00784.00294-.053.01275-.0098.00294-.053.01374-.00883.002-.052.0147-.00981.003-.052.01471-.01.00289-.05.01569-.00981.00392-.051.01472-.01079.00489-.049.0157-.0108.00392-.049.01667-.01177.00393-.049.01765-.0108.00392-.04806.01864-.0108.00393-.04806.01863-.01177.0049-.04609.01765-.01275.00589-.0461.01863-.01275.00491-.04511.01961-.01276.00589-.04511.01962-.01275.00686L334.28,14.338l-.01373.00686-.04318.01962-.01471.00785-.04217.01961-.01471.00785-.04119.02059-.01471.00785-.04022.02059-.01569.00883-.04021.0206-.0157.00883-.03923.02159-.01569.00882-.03825.02159-.01667.00981-.03825.02255-.01569.00981-.03727.02159-.01668.01079-.03628.02159-.01864.0108-.03531.02255-.01667.01178-.03531.02158-.01765.01275-.03433.02159-.01765.01373-.03433.02256-.01863.01274-.03139.02256-.01962.01374-.051.03629-.0304.02255-.01961.01569-.03041.02159-.01961.0157-.02943.02256-.0206.01568-.07747.06179-.0206.01766-.02649.02158-.02159.01864-.02648.02159-.02159.01962-.0255.02159-.02059.01961-.09416.08435-.02255.02159-.02256.02159-.02256.02159-.02256.02159-.02159.02159-.02354.02256-.01863.01863-.0255.02648-.01766.01864-.0255.02648-.01765.01863-.0255.02648-.01667.01864-.02451.02746-.01766.01765-.02452.02942-.01667.01766-.02452.02844-.01569.01864-.0255.02942-.01471.01765-.02452.03041-.01471.01765-.0255.03138-.01471.01668-.02452.03139-.01373.01765-.02452.03238-.01276.01668-.02451.03334-.01373.01766-.02354.03238-.01275.01667-.02452.03432-.01177.01668-.02452.03433-.01079.01667-.02355.03531-.01176.01667-.02355.03531-.01079.01668-.02354.03628-.0108.0157-.02354.03726-.00981.0157-.02255.03727-.00883.01667-.02354.03727-.00883.01569-.02255.03825-.00982.01569-.02159.03923-.00883.01471-.02159.04021-.00785.01471-.02256.0412-.00784.0147-.02059.0412-.00785.01373-.02159.04318-.00589.01373-.02159.04318-.00671.01351-.0206.04216-.00588.01374-.01961.04413-.00589.01275-.0206.04512-.0049.01275-.01962.04609-.0049.01177-.01962.0461-.0049.01177-.01864.04707-.0049.01178-.01864.04707-.00392.01177-.01766.04806-.0049.0108-.01765.049-.00393.01079-.01667.049-.00294.01079-.01765.05-.00294.00981-.0157.051-.00393.00981-.01471.051-.00392.00981-.01471.052-.002.00981-.0147.052-.00295.00882-.01373.053-.00294.00883-.01276.054-.00289.00784-.01276.05492-.002.00687-.01176.05492-.002.00785-.01079.0559-.002.00687-.01177.05688-.001.00686-.00981.05591-.002.00686-.00981.05787-.001.0049-.00981.05983v.00491l-.00882.05884-.001.00491-.00883.05982v.0049l-.00687.05983-.001.00392-.00589.06179v.00295l-.00685.06277v.002l-.00491.06375-.001.002-.00393.06375v.002l-.00391.06277v.00294l-.00294.06375v.002l-.00295.06477v.06768l-.001.0657V69.11284h-.29423a3.10781,3.10781,0,0,1-1.82619-.5914c-.00588-.08926-.0098-.17948-.0098-.2707V15.86309A3.91827,3.91827,0,0,1,333.02756,11.95576Zm43.33217,12.06343H355.18009a14.24994,14.24994,0,0,0-14.20832,14.20835V74.31483h-4.51352a3.116,3.116,0,0,1-2.20964-.919l-.0147-.01472a3.11368,3.11368,0,0,1-.89937-2.19V18.982l.002-.03923v-.001l.002-.03825v-.001l.002-.03825v-.002l.00294-.03727v-.002l.00294-.03727v-.00294l.00393-.03629v-.00294l.0049-.03629v-.002l.00393-.03629.001-.00295.00391-.0353.001-.0049.00491-.03433.001-.00392.0049-.03433.001-.00393.00588-.03334.001-.0049.00589-.03433V18.472l.00687-.03238.002-.00491.00687-.03335.001-.00588.00687-.0304.002-.00686.00687-.03139.002-.00589.00687-.0304.002-.00687.00785-.0304.002-.00784.00784-.02943.00294-.00686.00785-.02943.00295-.00784.00883-.02943.002-.00687.0098-.02942.002-.00785.00883-.02844.00393-.00784.00883-.02746.00294-.00883.0098-.02648.00392-.00883.00982-.02648.00294-.00981.00981-.0255.00391-.00981.00982-.0255.0049-.0098.00981-.0255.0049-.00981.00981-.02452.0049-.0108.0108-.02354.0049-.01079.01079-.02355.00491-.01079.0108-.02354.00588-.0108.0108-.02255.00589-.01178.01079-.02159.00589-.01275.0108-.02159.00784-.01177.0108-.0206.00687-.01274.01079-.01962.00687-.01373.01079-.01962.00883-.01274.00981-.01963.00883-.01372.01079-.01765.00883-.01374.0108-.01863.00882-.01373.0108-.01765.00883-.01374.01079-.01765.0108-.01471.00981-.01668.01079-.0147.0108-.0157.0098-.01569.0108-.01471.01079-.01667.0108-.01472.01177-.01471.0108-.0147.01177-.0157.0098-.01373.01276-.01668.00981-.01274.03628-.0461.00981-.01177.01472-.01766.0098-.01176.01472-.01668.00882-.01176.01471-.01668.00883-.01079.04119-.04512.00862-.00966.01668-.01766.00784-.00981.01864-.01766.0255-.02746.00784-.00783.01864-.01865.0147-.0147.01178-.01178.01471-.0147.01177-.01178.0157-.01372.01176-.01177.01472-.01275.01372-.01275.01374-.01275.01372-.01177.01374-.01275.01372-.01177.01472-.01177.01373-.01275.01471-.01177.01373-.01176.01471-.01178.01472-.01176.01373-.01177.01569-.01177.01471-.01177.01471-.0108.01373-.01079.01667-.01275.01374-.00981.01568-.01177.01374-.00981.01667-.01275.01373-.00883.01667-.01274.01472-.00883.01667-.01177.01373-.00883.01765-.01177.01276-.00882.01863-.01177.01275-.00883.01864-.01177.01372-.00785.01864-.01176.01276-.00785.01961-.01177.01275-.00687.01962-.01176.01277-.00692.01961-.01177.01276-.00588.02159-.01275.01079-.00589.0216-.01176.01176-.00589.02159-.01177.04512-.02256.02353-.01079.0108-.00491.02353-.01177.0098-.00392.02453-.01177.0098-.00392.02452-.01178.00981-.00392.02452-.01079.00981-.00393.0255-.01079.0098-.00392.0255-.00981.00981-.00393.02648-.00981.00883-.00392.02648-.00981.00883-.00294.02746-.00981.00785-.00294.02746-.00882.00882-.00393.02844-.00883.00785-.00294.02844-.00882.00687-.002.03041-.00981.00685-.002.02943-.00785.00785-.00294.02942-.00784.00687-.002.0304-.00785.00686-.002.0304-.00687.00687-.002.03041-.00784.00686-.001.03139-.00785.00588-.001.03239-.00589.00491-.002.03335-.00687.0049-.001.03334-.00588h.00491l.03334-.00588.00393-.001.03432-.00589.00491-.001.03432-.00491.00392-.001.03531-.00392.00295-.001.03629-.00393h.00294l.0353-.00392.00393-.001.03531-.003h.00294l.03726-.00294h.002l.03826-.00293h.001l.03824-.003h.00091l.03924-.001h.001l.03923-.002h0l.04021-.001H373.236a3.116,3.116,0,0,1,2.20473.919l.05.04609a3.11352,3.11352,0,0,1,.869,2.15867Zm-3.571-11.40631a3.95824,3.95824,0,0,1,1.22007,1.3005,5.2897,5.2897,0,0,0-.77284-.05689h-.29423A5.20314,5.20314,0,0,0,372.78876,12.61288Zm-41.508,59.1294a3.9044,3.9044,0,0,1-.84249-.57277,5.03389,5.03389,0,0,0,.51883.02648h.29425A5.02747,5.02747,0,0,0,331.28079,71.74228Z"
    transform="translate(-311.96545 -5.04332)"
  /><path
    class="cls-4"
    d="M349.34649,58.20476h2.597q.2545.98421.60415,1.93407h-3.2012a1.62207,1.62207,0,0,0-1.12886.46l-.00882.0108a1.61981,1.61981,0,0,0-.4747,1.14161v4.436a1.62636,1.62636,0,0,0,.46,1.12886l.00981.00883a1.623,1.623,0,0,0,1.1426.47371h8.19528a20.27634,20.27634,0,0,0,2.3303,1.93505H349.34649a3.53957,3.53957,0,0,1-2.50291-1.04059l-.02256-.02354a3.53731,3.53731,0,0,1-1.021-2.48232v-4.436a3.53783,3.53783,0,0,1,1.04059-2.50292l.02354-.02255A3.5356,3.5356,0,0,1,349.34649,58.20476ZM358.906,23.11005a.967.967,0,0,1-.00588-1.93407h13a.967.967,0,0,1,0,1.93407ZM330.95713,8.65451h36.77775a5.19478,5.19478,0,0,1,3.67394,1.528l.02256.02353a5.19562,5.19562,0,0,1,1.51038,3.65041h.29423a5.19548,5.19548,0,0,1,3.67787,1.528l.053.05689a5.19408,5.19408,0,0,1,1.476,3.621V33.90827a20.39869,20.39869,0,0,0-2.08315-.60808V19.06239a3.10932,3.10932,0,0,0-.869-2.15768l-.05-.04707a3.116,3.116,0,0,0-2.20476-.919H342.37521V74.31483h20.96485a18.35793,18.35793,0,0,0,4.29478,2.08314H336.45825a5.19,5.19,0,0,1-3.674-1.529l-.02354-.02256a5.19238,5.19238,0,0,1-1.50934-3.65042h-.29422a5.1899,5.1899,0,0,1-3.67395-1.529l-.02354-.02256a5.19385,5.19385,0,0,1-1.5094-3.65532V13.86139a5.19318,5.19318,0,0,1,1.528-3.67395l.02353-.02353A5.19384,5.19384,0,0,1,330.95713,8.65451Zm8.9897,7.28415H336.418l-.04022.001h0l-.03922.002h-.001l-.03924.002h-.001l-.03824.002h-.001l-.03826.00294h-.002l-.03726.00294h-.00294l-.03531.00294-.00393.001-.03531.00392h-.00293l-.03629.00393-.00295.001-.03531.00392-.00392.001-.03432.00491-.00491.001-.03432.00589-.00393.001-.03335.00588-.0049.001-.03335.00489-.0049.001-.03334.00686-.00491.002-.03239.00589-.00589.001-.03138.00785-.00686.001-.03041.00785-.00687.002-.0304.00687-.00687.002-.0304.00785-.00686.002-.02942.00785-.00785.00294-.02943.00784-.00686.002-.03041.00981-.00686.002-.02844.00882-.00785.00294-.02844.00883-.00883.00295-.02746.00981-.00784.00293-.02746.00981-.00883.00294-.02648.00982-.00883.00392-.02648.0098-.00981.00393-.0255.00981-.0098.00392-.0255.01079-.00981.00393-.02452.0108-.00981.00392-.02452.01177-.00981.00392-.02452.01177-.0098.00392-.02354.01177-.01079.00491-.02353.01079-.04512.02257-.02159.01176-.01177.00589-.02159.01177-.01079.00588-.02159.01275-.01276.00589-.02059.01176-.01177.00687-.01962.01177-.01275.00686-.01961.01177-.01276.00785-.01863.01176-.01373.00785-.01864.01276-.01274.00784-.01864.01177-.01276.00883-.01863.01176-.01275.00883-.01667.01177-.01472.00883-.01667.01275-.01373.00882-.01667.01276-.01373.0098-.01569.01177-.01471.00981-.0157.01275-.01373.0108-.01471.01079-.01471.01177-.01569.01177-.01373.01177-.01472.01177-.01471.01177-.01373.01177-.01471.01176-.01373.01276-.01472.01176-.01372.01177-.01374.01275-.01372.01177-.01374.01275-.01372.01275-.01472.01276-.01176.01176-.01472.01373-.01275.01177-.01471.01471-.01177.01177-.01471.01471-.01864.01864-.00784.00784-.0255.02746-.01864.01765-.00784.00883-.0166.01863-.00883.0098-.04119.04512-.00883.01079-.01471.01668-.00883.01176-.01471.01766-.00981.01079-.01471.01765-.00981.01178-.03629.04609-.0098.01374-.01276.0147-.00981.01472-.01176.01569-.0108.01471-.01177.01569-.0108.01471-.01079.01471-.0108.01569-.00981.0157-.01079.01569-.0108.01471-.0098.01667-.0108.01472-.01079.01667-.00883.01471-.0108.01766-.00883.01372-.01079.01864-.00883.01373-.01079.01765-.00883.01471-.00981.01864-.00883.01275-.01079.01961-.00687.01374-.0108.01961-.00784.01275-.00981.0206-.00785.01177-.01079.02159-.00589.01275-.0108.02159-.00588.01177-.0108.02256-.00589.01079-.01079.02354-.00491.0108-.01079.02354-.00491.0108-.01079.02354-.0049.01079-.00981.02452-.0049.00981-.00981.0255-.0049.00981-.00982.0255-.00392.00981-.0098.0255-.00294.00981-.00982.02648-.00392.00882-.00981.02649-.00293.00882-.00883.02746-.00393.00883-.00883.02746-.002.00785-.00981.02942-.002.00687-.00883.02942-.00294.00784-.00785.02943-.00294.00687-.00785.02942-.002.00785-.00784.0304-.002.00686-.00687.0304-.002.00589-.00687.03139-.002.00686-.00687.03139-.001.0049-.00686.03334-.002.00491-.00588.03239-.001.0049-.00589.03433-.001.0049-.00588.03335-.001.00393-.00589.03432v.00392l-.0049.03433-.001.0049-.00392.03531-.001.003-.00393.03628v.00185l-.0049.03629v.00295l-.00393.03628v.00294l-.00294.03727v.002l-.00293.03727v.002l-.002.03727v.002l-.002.03826v.001l-.001.03922v.001l-.001.03924V71.19108a3.11548,3.11548,0,0,0,.89936,2.19l.01471.01472a3.1142,3.1142,0,0,0,2.20963.919h3.48859Zm7.04288,39.42483a.967.967,0,0,1-.00638-1.93407h4.32077c.00883.65026.049,1.29658.11965,1.93407Zm0-6.45148a.967.967,0,0,1-.00533-1.93407h5.26812q-.29864.94449-.507,1.93407ZM358.906,33.42865a.96752.96752,0,0,1-.00216-1.935h12.99633a.96857.96857,0,0,1,.968.967.95488.95488,0,0,1-.0559.32366,20.22444,20.22444,0,0,0-6.34657.64437Zm0-5.1598a.967.967,0,0,1-.00533-1.93408h12.9995a.967.967,0,0,1,.00533,1.93408H358.906Zm-7.31357,2.87953q1.16073-.12211,1.15927-.88269v-.03433a.75039.75039,0,0,0-.24128-.57179,2.37,2.37,0,0,0-.918-.41487ZM349.984,24.07117a1.59935,1.59935,0,0,0-.90819.2854.74011.74011,0,0,0-.26873.5796v.03531a.73046.73046,0,0,0,.2344.562,2.39513,2.39513,0,0,0,.94248.40606Zm-.12063,9.56835a10.7481,10.7481,0,0,1-2.4833-.5708,8.83968,8.83968,0,0,1-2.18908-1.1426l1.55746-2.30088a9.28161,9.28161,0,0,0,1.61728.93467,6.8202,6.8202,0,0,0,1.60061.4845V28.96814a13.02219,13.02219,0,0,1-1.82427-.55414,4.7396,4.7396,0,0,1-1.31615-.75323,2.89557,2.89557,0,0,1-.7954-1.02883,3.35691,3.35691,0,0,1-.26774-1.40054v-.03531a3.48893,3.48893,0,0,1,.27657-1.4025,3.20124,3.20124,0,0,1,.80423-1.11513,4.09539,4.09539,0,0,1,1.29849-.76988,6.095,6.095,0,0,1,1.75557-.36288v-.98665h1.79872v1.03863a7.81892,7.81892,0,0,1,3.65139,1.34953l-1.41913,2.3185a6.15292,6.15292,0,0,0-1.13278-.64044,6.84807,6.84807,0,0,0-1.18578-.39721v2.0067a11.52156,11.52156,0,0,1,1.80856.562,4.83922,4.83922,0,0,1,1.28875.762,2.79937,2.79937,0,0,1,.77873,1.04649,3.524,3.524,0,0,1,.25892,1.40151v.03335a3.35423,3.35423,0,0,1-.29325,1.428,3.28668,3.28668,0,0,1-.83071,1.09942,4.10329,4.10329,0,0,1-1.28874.74341,6.65485,6.65485,0,0,1-1.67025.36288v1.69575h-1.79872Zm17.8715-22.90186H330.95713a3.11606,3.11606,0,0,0-2.191.89936l-.01472.01471a3.1174,3.1174,0,0,0-.918,2.20963V65.9891a3.112,3.112,0,0,0,.89936,2.19005l.01471.01569a3.11912,3.11912,0,0,0,2.20964.918h.29428V19.06239l.001-.0657V18.929l.00295-.06477v-.002l.00294-.06375v-.002l.00392-.06375v-.002l.00393-.06375.001-.002.0049-.06375v-.00195l.00588-.06277v-.00291l.00687-.06179.001-.00392.00687-.05983v-.0049l.00882-.05982.001-.00491.00879-.05884v-.00491l.00981-.05884.001-.00589.0098-.05787.001-.00686.0108-.05591.001-.00686.01176-.05689.002-.00686.0108-.0559.002-.00785.01177-.05492.002-.00687.0128-.05492.00294-.00785.01276-.054.00293-.00883.01373-.053.00295-.00883.01471-.052.002-.0098.01471-.052.00393-.00981.01471-.051.00392-.00981.0157-.051.00294-.00981.01765-.05L331.526,17.4l.01668-.049.00392-.01079.01766-.049.00392-.01079.01863-.04806.00393-.01177.01863-.04707.00392-.01178.01962-.04707.0049-.01177.01962-.0461.0049-.01177.01962-.04609.0049-.01276.0206-.04511.00589-.01275.01961-.04413.00588-.01374.02056-.04216.00687-.01374.02159-.04318.00589-.01372.02159-.04318.00784-.01374.0206-.04119.00784-.01471.02159-.04119.00883-.01472.02159-.0402.00883-.01472.02159-.03922.00982-.0157.02255-.03824.00883-.0157.02354-.03726.00883-.01668.02255-.03727.00981-.01569.02354-.03727.00981-.01569.02452-.03629.0108-.01667.02354-.03531.01176-.01668.02355-.0353.01176-.01668.02355-.03433.01176-.01667.02452-.03433.01275-.01666.02354-.03335.01374-.01667.02451-.03335.01276-.01668.02452-.03238.01372-.01765.02452-.03139.01472-.01668.0255-.03138.0147-.01765.02452-.03041.0157-.01765.02452-.02942.01569-.01864.02452-.02844.01667-.01766.02452-.02942.01765-.01765.02452-.02746.01667-.01864.0255-.02648.01765-.01961.0255-.0255.01766-.01962.0255-.02452.01863-.01961.02354-.02256.02159-.02159.02256-.02159.02256-.02159.02256-.02159.02255-.02159.09416-.08435.02059-.01961.0255-.02159.02159-.01962.02648-.02159.02159-.01863.02648-.02159.02061-.01766.07747-.0608.0206-.01667.02942-.02256.01962-.0157.03041-.02159.01961-.01569.03138-.02255.05-.03629.01962-.01471.03138-.02159.01864-.01275.03433-.02256.01765-.01275.03335-.02256.01864-.01274.0353-.02159.01668-.01178.0353-.02159.01864-.01177.0353-.02159.01766-.0108.03726-.02158.0157-.00981.03825-.02256.01667-.0098.03825-.02159.01569-.00883.03923-.02159.0157-.00882.04021-.02061.01569-.00882.04021-.0206.01472-.00784.04118-.0206.01472-.00784.04217-.0206.01471-.00686.04318-.01962.01373-.00687.04318-.01961.01275-.00687.04511-.01961.01276-.00491.04511-.02059.01275-.00491.0461-.01863.01274-.00589.0461-.01765.01177-.0049.04806-.01864.0108-.00392.04806-.01864.01079-.00392.049-.01765.01178-.00393.049-.01667.01079-.00392.04905-.0157.01079-.0049.05-.01569.00981-.00294.051-.01569.00981-.003.052-.01471.00981-.00294.052-.01471.00883-.002.053-.01373.00883-.00294.054-.01276.00785-.00294.05492-.01275.00784-.002.05493-.01177.00686-.002.05591-.01177.00784-.001.0559-.01177.00687-.001.05689-.01079.00588-.002.05787-.00981h.00569l.05885-.00981h.00491l.05884-.0098h.00491l.05978-.00883h.0049l.05979-.00687.00491-.001.0608-.00686h.00392l.06179-.00686h.00294l.06277-.00491h.00295l.06276-.00491h.002l.06375-.00392h.002l.06477-.002h.001l.06477-.003h.001l.06669-.001h34.46708a3.11869,3.11869,0,0,0-.89936-2.18612l-.0157-.01472A3.111,3.111,0,0,0,367.73488,10.73766Z"
    transform="translate(-311.96545 -5.04332)"
  /><path
    class="cls-2"
    d="M364.56308,42.44386a12.13631,12.13631,0,0,1,3.0492-1.48782A12.12541,12.12541,0,1,0,371.961,64.60426,12.12441,12.12441,0,0,1,364.563,42.44385Zm22.893,41.76984,2.06846,2.98251c.55609.80031,1.38975,1.26421,2.19986.71792l7.238-4.88029a1.31164,1.31164,0,0,1-.02353.31581v.00294a1.32662,1.32662,0,0,1-.562.84836l-7.6843,5.18238a1.328,1.328,0,0,1-.99744.202h-.00294a1.32662,1.32662,0,0,1-.84836-.562l-2.60688-3.98779ZM383.8008,66.47263a16.08659,16.08659,0,0,1-4.49289,2.9727l-1.11317-1.65064,4.46739-3.01193Zm8.23941,13.5787-6.30142-9.34474a.68624.68624,0,0,0-.19222-.19125l-6.28475,4.23788a.26612.26612,0,0,0-.1128.1687l-.001.002a.27017.27017,0,0,0,.04217.19909l6.30138,9.34475Zm-15.85505-13.6199q.43986-.25742.86895-.54629a15.525,15.525,0,0,0-6.38282-28.22644,14.83842,14.83842,0,0,1,5.51387,28.77273Z"
    transform="translate(-311.96545 -5.04332)"
  /><path
    class="cls-2"
    d="M355.084,88.021v-1.2387h3.09628V88.021ZM386.74215,33.5846V32.34589h3.09725V33.5846ZM390.2523,31.933v-3.1051H391.491V31.933Zm1.65162.4129h3.09628v1.23871h-3.09628Zm-.4129,1.65162v3.10511h-1.23871V33.9975ZM358.59413,86.36942V83.26431h1.23872v3.10511Zm1.65162.4129H363.342V88.021h-3.09629Zm-.4129,1.65162V91.539h-1.23872v-3.1051Z"
    transform="translate(-311.96545 -5.04332)"
  /><path
    class="cls-4"
    d="M361.54036,38.27756A17.14224,17.14224,0,0,1,385.4112,61.95327q-.45457.68556-.9788,1.33188l2.807,4.16335.5816-.39231a1.86644,1.86644,0,0,1,1.38582-.28245c.001-.00687.00686-.001.01079.00195a1.849,1.849,0,0,1,1.18967.78462l5.90421,8.75725.001-.001,3.9525,5.862a2.91337,2.91337,0,0,1,.43844,1.05043,2.96029,2.96029,0,0,1,.00489,1.13375c.00588.001.001.00588-.002.01079a2.9498,2.9498,0,0,1-.43056,1.05923,2.90876,2.90876,0,0,1-.80325.81011l-7.68431,5.18238a2.91308,2.91308,0,0,1-1.05042.43844,2.96527,2.96527,0,0,1-1.13475.00491c-.001.00588-.0049.001-.00981-.002a2.9495,2.9495,0,0,1-1.05922-.43056,2.89553,2.89553,0,0,1-.81011-.80324l-2.66376-3.94857-7.1949-10.66983a1.85755,1.85755,0,0,1-.2815-1.38582c-.00687-.001-.001-.00588.002-.0108a1.86562,1.86562,0,0,1,.27265-.6728,1.84291,1.84291,0,0,1,.512-.51584l.5806-.39133-2.8089-4.16336q-.79443.24275-1.6016.407a17.13608,17.13608,0,0,1-13-31.004ZM382.8171,65.01423a17.28256,17.28256,0,0,1-4.46542,3.01094l2.50585,3.71809,4.46641-3.01291ZM385.6829,83.484l8.718-5.87871-5.658-8.39046-8.718,5.87872Zm10.00675-3.9672-8.718,5.87871,2.66376,3.95052a.61693.61693,0,0,0,.16967.16869.63941.63941,0,0,0,.21773.09217c.001-.00588.00589-.001.0108.002a.62515.62515,0,0,0,.24519-.001.6096.6096,0,0,0,.22263-.09514l7.68431-5.18139a.61256.61256,0,0,0,.16774-.16967l.001-.00294a.64191.64191,0,0,0,.09217-.21479c-.00588-.001-.001-.00686.002-.01079a.63035.63035,0,0,0-.001-.24618.60527.60527,0,0,0-.09514-.22165ZM373.95293,37.92646a14.78649,14.78649,0,1,0,5.36481,2.194A14.78646,14.78646,0,0,0,373.95293,37.92646Z"
    transform="translate(-311.96545 -5.04332)"
  /></svg>
