<svg
  id="Catalogo"
  xmlns="http://www.w3.org/2000/svg"
  viewBox="0 0 69.57302 50.00178"
><defs><style
    >.st-1,.st-2{fill:#fff;}.st-1{fill-rule:evenodd;}.st-3{fill:#235b4e;}</style></defs><title
  >icono_catalogo</title><g id="Capa_1"><g
      id="_1015899648"
      data-name=" 1015899648"
    ><path
        class="st-1"
        d="M39.46312,333.60557H97.11449c.24483,0,.4433.89481.4433,1.99863v32.88035c0,1.10381-.19847,1.99863-.4433,1.99863H39.46312c-.24483,0-.4433-.89482-.4433-1.99863V335.6042C39.01982,334.50038,39.21829,333.60557,39.46312,333.60557Z"
        transform="translate(-33.50056 -331.89273)"
      /><rect
        class="st-2"
        x="1.71298"
        y="39.04655"
        width="66.15055"
        height="9.24326"
        rx="1.99999"
      /><path
        class="st-3"
        d="M75.34074,358.35822a1.32291,1.32291,0,0,1,0-2.56777h13.3857a1.32291,1.32291,0,0,1,0,2.56777Zm23.41464,10.93486a5.13954,5.13954,0,0,1,2.80989,1.44451,5.0844,5.0844,0,0,1,1.5083,3.62133v2.40241a5.11721,5.11721,0,0,1-1.50357,3.62606l-.12638.11575a5.11613,5.11613,0,0,1-3.50086,1.39137H38.63491a5.14363,5.14363,0,0,1-5.13435-5.13318v-2.40241a5.14164,5.14164,0,0,1,4.31937-5.06584,5.105,5.105,0,0,1-.5126-2.23351V337.02472a5.15384,5.15384,0,0,1,5.13081-5.132h51.699a5.11886,5.11886,0,0,1,3.62487,1.50712l.11575.1252a5.10558,5.10558,0,0,1,1.39018,3.49967v30.03485A5.105,5.105,0,0,1,98.75538,369.29308Zm-.81262,3.35676H38.63491a1.71592,1.71592,0,0,0-1.70909,1.70908v2.40241a1.71389,1.71389,0,0,0,1.70909,1.70909H97.94276a1.694,1.694,0,0,0,1.14569-.4382l.06142-.065a1.70667,1.70667,0,0,0,.502-1.20593v-2.40241a1.70808,1.70808,0,0,0-.502-1.20474A1.67768,1.67768,0,0,0,97.94276,372.64984Zm-3.80558-37.333h-51.699a1.70838,1.70838,0,0,0-1.20475.50316,1.67459,1.67459,0,0,0-.50316,1.20474v30.03485a1.71593,1.71593,0,0,0,1.70791,1.71027h51.699a1.71592,1.71592,0,0,0,1.70908-1.71027V337.02472a1.70689,1.70689,0,0,0-.43937-1.14451L95.3431,335.82A1.709,1.709,0,0,0,94.13718,335.31682Zm-47.86511,6.55052a1.2833,1.2833,0,0,1,0-2.56659h3.032a1.28306,1.28306,0,0,1,1.26971,1.09373l.87994,3.65086,14.84557.0248.34843.03543a1.27827,1.27827,0,0,1,.94253,1.54137l-2.24059,9.22814a1.28366,1.28366,0,0,1-1.26853,1.09372H52.708a1.29227,1.29227,0,0,1-1.24372-.98152l-3.16424-13.11994Zm15.33337,14.27508a3.1253,3.1253,0,1,1-2.20988.91538A3.10535,3.10535,0,0,1,61.60544,356.14242Zm-7.11392,0a3.12127,3.12127,0,1,1-2.21106.91538A3.115,3.115,0,0,1,54.49152,356.14242Zm-2.41894-9.54231,1.64176,6.80328h9.36278l1.64649-6.78084Zm23.26816,6.14658a1.32216,1.32216,0,0,1,0-2.56659h13.3857a1.32215,1.32215,0,0,1,0,2.56659Z"
        transform="translate(-33.50056 -331.89273)"
      /><path
        class="st-1"
        d="M63.07594,369.22811H74.40647a2.31576,2.31576,0,0,1,2.31028,2.3091v.00237a2.31652,2.31652,0,0,1-2.31028,2.3091H63.07594a2.31551,2.31551,0,0,1-2.3091-2.3091v-.00237A2.31475,2.31475,0,0,1,63.07594,369.22811Z"
        transform="translate(-33.50056 -331.89273)"
      /><path
        class="st-3"
        d="M63.07594,367.94541H74.40647a3.593,3.593,0,0,1,0,7.186H63.07594a3.58384,3.58384,0,0,1-2.53705-1.05475l-.07678-.085a3.59328,3.59328,0,0,1,2.61383-6.04618Zm11.33053,2.56541H63.07594a1.0281,1.0281,0,0,0-.76537,1.71263l.04252.039a1.02874,1.02874,0,0,0,.72285.30355H74.40647a1.02561,1.02561,0,0,0,.724-1.7528A1.00548,1.00548,0,0,0,74.40647,370.51082Z"
        transform="translate(-33.50056 -331.89273)"
      /></g></g></svg>
