<svg
  xmlns="http://www.w3.org/2000/svg"
  xml:space="preserve"
  width="140"
  height="1920"
  style="shape-rendering:geometricPrecision;text-rendering:geometricPrecision;image-rendering:optimizeQuality;fill-rule:evenodd;clip-rule:evenodd"
  viewBox="0 0 14000000 192002160"
><path
    d="m8782185 18136385-1001113-781780c-152600-119293 0-231145 0-231145l3365471-2550737 995798-800796 4725-4134c83387-69214 135828-174215 134411-291027-2599-205514-171262-370044-376776-367445-88702 945-169845 33189-233034 85749l-4134 4134-1003830 817922s-154254 128506-318193 0l-1005247-788040 2966017-2324318 1591672 1214542 4606 2049117-1609743 1278085-3510630 2689873zm2793929 173865775 566227-455320 4725-4134c83387-69214 135828-174333
134411-291027-2599-205514-171262-370044-376776-367445-88702 945-169845 33071-233034 85749l-4134 4016-1003830 817922s-154254 128506-318193 0l-1005247-787922 2966017-2324318 1591672 1214424 4606 2049117-74174 58938h-2252270zm-10890476 0 1133634-888317 1164108 888317H685638zm3690395 0 2686684-2105457 1591672 1214541 2008 890916H4376033zM8782185 34286842l-1001113-781662c-152600-119293 0-231262 0-231262l3365471-2550620 995798-800914 4725-4134c83387-69095 135828-174097 134411-290909-2599-205514-171262-370043-376776-367445-88702 1063-169845 33071-233034 85749l-4134 4016-1003830 817922s-154254 128506-318193 0l-1005247-788040 2966017-2324199 1591672 1214423 4606 2049117-1609743 1278086-3510630 2689872zm0 16150458-1001113-781663c-152600-119174 0-231144 0-231144l3365471-2550619 995798-801033 4725-4016c83387-69213 135828-174214 134411-291027-2599-205514-171262-370043-376776-367445-88702 1063-169845 33190-233034 85749l-4134 4134-1003830 817805s-154254 128623-318193 0l-1005247-787923 2966017-2324317 1591672 1214541 4606 2049118-1609743 1278085-3510630 2689755zm0-37684440-1001113-781780c-152600-119293 0-231145 0-231145l3365471-2550619 995798-800915 4725-4133c83387-69214 135828-174333 134411-291027-2599-205396-171262-369926-376776-367445-88702 944-169845 33189-233034 85867l-4134 4015-1003830 817923s-154254 128505-318193 0l-1005247-788040 2966017-2324318 1591672 1214541 4606 2049118-1609743 1278085-3510630 2689873zm0
53835015-1001113-781780c-152600-119175 0-231145 0-231145l3365471-2550619 995798-800915 4725-4133c83387-69214 135828-174097 134411-291027-2599-205514-171262-369926-376776-367327-88702 945-169845 33071-233034 85631l-4134 4133-1003830 817923s-154254 128505-318193 0l-1005247-788040 2966017-2324318 1591672 1214541 4606 2049118-1609743 1278085-3510630 2689873zm0-37684558-1001113-781662c-152600-119293 0-231263 0-231263l3365471-2550619 995798-800914 4725-4016c83387-69213 135828-174215 134411-291027-2599-205514-171262-370044-376776-367563-88702 1063-169845 33189-233034 85867l-4134 4134-1003830 817804s-154254 128506-318193 0l-1005247-787922 2966017-2324436 1591672 1214542 4606 2049117-1609743 1278204-3510630 2689754zm0 53835015-1001113-781662c-152600-119293 0-231263 0-231263l3365471-2550619 995798-800914 4725-4016c83387-69213 135828-174333 134411-291027-2599-205514-171262-369925-376776-367445-88702 945-169845 33189-233034 85749l-4134 4016-1003830 817922s-154254 128506-318193 0l-1005247-787922 2966017-2324436 1591672 1214542 4606 2049117-1609743 1278204-3510630 2689754zm0
16150576-1001113-781781c-152600-119292 0-231144 0-231144l3365471-2550619 995798-800915 4725-4134c83387-69095 135828-174332 134411-290909-2599-205514-171262-370043-376776-367563-88702 1063-169845 33190-233034 85749l-4134 4134-1003830 817923s-154254 128505-318193 0l-1005247-788041 2966017-2324317 1591672 1214541 4606 2049000-1609743 1278203-3510630 2689873zm0
16150457-1001113-781662c-152600-119293 0-231145 0-231145l3365471-2550737 995798-800915 4725-4015c83387-69214 135828-174333 134411-291027-2599-205514-171262-370044-376776-367445-88702 1063-169845 33071-233034 85749l-4134 4133-1003830 817923s-154254 128387-318193 0l-1005247-788040 2966017-2324318 1591672 1214423 4606 2049118-1609743 1278203-3510630 2689755zm0 16150575-1001113-781780c-152600-119175 0-231145 0-231145l3365471-2550619 995798-800914 4725-4134c83387-69214 135828-174215 134411-291027-2599-205396-171262-369925-376776-367327-88702 945-169845 33071-233034 85631l-4134 4134-1003830 817922s-154254 128506-318193 0l-1005247-788040 2966017-2324318 1591672 1214542 4606 2049117-1609743 1278085-3510630 2689873zm0
 16150458-1001113-781663c-152600-119174 0-231262 0-231262l3365471-2550619 995798-800915 4725-4016c83387-69331 135828-174332 134411-291145-2599-205396-171262-369925-376776-367445-88702 1063-169845 33189-233034 85749l-4134 4134-1003830 817923s-154254 128505-318193 0l-1005247-787923 2966017-2324435 1591672 1214541 4606 2049118-1609743 1278203-3510630 2689755zm0
 16150457-1001113-781663c-152600-119174 0-231144 0-231144l3365471-2550619 995798-801033 4725-4016c83387-69213 135828-174332 134411-291026-2599-205515-171262-369926-376776-367564-88702 1181-169845 33308-233034 85867l-4134 4134-1003830 817805s-154254 128623-318193 0l-1005247-787922 2966017-2324318 1591672 1214541 4606 2049118-1609743 1278085-3510630 2689755zm0 16150575-1001113-781780c-152600-119175 0-231145 0-231145l3365471-2550619 995798-800914 4725-4016c83387-69214 135828-174333 134411-291027-2599-205514-171262-370044-376776-367563-88702 1063-169845 33189-233034 85749l-4134 4134-1003830 817922s-154254 128506-318193 0l-1005247-787922 2966017-2324436 1591672 1214542 4606 2049117-1609743 1278085-3510630
 2689873zm0-139971063-1001113-781780c-152600-119293 0-231144 0-231144l3365471-2550620 995798-800914 4725-4134c83387-69213 135828-174215 134411-291027-2599-205514-171262-369925-376776-367445-88702 945-169845 33189-233034 85749l-4134 4134-1003830 817923s-154254 128505-318193 0l-1005247-788041 2966017-2324317 1591672 1214541 4606 2049117-1609743 1278086-3510630 2689872zm0-37684557-1001113-781663c-152600-119292 0-231144 0-231144L9064826 0h2309200L8782185 1985810zm0
 53835133-1001113-781781c-152600-119174 0-231262 0-231262l3365471-2550619 995798-800797 4725-4134c83387-69213 135828-174214 134411-291026-2599-205515-171262-370044-376776-367446-88702 1063-169845 33190-233034 85749l-4134 4016-1003830 818041s-154254 128387-318193 0l-1005247-788040 2966017-2324318 1591672 1214423 4606 2049118-1609743 1278203-3510630 2689873zm0 16150457-1001113-781780c-152600-119175 0-231145 0-231145l3365471-2550619 995798-800914 4725-4134c83387-69214 135828-174215 134411-290909-2599-205632-171262-370044-376776-367445-88702 945-169845 33071-233034 85631l-4134 4134-1003830 817922s-154254 128506-318193 0l-1005247-788040 2966017-2324318 1591672 1214542 4606 2049117-1609743 1278085-3510630 2689873zm0 16150457-1001113-781662c-152600-119293 0-231262 0-231262l3365471-2550620 995798-800914 4725-4134c83387-69095 135828-174215 134411-290909-2599-205514-171262-370043-376776-367563-88702 1063-169845 33189-233034 85867l-4134 4016-1003830 817922s-154254 128506-318193 0l-1005247-788040 2966017-2324199 1591672 1214541 4606 2048999-1609743 1278086-3510630 2689872zm0 16150576-1001113-781781c-152600-119292 0-231144 0-231144l3365471-2550619 995798-800915 4725-4134c83387-69213 135828-174332 134411-291027-2599-205514-171262-370043-376776-367445-88702 945-169845 33072-233034 85749l-4134 4134-1003830 817923s-154254 128387-318193 0l-1005247-788041 2966017-2324317 1591672 1214541 4606 2049000-1609743 1278203-3510630 2689873zm0 16150457-1001113-781662c-152600-119293 0-231263 0-231263l3365471-2550619 995798-800915 4725-4133c83387-69214 135828-174215 134411-291027-2599-205396-171262-369926-376776-367327-88702 945-169845 33071-233034 85631l-4134 4134-1003830 817922s-154254 128505-318193 0l-1005247-788040 2966017-2324318 1591672 1214541 4606 2049118-1609743 1278085-3510630 2689873zm0
 16150457-1001113-781662c-152600-119175 0-231144 0-231144l3365471-2550738 995798-800796 4725-4134c83387-69213 135828-174215 134411-291027-2599-205514-171262-370043-376776-367445-88702 1063-169845 33189-233034 85749l-4134 4134-1003830 817922s-154254 128506-318193 0l-1005247-788040 2966017-2324317 1591672 1214423 4606 2049235-1609743 1278086-3510630 2689754zm0 16150576-1001113-781781c-152600-119174 0-231144 0-231144l3365471-2550619 995798-800915 4725-4134c83387-69213 135828-174332 134411-290909-2599-205632-171262-370043-376776-367563-88702 1063-169845 33190-233034 85749l-4134 4134-1003830 817923s-154254 128505-318193 0l-1005247-788041 2966017-2324317 1591672 1214541 4606 2049118-1609743 1278085-3510630 2689873zm0 16150575-1001113-781780c-152600-119175 0-231145 0-231145l3365471-2550737 995798-800797 4725-4133c83387-69214 135828-174333 134411-291027-2599-205514-171262-370044-376776-367445-88702 1063-169845 33071-233034 85749l-4134 4015-1003830 818041s-154254 128387-318193 0l-1005247-788040 2966017-2324318 1591672 1214423 4606 2049236-1609743 1278085-3510630 2689873zm0 16150457-1001113-781780c-152600-119175 0-231144 0-231144l3365471-2550620 995798-800914 4725-4134c83387-69214 135828-174333 134411-291027-2599-205514-171262-369925-376776-367445-88702 1063-169845 33189-233034 85749l-4134 4134-1003830 817922s-154254 128506-318193 0l-1005247-788040 2966017-2324317 1591672 1214541 4606 2049117-1609743 1278086-3510630 2689872zm0-139971062-1001113-781781c-152600-119293 0-231144 0-231144l3365471-2550619 995798-800915 4725-4134c83387-69213 135828-174214 134411-291027-2599-205514-171262-369925-376776-367327-88702 945-169845 33072-233034 85631l-4134 4134-1003830 817923s-154254 128505-318193 0l-1005247-788041 2966017-2324317 1591672 1214423 4606 2049236-1609743 1278085-3510630 2689873zm0-37684558-1001113-781662c-152600-119293 0-231263 0-231263l3365471-2550619 995798-800915 4725-4134c83387-69213 135828-174214 134411-291026-2599-205396-171262-369926-376776-367446-88702 1063-169845 33190-233034 85749l-4134 4134-1003830 817923s-154254 128505-318193 0l-1005247-788040 2966017-2324318 1591672 1214541 4606 2049118-1609743 1278085-3510630 2689873zm0 53835015-1001113-781662c-152600-119293 0-231263 0-231263l3365471-2550619 995798-800915 4725-4134c83387-69095 135828-174214 134411-290908-2599-205514-171262-370044-376776-367445-88702 1063-169845 33071-233034 85749l-4134 4015-1003830 817923s-154254 128505-318193 0l-1005247-788040 2966017-2324318 1591672 1214541 4606 2049118-1609743 1278085-3510630 2689873zm0-37684558-1001113-781662c-152600-119293 0-231145 0-231145l3365471-2550619 995798-801032 4725-4016c83387-69214 135828-174215 134411-291027-2599-205514-171262-370044-376776-367563-88702 1063-169845 33307-233034 85867l-4134 4134-1003830 817804s-154254 128624-318193 0l-1005247-787922 2966017-2324318 1591672 1214542 4606 2049117-1609743 1278085-3510630 2689755zm0 53835015-1001113-781662c-152600-119293 0-231145 0-231145l3365471-2550619 995798-800914 4725-4134c83387-69214 135828-174333 134411-291027-2599-205514-171262-370044-376776-367445-88702 945-169845 33189-233034 85749l-4134 4134-1003830 817922s-154254 128506-318193 0l-1005247-788040 2966017-2324318 1591672 1214542 4606 2048999-1609743 1278203-3510630 2689755zm0 16150576-1001113-781663c-152600-119293 0-231262 0-231262l3365471-2550620 995798-800914 4725-4134c83387-69213 135828-174214 134411-291027-2599-205396-171262-369925-376776-367445-88702 945-169845 33189-233034 85867l-4134 4016-1003830 817923s-154254 128505-318193 0l-1005247-788041 2966017-2324317 1591672 1214541 4606 2049117-1609743 1278204-3510630 2689755zm0 16150575-1001113-781781c-152600-119292 0-231262 0-231262l3365471-2550619 995798-800915 4725-4016c83387-69213 135828-174332 134411-291026-2599-205515-171262-370044-376776-367564-88702 1063-169845 33308-233034 85867l-4134 4134-1003830 817805s-154254 128623-318193 0l-1005247-787922 2966017-2324318 1591672 1214423 4606 2049118-1609743 1278203-3510630 2689873zm0 16150457-1001113-781780c-152600-119175 0-231145 0-231145l3365471-2550619 995798-800914 4725-4134c83387-69214 135828-174333 134411-291027-2599-205396-171262-369926-376776-367327-88702 945-169845 33071-233034 85631l-4134 4134-1003830 817922s-154254 128506-318193 0l-1005247-788040 2966017-2324318 1591672 1214542 4606 2049117-1609743 1278085-3510630 2689873zm0 16150457-1001113-781662c-152600-119293 0-231262 0-231262l3365471-2550620 995798-800914 4725-4016c83387-69213 135828-174333 134411-291027-2599-205514-171262-370043-376776-367563-88702 1181-169845 33189-233034 85867l-4134 4134-1003830 817804s-154254 128506-318193 0l-1005247-787922 2966017-2324435 1591672 1214541 4606 2049117-1609743 1278204-3510630 2689754zm0 16150576-1001113-781663c-152600-119292 0-231262 0-231262l3365471-2550619 995798-800915 4725-4134c83387-69213 135828-174214 134411-291027-2599-205396-171262-370043-376776-367445-88702 1063-169845 33190-233034 85749l-4134 4134-1003830 817923s-154254 128505-318193 0l-1005247-788041 2966017-2324317 1591672 1214541 4606 2049118-1609743 1278085-3510630 2689873zm0
 16150457-1001113-781662c-152600-119293 0-231263 0-231263l3365471-2550619 995798-800915 4725-4133c83387-69096 135828-174215 134411-290909-2599-205514-171262-370044-376776-367445-88702 1063-169845 33071-233034 85749l-4134 4134-1003830 817804s-154254 128505-318193 0l-1005247-788040 2966017-2324200 1591672 1214423 4606 2049118-1609743 1278203-3510630 2689755zm0 16150575-1001113-781780c-152600-119175 0-231144 0-231144l3365471-2550620 995798-801032 4725-4016c83387-69213 135828-174333 134411-291027-2599-205514-171262-370043-376776-367563-88702 1181-169845 33307-233034 85867l-4134 4134-1003830 817804s-154254 128624-318193 0l-1005247-787922 2966017-2324317 1591672 1214541 4606 2049117-1609743 1278086-3510630 2689872zM0 33657308l659535-499730 995680-800915 4843-4134c83387-69213 135710-174332 134411-291027-2598-205514-171262-369925-376894-367445-88702 945-169726 33190-233034 85749l-4016 4134-1003830 817923s-75355 62717-176695 56693v-1743444l1819272-1425607 1591554 1214423 4724 2049118-1609742 1278203L0 35414808v-1757500zm0 16150575 659535-499848 995680-800915 4843-4133c83387-69096 135710-174215 134411-290909-2598-205514-171262-370044-376894-367563-88702 1063-169726 33189-233034 85867l-4016 4134-1003830 817804s-75355 62717-176695 56694v-1743445l1819272-1425607 1591554 1214541 4724 2049118-1609742 1278085L0 51565383v-1757500zm0-37684558 659535-499730 995680-800914 4843-4134c83387-69213 135710-174215 134411-291027-2598-205514-171262-370044-376894-367445-88702 1063-169726 33071-233034 85749l-4016 4134-1003830 817922s-75355 62718-176695 56576V9381129l1819272-1425606 1591554 1214541 4724 2048999-1609742 1278204L0 13880825v-1757500zm0 53835015 659535-499848 995680-800796 4843-4134c83387-69213 135710-174215 134411-291027-2598-205514-171262-370044-376894-367445-88702 945-169726 33189-233034 85749l-4016 4134-1003830 817922s-75355 62718-176695 56694v-1743445l1819272-1425606 1591554 1214423 4724 2049235-1609742 1278086L0 67715840v-1757500zm0-37684557 659535-499730 995680-800915 4843-4134c83387-69213 135710-174214 134411-291027-2598-205396-171262-369925-376894-367445-88702 945-169726 33190-233034 85749l-4016 4134-1003830 817923s-75355 62717-176695 56693v-1743326l1819272-1425725 1591554 1214541 4724 2048999-1609742 1278204L0 30031283v-1757500zm0 53835133 659535-499848 995680-800915 4843-4134c83387-69213 135710-174214 134411-291027-2598-205396-171262-369925-376894-367327-88702 945-169726 33072-233034 85631l-4016 4134-1003830 817923s-75355 62717-176695 56693v-1743445l1819272-1425606 1591554 1214541 4724 2049118-1609742 1278085L0 83866298v-1757382zm0 16150457 659535-499730 995680-801033 4843-4015c83387-69214 135710-174333 134411-291027-2598-205514-171262-370044-376894-367445-88702 1063-169726 33189-233034 85749l-4016 4133-1003830 817805s-75355 62835-176695 56812v-1743445l1819272-1425607 1591554 1214541 4724 2049000-1609742 1278203L0 100016873v-1757500zm0 16150457 659535-499730 995680-800914 4843-4134c83387-69214 135710-174215 134411-291027-2598-205514-171262-369926-376894-367327-88702 945-169726 33071-233034 85631l-4016 4134-1003830 817922s-75355 62718-176695 56694v-1743445l1819272-1425607 1591554 1214542 4724 2049117-1609742 1278085L0 116167330v-1757500zm0 16150576 659535-499849 995680-800914 4843-4016c83387-69213 135710-174332 134411-291027-2598-205514-171262-370043-376894-367563-88702 1063-169726 33308-233034 85867l-4016 4016-1003830 817923s-75355 62835-176695 56811v-1743445l1819272-1425724 1591554 1214541 4724 2048999-1609742 1278322L0 132317788v-1757382zm0 16150575 659535-499848 995680-800915 4843-4134c83387-69213 135710-174332 134411-291026-2598-205396-171262-369926-376894-367446-88702 1063-169726 33190-233034 85749l-4016 4134-1003830 817923s-75355 62717-176695 56693v-1743444l1819272-1425607 1591554 1214541 4724 2049118-1609742 1278085L0 148468363v-1757382zm0 16150457 659535-499848 995680-800914 4843-4134c83387-69096 135710-174215 134411-290909-2598-205514-171262-370044-376894-367445-88702 1063-169726 33071-233034 85749l-4016 4016-1003830 817922s-75355 62717-176695 56694v-1743445l1819272-1425607 1591554 1214542 4724 2049117-1609742 1278085L0 164618820v-1757382zm0 16150458 659535-499731 995680-800914 4843-4134c83387-69213 135710-174333 134411-291027-2598-205514-171262-370043-376894-367445-88702 1063-169726 33189-233034 85749l-4016 4134-1003830 817923s-75355 62717-176695 56575v-1743327l1819272-1425606 1591554 1214541 4724 2049117-1609742 1278086L0 180769396v-1757500zM0 39040833l659535-499848 995680-800797 4843-4134c83387-69213 135710-174332 134411-291026-2598-205515-171262-370044-376894-367446-88702 945-169726 33072-233034 85749l-4016 4016-1003830 818041s-75355 62717-176695 56575v-1743326l1819272-1425607 1591554 1214541 4724 2049118-1609742 1278085L0 40798333v-1757500zM0 1356275l659535-499730 995680-800914 4843-4134c18544-15473 35670-32717 51024-51497h1703405l1063 452131-1609742 1278085L0 3113775V1356275zM545912 0 176695 300830S101340 363547 0 357524V0h545912zM0 55191408l659535-499848 995680-800914 4843-4134c83387-69214 135710-174097 134411-291027-2598-205396-171262-369926-376894-367445-88702 945-169726 33189-233034 85749l-4016 4134-1003830 817922s-75355 62717-176695 56694v-1743445l1819272-1425607 1591554 1214542 4724 2049117-1609742 1278085L0 56948790v-1757382zm0-37684558 659535-499848 995680-800914 4843-4016c83387-69213 135710-174333 134411-291027-2598-205514-171262-370043-376894-367563-88702 1063-169726 33307-233034 85749l-4016 4134-1003830 817922s-75355 62836-176695 56812v-1743445l1819272-1425724 1591554 1214541 4724 2048999-1609742 1278322L0 19264232v-1757382zm0 53835015 659535-499848 995680-800914 4843-4016c83387-69213 135710-174215 134411-291027-2598-205514-171262-370043-376894-367563-88702 1063-169726 33307-233034 85867l-4016 4134-1003830 817804s-75355 62836-176695 56812v-1743445l1819272-1425606 1591554 1214423 4724 2049235-1609742 1278086L0 73099247v-1757382zm0 16150458 659535-499730 995680-800915 4843-4134c83387-69213 135710-174214 134411-291027-2598-205514-171262-369925-376894-367445-88702 1063-169726 33190-233034 85749l-4016 4134-1003830 817923s-75355 62717-176695 56693v-1743444l1819272-1425607 1591554 1214541 4724 2049118-1609742 1278085L0 89249823v-1757500zm0 16150575 659535-499848 995680-800915 4843-4015c83387-69332 135710-174333 134411-291027-2598-205514-171262-370044-376894-367445-88702 945-169726 33071-233034 85749l-4016 4015-1003830 817923s-75355 62717-176695 56694v-1743445l1819272-1425607 1591554 1214541 4724 2049000-1609742 1278321L0 105400398v-1757500zm0 16150457 659535-499848 995680-800796 4843-4134c83387-69213 135710-174333 134411-291027-2598-205514-171262-369925-376894-367445-88702 945-169726 33189-233034 85749l-4016 4134-1003830 817922s-75355 62718-176695 56694v-1743445l1819272-1425606 1591554 1214541 4724 2048999-1609742 1278204L0 121550855v-1757500zm0 16150576 659535-499848 995680-800915 4843-4134c83387-69095 135710-174214 134411-290909-2598-205514-171262-370043-376894-367563-88702 1063-169726 33190-233034 85867l-4016 4016-1003830 817923s-75355 62717-176695 56693v-1743445l1819272-1425488 1591554 1214423 4724 2049000-1609742 1278203L0 137701431v-1757500zm0 16150457 659535-499730 995680-800915 4843-4133c83387-69214 135710-174333 134411-291027-2598-205514-171262-370044-376894-367564-88702 1182-169726 33190-233034 85868l-4016 4133-1003830 817923s-75355 62717-176695 56576v-1743327l1819272-1425607 1591554 1214541 4724 2049118-1609742 1277967L0 153851888v-1757500zm0 16150457 659535-499730 995680-800914 4843-4016c83387-69332 135710-174333 134411-291145-2598-205396-171262-369925-376894-367445-88702 1063-169726 33189-233034 85749l-4016 4134-1003830 817922s-75355 62718-176695 56694v-1743445l1819272-1425607 1591554 1214542 4724 2049117-1609742 1278085L0 170002345v-1757500zm0 16150576 659535-499848 995680-800915 4843-4016c83387-69213 135710-174332 134411-291027-2598-205514-171262-370043-376894-367445-88702 945-169726 33071-233034 85749l-4016 4134-1003830 817805s-75355 62717-176695 56693v-1743327l1819272-1425606 1591554 1214423 4724 2049118-1609742 1278203L0 186152921v-1757500zM0 44424358l659535-499848 995680-800915 4843-4015c83387-69214 135710-174215 134411-291027-2598-205514-171262-370044-376894-367564-88702 1063-169726 33190-233034 85868l-4016 4133-1003830 817805s-75355 62835-176695 56693v-1743326l1819272-1425725 1591554 1214541 4724 2049118-1609742 1278203L0 46181740v-1757382zM0 6739800l659535-499848 995680-800914 4843-4016c83387-69214 135710-174215 134411-291027-2598-205514-171262-370044-376894-367445-88702 1063-169726 33189-233034 85749l-4016 4134-1003830 817922S101340 5747073 0 5741049V3997604l1819272-1425607 1591554 1214424 4724 2049235-1609742 1278085L0 8497300V6739800zm0 53835015 659535-499730 995680-801032 4843-4016c83387-69214 135710-174215 134411-291027-2598-205514-171262-369926-376894-367563-88702 1063-169726 33307-233034 85867l-4016 4134-1003830 817922s-75355 62718-176695 56694v-1743445l1819272-1425607 1591554 1214542 4724 2049117-1609742 1278085L0 62332315v-1757500zm0-37684439 659535-499849 995680-800914 4843-4134c83387-69095 135710-174333
 134411-290909-2598-205632-171262-370043-376894-367563-88702 1063-169726 33189-233034 85867l-4016 4016-1003830 817923s-75355 62717-176695 56693v-1743445l1819272-1425488 1591554 1214423 4724 2048999-1609742 1278204L0 24647876v-1757500zm0 53835015 659535-499849 995680-800914 4843-4016c83387-69331 135710-174333 134411-291027-2598-205514-171262-370043-376894-367445-88702 1063-169726 33071-233034 85749l-4016 4016-1003830 817923s-75355 62717-176695 56693v-1743445l1819272-1425606 1591554 1214541 4724 2049117-1609742 1278086L0 78482891v-1757500zm0 16150575 659535-499848 995680-800915 4843-4134c83387-69213 135710-174332 134411-291026-2598-205515-171262-370044-376894-367327-88702 944-169726 33071-233034 85630l-4016 4134-1003830 817923s-75355 62717-176695 56693v-1743444l1819272-1425607 1591554 1214541 4724 2049000-1609742 1278203L0 94633348v-1757382zm0 16150457 659535-499848 995680-800914 4843-4134c83387-69096 135710-174215 134411-290909-2598-205514-171262-370044-376894-367445-88702 945-169726 33071-233034 85749l-4016 4016-1003830 817922s-75355 62717-176695 56694v-1743327l1819272-1425725 1591554 1214542 4724 2049117-1609742 1278085L0 110783805v-1757382zm0 16150458 659535-499731 995680-801032 4843-4134c83387-69095 135710-174097 134411-290909-2598-205514-171262-370043-376894-367445-88702 1063-169726 33071-233034 85749l-4016 4134-1003830 817804s-75355 62836-176695 56694v-1743327l1819272-1425606 1591554 1214541 4724 2048999-1609742 1278204L0 126934381v-1757500zm0 16150457 659535-499730 995680-800915 4843-4134c83387-69213 135710-174214 134411-291027-2598-205514-171262-369925-376894-367445-88702 1063-169726 33190-233034 85749l-4016 4134-1003830 817923s-75355 62835-176695 56693v-1743444l1819272-1425607 1591554 1214541 4724 2049118-1609742 1278085L0 143084838v-1757500zm0 16150575 659535-499848 995680-800915 4843-4015c83387-69332 135710-174333 134411-291027-2598-205514-171262-370044-376894-367445-88702 945-169726 33071-233034 85749l-4016 4015-1003830 817923s-75355 62717-176695 56694v-1743327l1819272-1425725 1591554 1214541 4724 2049118-1609742 1278203L0 159235413v-1757500zm0 16150576 659535-499849 995680-800914 4843-4134c83387-69213 135710-174333 134411-291027-2598-205514-171262-369925-376894-367445-88702 1063-169726 33189-233034 85749l-4016 4134-1003830 817922s-75355 62718-176695 56694v-1743445l1819272-1425606 1591554 1214541 4724 2049117-1609742 1278086L0 175385870v-1757381zm0 16150457 659535-499848 995680-800915 4843-4134c83387-69095 135710-174214 134411-290909-2598-205514-171262-370043-376894-367563-88702 1181-169726 33190-233034 85867l-4016 4016-1003830 817923s-75355 62835-176695 56693v-1743326l1819272-1425607 1591554 1214423 4724 2049118-1609742 1278085L0 191536446v-1757500zM3538622 35503982l-1001113-781780c-152600-119293 0-231145 0-231145l3365471-2550619 995798-800914 4725-4134c83505-69096 135828-174215 134529-290909-2599-205632-171380-370044-376894-367563-88702 1063-169845 33189-233034 85749l-4016 4134-1003830 817922s-154372 128505-318075 0l-1005483-788040 2966135-2324318 1591554 1214541 4724 2049118-1609742 1278085-3510749 2689873zm0 16150457-1001113-781662c-152600-119293 0-231262 0-231262l3365471-2550620 995798-800914 4725-4134c83505-69095 135828-174097 134529-290909-2599-205514-171380-370043-376894-367563-88702 1063-169845 33189-233034 85867l-4016 4016-1003830 817922s-154372 128506-318075 0l-1005483-787922 2966135-2324317 1591554 1214423 4724 2049235-1609742 1277968-3510749 2689872zm0-37684439-1001113-781781c-152600-119292 0-231144 0-231144l3365471-2550619 995798-800915 4725-4134c83505-69213 135828-174332 134529-291027-2599-205514-171380-370043-376894-367563-88702 1063-169845 33308-233034 85867l-4016 4134-1003830 817923s-154372 128505-318075 0l-1005483-788041 2966135-2324317 1591554 1214541 4724 2049118-1609742 1278085-3510749 2689873zm0 53835015-1001113-781781c-152600-119174 0-231144 0-231144l3365471-2550619 995798-800915 4725-4134c83505-69213 135828-174214 134529-291027-2599-205514-171380-370043-376894-367327-88702 945-169845 33072-233034 85631l-4016 4134-1003830 817923s-154372 128505-318075 0l-1005483-788041 2966135-2324317 1591554 1214541 4724 2049118-1609742 1278085-3510749 2689873zm0-37684558-1001113-781662c-152600-119293 0-231263 0-231263l3365471-2550619 995798-800915 4725-4015c83505-69332 135828-174215 134529-291145-2599-205396-171380-369926-376894-367445-88702 944-169845 33189-233034 85867l-4016 4015-1003830 817923s-154372 128505-318075 0l-1005483-787922 2966135-2324436 1591554 1214541 4724 2049118-1609742 1278203-3510749 2689755zm0 53835015-1001113-781662c-152600-119175 0-231263 0-231263l3365471-2550619 995798-800915 4725-4015c83505-69214 135828-174215 134529-291027-2599-205514-171380-370044-376894-367445-88702 945-169845 33189-233034 85631l-4016 4133-1003830 817923s-154372 128505-318075 0l-1005483-787922 2966135-2324436 1591554 1214541 4724 2049118-1609742 1278203-3510749 2689755zm0 16150457-1001113-781662c-152600-119175 0-231144 0-231144l3365471-2550620 995798-800914 4725-4134c83505-69214 135828-174333 134529-291027-2599-205514-171380-369925-376894-367445-88702 1063-169845 33189-233034 85749l-4016 4134-1003830 817804s-154372 128624-318075 0l-1005483-787922 2966135-2324317 1591554 1214541 4724 2049117-1609742 1278086-3510749 2689754zm0 16150576-1001113-781781c-152600-119293 0-231144 0-231144l3365471-2550619 995798-800915 4725-4134c83505-69095 135828-174214 134529-290909-2599-205514-171380-370043-376894-367563-88702 1063-169845 33190-233034 85749l-4016 4134-1003830 817923s-154372 128505-318075 0l-1005483-787923 2966135-2324435 1591554 1214541 4724 2048999-1609742 1278204-3510749 2689873zm0 16150575-1001113-781781c-152600-119292 0-231144 0-231144l3365471-2550737 995798-800797 4725-4134c83505-69213 135828-174332 134529-291026-2599-205515-171380-370044-376894-367445-88702 1063-169845 33189-233034 85749l-4016 4133-1003830 817923s-154372 128387-318075 0l-1005483-788040 2966135-2324318 1591554 1214423 4724 2049118-1609742 1278203-3510749 2689873zm0 16150457-1001113-781662c-152600-119293 0-231263 0-231263l3365471-2550619 995798-800914 4725-4134c83505-69214 135828-174215 134529-291027-2599-205396-171380-369926-376894-367445-88702 1063-169845 33189-233034 85749l-4016 4134-1003830 817922s-154372 128506-318075 0l-1005483-788040 2966135-2324318 1591554 1214542 4724 2049117-1609742 1278085-3510749 2689873zm0 16150457-1001113-781662c-152600-119174 0-231144 0-231144l3365471-2550738 995798-800914 4725-4016c83505-69213 135828-174333 134529-291027-2599-205514-171380-370043-376894-367445-88702 1063-169845 33071-233034 85749l-4016 4134-1003830 817805s-154372 128623-318075 0l-1005483-787923 2966135-2324317 1591554 1214423 4724 2049236-1609742 1278085-3510749 2689754zm0 16150576-1001113-781781c-152600-119174 0-231144 0-231144l3365471-2550619 995798-800915 4725-4134c83505-69213 135828-174214 134529-291027-2599-205514-171380-369925-376894-367445-88702 1063-169845 33190-233034 85749l-4016 4134-1003830 817923s-154372 128505-318075 0l-1005483-788040 2966135-2324318 1591554 1214541 4724 2049118-1609742 1278085-3510749 2689873zm0-139971063-1001113-781780c-152600-119293 0-231145 0-231145l3365471-2550619 995798-800914 4725-4134c83505-69214 135828-174215 134529-291027-2599-205514-171380-370044-376894-367445-88702 945-169845 33071-233034 85749l-4016 4134-1003830 817922s-154372 128506-318075 0l-1005483-788040 2966135-2324318 1591554 1214542 4724 2049117-1609742 1278085-3510749 2689873zm0-37684558-1001113-781780c-152600-119175 0-231144 0-231144L5427226 0h2268333l-646188 513077-3510749 2689872zm0 53835015-1001113-781662c-152600-119293 0-231262 0-231262l3365471-2550620 995798-800914 4725-4134c83505-69213 135828-174096 134529-290909-2599-205514-171380-370043-376894-367563-88702 945-169845 33189-233034 85749l-4016 4134-1003830 817922s-154372 128506-318075 0l-1005483-788040 2966135-2324317 1591554 1214541 4724 2049117-1609742 1278204-3510749 2689754zm0-37684557-1001113-781663c-152600-119292 0-231262 0-231262l3365471-2550619 995798-800797 4725-4134c83505-69213 135828-174332 134529-291027-2599-205514-171380-370043-376894-367445-88702 945-169845 33190-233034 85749l-4016 4016-1003830 818041s-154372 128387-318075 0l-1005483-788041 2966135-2324317 1591554 1214423 4724 2049118-1609742 1278203-3510749 2689755zm0 53835133-1001113-781781c-152600-119174 0-231144 0-231144l3365471-2550737 995798-800915 4725-4016c83505-69213 135828-174214 134529-291027-2599-205514-171380-370043-376894-367445-88702 1063-169845 33190-233034 85749l-4016 4134-1003830 817923s-154372 128505-318075 0l-1005483-788040 2966135-2324318 1591554 1214423 4724 2049236-1609742 1278085-3510749 2689873zm0 16150457-1001113-781780c-152600-119293 0-231145 0-231145l3365471-2550619 995798-800914 4725-4134c83505-69096 135828-174333 134529-290909-2599-205514-171380-370044-376894-367563-88702 1063-169845 33189-233034 85867l-4016 4016-1003830 817922s-154372 128506-318075 0l-1005483-788040 2966135-2324318 1591554 1214542 4724 2048999-1609742 1278203-3510749 2689873zm0 16150575-1001113-781780c-152600-119293 0-231144 0-231144l3365471-2550738 995798-800796 4725-4134c83505-69213 135828-174333 134529-291027-2599-205514-171380-370043-376894-367445-88702 945-169845 33189-233034 85749l-4016 4134-1003830 817923s-154372 128505-318075 0l-1005483-788041 2966135-2324317 1591554 1214541 4724 2048999-1609742 1278204-3510749 2689872zm0 16150458-1001113-781663c-152600-119292 0-231262 0-231262l3365471-2550619 995798-800915 4725-4134c83505-69213 135828-174332 134529-291027-2599-205396-171380-369925-376894-367445-88702 945-169845 33190-233034 85749l-4016 4134-1003830 817923s-154372 128505-318075 0l-1005483-788041 2966135-2324317 1591554 1214541 4724 2049000-1609742 1278203-3510749 2689873zm0 16150457-1001113-781662c-152600-119293 0-231145 0-231145l3365471-2550737 995798-800915 4725-4015c83505-69214 135828-174333 134529-291027-2599-205514-171380-370044-376894-367445-88702 1063-169845 33071-233034 85749l-4016 4134-1003830 817804s-154372 128505-318075 0l-1005483-788040 2966135-2324200 1591554 1214423 4724 2049236-1609742 1277967-3510749 2689873zm0 16150457-1001113-781662c-152600-119175 0-231144 0-231144l3365471-2550620 995798-800914 4725-4134c83505-69213 135828-174333 134529-291027-2599-205514-171380-369925-376894-367445-88702 1063-169845 33189-233034 85749l-4016 4134-1003830 817922s-154372 128506-318075 0l-1005483-788040 2966135-2324317 1591554 1214541 4724 2049117-1609742 1278086-3510749 2689754zm0 16150576-1001113-781663c-152600-119174 0-231262 0-231262l3365471-2550619 995798-800915 4725-4016c83505-69331 135828-174332 134529-291027-2599-205514-171380-370043-376894-367445-88702 945-169845 33072-233034 85631l-4016 4134-1003830 817923s-154372 128505-318075 0l-1005483-787923 2966135-2324435 1591554 1214541 4724 2049118-1609742 1278203-3510749 2689755zm0 16150575-1001113-781780c-152600-119175 0-231145 0-231145l3365471-2550737 995798-800797 4725-4133c83505-69214 135828-174333 134529-291027-2599-205515-171380-369926-376894-367445-88702 1063-169845 33189-233034 85749l-4016 4133-1003830 817923s-154372 128505-318075 0l-1005483-788040 2966135-2324318 1591554 1214423 4724 2049236-1609742 1278085-3510749 2689873zm0-139971063-1001113-781780c-152600-119293 0-231263 0-231263l3365471-2550619 995798-800914 4725-4016c83505-69214 135828-174215 134529-291027-2599-205514-171380-369925-376894-367563-88702 1063-169845 33307-233034 85867l-4016 4134-1003830 817922s-154372 128506-318075 0l-1005483-788040 2966135-2324317 1591554 1214423 4724 2049117-1609742 1278204-3510749 2689872zm0-37684557-1001113-781663c-152600-119411 0-231262 0-231262l2054905-1557419v-183546h242247l1068319-809654 995798-800915 4725-4134c83505-69213 135828-174333 134529-291027-2599-205514-171380-369925-376894-367445-88702 945-169845 33189-233034 85749l-4016 4134-1003830 817923s-154372 128505-318075 0l-1005483-788041 2966135-2324317 1591554 1214541 4724 2048999-1609742 1278204-3510749 2689873zm0 53835015-1001113-781663c-152600-119411 0-231262 0-231262l3365471-2550619 995798-800915 4725-4134c83505-69213 135828-174214 134529-290909-2599-205514-171380-370043-376894-367563-88702 1181-169845 33189-233034 85867l-4016 4016-1003830 817923s-154372 128505-318075 0l-1005483-788041 2966135-2324317 1591554 1214541 4724 2049118-1609742 1278085-3510749 2689873zm0-37684558-1001113-781663c-152600-119292 0-231262 0-231262l3365471-2550619 995798-800915 4725-4134c83505-69095 135828-174214 134529-290908-2599-205515-171380-370044-376894-367564-88702 1063-169845 33190-233034 85867l-4016 4016-1003830 817923s-154372 128505-318075 0l-1005483-788040 2966135-2324200 1591554 1214541 4724 2049118-1609742 1277967-3510749 2689873zm0 53835015-1001113-781663c-152600-119174 0-231262 0-231262l3365471-2550619 995798-800915 4725-4016c83505-69213 135828-174332 134529-291026-2599-205515-171380-370044-376894-367445-88702 1063-169845 33071-233034 85749l-4016 4133-1003830 817805s-154372 128505-318075 0l-1005483-787922 2966135-2324436 1591554 1214541 4724 2049118-1609742 1278085-3510749 2689873zm0 16150575-1001113-781662c-152600-119293 0-231263 0-231263l3365471-2550619 995798-800914 4725-4134c83505-69214 135828-174333 134529-291027-2599-205396-171380-370044-376894-367327-88702 945-169845 33071-233034 85631l-4016 4134-1003830 817922s-154372 128506-318075 0l-1005483-788040 2966135-2324318 1591554 1214542 4724 2049117-1609742 1278085-3510749 2689873zm0 16150457-1001113-781662c-152600-119293 0-231262 0-231262l3365471-2550620 995798-800914 4725-4134c83505-69095 135828-174215 134529-290909-2599-205514-171380-370043-376894-367563-88702 1063-169845 33189-233034 85867l-4016 4134-1003830 817805s-154372 128505-318075 0l-1005483-788041 2966135-2324199 1591554 1214423 4724 2049117-1609742 1278204-3510749 2689754zm0 16150576-1001113-781781c-152600-119174 0-231144 0-231144l3365471-2550619 995798-800915 4725-4134c83505-69213 135828-174332 134529-291027-2599-205514-171380-370043-376894-367445-88702 1063-169845 33190-233034 85749l-4016 4134-1003830 817923s-154372 128505-318075 0l-1005483-788040 2966135-2324318 1591554 1214541 4724 2049000-1609742 1278203-3510749 2689873zm0 16150457-1001113-781662c-152600-119293 0-231263 0-231263l3365471-2550619 995798-800914 4725-4016c83505-69332 135828-174333 134529-291145-2599-205396-171380-369926-376894-367327-88702 945-169845 33071-233034 85749l-4016 4016-1003830 817922s-154372 128506-318075 0l-1005483-787922 2966135-2324436 1591554 1214542 4724 2049117-1609742 1278085-3510749 2689873zm0 16150575-1001113-781780c-152600-119175 0-231262 0-231262l3365471-2550502 995798-800914 4725-4134c83505-69213 135828-174333 134529-291027-2599-205514-171380-370043-376894-367445-88702 1063-169845 33189-233034 85749l-4016 4134-1003830 817923s-154372 128387-318075 0l-1005483-788041 2966135-2324317 1591554 1214541 4724 2048999-1609742 1278204-3510749 2689872zm0 16150458-1001113-781663c-152600-119292 0-231262 0-231262l3365471-2550619 995798-800915 4725-4134c83505-69213 135828-174214 134529-290909-2599-205514-171380-370043-376894-367563-88702 1181-169845 33190-233034 85867l-4016 4016-1003830 817923s-154372 128505-318075 0l-1005483-788041 2966135-2324317 1591554 1214541 4724 2049118-1609742 1278085-3510749 2689873zm0 16150457-1001113-781662c-152600-119175 0-231263 0-231263l3365471-2550501 995798-801033 4725-4133c83505-69096 135828-174215 134529-290909-2599-205514-171380-370044-376894-367445-88702 1063-169845 33071-233034 85749l-4016 4134-1003830 817804s-154372 128505-318075 0l-1005483-787922 2966135-2324318 1591554 1214542 4724 2048999-1609742 1278203-3510749 2689755z"
    style="fill:#f9f5ed;fill-rule:nonzero"
  /></svg>
